<svg width="177" height="100" viewBox="0 0 177 100" fill="none" xmlns="http://www.w3.org/2000/svg">
<path d="M75.5461 40.6212C75.5461 40.4688 75.5461 38.2515 75.5461 38.2515H74.2285C74.2285 38.2515 74.2285 40.4344 74.2285 40.5033C74.2285 40.9064 73.8549 41.1768 73.2256 41.1768C72.5668 41.1768 72.2079 40.9162 72.2079 40.4983C72.2079 40.4295 72.2079 38.2515 72.2079 38.2515H70.8755C70.8755 38.2515 70.8755 40.3213 70.8755 40.4983C70.8755 41.6684 71.8342 42.165 73.1715 42.165C74.6022 42.165 75.5461 41.6635 75.5461 40.6212Z" fill="#76787F"/>
<path d="M79.9832 42.1109V41.0834H77.6332V38.2515H76.3008V42.1109H79.9832Z" fill="#76787F"/>
<path d="M83.9431 39.2201V38.2515H79.3364V39.2201H80.9637V42.1109H82.3108V39.2201H83.9431Z" fill="#76787F"/>
<path d="M85.7143 42.1109V38.2515H84.3623V42.1109H85.7143Z" fill="#76787F"/>
<path d="M91.9171 42.1109V38.2515H90.2504L89.1983 40.5672L88.1954 38.2515H86.4746V42.1109H87.7283V40.0264L88.6329 42.1109H89.7539L90.6683 40.0264V42.1109H91.9171Z" fill="#76787F"/>
<path d="M94.0056 41.398H96.0902L96.4295 42.1109H97.8503L95.9034 38.2515H94.3154L92.2554 42.1109H93.6467L94.0056 41.398ZM95.6723 40.5327H94.4383L94.925 39.6035L95.0725 39.2496L95.2102 39.5986L95.6723 40.5327Z" fill="#76787F"/>
<path d="M102.029 39.2201V38.2515H97.4224V39.2201H99.0497V42.1109H100.397V39.2201H102.029Z" fill="#76787F"/>
<path d="M106.509 42.1109V41.1522H103.742V40.6507H106.396V39.7117H103.742V39.2151H106.475V38.2515H102.444V42.1109H106.509Z" fill="#76787F"/>
<path d="M80.9231 44.1621H79.6497C79.6497 44.1621 78.8188 46.5908 78.8188 46.6498C78.8188 46.5908 78.042 44.1621 78.042 44.1621H76.6605C76.6605 44.1621 75.8886 46.5908 75.8886 46.6498C75.8886 46.5908 75.0528 44.1621 75.0528 44.1621H73.6221L75.0676 48.0215H76.5081C76.5081 48.0215 77.2849 45.7157 77.2898 45.6518C77.2947 45.7157 78.0666 48.0215 78.0666 48.0215H79.512L80.9231 44.1621Z" fill="#76787F"/>
<path d="M82.6655 48.0215V44.1621H81.3135V48.0215H82.6655Z" fill="#76787F"/>
<path d="M87.9244 48.0215V44.1621H86.6658V46.2614L84.8123 44.1621H83.4258V48.0215H84.6943V45.873L86.6068 48.0215H87.9244Z" fill="#76787F"/>
<path d="M93.1914 48.0215V44.1621H91.9328V46.2614L90.0793 44.1621H88.6929V48.0215H89.9613V45.873L91.8738 48.0215H93.1914Z" fill="#76787F"/>
<path d="M98.0259 48.0215V47.0628H95.258V46.5613H97.9128V45.6223H95.258V45.1257H97.9915V44.1621H93.96V48.0215H98.0259Z" fill="#76787F"/>
<path d="M103.223 45.3371C103.223 44.9881 103.139 44.7373 102.962 44.5554C102.731 44.3096 102.333 44.1621 101.723 44.1621H98.6504V48.0215H99.9631V46.6597H101.158L102.117 48.0215H103.582L102.417 46.4482C102.677 46.4089 102.889 46.2516 103.026 46.0648C103.149 45.8927 103.223 45.637 103.223 45.3371ZM101.945 45.46C101.945 45.524 101.935 45.6026 101.9 45.6616C101.851 45.7599 101.723 45.7993 101.512 45.7993H99.968V45.0962H101.487C101.694 45.0962 101.832 45.1306 101.9 45.2585C101.935 45.3076 101.945 45.3863 101.945 45.46Z" fill="#76787F"/>
<path d="M76.1003 51.8185C76.1003 51.7554 76.1003 49.9326 76.1003 49.9326H75.64C75.64 49.9326 75.64 51.7479 75.64 51.7888C75.64 52.2268 75.2279 52.4756 74.6339 52.4756C73.9323 52.4756 73.587 52.2083 73.587 51.7851C73.587 51.7442 73.587 49.9326 73.587 49.9326H73.123C73.123 49.9326 73.123 51.6997 73.123 51.7702C73.123 52.5424 73.7244 52.8839 74.6154 52.8839C75.536 52.8839 76.1003 52.5201 76.1003 51.8185Z" fill="#76787F"/>
<path d="M79.4031 52.8468V52.4199H77.3947V49.9326H76.9307V52.8468H79.4031Z" fill="#76787F"/>
<path d="M82.04 50.3558V49.9326H78.9438V50.3558H80.258V52.8468H80.7258V50.3558H82.04Z" fill="#76787F"/>
<path d="M85.3396 50.7567C85.3396 50.5488 85.295 50.3966 85.2171 50.2741C85.0797 50.0699 84.8161 49.9326 84.3781 49.9326H82.4922V52.8468H82.9488V51.618H84.2778L85.0908 52.8468H85.6254L84.7456 51.54C84.9683 51.5141 85.1428 51.3878 85.2356 51.2245C85.3025 51.1131 85.3396 50.9498 85.3396 50.7567ZM84.8792 50.7938C84.8792 50.8755 84.8607 50.9758 84.8273 51.0426C84.7679 51.1502 84.6305 51.2059 84.4078 51.2096H82.9525C82.9525 51.2022 82.9525 50.3484 82.9525 50.3484H84.3224C84.6008 50.3484 84.7493 50.4152 84.8273 50.5414C84.8607 50.6008 84.8792 50.701 84.8792 50.7938Z" fill="#76787F"/>
<path d="M86.6604 52.1266H88.4758L88.847 52.8468H89.3445L87.8669 49.9326H87.3212L85.7954 52.8468H86.2817L86.6604 52.1266ZM88.2827 51.7145H86.8609L87.4511 50.5971L87.5811 50.3261L87.711 50.5971L88.2827 51.7145Z" fill="#76787F"/>
<path d="M94.0528 52.5684C94.1679 52.4347 94.2199 52.2454 94.2199 52.0412C94.2199 51.8482 94.1642 51.6551 94.0491 51.5363C93.934 51.425 93.7484 51.3322 93.5442 51.3136C93.663 51.295 93.7558 51.2208 93.8189 51.1428C93.9192 51.0277 93.9785 50.8421 93.9785 50.6565C93.9785 50.4597 93.9192 50.2815 93.7929 50.159C93.6556 50.0217 93.4217 49.9326 93.095 49.9326H91.1348V52.8468H93.2398C93.6333 52.8468 93.908 52.7466 94.0528 52.5684ZM93.4996 50.7493C93.4996 50.8792 93.4588 50.9943 93.3883 51.0611C93.3177 51.1391 93.1989 51.1725 93.0727 51.1725H91.5877V50.3335H92.9873C93.1581 50.3335 93.288 50.3669 93.3771 50.4486C93.4551 50.5228 93.4996 50.6305 93.4996 50.7493ZM93.6481 52.2862C93.5553 52.3902 93.3957 52.4422 93.1618 52.4422H91.5877V51.5772H93.173C93.3883 51.5772 93.5368 51.6217 93.6259 51.7071C93.7075 51.7851 93.741 51.8853 93.741 52.0004C93.741 52.1192 93.715 52.2194 93.6481 52.2862Z" fill="#76787F"/>
<path d="M97.5905 52.8468V52.4199H95.326V51.5883H97.5014V51.1651H95.326V50.3558H97.5645V49.9326H94.873V52.8468H97.5905Z" fill="#76787F"/>
<path d="M101.217 51.9859C101.217 51.5107 100.902 51.2657 100.126 51.1766C99.9955 51.1581 99.7133 51.1284 99.5611 51.1098C98.8409 51.0244 98.6219 50.9279 98.6219 50.6792C98.6219 50.4379 98.8632 50.3005 99.5908 50.3005C100.155 50.3005 100.445 50.4119 100.59 50.6123C100.631 50.668 100.653 50.7349 100.664 50.7868H101.161C101.147 50.7014 101.113 50.5826 101.061 50.4861C100.861 50.1409 100.449 49.8921 99.5908 49.8921C98.5662 49.8884 98.143 50.2597 98.143 50.72C98.143 51.1803 98.4734 51.4142 99.331 51.5145C99.4795 51.533 99.743 51.5627 99.873 51.5776C100.538 51.6592 100.746 51.7595 100.746 52.0379C100.746 52.2941 100.508 52.4797 99.7467 52.4797C99.1231 52.4797 98.7889 52.3683 98.6553 52.153C98.6145 52.0936 98.5885 52.0008 98.5848 51.9377H98.0947C98.1059 52.0713 98.143 52.2161 98.2098 52.3312C98.4029 52.6839 98.8558 52.8881 99.7319 52.8881C100.779 52.8881 101.217 52.5502 101.217 51.9859Z" fill="#76787F"/>
<path d="M104.546 50.3558V49.9326H101.45V50.3558H102.764V52.8468H103.232V50.3558H104.546Z" fill="#76787F"/>
<path d="M71.8088 55.3798C71.8088 55.0828 71.7494 54.8823 71.6491 54.7301C71.5081 54.511 71.2333 54.396 70.7544 54.396H68.9131V57.3102H69.3734V56.3598C69.3734 56.3598 70.6728 56.3598 70.7359 56.3598C71.1851 56.3561 71.4932 56.2522 71.6566 56.0146C71.7605 55.8698 71.8088 55.6619 71.8088 55.3798ZM71.341 55.3798C71.341 55.5282 71.3261 55.6396 71.2779 55.7139C71.1925 55.8512 71.018 55.9366 70.6579 55.9366C70.6245 55.9366 69.3734 55.9366 69.3734 55.9366V54.8118H70.6728C71.0106 54.8118 71.1851 54.8897 71.2779 55.0419C71.3224 55.1087 71.341 55.2313 71.341 55.3798Z" fill="#76787F"/>
<path d="M75.1692 57.3102V56.8833H72.9046V56.0517H75.0801V55.6285H72.9046V54.8192H75.1432V54.396H72.4517V57.3102H75.1692Z" fill="#76787F"/>
<path d="M78.7102 55.2201C78.7102 55.0122 78.6657 54.86 78.5877 54.7375C78.4503 54.5333 78.1868 54.396 77.7487 54.396H75.8628V57.3102H76.3194V56.0814H77.6485L78.4615 57.3102H78.9961L78.1162 56.0034C78.339 55.9775 78.5135 55.8512 78.6063 55.6879C78.6731 55.5765 78.7102 55.4132 78.7102 55.2201ZM78.2499 55.2572C78.2499 55.3389 78.2313 55.4392 78.1979 55.506C78.1385 55.6136 78.0011 55.6693 77.7784 55.673H76.3231C76.3231 55.6656 76.3231 54.8118 76.3231 54.8118H77.693C77.9714 54.8118 78.1199 54.8786 78.1979 55.0048C78.2313 55.0642 78.2499 55.1644 78.2499 55.2572Z" fill="#76787F"/>
<path d="M82.1523 54.8192V54.396H79.561V57.3102H80.0213V56.0703H82.0558V55.6359H80.0213V54.8192H82.1523Z" fill="#76787F"/>
<path d="M84.2653 54.3442C83.6453 54.3442 83.2184 54.4964 82.9139 54.8157C82.6578 55.0644 82.5464 55.4097 82.5464 55.844C82.5464 56.3192 82.6912 56.6756 82.9585 56.9169C83.2444 57.2028 83.6824 57.3512 84.2653 57.3512C84.8667 57.3512 85.3344 57.2028 85.6129 56.902C85.8542 56.657 85.9804 56.3081 85.9804 55.8403C85.9804 55.3874 85.8727 55.0421 85.6166 54.7971C85.3233 54.4927 84.8852 54.3442 84.2653 54.3442ZM84.2653 56.9355C83.8569 56.9355 83.5673 56.8464 83.3483 56.6682C83.1256 56.4863 83.0179 56.2078 83.0179 55.8514C83.0179 55.5173 83.1107 55.2389 83.2889 55.0718C83.4931 54.8788 83.8049 54.7637 84.2616 54.7637C84.733 54.7637 85.0263 54.8751 85.2453 55.0681C85.431 55.2315 85.5126 55.521 85.5126 55.8477C85.5126 56.1781 85.4273 56.4603 85.2379 56.631C85.0189 56.8352 84.7108 56.9355 84.2653 56.9355Z" fill="#76787F"/>
<path d="M89.4636 55.2201C89.4636 55.0122 89.419 54.86 89.3411 54.7375C89.2037 54.5333 88.9401 54.396 88.5021 54.396H86.6162V57.3102H87.0728V56.0814H88.4018L89.2149 57.3102H89.7494L88.8696 56.0034C89.0923 55.9775 89.2668 55.8512 89.3596 55.6879C89.4265 55.5765 89.4636 55.4132 89.4636 55.2201ZM89.0032 55.2572C89.0032 55.3389 88.9847 55.4392 88.9513 55.506C88.8919 55.6136 88.7545 55.6693 88.5318 55.673H87.0765C87.0765 55.6656 87.0765 54.8118 87.0765 54.8118H88.4464C88.7248 54.8118 88.8733 54.8786 88.9513 55.0048C88.9847 55.0642 89.0032 55.1644 89.0032 55.2572Z" fill="#76787F"/>
<path d="M93.9039 57.3102V54.396H93.3025L92.1034 56.7942L90.9265 54.396H90.314V57.3102H90.7558V55.0679L91.8546 57.3102H92.3372L93.4621 55.0679V57.3102H93.9039Z" fill="#76787F"/>
<path d="M95.2073 56.59H97.0227L97.3939 57.3102H97.8914L96.4138 54.396H95.8681L94.3423 57.3102H94.8286L95.2073 56.59ZM96.8296 56.1779H95.4078L95.998 55.0605L96.128 54.7895L96.2579 55.0605L96.8296 56.1779Z" fill="#76787F"/>
<path d="M101.236 57.3102V54.396H100.794V56.6605L98.8638 54.396H98.3403V57.3102H98.7895V55.0308L100.735 57.3102H101.236Z" fill="#76787F"/>
<path d="M105.241 56.2227H104.758C104.743 56.3563 104.691 56.49 104.598 56.5902C104.398 56.8241 104.079 56.9243 103.589 56.9243C103.177 56.9243 102.735 56.8092 102.523 56.5085C102.412 56.3675 102.341 56.1596 102.341 55.8477C102.341 55.5693 102.39 55.3614 102.497 55.2203C102.675 54.9345 103.05 54.786 103.578 54.786C104.09 54.786 104.413 54.927 104.584 55.1238C104.68 55.2277 104.736 55.3503 104.754 55.495H105.237C105.222 55.3317 105.17 55.1386 105.059 54.9753C104.821 54.6226 104.383 54.3442 103.581 54.3442C102.817 54.3442 102.36 54.5892 102.107 54.9567C101.944 55.1683 101.862 55.4653 101.862 55.844C101.862 56.2672 101.963 56.5791 102.137 56.7981C102.39 57.1434 102.876 57.3512 103.611 57.3512C104.365 57.3512 104.814 57.1248 105.037 56.7647C105.163 56.5902 105.226 56.3823 105.241 56.2227Z" fill="#76787F"/>
<path d="M108.563 57.3102V56.8833H106.298V56.0517H108.474V55.6285H106.298V54.8192H108.537V54.396H105.845V57.3102H108.563Z" fill="#76787F"/>
<path d="M74.6117 60.2056L75.1669 61.9144H76.9636L75.5101 62.9705L76.0653 64.6792L74.6117 63.6232L73.1581 64.6792L73.7134 62.9705L72.2598 61.9144H74.0565L74.6117 60.2056Z" fill="#76787F"/>
<path d="M81.0215 60.2056L81.588 61.9143H83.4214L81.9382 62.9704L82.5047 64.6792L81.0215 63.6231L79.5383 64.6792L80.1048 62.9704L78.6216 61.9143H80.455L81.0215 60.2056Z" fill="#76787F"/>
<path d="M87.3804 60.2056L87.947 61.9143H89.7803L88.2971 62.9704L88.8637 64.6792L87.3804 63.6231L85.8972 64.6792L86.4637 62.9704L84.9805 61.9143H86.8139L87.3804 60.2056Z" fill="#76787F"/>
<path d="M93.7393 60.2056L94.3058 61.9143H96.1392L94.656 62.9704L95.2225 64.6792L93.7393 63.6231L92.2561 64.6792L92.8226 62.9704L91.3394 61.9143H93.1728L93.7393 60.2056Z" fill="#76787F"/>
<path d="M100.149 60.2056L100.704 61.9143H102.501L101.047 62.9704L101.602 64.6792L100.149 63.6231L98.6952 64.6792L99.2505 62.9704L97.7969 61.9143H99.5936L100.149 60.2056Z" fill="#76787F"/>
<path d="M77.726 31.376L78.1458 32.668H79.5043L78.4053 33.4665L78.8251 34.7584L77.726 33.96L76.627 34.7584L77.0468 33.4665L75.9478 32.668H77.3063L77.726 31.376Z" fill="#76787F"/>
<path d="M82.5724 31.3745L83.0008 32.6665H84.3869L83.2655 33.465L83.6938 34.7569L82.5724 33.9584L81.4509 34.7569L81.8793 33.465L80.7578 32.6665H82.144L82.5724 31.3745Z" fill="#76787F"/>
<path d="M87.38 31.3745L87.8083 32.6665H89.1945L88.0731 33.465L88.5014 34.7569L87.38 33.9584L86.2585 34.7569L86.6869 33.465L85.5654 32.6665H86.9516L87.38 31.3745Z" fill="#76787F"/>
<path d="M92.1886 31.3745L92.6169 32.6665H94.0031L92.8817 33.465L93.31 34.7569L92.1886 33.9584L91.0671 34.7569L91.4955 33.465L90.374 32.6665H91.7602L92.1886 31.3745Z" fill="#76787F"/>
<path d="M97.0341 31.3745L97.4539 32.6665H98.8124L97.7134 33.465L98.1332 34.7569L97.0341 33.9584L95.9351 34.7569L96.3549 33.465L95.2559 32.6665H96.6143L97.0341 31.3745Z" fill="#76787F"/>
<path fill-rule="evenodd" clip-rule="evenodd" d="M58.3766 54.6303C56.524 43.0394 61.9308 31.5716 72.7549 26.647L72.8548 26.8666C62.1396 31.7416 56.7775 43.0972 58.6148 54.5922C60.6475 67.3095 70.9069 74.9365 83.4704 75.3042L83.4633 75.5454C70.8019 75.1748 60.4302 67.4788 58.3766 54.6303Z" fill="#76787F"/>
<path d="M70.4079 29.605C68.4076 29.6506 66.0665 30.7786 64.6851 32.417C65.7929 33.4457 67.5753 33.0654 68.858 32.855C70.6887 32.5548 72.6355 31.9732 74.363 31.1499C73.6527 29.6379 71.7393 29.5747 70.4079 29.605Z" fill="#76787F"/>
<path d="M68.8346 27.1377C67.6498 28.9833 66.2378 30.8176 64.7012 32.4329C63.4156 31.2261 64.1916 29.2178 64.7163 27.9689C65.6668 25.7059 67.9457 23.7544 70.3282 22.7559C70.9821 24.2436 69.5618 26.0049 68.8346 27.1377Z" fill="#76787F"/>
<path d="M64.6192 34.7806C62.7462 35.4464 61.1367 37.3206 60.3286 39.2022C61.6754 39.8284 63.2065 38.9241 64.3266 38.322C65.8646 37.4952 67.4337 36.3544 68.6683 35.0342C67.5528 33.8572 65.859 34.34 64.6192 34.7806Z" fill="#76787F"/>
<path d="M62.3491 32.9366C61.9391 35.0416 61.2517 37.2234 60.3489 39.212C58.7731 38.4688 58.8331 36.3402 58.9006 34.9856C59.0158 32.6735 60.3093 30.0369 62.1102 28.3613C63.2127 29.5433 62.6103 31.5957 62.3491 32.9366Z" fill="#76787F"/>
<path d="M61.0154 41.4624C59.4547 42.6936 58.5087 44.9753 58.2896 47.0128C59.766 47.1823 60.9461 45.8387 61.8242 44.9169C63.0197 43.6618 64.1514 42.0876 64.8701 40.4407C63.4627 39.6729 62.032 40.6604 61.0154 41.4624Z" fill="#76787F"/>
<path d="M58.3115 40.423C58.5898 42.5487 58.5904 44.8484 58.312 47.0156C56.595 46.8047 56.0255 44.7431 55.6891 43.4498C55.1083 41.2174 55.4977 38.3338 56.6291 36.1636C58.043 36.9463 58.1337 39.0643 58.3115 40.423Z" fill="#76787F"/>
<path d="M59.7905 48.7562C58.5555 50.5653 58.1212 53.4004 58.6766 55.6792C60.3086 55.2928 61.1176 53.4451 61.7672 52.1402C62.6305 50.4059 63.3602 48.3826 63.6214 46.3975C61.8513 46.0291 60.604 47.5644 59.7905 48.7562Z" fill="#76787F"/>
<path d="M56.5486 48.5731C57.5108 50.8008 58.2617 53.2527 58.7011 55.6735C56.8294 56.0756 55.4823 54.1102 54.6997 52.807C53.3064 50.4872 52.9005 47.2713 53.4109 44.4961C55.124 44.8396 55.9623 47.2161 56.5486 48.5731Z" fill="#76787F"/>
<path d="M60.6544 56.6269C59.9913 58.8215 60.4522 61.805 61.7948 63.8682C63.2702 62.9076 63.4744 60.7934 63.6835 59.2775C63.9592 57.2771 64.089 55.0611 63.7465 52.9868C61.8594 53.2277 61.0973 55.1608 60.6544 56.6269Z" fill="#76787F"/>
<path d="M57.3752 57.5664C59.0308 59.4661 60.558 61.6321 61.8175 63.854C60.1093 64.9204 58.1048 63.4635 56.8891 62.4325C54.7324 60.6036 53.332 57.4951 53 54.5645C54.7948 54.3233 56.3765 56.4203 57.3752 57.5664Z" fill="#76787F"/>
<path d="M64.1339 64.0968C64.2762 66.6513 65.9393 69.3318 68.1537 70.8575C69.2231 69.3934 68.5528 67.1501 68.188 65.5842C67.6969 63.4759 67.0172 61.2805 66.0071 59.3325C64.2457 60.2633 64.0402 62.4145 64.1339 64.0968Z" fill="#76787F"/>
<path d="M61.1558 66.2543C63.5549 67.5874 65.9471 69.1605 68.1713 70.8344C66.8393 72.5884 64.1769 71.889 62.5265 71.3252C59.6181 70.3317 57.0252 67.7127 55.6709 64.803C57.388 63.9185 59.7386 65.4668 61.1558 66.2543Z" fill="#76787F"/>
<path d="M70.9668 70.3375C72.4067 72.9653 75.688 74.6796 78.778 75.0923C79.1106 73.1819 77.0435 71.2904 75.9171 70.053C74.3134 68.2913 72.6423 66.4631 70.7687 64.9399C69.365 66.5697 70.1071 68.7686 70.9668 70.3375Z" fill="#76787F"/>
<path d="M68.9106 73.6677C72.1837 74.008 75.5123 74.4979 78.7835 75.0628C78.4712 77.4732 74.6461 77.8622 72.9096 78.0045C69.3491 78.2963 65.3883 76.8651 62.6304 74.4557C64.0002 72.8439 67.1671 73.4865 68.9106 73.6677Z" fill="#76787F"/>
<path d="M75.2147 24.6241C73.0172 25.251 70.445 26.4403 69.1743 28.6357C71.4808 28.3843 73.7477 27.5636 75.9646 26.9383C78.4478 26.2378 81.0625 25.7139 83.4667 24.747C80.8337 23.6936 77.7299 23.9065 75.2147 24.6241Z" fill="#76787F"/>
<path fill-rule="evenodd" clip-rule="evenodd" d="M117.728 54.5922C119.565 43.0972 114.203 31.7418 103.488 26.8666L103.588 26.647C114.412 31.5717 119.819 43.0394 117.966 54.6303C115.913 67.4788 105.541 75.1748 92.8796 75.5454L92.8726 75.3042C105.436 74.9365 115.695 67.3095 117.728 54.5922Z" fill="#76787F"/>
<path d="M105.935 29.605C107.935 29.6506 110.276 30.7786 111.658 32.417C110.55 33.4457 108.767 33.0654 107.485 32.855C105.654 32.5548 103.707 31.9732 101.98 31.1499C102.69 29.6379 104.603 29.5747 105.935 29.605Z" fill="#76787F"/>
<path d="M107.508 27.1377C108.693 28.9833 110.105 30.8176 111.641 32.4329C112.927 31.2261 112.151 29.2178 111.626 27.9689C110.676 25.7059 108.397 23.7544 106.014 22.7559C105.36 24.2436 106.781 26.0049 107.508 27.1377Z" fill="#76787F"/>
<path d="M111.724 34.7806C113.597 35.4464 115.206 37.3206 116.014 39.2022C114.667 39.8284 113.136 38.9241 112.016 38.322C110.478 37.4952 108.909 36.3544 107.675 35.0342C108.79 33.8572 110.484 34.34 111.724 34.7806Z" fill="#76787F"/>
<path d="M113.994 32.9366C114.404 35.0416 115.091 37.2234 115.994 39.212C117.57 38.4688 117.51 36.3402 117.442 34.9856C117.327 32.6735 116.034 30.0369 114.233 28.3613C113.13 29.5433 113.733 31.5957 113.994 32.9366Z" fill="#76787F"/>
<path d="M115.327 41.4624C116.888 42.6936 117.834 44.9753 118.053 47.0128C116.577 47.1823 115.397 45.8387 114.519 44.9169C113.323 43.6618 112.191 42.0876 111.473 40.4407C112.88 39.6729 114.311 40.6604 115.327 41.4624Z" fill="#76787F"/>
<path d="M118.032 40.423C117.753 42.5485 117.753 44.8484 118.031 47.0156C119.748 46.8047 120.318 44.7431 120.654 43.4498C121.235 41.2174 120.845 38.3338 119.714 36.1636C118.3 36.9463 118.209 39.0643 118.032 40.423Z" fill="#76787F"/>
<path d="M116.552 48.7562C117.787 50.5653 118.221 53.4004 117.666 55.6792C116.034 55.2928 115.225 53.4452 114.575 52.1402C113.712 50.4059 112.982 48.3826 112.721 46.3975C114.491 46.0291 115.739 47.5644 116.552 48.7562Z" fill="#76787F"/>
<path d="M119.794 48.5731C118.832 50.8008 118.081 53.2527 117.642 55.6735C119.513 56.0756 120.86 54.1102 121.643 52.807C123.036 50.4872 123.442 47.2713 122.932 44.4961C121.219 44.8396 120.38 47.2161 119.794 48.5731Z" fill="#76787F"/>
<path d="M115.688 56.6269C116.351 58.8215 115.891 61.805 114.548 63.8682C113.073 62.9076 112.868 60.7934 112.659 59.2775C112.384 57.2771 112.254 55.0611 112.596 52.9868C114.483 53.2277 115.245 55.1608 115.688 56.6269Z" fill="#76787F"/>
<path d="M118.967 57.5664C117.312 59.4662 115.785 61.6321 114.525 63.854C116.233 64.9204 118.238 63.4635 119.454 62.4325C121.61 60.6036 123.011 57.4951 123.343 54.5645C121.548 54.3233 119.966 56.4203 118.967 57.5664Z" fill="#76787F"/>
<path d="M112.208 64.0968C112.066 66.6513 110.403 69.3318 108.189 70.8575C107.119 69.3934 107.79 67.1502 108.154 65.5842C108.645 63.4759 109.325 61.2805 110.335 59.3325C112.097 60.2633 112.302 62.4145 112.208 64.0968Z" fill="#76787F"/>
<path d="M115.187 66.2543C112.788 67.5874 110.396 69.1605 108.172 70.8344C109.504 72.5884 112.166 71.889 113.816 71.3252C116.725 70.3317 119.318 67.7127 120.672 64.803C118.955 63.9185 116.604 65.4668 115.187 66.2543Z" fill="#76787F"/>
<path d="M105.376 70.3375C103.936 72.9653 100.655 74.6796 97.5646 75.0923C97.232 73.1819 99.299 71.2904 100.426 70.053C102.029 68.2913 103.7 66.4631 105.574 64.9399C106.978 66.5697 106.235 68.7686 105.376 70.3375Z" fill="#76787F"/>
<path d="M107.432 73.6677C104.159 74.008 100.831 74.4979 97.5591 75.0628C97.8715 77.4732 101.697 77.8622 103.433 78.0045C106.994 78.2963 110.955 76.8651 113.712 74.4557C112.343 72.8439 109.176 73.4865 107.432 73.6677Z" fill="#76787F"/>
<path d="M101.128 24.6241C103.325 25.251 105.898 26.4403 107.168 28.6357C104.862 28.3843 102.595 27.5636 100.378 26.9383C97.8949 26.2378 95.2802 25.7139 92.876 24.747C95.5091 23.6936 98.6128 23.9065 101.128 24.6241Z" fill="#76787F"/>
<path d="M89.6006 23.4879L88.4731 21L87.3668 23.4416L84.7939 21.8464L86.4472 25.3207H90.5588L92.1524 21.8464L89.6006 23.4879Z" fill="#76787F"/>
<path d="M90.5322 25.8608H86.4141V26.4685H90.5322V25.8608Z" fill="#76787F"/>
<path d="M88.7673 72.8716L89.4309 74.9138H91.5782L89.841 76.1759L90.5045 78.2181L88.7673 76.956L87.0301 78.2181L87.6937 76.1759L85.9565 74.9138H88.1038L88.7673 72.8716Z" fill="#76787F"/>
</svg>
