<svg width="177" height="100" viewBox="0 0 177 100" fill="none" xmlns="http://www.w3.org/2000/svg">
<path d="M125.798 36.3518C126.186 34.7277 125.397 33.2122 124.575 31.9837C123.67 30.6312 122.158 29.432 120.469 29C120.775 30.5328 121.668 31.8552 122.528 33.0988C123.382 34.3341 124.459 35.5854 125.798 36.3518Z" fill="#76787F"/>
<path d="M53.2077 31.9821C52.3842 33.2099 51.5936 34.7248 51.9806 36.3492C53.3201 35.5839 54.3986 34.3334 55.2537 33.0987C56.1146 31.8559 57.009 30.534 57.3159 29.0015C55.6267 29.4323 54.1142 30.6304 53.2077 31.9821Z" fill="#76787F"/>
<path d="M50.802 39.465C51.1041 38.1786 51.0974 36.7703 50.8098 35.5637C50.5569 34.5033 50.1889 33.0043 48.9777 32.4985C48.0973 33.9107 47.7434 35.8338 48.2565 37.2748C48.6275 38.3171 49.2947 39.6952 50.6784 39.9085C51.9481 40.2012 53.232 39.5239 54.246 38.9647C55.3735 38.343 56.4779 37.3539 57.1489 36.178C55.918 35.5567 54.5162 36.0609 53.4616 36.5441C52.3248 37.065 51.2805 38.1826 50.802 39.465Z" fill="#76787F"/>
<path d="M75.4431 34.2422V40.7008H73.2381V38.356H69.9306V40.7008H67.7256V34.2422H69.9306V36.5953H73.2381V34.2422H75.4431Z" fill="#76787F"/>
<path d="M82.7547 34.2422H85.19L81.7345 38.5699V40.7008H79.5213V38.5781L76.1069 34.2422H78.6162L80.6567 36.8256L82.7547 34.2422Z" fill="#76787F"/>
<path fill-rule="evenodd" clip-rule="evenodd" d="M93.5523 36.5706C93.5523 35.7232 93.3055 35.139 92.8694 34.7934C92.4498 34.4232 91.7751 34.2422 90.8866 34.2422H85.876V40.7008H88.0892V38.8908C88.0892 38.8908 90.6233 38.899 90.9195 38.8908C91.8739 38.8825 92.6061 38.6522 93.0504 38.1421C93.3795 37.78 93.5523 37.2617 93.5523 36.5706ZM91.3309 36.6035C91.3309 36.8092 91.298 36.9573 91.2321 37.0725C91.1005 37.2782 90.829 37.3851 90.3682 37.3851H88.0728V35.8054H90.3847C90.8125 35.8054 91.0758 35.9042 91.2157 36.1099C91.2897 36.2086 91.3309 36.3896 91.3309 36.6035Z" fill="#76787F"/>
<path d="M101.237 39.0964V40.7008H94.4331V34.2422H101.18V35.8548H96.6051V36.6858H101.048V38.2572H96.6051V39.0964H101.237Z" fill="#76787F"/>
<path fill-rule="evenodd" clip-rule="evenodd" d="M109.934 36.2086C109.934 35.6244 109.795 35.2048 109.498 34.9004C109.112 34.489 108.445 34.2422 107.425 34.2422H102.283V40.7008H104.48V38.4218H106.479L108.083 40.7008H110.535L108.585 38.068C109.021 38.0022 109.375 37.7389 109.605 37.4263C109.811 37.1383 109.934 36.7105 109.934 36.2086ZM107.795 36.4143C107.795 36.5212 107.779 36.6529 107.721 36.7516C107.639 36.9162 107.425 36.982 107.071 36.982H104.488V35.8054H107.03C107.376 35.8054 107.606 35.863 107.721 36.0769C107.779 36.1592 107.795 36.2909 107.795 36.4143Z" fill="#76787F"/>
<path d="M100.059 48.8016C100.059 47.3253 99.1211 46.5494 96.9335 46.3123C96.5779 46.2692 95.5326 46.1614 94.8752 46.1075C93.1833 45.9243 92.6769 45.8274 92.6769 45.3963C92.6769 45.0084 93.0756 44.8252 94.595 44.8252C95.6727 44.8252 96.2762 45.0299 96.5132 45.3424C96.6318 45.4933 96.6749 45.6118 96.6857 45.7304H99.7893C99.7569 45.4717 99.6492 45.1053 99.4767 44.7821C98.9164 43.7044 97.5693 42.8423 94.6705 42.8423C91.4052 42.8423 89.6164 43.9954 89.6164 45.5041C89.6164 46.9589 90.6293 47.8102 93.3665 48.0581C93.6824 48.0851 94.3684 48.15 94.9185 48.202L94.9246 48.2026L94.927 48.2028L95.2201 48.2305C96.6533 48.3814 97.0413 48.4783 97.0413 48.931C97.0413 49.3512 96.6641 49.5775 95.08 49.5775C93.8515 49.5775 93.1295 49.3943 92.8708 49.0818C92.7631 48.9525 92.6876 48.7585 92.6661 48.6292H89.5625C89.5948 48.8447 89.6487 49.1896 89.7672 49.4698C90.2953 50.6552 91.6747 51.5604 94.8752 51.5604C98.3129 51.5604 100.059 50.5905 100.059 48.8016Z" fill="#76787F"/>
<path fill-rule="evenodd" clip-rule="evenodd" d="M78.5419 49.0388C78.5419 49.6207 78.3803 50.1919 78.057 50.5691C77.5613 51.1725 76.6345 51.4312 75.4383 51.4312H67.9272V42.9717H75.2336C76.3974 42.9717 77.141 43.2519 77.5505 43.6722C77.9169 44.0386 78.0785 44.5235 78.0785 45.0731C78.0785 45.6227 77.9492 46.0753 77.669 46.4094C77.4427 46.6896 77.0548 46.9051 76.6453 46.959C77.2487 47.0344 77.8199 47.3361 78.1432 47.7564C78.4126 48.0689 78.5419 48.5431 78.5419 49.0388ZM74.9103 46.0753C75.018 45.9568 75.0827 45.7844 75.0827 45.5796C75.0827 45.3748 75.018 45.2024 74.8779 45.0839C74.7271 44.9438 74.4469 44.8899 74.0374 44.8899H70.7506V46.2693H74.1128C74.4792 46.2693 74.7594 46.2154 74.9103 46.0753ZM74.4253 49.513C74.9318 49.513 75.2336 49.4483 75.406 49.2867C75.5137 49.1789 75.5568 49.0173 75.5568 48.8125C75.5568 48.597 75.503 48.4353 75.3736 48.306C75.212 48.1659 74.9318 48.1013 74.4577 48.1013H70.7506V49.513H74.4253Z" fill="#76787F"/>
<path d="M88.6889 49.3298V51.4312H79.7769V42.9717H88.6135V45.0839H82.6218V46.1723H88.4411V48.2306H82.6218V49.3298H88.6889Z" fill="#76787F"/>
<path d="M110.545 42.9717V45.0947H106.967V51.4312H104.015V45.0947H100.448V42.9717H110.545Z" fill="#76787F"/>
<path d="M110.289 58.8853V58.9168H109.814L109.78 58.4594C109.635 58.691 109.328 58.9688 108.68 58.9688C107.585 58.9688 107.076 58.3087 107.076 56.6237C107.076 55.3209 107.4 54.2729 108.737 54.2729C109.896 54.2729 110.249 55.0315 110.266 55.8479H109.687C109.67 55.3152 109.432 54.823 108.749 54.823C107.927 54.823 107.689 55.3152 107.689 56.6412C107.689 58.0251 107.985 58.4594 108.761 58.4594C109.305 58.4594 109.623 58.1583 109.728 57.7993V56.9365H108.558V56.4095H110.283V57.7414C110.283 58.2199 110.288 58.737 110.289 58.8791V58.8829V58.8853Z" fill="#76787F"/>
<path fill-rule="evenodd" clip-rule="evenodd" d="M69.6579 57.7647H68.0366L67.6891 58.917H67.0811L68.5172 54.3311H69.2641L70.6075 58.917H69.9937L69.6579 57.7647ZM68.1929 57.2494H69.5131C69.5131 57.2494 68.9746 55.3849 68.9688 55.356L68.9403 55.22L68.8762 54.9159C68.8762 54.9159 68.7835 55.327 68.7777 55.356C68.7661 55.3965 68.1929 57.2494 68.1929 57.2494Z" fill="#76787F"/>
<path d="M75.0024 54.3311H75.5583L74.4755 58.917H73.7864C73.7864 58.917 73.0163 55.3502 73.0163 55.1996C73.0105 55.3502 72.223 58.917 72.223 58.917H71.534L70.4512 54.3311H71.0765C71.0765 54.3311 71.9161 57.9616 71.9161 58.1064C71.9161 57.9616 72.6863 54.3311 72.6863 54.3311H73.3753C73.3753 54.3311 74.1454 57.9674 74.1454 58.1064C74.1454 57.9674 75.0024 54.3311 75.0024 54.3311Z" fill="#76787F"/>
<path fill-rule="evenodd" clip-rule="evenodd" d="M76.3148 57.7647H77.9361L78.272 58.917H78.8858L77.5424 54.3311H76.7954L75.3594 58.917H75.9674L76.3148 57.7647ZM77.7914 57.2494H76.4712C76.4712 57.2494 77.0444 55.3965 77.056 55.356C77.0618 55.327 77.1544 54.9159 77.1544 54.9159L77.2033 55.1473L77.2471 55.356C77.2529 55.3849 77.7914 57.2494 77.7914 57.2494Z" fill="#76787F"/>
<path fill-rule="evenodd" clip-rule="evenodd" d="M81.1172 54.3311C81.8236 54.3311 82.2058 54.6611 82.2058 55.6223C82.2058 56.4388 81.8989 56.7109 81.5804 56.8035L82.4606 58.917H81.8236L81.0072 56.9194H79.8955V58.917H79.3164V54.3311H81.1172ZM81.0304 56.3982C81.4878 56.3982 81.5978 56.1608 81.5978 55.6397C81.5978 55.0491 81.4241 54.8696 81.0014 54.8696H79.9012V56.3982H81.0304Z" fill="#76787F"/>
<path fill-rule="evenodd" clip-rule="evenodd" d="M85.7483 58.4017C85.9799 58.0716 86.0609 57.6316 86.0609 56.5488C86.0609 55.5702 85.9915 55.1533 85.7599 54.8175C85.5514 54.5048 85.0998 54.3311 84.5207 54.3311H82.9863V58.917H84.5612C85.1519 58.917 85.5167 58.7202 85.7483 58.4017ZM85.2387 58.0774C85.0882 58.2801 84.7929 58.3727 84.4397 58.3727H83.5711V54.8811H84.4281C84.7813 54.8811 85.0824 54.9738 85.2387 55.188C85.4066 55.437 85.4472 55.825 85.4472 56.5488C85.4472 57.4115 85.4009 57.8574 85.2387 58.0774Z" fill="#76787F"/>
<path d="M92.1699 54.3311H92.7258L91.643 58.917H90.9539C90.9539 58.917 90.1838 55.3502 90.1838 55.1996C90.178 55.3502 89.3905 58.917 89.3905 58.917H88.7015L87.6187 54.3311H88.244C88.244 54.3311 89.0836 57.9616 89.0836 58.1064C89.0836 57.9616 89.8537 54.3311 89.8537 54.3311H90.5428C90.5428 54.3311 91.3129 57.9674 91.3129 58.1064C91.3129 57.9674 92.1699 54.3311 92.1699 54.3311Z" fill="#76787F"/>
<path d="M93.7497 58.917V54.3311H93.1475V58.917H93.7497Z" fill="#76787F"/>
<path d="M97.5193 54.3311V58.917H96.8534L95.1452 55.3617V58.917H94.5835V54.3311H95.2842L96.9518 57.8342V54.3311H97.5193Z" fill="#76787F"/>
<path d="M101.274 58.917V54.3311H100.707V57.8342L99.0391 54.3311H98.3384V58.917H98.9001V55.3617L100.608 58.917H101.274Z" fill="#76787F"/>
<path d="M102.695 54.3311V58.917H102.093V54.3311H102.695Z" fill="#76787F"/>
<path d="M106.465 58.917V54.3311H105.898V57.8342L104.23 54.3311H103.529V58.917H104.091V55.3617L105.799 58.917H106.465Z" fill="#76787F"/>
<path d="M74.5554 67.9553L73.8919 65.9131L73.2283 67.9553H71.0811L72.8182 69.2175L72.1547 71.2597L73.8919 69.9975L75.6291 71.2597L74.9655 69.2175L76.7027 67.9553H74.5554Z" fill="#76787F"/>
<path d="M81.5518 65.9136L82.2289 67.9558H84.42L82.6474 69.2179L83.3245 71.2601L81.5518 69.998L79.7792 71.2601L80.4563 69.2179L78.6836 67.9558H80.8747L81.5518 65.9136Z" fill="#76787F"/>
<path d="M89.829 67.9558L89.1519 65.9136L88.4748 67.9558H86.2837L88.0563 69.2179L87.3792 71.2601L89.1519 69.998L90.9245 71.2601L90.2474 69.2179L92.0201 67.9558H89.829Z" fill="#76787F"/>
<path d="M96.7515 65.9136L97.4286 67.9558H99.6197L97.847 69.2179L98.5241 71.2601L96.7515 69.998L94.9788 71.2601L95.6559 69.2179L93.8833 67.9558H96.0744L96.7515 65.9136Z" fill="#76787F"/>
<path d="M105.075 67.9558L104.412 65.9136L103.748 67.9558H101.601L103.338 69.2179L102.675 71.2601L104.412 69.998L106.149 71.2601L105.485 69.2179L107.223 67.9558H105.075Z" fill="#76787F"/>
<path d="M49.8917 45.0484C48.4829 45.0824 47.5167 43.8892 46.8923 42.9366C46.0688 41.6806 45.9055 39.784 46.4173 38.2339C47.7163 38.5031 48.4444 39.8497 48.9669 40.8459C49.5384 41.9356 49.8929 43.2883 49.905 44.598C50.0664 43.2907 50.8177 42.0175 51.7946 41.3218C52.7301 40.6557 53.9846 39.9495 55.2949 40.3307C54.9372 41.5732 54.0899 42.7225 53.1512 43.5084C52.2796 44.2381 51.1728 45.1124 49.8917 45.0484Z" fill="#76787F"/>
<path d="M50.3084 50.1789C49.0009 50.398 47.7255 49.5969 46.8972 48.6546C45.8308 47.4414 45.1963 45.8139 45.3257 44.1846C46.6689 44.2187 47.6862 45.3798 48.4381 46.2578C49.2479 47.2034 49.9114 48.4475 50.2297 49.7309C50.0897 48.4519 50.5191 47.0708 51.3162 46.2174C52.0856 45.3936 53.1634 44.4958 54.5044 44.6399C54.4755 45.9368 53.8254 47.1724 53.1549 48.0978C52.5299 48.9602 51.5671 50.0269 50.3084 50.1789Z" fill="#76787F"/>
<path d="M52.0927 55.4608C50.5578 56.0481 49.0973 55.2721 47.8931 54.4881C46.3957 53.5133 45.2811 51.6184 45 49.7919C46.4774 49.6084 47.9442 50.584 48.9625 51.5101C50.0827 52.5289 51.1402 53.6315 51.8633 54.9942C51.3739 53.6696 51.4961 52.1658 52.1332 50.9024C52.7426 49.6939 53.89 48.7039 55.2737 48.5811C55.5149 49.9303 55.1665 51.3517 54.6449 52.5844C54.1525 53.7478 53.3519 55.0153 52.0927 55.4608Z" fill="#76787F"/>
<path d="M55.1945 60.399C56.3795 59.6906 56.8564 58.2 57.0513 56.9227C57.2614 55.5452 57.2524 54.026 56.6803 52.7192C55.3055 53.1032 54.3618 54.3406 54.0502 55.6959C53.721 57.1278 53.9988 58.6539 54.7996 59.8731C53.7351 58.6518 52.3196 57.6434 50.9631 56.9363C49.6528 56.2533 48.0453 55.4295 46.4717 55.927C47.2305 57.7789 48.8537 59.5031 50.6527 60.2163C52.0459 60.7685 53.7408 61.3146 55.1945 60.399Z" fill="#76787F"/>
<path d="M59.949 64.9175C60.9813 63.8941 60.9862 62.2077 60.8123 60.8781C60.6171 59.3849 60.18 57.812 59.2466 56.5869C57.9096 57.2692 57.2883 58.8006 57.3267 60.232C57.3694 61.8324 58.2417 63.4202 59.4389 64.502C57.9387 63.4362 56.1449 62.6562 54.4616 62.1719L54.3755 62.1472C52.8675 61.7129 51.0046 61.1764 49.4814 62.0151C50.7286 63.8924 53.0556 65.3023 55.1228 65.6926C56.6626 65.9831 58.659 66.2379 59.949 64.9175Z" fill="#76787F"/>
<path d="M66.8034 68.6826C67.5636 67.2355 66.8104 65.5371 66.2102 64.2818C65.5006 62.7978 64.5311 61.2854 63.1436 60.1992C61.8113 61.3474 61.938 62.9903 62.3341 64.4181C62.8051 66.1158 64.438 67.563 66.1289 68.3877C64.1706 67.6574 62.0319 67.2191 59.9971 67.0897L59.791 67.0764C58.1563 66.9699 56.0282 66.8313 54.7256 68.0276C56.6951 69.7019 59.4926 70.6679 61.9582 70.6177C63.6105 70.5841 65.8775 70.3886 66.8034 68.6826Z" fill="#76787F"/>
<path d="M124.317 36.5454C125.453 37.0673 126.497 38.1863 126.974 39.4696C126.673 38.1826 126.681 36.7738 126.97 35.5669C127.223 34.5066 127.593 33.008 128.805 32.5029C129.684 33.916 130.036 35.8395 129.521 37.2798C129.149 38.3221 128.48 39.6999 127.096 39.9119C125.826 40.2034 124.543 39.5252 123.53 38.9654C122.403 38.3428 121.3 37.3529 120.63 36.1765C121.861 35.5563 123.262 36.0614 124.317 36.5454Z" fill="#76787F"/>
<path d="M125.979 41.3245C126.955 42.0205 127.704 43.293 127.865 44.5994C127.879 43.2904 128.235 41.939 128.807 40.8504C129.33 39.8545 130.06 38.5085 131.359 38.2402C131.869 39.7908 131.704 41.6873 130.879 42.9426C130.255 43.8935 129.289 45.0842 127.883 45.0523C126.6 45.1178 125.492 44.2414 124.62 43.5102C123.682 42.7235 122.836 41.5736 122.48 40.3309C123.79 39.9505 125.044 40.6577 125.979 41.3245Z" fill="#76787F"/>
<path d="M126.452 46.2201C127.25 47.0752 127.678 48.4592 127.535 49.7393C127.854 48.4544 128.519 47.2089 129.331 46.2627C130.084 45.3853 131.102 44.2251 132.446 44.1919C132.573 45.8214 131.937 47.4484 130.87 48.6607C130.04 49.6029 128.763 50.4036 127.455 50.1821C126.197 50.0284 125.236 48.9617 124.612 48.0992C123.942 47.1733 123.293 45.9371 123.266 44.6402C124.607 44.4971 125.684 45.3957 126.452 46.2201Z" fill="#76787F"/>
<path d="M125.631 50.9048C126.267 52.1689 126.388 53.673 125.897 54.9972C126.621 53.6347 127.68 52.5328 128.801 51.5147C129.82 50.5893 131.288 49.615 132.765 49.7995C132.483 51.6259 131.366 53.52 129.868 54.4936C128.664 55.2756 127.205 56.05 125.672 55.4651C124.411 55.0204 123.61 53.7503 123.118 52.5849C122.597 51.3518 122.25 49.9302 122.493 48.5811C123.876 48.705 125.023 49.6959 125.631 50.9048Z" fill="#76787F"/>
<path d="M123.71 55.697C124.037 57.1282 123.758 58.6528 122.958 59.8708C124.023 58.6515 125.439 57.6452 126.795 56.9395C128.106 56.2575 129.714 55.4349 131.287 55.9334C130.527 57.7849 128.902 59.5079 127.102 60.2198C125.707 60.7718 124.008 61.3176 122.553 60.3948C121.375 59.6838 120.901 58.1962 120.707 56.9214C120.499 55.5436 120.509 54.0245 121.082 52.7183C122.457 53.1033 123.4 54.3414 123.71 55.697Z" fill="#76787F"/>
<path d="M116.942 60.8742C116.767 62.2035 116.77 63.8898 117.802 64.9141C119.09 66.2355 121.087 65.9821 122.627 65.6926C124.695 65.3039 127.023 63.8955 128.272 62.0193C126.75 61.1796 124.886 61.7145 123.378 62.1476L123.291 62.1724C121.608 62.6552 119.814 63.4336 118.313 64.4978C119.511 63.4169 120.384 61.8304 120.428 60.2306C120.468 58.7993 119.848 57.2674 118.512 56.584C117.577 57.8084 117.139 59.3811 116.942 60.8742Z" fill="#76787F"/>
<path d="M110.944 68.6738C111.868 70.3806 114.135 70.5777 115.787 70.6126C118.253 70.6646 121.051 69.7005 123.022 68.0279C121.721 66.8309 119.593 66.9677 117.958 67.0729L117.751 67.0861C115.716 67.2141 113.577 67.6508 111.618 68.3796C113.31 67.5563 114.944 66.1101 115.417 64.4127C115.814 62.9853 115.943 61.3425 114.611 60.1934C113.223 61.2784 112.252 62.7901 111.541 64.2736C110.943 65.5215 110.193 67.2077 110.931 68.6504L110.944 68.6738Z" fill="#76787F"/>
</svg>
