<svg width="177" height="100" viewBox="0 0 177 100" fill="none" xmlns="http://www.w3.org/2000/svg">
<path d="M45.0312 36.1781C44.3959 34.5635 44.6717 32.707 45.2569 31.1456C45.8726 29.5026 46.9447 27.8641 48.5471 27C48.6266 28.7314 48.0977 30.442 47.5198 31.9845C47.0001 33.3719 46.3624 34.85 45.3094 35.9974C45.1476 36.8668 45.0236 37.7338 44.9364 38.5968C45.2854 37.6851 45.8513 36.8541 46.5574 36.1859C47.4665 35.3255 48.8188 34.6616 50.0882 35.0542C49.7164 36.4574 48.8689 37.8025 47.8652 38.7461C47.0752 39.4888 46.0323 40.4405 44.8039 40.4779C44.7533 41.7479 44.7819 43.0063 44.8864 44.2476C45.0597 43.3392 45.431 42.4838 45.9675 41.8468C46.7045 40.9715 47.7973 39.9021 49.1929 40.081C49.1167 41.5012 48.5502 42.9563 47.7613 44.0497C47.1344 44.9186 46.3068 46.026 45.1321 46.3121C45.3202 47.5318 45.5822 48.7313 45.9146 49.905C45.9178 49.0063 46.1163 48.1242 46.5101 47.4167C47.0651 46.419 47.9295 45.1748 49.3267 45.0775C49.5315 46.4708 49.254 47.9939 48.6942 49.2053C48.2468 50.1736 47.6503 51.4084 46.563 51.9193C47.0196 53.1821 47.5599 54.4096 48.1794 55.5944C47.9619 54.5732 47.9706 53.4971 48.228 52.5289C48.5827 51.1941 49.4632 49.792 50.8768 49.3851C51.3765 50.8587 51.3076 52.5033 51.0173 54.0011C50.7784 55.2343 50.309 56.6827 49.2568 57.4838C49.9447 58.5939 50.7057 59.6593 51.5356 60.673C51.0897 59.6788 50.8681 58.5915 50.987 57.596C51.1602 56.1458 51.5677 54.5944 53.049 53.8212C53.8894 55.2712 54.0841 56.8979 54.1555 58.5046C54.2132 59.8035 54.0261 61.4056 53.124 62.4623C54.1163 63.494 55.187 64.4596 56.3306 65.35C55.5923 64.4029 55.0753 63.2915 54.9658 62.1924C54.8112 60.6395 54.8868 58.93 56.2649 57.7904C57.4435 59.0214 58.1468 60.8343 58.4915 62.4089C58.7963 63.8011 59.1145 65.4489 58.3888 66.819C59.8442 67.769 61.3979 68.606 63.0406 69.3148C61.8847 68.4911 60.9385 67.361 60.4877 66.1942C59.897 64.6647 59.5316 62.8422 60.6823 61.3104C62.224 62.2979 63.3571 63.9827 64.2498 65.5193C65.0158 66.8378 65.8087 68.6576 65.4153 70.2279C66.3248 70.5365 67.2578 70.8075 68.2131 71.0387L68.1563 71.2732C67.1974 71.0411 66.2608 70.7692 65.3476 70.4597C64.7078 72.3504 62.6119 72.975 60.9169 73.2508C58.5018 73.6437 55.6261 72.8824 53.5643 71.3488C54.6525 69.8109 56.8728 69.6549 58.547 69.5372L58.5688 69.5357C60.4029 69.4068 62.3866 69.579 64.231 70.0582C62.1003 69.2471 60.1066 68.2273 58.2682 67.0284L58.2411 67.0712C57.2337 68.7047 55.2111 68.7684 53.6235 68.6651C51.4692 68.5249 48.982 67.215 47.5425 65.4043C48.8965 64.2163 50.8964 64.5488 52.446 64.8064L52.4535 64.8076C54.183 65.0951 56.0729 65.7223 57.6593 66.688C57.5082 66.569 57.3603 66.4431 57.2166 66.3111C55.6742 65.2114 54.2514 63.9813 52.9603 62.6401C52.9453 62.6551 52.9301 62.67 52.9148 62.6848C51.6594 63.9477 49.831 63.617 48.4041 63.206C46.4946 62.656 44.5143 60.9967 43.5653 59.0918C45.0359 58.2678 46.7941 58.9468 48.1617 59.4839C49.6627 60.0734 51.2508 61.0164 52.4719 62.2185C52.346 62.0597 52.2259 61.8938 52.1124 61.7221C50.9774 60.4411 49.9564 59.0694 49.0588 57.6223L49.0138 57.6505C47.5936 58.567 45.9845 57.9033 44.7092 57.2506C42.9801 56.3657 41.5906 54.4209 40.9902 52.5083C42.5241 52.017 44.0396 52.9813 45.2177 53.745C46.5062 54.5802 47.8114 55.7714 48.7073 57.1375C48.6415 57.0029 48.5802 56.8653 48.5237 56.7251C47.6629 55.2233 46.9316 53.6467 46.3396 52.0112L46.3091 52.0216L46.3066 52.0225C45.0153 52.5134 43.5773 51.7502 42.6398 50.9132C41.3368 49.75 40.4184 47.9617 40.2031 46.2146C41.5494 46.0402 42.8178 47.0818 43.685 47.9702C44.6832 48.9927 45.5791 50.2012 46.1299 51.5435C46.0897 51.3977 46.0552 51.2496 46.0262 51.1C45.525 49.5631 45.1453 47.9781 44.895 46.3577L44.8755 46.3601L44.8689 46.3612C43.5037 46.5891 42.2415 45.5512 41.4874 44.5439C40.4294 43.1304 39.884 41.1741 40.0207 39.401C41.3806 39.4961 42.4161 40.7898 43.0876 41.8363C43.8648 43.0478 44.5093 44.4189 44.7916 45.8533C44.783 45.7392 44.7779 45.6244 44.7761 45.5093C44.5688 43.8601 44.4949 42.1771 44.5625 40.4733L44.5586 40.4731C43.1706 40.4231 42.1448 39.1344 41.6152 37.9913C40.8574 36.3555 40.7354 34.2878 41.2412 32.5452C42.5641 32.9165 43.3016 34.434 43.7369 35.6021C44.2388 36.9489 44.5891 38.4178 44.5919 39.8782C44.6641 38.653 44.8095 37.4181 45.0312 36.1781Z" fill="#76787F"/>
<path d="M72.3685 33.1553V39.0051C72.3685 41.578 70.0383 42.8159 66.5066 42.8159C63.2055 42.8159 60.8389 41.5902 60.8389 38.7017V33.1553H64.1279V38.7017C64.1279 39.7333 65.0138 40.3765 66.6401 40.3765C68.1936 40.3765 69.116 39.709 69.116 38.7138V33.1553H72.3685Z" fill="#76787F"/>
<path d="M83.3221 40.1459V42.6824H74.2319V33.1553H77.5209V40.1459H83.3221Z" fill="#76787F"/>
<path d="M93.097 35.5462V33.1553H81.7251V35.5462H85.7423V42.6824H89.0677V35.5462H93.097Z" fill="#76787F"/>
<path fill-rule="evenodd" clip-rule="evenodd" d="M104.763 34.1263C105.2 34.5753 105.407 35.1943 105.407 36.0559C105.407 36.7963 105.225 37.4274 104.921 37.8521C104.581 38.3133 104.059 38.7017 103.416 38.7988L106.293 42.6824H102.676L100.309 39.3206H97.3601V42.6824H94.1196V33.1553H101.705C103.21 33.1553 104.193 33.5194 104.763 34.1263ZM102.142 36.857C102.227 36.7113 102.251 36.5171 102.251 36.3594C102.251 36.1773 102.227 35.9831 102.142 35.8618C101.972 35.5462 101.632 35.4613 101.122 35.4613H97.3722V37.1968H101.183C101.705 37.1968 102.021 37.0997 102.142 36.857Z" fill="#76787F"/>
<path fill-rule="evenodd" clip-rule="evenodd" d="M110.671 40.9227H115.817L116.654 42.6824H120.162L115.356 33.1553H111.436L106.351 42.6824H109.785L110.671 40.9227ZM114.785 38.7866H111.739L112.941 36.4929L113.305 35.619L113.645 36.4807L114.785 38.7866Z" fill="#76787F"/>
<path fill-rule="evenodd" clip-rule="evenodd" d="M104.416 44.4766C102.38 44.4766 101.309 45.4416 101.309 46.8596C101.309 48.4601 102.433 49.272 104.416 49.272C106.599 49.272 107.517 48.3306 107.517 46.8596C107.517 45.3651 106.481 44.4766 104.416 44.4766ZM104.416 48.0894C103.257 48.0894 102.921 47.6128 102.921 46.8773C102.921 46.1536 103.286 45.677 104.41 45.677C105.64 45.677 105.916 46.2124 105.916 46.8773C105.916 47.5834 105.581 48.0894 104.416 48.0894Z" fill="#76787F"/>
<path d="M98.2914 49.2017V46.4657H95.22V47.4601H96.8616C96.8499 47.5366 96.791 47.6837 96.7145 47.7719C96.5439 47.972 96.0908 48.1485 95.5024 48.1485C94.8905 48.1485 94.4963 47.9896 94.2845 47.7425C94.1433 47.5601 94.0609 47.3012 94.0609 46.9129C94.0609 46.5069 94.1433 46.2304 94.3021 46.048C94.5316 45.7891 94.9199 45.6773 95.4907 45.6773C96.0026 45.6773 96.3556 45.7949 96.5204 45.942C96.6263 46.0303 96.7086 46.1539 96.7263 46.2362H98.2502C98.2444 46.0891 98.1973 45.8538 98.1149 45.6832C97.7501 44.9418 96.9028 44.5005 95.4613 44.5005C94.208 44.5005 93.3666 44.8829 92.9018 45.4596C92.5958 45.8538 92.4546 46.348 92.4546 46.9011C92.4546 47.5131 92.6193 48.0367 92.89 48.3839C93.3489 48.9782 94.1668 49.2723 95.1494 49.2723C96.0144 49.2723 96.6086 49.0664 96.9852 48.7546L97.0264 49.2017H98.2914Z" fill="#76787F"/>
<path d="M82.263 46.4068C83.4574 46.5362 83.9693 46.9599 83.9693 47.766C83.9693 48.7427 83.0161 49.2722 81.1391 49.2722C79.3916 49.2722 78.6385 48.778 78.3501 48.1308C78.2854 47.9778 78.256 47.7895 78.2383 47.6718H79.9329C79.9447 47.7424 79.9859 47.8483 80.0447 47.9189C80.1859 48.0896 80.5801 48.1896 81.2509 48.1896C82.1159 48.1896 82.3218 48.066 82.3218 47.8366C82.3218 47.5894 82.11 47.5365 81.3274 47.4541C81.0156 47.4247 80.5213 47.3776 80.3154 47.36C78.8209 47.2246 78.2678 46.7598 78.2678 45.9655C78.2678 45.1417 79.2445 44.5122 81.0273 44.5122C82.6101 44.5122 83.3456 44.9829 83.6516 45.5713C83.7457 45.7478 83.8045 45.9478 83.8222 46.089H82.1276C82.1217 46.0243 82.0982 45.9596 82.0335 45.8772C81.904 45.7066 81.5745 45.5948 80.9861 45.5948C80.1565 45.5948 79.9388 45.6948 79.9388 45.9066C79.9388 46.142 80.2154 46.195 81.1391 46.295C81.498 46.3244 82.0688 46.3832 82.263 46.4068Z" fill="#76787F"/>
<path fill-rule="evenodd" clip-rule="evenodd" d="M65.3705 44.9772C65.6823 45.2243 65.8588 45.6421 65.8588 46.2481C65.8588 46.7424 65.7353 47.113 65.4999 47.3719C65.1822 47.7367 64.6585 47.9015 63.976 47.9074C63.7641 47.9133 61.9519 47.9074 61.9519 47.9074V49.2018H60.3691V44.583H63.9524C64.5879 44.583 65.0704 44.7124 65.3705 44.9772ZM64.1996 46.607C64.2466 46.5247 64.2702 46.4187 64.2702 46.2716C64.2702 46.1187 64.2407 45.9892 64.1878 45.9186C64.0878 45.7715 63.8995 45.7009 63.5935 45.7009H61.9401V46.8306H63.5817C63.9112 46.8306 64.1054 46.7541 64.1996 46.607Z" fill="#76787F"/>
<path fill-rule="evenodd" clip-rule="evenodd" d="M71.649 45.0537C71.8609 45.2714 71.9609 45.5715 71.9609 45.9892C71.9609 46.3481 71.8726 46.6541 71.7255 46.86C71.5608 47.0836 71.3078 47.2719 70.9959 47.319L72.3904 49.2018H70.637L69.4896 47.572H68.0598V49.2018H66.4888V44.583H70.1663C70.8959 44.583 71.3725 44.7595 71.649 45.0537ZM70.3781 46.3776C70.4193 46.307 70.431 46.2128 70.431 46.1363C70.431 46.0481 70.4193 45.9539 70.3781 45.8951C70.2957 45.7421 70.131 45.7009 69.8839 45.7009H68.0657V46.5423H69.9133C70.1663 46.5423 70.3193 46.4952 70.3781 46.3776Z" fill="#76787F"/>
<path d="M77.7615 49.2018V48.0545H74.4489V47.4543H77.6262V46.3305H74.4489V45.7362H77.7203V44.583H72.8955V49.2018H77.7615Z" fill="#76787F"/>
<path d="M89.6953 45.7421V44.583H84.1821V45.7421H86.1296V49.2018H87.7418V45.7421H89.6953Z" fill="#76787F"/>
<path d="M91.8149 44.583V49.2018H90.1968V44.583H91.8149Z" fill="#76787F"/>
<path d="M100.67 44.583V49.2018H99.0518V44.583H100.67Z" fill="#76787F"/>
<path d="M113.76 44.583V47.419C113.76 48.6664 112.63 49.2666 110.918 49.2666C109.318 49.2666 108.17 48.6723 108.17 47.2719V44.583H109.765V47.2719C109.765 47.772 110.194 48.0839 110.983 48.0839C111.736 48.0839 112.183 47.7603 112.183 47.2778V44.583H113.76Z" fill="#76787F"/>
<path d="M120.112 47.766C120.112 46.9599 119.6 46.5362 118.406 46.4068C118.211 46.3832 117.641 46.3244 117.282 46.295C116.358 46.195 116.081 46.142 116.081 45.9066C116.081 45.6948 116.299 45.5948 117.129 45.5948C117.717 45.5948 118.047 45.7066 118.176 45.8772C118.241 45.9596 118.264 46.0243 118.27 46.089H119.965C119.947 45.9478 119.888 45.7478 119.794 45.5713C119.488 44.9829 118.753 44.5122 117.17 44.5122C115.387 44.5122 114.41 45.1417 114.41 45.9655C114.41 46.7598 114.964 47.2246 116.458 47.36L116.554 47.3685L116.714 47.3831L117.47 47.4541C118.253 47.5365 118.464 47.5894 118.464 47.8366C118.464 48.066 118.259 48.1896 117.394 48.1896C116.723 48.1896 116.329 48.0896 116.187 47.9189C116.129 47.8483 116.087 47.7424 116.076 47.6718H114.381C114.399 47.7895 114.428 47.9778 114.493 48.1308C114.781 48.778 115.534 49.2722 117.282 49.2722C119.159 49.2722 120.112 48.7427 120.112 47.766Z" fill="#76787F"/>
<path fill-rule="evenodd" clip-rule="evenodd" d="M78.9664 50.9702C77.6433 50.9702 76.9473 51.5974 76.9473 52.519C76.9473 53.5591 77.6777 54.0868 78.9664 54.0868C80.3852 54.0868 80.9817 53.475 80.9817 52.519C80.9817 51.5477 80.3087 50.9702 78.9664 50.9702ZM78.9664 53.3182C78.2131 53.3182 77.9951 53.0084 77.9951 52.5304C77.9951 52.0601 78.2322 51.7503 78.9626 51.7503C79.7618 51.7503 79.9416 52.0983 79.9416 52.5304C79.9416 52.9893 79.7236 53.3182 78.9664 53.3182Z" fill="#76787F"/>
<path d="M71.6085 53.1079C71.6085 52.584 71.2758 52.3086 70.4995 52.2245C70.3733 52.2092 70.0024 52.171 69.7691 52.1519C69.1687 52.0868 68.989 52.0524 68.989 51.8995C68.989 51.7618 69.1305 51.6968 69.6697 51.6968C70.0521 51.6968 70.2662 51.7694 70.3504 51.8803C70.3924 51.9339 70.4077 51.9759 70.4116 52.018H71.5129C71.5014 51.9262 71.4632 51.7962 71.402 51.6815C71.2031 51.2991 70.7251 50.9932 69.6964 50.9932C68.5378 50.9932 67.903 51.4023 67.903 51.9377C67.903 52.454 68.2624 52.7561 69.2337 52.844C69.3676 52.8555 69.6888 52.8861 69.8915 52.9052C70.4001 52.9587 70.5377 52.9932 70.5377 53.1538C70.5377 53.3029 70.4039 53.3832 69.8418 53.3832C69.4058 53.3832 69.1496 53.3182 69.0578 53.2073C69.0196 53.1614 68.9928 53.0926 68.9852 53.0467H67.8838C67.8953 53.1232 67.9144 53.2455 67.9565 53.345C68.1439 53.7656 68.6334 54.0868 69.7691 54.0868C70.989 54.0868 71.6085 53.7427 71.6085 53.1079Z" fill="#76787F"/>
<path fill-rule="evenodd" clip-rule="evenodd" d="M63.9732 53.1921C63.9732 53.3986 63.9158 53.6013 63.8011 53.7351C63.6252 53.9493 63.2963 54.041 62.8719 54.041H60.2065V51.0391H62.7992C63.2122 51.0391 63.4761 51.1386 63.6214 51.2877C63.7514 51.4177 63.8088 51.5898 63.8088 51.7848C63.8088 51.9799 63.7629 52.1405 63.6635 52.259C63.5831 52.3585 63.4455 52.4349 63.3002 52.4541C63.5143 52.4808 63.717 52.5879 63.8317 52.737C63.9273 52.8479 63.9732 53.0162 63.9732 53.1921ZM62.6845 52.1405C62.7227 52.0984 62.7457 52.0372 62.7457 51.9646C62.7457 51.8919 62.7227 51.8307 62.673 51.7887C62.6195 51.7389 62.52 51.7198 62.3747 51.7198H61.2084V52.2093H62.4015C62.5315 52.2093 62.631 52.1902 62.6845 52.1405ZM62.5124 53.3604C62.6921 53.3604 62.7992 53.3374 62.8604 53.2801C62.8986 53.2418 62.9139 53.1845 62.9139 53.1118C62.9139 53.0353 62.8948 52.978 62.8489 52.9321C62.7916 52.8824 62.6921 52.8594 62.5239 52.8594H61.2084V53.3604H62.5124Z" fill="#76787F"/>
<path d="M67.5741 53.2954V54.041H64.4116V51.0391H67.5473V51.7887H65.4211V52.1749H67.4861V52.9053H65.4211V53.2954H67.5741Z" fill="#76787F"/>
<path d="M75.3297 51.0391V51.7925H74.0601V54.041H73.0124V51.7925H71.7466V51.0391H75.3297Z" fill="#76787F"/>
<path d="M84.481 51.0391V51.8001H82.4428V52.2246H84.3854V52.978H82.4428V54.041H81.4141V51.0391H84.481Z" fill="#76787F"/>
<path d="M89.6627 51.7925V51.0391H86.0796V51.7925H87.3454V54.041H88.3932V51.7925H89.6627Z" fill="#76787F"/>
<path d="M93.5719 51.0391V54.041H92.547V52.9512H91.0097V54.041H89.9849V51.0391H91.0097V52.1328H92.547V51.0391H93.5719Z" fill="#76787F"/>
<path d="M97.3412 54.041V53.2954H95.1882V52.9053H97.2532V52.1749H95.1882V51.7887H97.3144V51.0391H94.1787V54.041H97.3412Z" fill="#76787F"/>
<path d="M103.681 51.0391H104.671L103.574 54.041H102.45C102.45 54.041 101.849 52.2476 101.845 52.1978C101.842 52.2476 101.237 54.041 101.237 54.041H100.117L98.9927 51.0391H100.105C100.105 51.0391 100.756 52.9282 100.756 52.9741C100.756 52.9282 101.356 51.0391 101.356 51.0391H102.431C102.431 51.0391 103.035 52.9282 103.035 52.9741C103.035 52.9282 103.681 51.0391 103.681 51.0391Z" fill="#76787F"/>
<path fill-rule="evenodd" clip-rule="evenodd" d="M106.635 50.9702C105.312 50.9702 104.616 51.5974 104.616 52.519C104.616 53.5591 105.346 54.0868 106.635 54.0868C108.054 54.0868 108.65 53.475 108.65 52.519C108.65 51.5477 107.977 50.9702 106.635 50.9702ZM106.635 53.3182C105.882 53.3182 105.664 53.0084 105.664 52.5304C105.664 52.0601 105.901 51.7503 106.631 51.7503C107.431 51.7503 107.61 52.0983 107.61 52.5304C107.61 52.9893 107.392 53.3182 106.635 53.3182Z" fill="#76787F"/>
<path fill-rule="evenodd" clip-rule="evenodd" d="M112.437 51.3451C112.574 51.4866 112.639 51.6816 112.639 51.9531C112.639 52.1864 112.582 52.3852 112.486 52.5191C112.379 52.6644 112.215 52.7868 112.012 52.8173L112.918 54.041H111.779L111.033 52.9818H110.104V54.041H109.083V51.0391H111.473C111.947 51.0391 112.257 51.1539 112.437 51.3451ZM111.611 52.2055C111.637 52.1596 111.645 52.0984 111.645 52.0487C111.645 51.9913 111.637 51.9302 111.611 51.8919C111.557 51.7925 111.45 51.7657 111.289 51.7657H110.108V52.3126H111.308C111.473 52.3126 111.572 52.282 111.611 52.2055Z" fill="#76787F"/>
<path d="M116.111 54.041V53.2418H114.283V51.0391H113.247V54.041H116.111Z" fill="#76787F"/>
<path fill-rule="evenodd" clip-rule="evenodd" d="M120.166 52.4846C120.166 52.9512 120.12 53.2036 119.983 53.4407C119.776 53.8192 119.367 54.041 118.644 54.041H116.518V51.0391H118.621C119.34 51.0391 119.765 51.2418 119.975 51.5898C120.124 51.8231 120.166 52.0716 120.166 52.4846ZM118.449 53.303C118.774 53.303 118.958 53.2265 119.069 53.0583C119.138 52.955 119.157 52.7141 119.157 52.5038C119.153 52.3126 119.13 52.1099 119.069 52.0181C118.95 51.8384 118.771 51.7734 118.457 51.7734H117.543V53.303H118.449Z" fill="#76787F"/>
<path d="M79.1449 68.6406H77.5603C77.5603 68.6406 76.5263 71.6631 76.5263 71.7365C76.5263 71.6631 75.5596 68.6406 75.5596 68.6406H73.8403C73.8403 68.6406 72.8797 71.6631 72.8797 71.7365C72.8797 71.6631 71.8396 68.6406 71.8396 68.6406H70.0591L71.8579 73.4435H73.6506C73.6506 73.4435 74.6173 70.574 74.6234 70.4945C74.6296 70.574 75.5901 73.4435 75.5901 73.4435H77.3889L79.1449 68.6406Z" fill="#76787F"/>
<path d="M81.3135 73.4435V68.6406H79.6309V73.4435H81.3135Z" fill="#76787F"/>
<path d="M87.8581 68.6406V73.4435H86.2183L83.8383 70.7698V73.4435H82.2598V68.6406H83.9851L86.2917 71.2532V68.6406H87.8581Z" fill="#76787F"/>
<path d="M94.4123 73.4435V68.6406H92.846V71.2532L90.5394 68.6406H88.814V73.4435H90.3925V70.7698L92.7726 73.4435H94.4123Z" fill="#76787F"/>
<path d="M100.429 72.2504V73.4435H95.3687V68.6406H100.386V69.8398H96.984V70.4578H100.288V71.6264H96.984V72.2504H100.429Z" fill="#76787F"/>
<path fill-rule="evenodd" clip-rule="evenodd" d="M106.896 70.1029C106.896 69.6685 106.792 69.3565 106.572 69.1301C106.284 68.8242 105.789 68.6406 105.03 68.6406H101.206V73.4435H102.84V71.7487H104.327L105.52 73.4435H107.343L105.893 71.4857C106.217 71.4367 106.48 71.2409 106.652 71.0084C106.804 70.7943 106.896 70.4761 106.896 70.1029ZM105.305 70.2559C105.305 70.3354 105.293 70.4333 105.25 70.5067C105.189 70.6291 105.03 70.678 104.767 70.678H102.846V69.8031H104.736C104.993 69.8031 105.165 69.8459 105.25 70.005C105.293 70.0662 105.305 70.1641 105.305 70.2559Z" fill="#76787F"/>
<path d="M74.2596 60.1667L73.5961 58.1245L72.9325 60.1667H70.7852L72.5224 61.4288L71.8589 63.471L73.5961 62.2089L75.3332 63.471L74.6697 61.4288L76.4069 60.1667H74.2596Z" fill="#76787F"/>
<path d="M81.2564 58.1235L81.9335 60.1657H84.1246L82.352 61.4279L83.0291 63.47L81.2564 62.2079L79.4838 63.47L80.1609 61.4279L78.3882 60.1657H80.5793L81.2564 58.1235Z" fill="#76787F"/>
<path d="M89.5331 60.1657L88.8561 58.1235L88.179 60.1657H85.9878L87.7605 61.4279L87.0834 63.47L88.8561 62.2079L90.6287 63.47L89.9516 61.4279L91.7243 60.1657H89.5331Z" fill="#76787F"/>
<path d="M96.4556 58.1235L97.1327 60.1657H99.3238L97.5512 61.4279L98.2283 63.47L96.4556 62.2079L94.683 63.47L95.3601 61.4279L93.5874 60.1657H95.7786L96.4556 58.1235Z" fill="#76787F"/>
<path d="M104.78 60.1657L104.116 58.1235L103.452 60.1657H101.305L103.042 61.4279L102.379 63.47L104.116 62.2079L105.853 63.47L105.19 61.4279L106.927 60.1657H104.78Z" fill="#76787F"/>
<path d="M132.638 36.2222C133.273 34.6077 132.997 32.751 132.412 31.1896C131.796 29.5467 130.724 27.908 129.122 27.0439C129.042 28.7754 129.571 30.4859 130.149 32.0284C130.669 33.4157 131.306 34.8937 132.359 36.041C132.521 36.9102 132.645 37.777 132.732 38.6398C132.383 37.7285 131.818 36.8979 131.112 36.2299C130.203 35.3694 128.85 34.7056 127.581 35.0982C127.953 36.5013 128.8 37.8465 129.804 38.7901C130.594 39.5328 131.637 40.4844 132.865 40.5219C132.916 41.792 132.887 43.0505 132.782 44.2919C132.609 43.3835 132.238 42.5281 131.701 41.8911C130.964 41.0157 129.871 39.9464 128.476 40.1253C128.552 41.5455 129.119 43.0006 129.908 44.094C130.534 44.9629 131.362 46.0704 132.537 46.3565C132.349 47.576 132.087 48.7753 131.754 49.9489C131.751 49.0503 131.553 48.1682 131.159 47.4607C130.604 46.4631 129.739 45.2188 128.342 45.1215C128.137 46.5148 128.415 48.0379 128.975 49.2493C129.422 50.2176 130.019 51.4524 131.106 51.9633C130.649 53.2263 130.109 54.4541 129.489 55.639C129.707 54.6176 129.698 53.5413 129.441 52.5728C129.086 51.238 128.206 49.8358 126.792 49.429C126.292 50.9028 126.361 52.5472 126.652 54.045C126.891 55.2783 127.36 56.7267 128.412 57.5278C127.724 58.6385 126.963 59.7044 126.132 60.7186C126.579 59.724 126.8 58.6361 126.681 57.6402C126.508 56.1898 126.101 54.6385 124.62 53.8655C123.779 55.3155 123.584 56.9422 123.513 58.5489C123.455 59.8479 123.642 61.4501 124.545 62.5069C123.552 63.5383 122.482 64.5036 121.339 65.3938C122.077 64.4467 122.594 63.3354 122.703 62.2364C122.858 60.6835 122.783 58.9741 121.404 57.8344C120.226 59.0654 119.522 60.8783 119.178 62.4529C118.873 63.845 118.555 65.4929 119.28 66.863C117.825 67.8132 116.271 68.6503 114.628 69.3593C115.784 68.5355 116.73 67.4053 117.181 66.2383C117.772 64.7089 118.137 62.8862 116.987 61.3544C115.445 62.3419 114.312 64.0266 113.419 65.5633C112.653 66.8819 111.86 68.7018 112.254 70.2721C111.344 70.5807 110.411 70.8517 109.456 71.0829L109.513 71.3174C110.471 71.0853 111.408 70.8134 112.321 70.5039C112.961 72.3945 115.057 73.0193 116.752 73.295C119.167 73.6879 122.043 72.9268 124.105 71.3931C123.016 69.8552 120.796 69.6991 119.122 69.5814L119.1 69.5799C117.266 69.451 115.282 69.6232 113.438 70.1025C115.568 69.2914 117.562 68.2714 119.401 67.0724L119.426 67.1124C120.433 68.7486 122.457 68.8126 124.045 68.7092C126.2 68.569 128.687 67.2591 130.126 65.4484C128.772 64.2606 126.773 64.5929 125.223 64.8504L125.215 64.8518C123.486 65.1392 121.597 65.7661 120.011 66.7315C120.162 66.6126 120.309 66.4869 120.453 66.355C121.995 65.2555 123.417 64.0256 124.708 62.6846C124.726 62.7025 124.744 62.7201 124.762 62.7376C126.018 63.9907 127.841 63.6601 129.265 63.25C131.175 62.7 133.155 61.0407 134.104 59.1358C132.633 58.3118 130.875 58.9907 129.508 59.5279C128.005 60.1179 126.416 61.062 125.194 62.2657C125.32 62.1067 125.441 61.9405 125.555 61.7685C126.69 60.4868 127.712 59.1143 128.61 57.6663L128.649 57.6904L128.659 57.6967C130.078 58.6099 131.686 57.9468 132.96 57.2946C134.689 56.4097 136.079 54.4649 136.679 52.5523C135.145 52.061 133.63 53.0253 132.452 53.789C131.162 54.6247 129.856 55.8167 128.96 57.1838C129.026 57.0489 129.088 56.9109 129.145 56.7704C130.006 55.2681 130.737 53.6911 131.329 52.0552L131.36 52.0656L131.365 52.0676C132.656 52.5563 134.093 51.7936 135.03 50.9572C136.332 49.794 137.251 48.0057 137.466 46.2586C136.12 46.0842 134.851 47.1258 133.984 48.0141C132.986 49.0373 132.089 50.2466 131.538 51.59C131.579 51.4434 131.614 51.2945 131.643 51.144C132.144 49.6072 132.524 48.0223 132.774 46.4021L132.812 46.4071C134.172 46.6273 135.43 45.5924 136.182 44.5879C137.24 43.1744 137.785 41.2181 137.648 39.4449C136.289 39.5401 135.253 40.8337 134.582 41.8803C133.804 43.0924 133.159 44.4643 132.877 45.8996C132.886 45.7848 132.891 45.6694 132.893 45.5536C133.1 43.9043 133.174 42.2212 133.106 40.5174C134.495 40.4687 135.524 39.1791 136.054 38.0355C136.811 36.3998 136.933 34.332 136.428 32.5895C135.105 32.9608 134.367 34.4781 133.932 35.6462C133.43 36.993 133.08 38.4621 133.077 39.9225C133.005 38.6973 132.859 37.4623 132.638 36.2222Z" fill="#76787F"/>
</svg>
