<svg width="177" height="100" viewBox="0 0 177 100" fill="none" xmlns="http://www.w3.org/2000/svg">
<path d="M35.9517 46.2333C35.9152 47.0901 35.897 48.1749 35.897 49.4875C35.897 50.8001 35.9152 51.8939 35.9517 52.769C35.9881 53.6259 36.061 54.3095 36.1704 54.82C36.298 55.3304 36.4712 55.6859 36.69 55.8865C36.927 56.087 37.2369 56.1873 37.6198 56.1873C38.0026 56.1873 38.3034 56.087 38.5222 55.8865C38.7592 55.6859 38.9324 55.3304 39.0418 54.82C39.1694 54.3095 39.2514 53.6259 39.2879 52.769C39.3244 51.8939 39.3426 50.8001 39.3426 49.4875C39.3426 48.1749 39.3244 47.0901 39.2879 46.2333C39.2514 45.3582 39.1694 44.6654 39.0418 44.155C38.9324 43.6445 38.7592 43.289 38.5222 43.0885C38.3034 42.8879 38.0026 42.7876 37.6198 42.7876C37.2369 42.7876 36.927 42.8879 36.69 43.0885C36.4712 43.289 36.298 43.6445 36.1704 44.155C36.061 44.6654 35.9881 45.3582 35.9517 46.2333Z" fill="#76787F"/>
<path fill-rule="evenodd" clip-rule="evenodd" d="M36.9207 29.1733C30.3269 29.3144 25.0857 34.7556 25.1915 41.35L25.3215 49.4524L25.1915 57.5548C25.0857 64.1493 30.3269 69.5905 36.9207 69.7315L45.0243 69.9049L53.1279 69.7315C59.7217 69.5905 64.963 64.1493 64.8572 57.5548L64.7272 49.4524L64.8572 41.35C64.963 34.7556 59.7217 29.3144 53.1279 29.1733L45.0243 29L36.9207 29.1733ZM45.3043 59.7698L42.2415 62.4224L39.4522 59.4143C39.2334 59.4508 39.0146 59.4782 38.7959 59.4964C38.5953 59.5328 38.3674 59.5511 38.1122 59.5511H37.62C36.3256 59.5511 35.2317 59.3779 34.3384 59.0315C33.4451 58.6851 32.725 58.1108 32.1781 57.3087C31.6312 56.4883 31.2392 55.44 31.0022 54.1639C30.7652 52.8695 30.6467 51.3107 30.6467 49.4877C30.6467 47.6646 30.7652 46.115 31.0022 44.8388C31.2392 43.5444 31.6312 42.4962 32.1781 41.694C32.725 40.8736 33.4451 40.2811 34.3384 39.9165C35.2317 39.5336 36.3256 39.3422 37.62 39.3422C38.9144 39.3422 40.0082 39.5336 40.9015 39.9165C41.7948 40.2811 42.515 40.8736 43.0619 41.694C43.6088 42.4962 44.0008 43.5444 44.2378 44.8388C44.4748 46.115 44.5933 47.6646 44.5933 49.4877C44.5933 51.3654 44.4657 52.9515 44.2104 54.2459C43.9552 55.5403 43.5359 56.5977 42.9525 57.4181L45.3043 59.7698ZM53.9365 46.753V45.6592C53.9365 44.5471 53.8271 43.7905 53.6083 43.3895C53.3896 42.9884 53.0341 42.7878 52.5418 42.7878C52.159 42.7878 51.8491 42.8881 51.6121 43.0887C51.3933 43.2892 51.2201 43.6447 51.0925 44.1552C50.9831 44.6656 50.9102 45.3584 50.8737 46.2335C50.8372 47.0903 50.819 48.1751 50.819 49.4877C50.819 50.8003 50.8372 51.8941 50.8737 52.7692C50.9102 53.6261 50.9831 54.3097 51.0925 54.8202C51.2201 55.3306 51.3933 55.6861 51.6121 55.8867C51.8491 56.0872 52.159 56.1875 52.5418 56.1875C52.8517 56.1875 53.107 56.1146 53.3075 55.9687C53.5081 55.8046 53.663 55.5403 53.7724 55.1757C53.8818 54.8111 53.9547 54.3279 53.9912 53.7263C54.0459 53.1065 54.0732 52.3317 54.0732 51.4019H58.9955V52.8513C58.9955 54.2186 58.8132 55.3398 58.4486 56.2148C58.084 57.0899 57.6009 57.7827 56.9993 58.2931C56.3976 58.7854 55.7049 59.1135 54.9209 59.2776C54.1553 59.4599 53.3622 59.5511 52.5418 59.5511C51.1198 59.5511 49.9531 59.3779 49.0415 59.0315C48.13 58.6851 47.419 58.1108 46.9085 57.3087C46.398 56.4883 46.0425 55.44 45.842 54.1639C45.6597 52.8695 45.5685 51.3107 45.5685 49.4877C45.5685 47.6281 45.6779 46.0512 45.8967 44.7568C46.1337 43.4624 46.5257 42.4141 47.0726 41.612C47.6195 40.8098 48.3396 40.2355 49.2329 39.8891C50.1262 39.5245 51.2292 39.3422 52.5418 39.3422C53.6904 39.3422 54.6657 39.4881 55.4679 39.7798C56.27 40.0715 56.9172 40.4908 57.4095 41.0377C57.9199 41.5664 58.2845 42.2136 58.5033 42.9793C58.7403 43.7267 58.8588 44.5745 58.8588 45.5225V46.753H53.9365Z" fill="#76787F"/>
<path fill-rule="evenodd" clip-rule="evenodd" d="M88.7551 42.9366L93.2133 47.5631L97.6715 42.9366H105.417L97.0803 50.8678L105.417 58.7989H97.6715L93.2133 54.1606L88.7551 58.7989H80.9976L89.3346 50.8678L80.9976 42.9366H88.7551ZM88.3253 50.8678L79.2578 42.2417H89.0515L93.2133 46.5606L97.3751 42.2417H106.819V42.2299H122.825C126.485 42.1925 129.583 45.2531 129.533 48.9254C129.532 50.2463 129.175 51.4639 128.46 52.5476C127.922 53.3679 127.24 54.0428 126.423 54.556L129.836 58.9381V56.0962C129.836 53.8696 131.5 52.4501 133.414 51.5087C135.347 50.5583 137.786 49.9645 139.817 49.4841C139.818 49.4839 139.819 49.4836 139.82 49.4834L139.843 49.4776C141.095 49.1697 142.161 48.9076 142.92 48.6249C143.304 48.4816 143.556 48.3519 143.7 48.2417C143.718 48.2277 143.733 48.2153 143.746 48.2046C143.702 48.1642 143.612 48.1039 143.435 48.0344C143.022 47.8727 142.317 47.7509 141.249 47.7506C140.108 47.7624 139.138 47.8552 138.476 48.0874C138.15 48.2019 137.953 48.3323 137.842 48.4547C137.748 48.5598 137.692 48.6845 137.697 48.8801L137.714 49.5917H130.084V48.8968C130.084 47.4702 130.364 46.2774 130.924 45.3001C131.487 44.3184 132.307 43.6016 133.307 43.0875C135.269 42.0788 137.972 41.8286 140.986 41.8286C144.072 41.8286 146.634 42.1847 148.448 43.1015C149.366 43.5661 150.112 44.1844 150.625 44.9885C151.139 45.7947 151.391 46.7437 151.391 47.8228C151.391 49.8197 150.186 51.0916 148.709 51.9206C147.275 52.7255 145.47 53.1826 143.971 53.5483H151.131V59.4703H130.25L130.259 59.4821H121.895L118.903 55.6109H114.408V59.4821H107.144L107.157 59.4939H97.3746L93.2133 55.1645L89.052 59.4939H79.2578L88.3253 50.8678ZM106.819 59.1721V42.5634L98.0895 50.8678L106.819 59.1721ZM119.246 54.916L122.238 58.7871H128.836L125.371 54.3376C125.588 54.2371 125.795 54.1259 125.994 54.0043C126.752 53.5401 127.382 52.9234 127.878 52.166C128.517 51.1982 128.836 50.1124 128.836 48.9204C128.884 45.6393 126.105 42.8894 122.829 42.9248H107.515V58.7871H113.711V54.916H119.246ZM140.324 54.2432C140.541 53.9779 140.934 53.7523 141.456 53.5483C142.071 53.3075 142.863 53.0967 143.753 52.886C146.804 52.1424 150.695 51.1274 150.695 47.8228C150.695 43.9516 147.1 42.5235 140.986 42.5235C135.237 42.5235 131.16 43.4601 130.806 48.2018C130.789 48.425 130.78 48.6565 130.78 48.8968H137.001C137 48.8706 137 48.8448 137.001 48.8194C137.035 47.4095 138.981 47.0788 141.246 47.0556C143.457 47.0556 144.474 47.5513 144.474 48.2241C144.474 49.0545 142.512 49.5372 140.048 50.1431L139.981 50.1596C135.889 51.1274 130.532 52.4729 130.532 56.0962V58.7753H150.434V54.2432H140.324ZM143.785 48.2579C143.784 48.2581 143.781 48.2535 143.779 48.2433C143.785 48.2525 143.786 48.2576 143.785 48.2579ZM121.932 48.9204C121.932 48.5489 121.64 48.2581 121.268 48.2581H114.408V49.5709H121.268C121.468 49.5709 121.608 49.5102 121.733 49.385C121.876 49.2424 121.932 49.0998 121.932 48.9204ZM122.628 48.9204C122.628 48.165 122.025 47.5631 121.268 47.5631H113.711V50.2658H121.268C121.646 50.2658 121.966 50.136 122.226 49.8764C122.498 49.6049 122.628 49.2863 122.628 48.9204Z" fill="#76787F"/>
<path d="M81.5708 70.2424H84.5387V66.1787L87.5121 70.2424H88.996L91.9695 66.1787V70.2424H94.9374V62.625H91.2276L88.2541 66.4337L85.2863 62.625H81.5708V70.2424Z" fill="#76787F"/>
<path d="M101.19 62.438C98.3243 62.4437 95.9795 63.2711 95.9908 66.156V66.7114C95.9795 69.5906 98.3243 70.4238 101.19 70.4294C104.05 70.4238 106.395 69.5906 106.384 66.7114V66.156C106.384 63.2768 104.056 62.438 101.19 62.438ZM103.416 66.5244C103.433 67.7713 102.402 67.998 101.19 68.015C99.9725 67.998 98.9416 67.7713 98.9586 66.5244V66.3374C98.9416 65.0961 99.9725 64.8694 101.19 64.8524C102.402 64.8694 103.433 65.0961 103.416 66.3374V66.5244Z" fill="#76787F"/>
<path d="M114.698 66.4448C114.698 67.2099 114.262 67.839 113.492 67.839H110.241V65.0505H113.492C114.262 65.0505 114.698 65.6739 114.698 66.4448ZM107.273 62.6361V70.2534H114.047C116.137 70.2818 117.689 68.5135 117.672 66.4448C117.689 64.3647 116.137 62.6077 114.047 62.6361H107.273Z" fill="#76787F"/>
<path d="M125.935 66.5301C125.952 67.7826 124.922 67.998 123.709 68.015C122.492 67.998 121.467 67.7826 121.478 66.5301V62.625H118.51V66.7171C118.499 69.5963 120.855 70.4238 123.709 70.4294C126.564 70.4238 128.92 69.5963 128.909 66.7171V62.625H125.935V66.5301Z" fill="#76787F"/>
<path d="M130.245 62.625V70.2424H139.155V67.828H133.213V62.625H130.245Z" fill="#76787F"/>
<path d="M140.168 70.2535H149.078V68.2982H143.136V67.3233H149.078V65.5607H143.136V64.5858H149.078V62.6362H140.168V70.2535Z" fill="#76787F"/>
<path d="M83.2797 33.6055V32.0002H87.6786C87.8917 32.0002 88.0772 32.0773 88.2284 32.2385C88.3865 32.3928 88.4621 32.582 88.4621 32.8063C88.4621 33.0237 88.3865 33.2129 88.2284 33.3742C88.0772 33.5284 87.8917 33.6055 87.6786 33.6055H83.2797ZM79.6782 29.2453V38.6667H83.2797V36.3674H88.579C90.4829 36.3955 92.0981 34.7481 92.0706 32.8063C92.0981 30.8576 90.4829 29.2242 88.579 29.2453H79.6782Z" fill="#76787F"/>
<path d="M99.2393 29C95.7615 29.007 92.916 30.0305 92.9297 33.5986V34.2856C92.916 37.8467 95.7615 38.8771 99.2393 38.8841C102.71 38.8771 105.556 37.8467 105.542 34.2856V33.5986C105.542 30.0375 102.717 29 99.2393 29ZM101.94 34.0542C101.961 35.5964 100.71 35.8768 99.2393 35.8979C97.7616 35.8768 96.5107 35.5964 96.5313 34.0542V33.8229C96.5107 32.2877 97.7616 32.0073 99.2393 31.9863C100.71 32.0073 101.961 32.2877 101.94 33.8229V34.0542Z" fill="#76787F"/>
<path d="M119.584 35.2111L117.446 29.2456H113.391L111.247 35.2111L109.109 29.2456H105.054L109.109 38.667H113.391L115.419 33.9563L117.446 38.667H121.728L125.784 29.2456H121.728L119.584 35.2111Z" fill="#76787F"/>
<path d="M126.059 38.667H136.87V36.2486H129.66V35.0428H136.87V32.8627H129.66V31.657H136.87V29.2456H126.059V38.667Z" fill="#76787F"/>
<path d="M138.788 29.2385V38.66H142.389V36.3607H145.606L147.345 38.66H151.18L149.166 36.0172C149.771 35.7298 150.259 35.2952 150.623 34.7274C150.995 34.1526 151.18 33.5077 151.18 32.7996C151.208 30.8508 149.592 29.2175 147.689 29.2385H138.788ZM146.781 31.9935C147.221 31.9935 147.572 32.351 147.572 32.7996C147.572 33.0169 147.496 33.2062 147.338 33.3674C147.187 33.5217 147.001 33.5988 146.781 33.5988H142.389V31.9935H146.781Z" fill="#76787F"/>
</svg>
