<svg width="180" height="100" viewBox="0 0 180 100" fill="none" xmlns="http://www.w3.org/2000/svg">
<path d="M39.2744 54.79H42.3118V69.5H39.2744V54.79Z" fill="#76787F"/>
<path d="M44.0736 64.4601C44.0716 63.4035 44.387 62.3701 44.9798 61.4906C45.5727 60.6112 46.4164 59.9252 47.4042 59.5195C48.3919 59.1138 49.4794 59.0066 50.5288 59.2115C51.5783 59.4164 52.5426 59.9242 53.2998 60.6706C54.0569 61.417 54.5729 62.3685 54.7823 63.4046C54.9917 64.4408 54.8853 65.515 54.4763 66.4913C54.0674 67.4677 53.3744 68.3023 52.4851 68.8895C51.5958 69.4767 50.55 69.7901 49.4803 69.7901C48.7688 69.7981 48.063 69.6658 47.404 69.4009C46.745 69.136 46.1462 68.7439 45.6427 68.2475C45.1391 67.7511 44.741 67.1604 44.4715 66.51C44.2021 65.8597 44.0668 65.1628 44.0736 64.4601ZM51.8292 64.4601C51.8173 64.004 51.6694 63.5615 51.4042 63.1879C51.1389 62.8144 50.768 62.5264 50.3379 62.36C49.9077 62.1935 49.4375 62.1561 48.9859 62.2522C48.5343 62.3484 48.1215 62.574 47.799 62.9007C47.4765 63.2274 47.2588 63.6408 47.173 64.0891C47.0871 64.5374 47.1371 65.0008 47.3165 65.4212C47.4959 65.8417 47.7969 66.2005 48.1818 66.4529C48.5666 66.7053 49.0183 66.84 49.4803 66.8401C49.7963 66.8488 50.1108 66.7928 50.4038 66.6755C50.6969 66.5582 50.9621 66.3822 51.1828 66.1585C51.4035 65.9349 51.5749 65.6685 51.6862 65.3762C51.7974 65.0839 51.8461 64.772 51.8292 64.4601Z" fill="#76787F"/>
<path d="M67.0975 59.42V69C67.0975 72.39 64.4144 73.82 61.701 73.82C60.7468 73.8901 59.7915 73.6995 58.9396 73.2691C58.0878 72.8387 57.3723 72.1852 56.8714 71.38L59.4836 69.89C59.6909 70.3026 60.0189 70.6443 60.4251 70.8708C60.8312 71.0972 61.2969 71.198 61.7617 71.16C62.0676 71.2103 62.3811 71.1906 62.6781 71.1024C62.975 71.0141 63.2475 70.8597 63.4745 70.651C63.7014 70.4423 63.8768 70.1849 63.9871 69.8986C64.0974 69.6124 64.1397 69.3049 64.1107 69V68.07C63.7536 68.5039 63.298 68.8486 62.7808 69.0762C62.2636 69.3038 61.6995 69.4079 61.134 69.38C59.7591 69.38 58.4406 68.8405 57.4684 67.8804C56.4962 66.9202 55.95 65.6179 55.95 64.26C55.95 62.9021 56.4962 61.5998 57.4684 60.6396C58.4406 59.6794 59.7591 59.14 61.134 59.14C61.6991 59.1145 62.2625 59.2196 62.7793 59.447C63.2961 59.6745 63.752 60.0179 64.1107 60.45V59.45L67.0975 59.42ZM64.1107 64.26C64.1309 63.7736 64.0033 63.2924 63.7445 62.8782C63.4856 62.464 63.1072 62.1358 62.6579 61.9357C62.2086 61.7356 61.709 61.6728 61.2233 61.7553C60.7376 61.8379 60.288 62.062 59.9323 62.3989C59.5766 62.7358 59.3311 63.1701 59.2273 63.646C59.1234 64.1218 59.1661 64.6174 59.3497 65.0691C59.5334 65.5208 59.8496 65.908 60.2578 66.1808C60.6659 66.4536 61.1474 66.5996 61.6402 66.6C61.9619 66.6225 62.2848 66.5781 62.5881 66.4698C62.8913 66.3615 63.1683 66.1917 63.401 65.9712C63.6338 65.7508 63.8172 65.4846 63.9394 65.1899C64.0616 64.8951 64.12 64.5784 64.1107 64.26Z" fill="#76787F"/>
<path d="M68.8492 64.4601C68.8471 63.4035 69.1625 62.3701 69.7554 61.4906C70.3483 60.6112 71.192 59.9252 72.1798 59.5195C73.1675 59.1138 74.2549 59.0066 75.3044 59.2115C76.3539 59.4164 77.3182 59.9242 78.0753 60.6706C78.8325 61.417 79.3484 62.3685 79.5579 63.4046C79.7673 64.4408 79.6608 65.515 79.2519 66.4913C78.843 67.4677 78.15 68.3023 77.2607 68.8895C76.3713 69.4767 75.3256 69.7901 74.2558 69.7901C73.5444 69.7981 72.8385 69.6658 72.1796 69.4009C71.5206 69.136 70.9218 68.7439 70.4182 68.2475C69.9147 67.7511 69.5165 67.1604 69.2471 66.51C68.9777 65.8597 68.8424 65.1628 68.8492 64.4601ZM76.6048 64.4601C76.5929 64.004 76.445 63.5615 76.1797 63.1879C75.9145 62.8144 75.5436 62.5264 75.1135 62.36C74.6833 62.1935 74.213 62.1561 73.7615 62.2522C73.3099 62.3484 72.897 62.574 72.5746 62.9007C72.2521 63.2274 72.0344 63.6408 71.9485 64.0891C71.8627 64.5374 71.9126 65.0008 72.0921 65.4212C72.2715 65.8417 72.5725 66.2005 72.9574 66.4529C73.3422 66.7053 73.7939 66.84 74.2558 66.8401C74.5702 66.846 74.8825 66.7879 75.1731 66.6694C75.4637 66.5508 75.7265 66.3744 75.945 66.151C76.1635 65.9277 76.3331 65.6623 76.4431 65.3714C76.5532 65.0804 76.6013 64.7702 76.5846 64.4601H76.6048Z" fill="#76787F"/>
<path d="M81.0699 56.7199C81.0699 56.3599 81.1779 56.0081 81.3804 55.7088C81.5829 55.4095 81.8707 55.1762 82.2074 55.0384C82.5441 54.9007 82.9146 54.8646 83.2721 54.9349C83.6295 55.0051 83.9579 55.1784 84.2156 55.433C84.4733 55.6875 84.6488 56.0118 84.7199 56.3648C84.791 56.7179 84.7545 57.0838 84.615 57.4164C84.4756 57.7489 84.2394 58.0332 83.9363 58.2332C83.6333 58.4332 83.277 58.5399 82.9126 58.5399C82.4247 58.5373 81.9575 58.3447 81.6125 58.0039C81.2675 57.6632 81.0725 57.2018 81.0699 56.7199ZM81.3837 59.4199H84.4212V69.4999H81.3837V59.4199Z" fill="#76787F"/>
<path d="M97.6645 64.4599C97.7014 65.1262 97.6044 65.7931 97.3792 66.4223C97.154 67.0514 96.805 67.6303 96.3524 68.1257C95.8997 68.6211 95.3523 69.0232 94.7417 69.3088C94.1311 69.5944 93.4693 69.7579 92.7945 69.7899C92.2279 69.8168 91.6623 69.7205 91.1374 69.508C90.6126 69.2955 90.1414 68.9719 89.757 68.5599V73.5599H86.7195V59.4199H89.757V60.3699C90.1414 59.958 90.6126 59.6343 91.1374 59.4218C91.6623 59.2093 92.2279 59.113 92.7945 59.1399C93.4684 59.1719 94.1293 59.3351 94.7393 59.6201C95.3492 59.905 95.8961 60.3062 96.3486 60.8005C96.8011 61.2949 97.1503 61.8726 97.3762 62.5006C97.602 63.1286 97.7 63.7944 97.6645 64.4599ZM94.6271 64.4599C94.615 63.9906 94.4639 63.535 94.1923 63.1496C93.9208 62.7643 93.5407 62.4661 93.0993 62.2919C92.6578 62.1177 92.1744 62.0753 91.7087 62.1698C91.2431 62.2643 90.8158 62.4916 90.4796 62.8236C90.1435 63.1556 89.9133 63.5777 89.8177 64.0376C89.722 64.4975 89.7649 64.975 89.9413 65.411C90.1176 65.847 90.4196 66.2223 90.8097 66.4905C91.1999 66.7587 91.6611 66.908 92.1363 66.9199C92.468 66.9407 92.8003 66.8912 93.111 66.7747C93.4216 66.6581 93.7034 66.4773 93.9374 66.2442C94.1714 66.0112 94.3523 65.7314 94.4677 65.4236C94.5832 65.1159 94.6306 64.7873 94.6068 64.4599H94.6271Z" fill="#76787F"/>
<path d="M107.121 66.48C107.121 68.8 105.096 69.79 102.869 69.79C101.979 69.8678 101.086 69.6808 100.305 69.2531C99.5232 68.8254 98.8894 68.1765 98.4846 67.39L101.137 65.9C101.245 66.2638 101.476 66.5802 101.791 66.7966C102.105 67.0131 102.486 67.1166 102.869 67.09C103.608 67.09 103.972 66.86 103.972 66.46C103.972 65.35 98.9099 65.94 98.9099 62.46C98.9099 60.26 100.793 59.15 102.96 59.15C103.759 59.126 104.551 59.3136 105.252 59.6934C105.954 60.0732 106.54 60.6313 106.949 61.31L104.286 62.69C104.169 62.4259 103.976 62.2012 103.731 62.0432C103.487 61.8852 103.201 61.8007 102.909 61.8C102.383 61.8 102.059 62 102.059 62.37C102.099 63.52 107.121 62.75 107.121 66.48Z" fill="#76787F"/>
<path d="M118.299 59.4199V69.4999H115.262V68.5599C114.908 68.9776 114.46 69.3068 113.953 69.5205C113.446 69.7343 112.895 69.8266 112.346 69.7899C110.321 69.7899 108.529 68.3399 108.529 65.6099V59.4199H111.566V65.1699C111.539 65.415 111.568 65.6628 111.651 65.8954C111.733 66.1281 111.867 66.3397 112.042 66.5149C112.218 66.6902 112.43 66.8246 112.665 66.9085C112.9 66.9924 113.15 67.0236 113.399 66.9999C114.512 66.9999 115.292 66.3599 115.292 64.9299V59.4199H118.299Z" fill="#76787F"/>
<path d="M135.856 63.3199V69.5H132.818V63.58C132.818 62.58 132.322 61.9199 131.35 61.9199C130.378 61.9199 129.75 62.6299 129.75 63.8199V69.5H126.713V63.58C126.713 62.58 126.227 61.9199 125.245 61.9199C124.263 61.9199 123.655 62.6299 123.655 63.8199V69.5H120.618V59.4199H123.655V60.3499C123.973 59.9392 124.389 59.6134 124.866 59.402C125.344 59.1907 125.867 59.1006 126.389 59.1399C126.913 59.1148 127.434 59.2241 127.903 59.4572C128.371 59.6903 128.77 60.0392 129.062 60.47C129.401 60.0196 129.85 59.6614 130.367 59.4288C130.884 59.1962 131.452 59.0968 132.018 59.1399C134.327 59.1399 135.856 60.7999 135.856 63.3199Z" fill="#76787F"/>
<path d="M138.448 59.3599C139.7 59.3599 140.715 58.357 140.715 57.1199C140.715 55.8828 139.7 54.8799 138.448 54.8799C137.195 54.8799 136.18 55.8828 136.18 57.1199C136.18 58.357 137.195 59.3599 138.448 59.3599Z" fill="#76787F"/>
<path d="M73.6483 47.1599C79.5141 47.1599 84.2693 42.4634 84.2693 36.6699C84.2693 30.8765 79.5141 26.1799 73.6483 26.1799C67.7825 26.1799 63.0273 30.8765 63.0273 36.6699C63.0273 42.4634 67.7825 47.1599 73.6483 47.1599Z" fill="#76787F"/>
<path d="M97.3912 47.1599C103.257 47.1599 108.012 42.4634 108.012 36.6699C108.012 30.8765 103.257 26.1799 97.3912 26.1799C91.5254 26.1799 86.7702 30.8765 86.7702 36.6699C86.7702 42.4634 91.5254 47.1599 97.3912 47.1599Z" fill="#76787F"/>
<path d="M60.5265 26.1799H39.2946V47.1499H60.5265V26.1799Z" fill="#76787F"/>
</svg>
