<svg width="180" height="100" viewBox="0 0 180 100" fill="none" xmlns="http://www.w3.org/2000/svg">
<path d="M54.4009 45.71C54.7654 45.71 54.8869 45.84 54.8869 46.19V54.11H59.0078C59.3621 54.11 59.4938 54.24 59.4938 54.59V55.29C59.4938 55.64 59.3621 55.77 59.0078 55.77H53.5808C53.2265 55.77 53.0847 55.64 53.0847 55.29V46.19C53.0847 45.84 53.2265 45.71 53.5808 45.71H54.4009Z" fill="#76787F"/>
<path d="M63.0881 49.2C63.0881 46.89 64.5663 45.5 67.138 45.5C69.7098 45.5 71.188 46.89 71.188 49.2V52.28C71.188 54.59 69.6996 55.98 67.138 55.98C64.5764 55.98 63.0881 54.59 63.0881 52.28V49.2ZM69.487 49.2C69.487 47.9 68.6669 47.2 67.1887 47.2C65.7104 47.2 64.9004 47.91 64.9004 49.2V52.3C64.9004 53.61 65.7104 54.3 67.1887 54.3C68.6669 54.3 69.487 53.58 69.487 52.3V49.2Z" fill="#76787F"/>
<path d="M83.2467 50.26C83.6416 50.26 83.7327 50.39 83.7327 50.74V52.64C83.7434 53.0875 83.6526 53.5317 83.4669 53.9401C83.2812 54.3485 83.0053 54.7106 82.6595 55C81.8006 55.6755 80.7176 56.0106 79.622 55.94C76.9997 55.94 75.5721 54.55 75.5721 52.24V49.14C75.5721 46.86 77.0503 45.46 79.622 45.46C81.647 45.46 82.9632 46.25 83.5201 47.83C83.5512 47.8893 83.5679 47.9551 83.5689 48.0219C83.5698 48.0888 83.5549 48.1549 83.5254 48.2151C83.4959 48.2753 83.4527 48.3279 83.399 48.3686C83.3453 48.4094 83.2828 48.4372 83.2163 48.45L82.4266 48.72C82.0824 48.84 81.9406 48.77 81.8191 48.42C81.6514 47.9928 81.3443 47.6331 80.9464 47.3977C80.5485 47.1622 80.0824 47.0645 79.622 47.12C78.1336 47.12 77.3237 47.83 77.3237 49.12V52.3C77.3237 53.61 78.1438 54.3 79.622 54.3C81.1002 54.3 82.0115 53.63 82.0115 52.65V51.91H79.8144C79.4499 51.91 79.3183 51.77 79.3183 51.42V50.74C79.3183 50.39 79.4499 50.26 79.8144 50.26H83.2467Z" fill="#76787F"/>
<path d="M87.9143 49.2C87.9143 46.89 89.3925 45.5 91.9642 45.5C94.5359 45.5 96.0142 46.89 96.0142 49.2V52.28C96.0142 54.59 94.5258 55.98 91.9642 55.98C89.4026 55.98 87.9143 54.59 87.9143 52.28V49.2ZM94.3031 49.2C94.3031 47.9 93.483 47.2 92.0148 47.2C90.5467 47.2 89.7165 47.91 89.7165 49.2V52.3C89.7165 53.61 90.5366 54.3 92.0148 54.3C93.4931 54.3 94.3031 53.58 94.3031 52.3V49.2Z" fill="#76787F"/>
<path d="M100.783 46C100.783 45.78 100.854 45.71 101.077 45.71H101.542C101.765 45.71 101.816 45.78 101.816 46V55.48C101.816 55.7 101.816 55.77 101.542 55.77H101.077C100.854 55.77 100.783 55.7 100.783 55.48V46Z" fill="#76787F"/>
<path d="M111.039 45.71C111.883 45.71 112.691 46.0408 113.288 46.6296C113.884 47.2185 114.219 48.0172 114.219 48.85C114.219 49.6827 113.884 50.4814 113.288 51.0703C112.691 51.6591 111.883 51.99 111.039 51.99H108.002V55.48C108.002 55.7 107.951 55.77 107.739 55.77H107.263C107.05 55.77 106.969 55.7 106.969 55.48V46C106.969 45.78 107.05 45.71 107.263 45.71H111.039ZM110.948 51C111.238 51 111.525 50.9436 111.793 50.834C112.061 50.7245 112.304 50.5639 112.509 50.3615C112.714 50.159 112.877 49.9187 112.988 49.6542C113.098 49.3897 113.156 49.1062 113.156 48.82C113.156 48.5337 113.098 48.2502 112.988 47.9857C112.877 47.7212 112.714 47.4809 112.509 47.2785C112.304 47.076 112.061 46.9155 111.793 46.8059C111.525 46.6963 111.238 46.64 110.948 46.64H107.911V51H110.948Z" fill="#76787F"/>
<path d="M122.126 45.5101C122.908 45.4249 123.697 45.591 124.375 45.9837C125.054 46.3764 125.586 46.9748 125.893 47.6901C125.974 47.8501 125.893 47.9801 125.731 48.0601L125.285 48.2601C125.103 48.3301 125.032 48.3201 124.921 48.1301C124.691 47.5993 124.297 47.1543 123.795 46.8594C123.292 46.5646 122.708 46.4353 122.126 46.4901C120.415 46.4901 119.484 47.1601 119.484 48.3601C119.474 48.7268 119.598 49.0847 119.835 49.3678C120.071 49.6508 120.403 49.8399 120.769 49.9001C121.314 50.0755 121.879 50.183 122.45 50.2201C123.142 50.2565 123.825 50.3947 124.475 50.6301C124.974 50.7859 125.403 51.1066 125.691 51.5382C125.978 51.9698 126.107 52.486 126.055 53.0001C126.055 54.8701 124.678 56.0001 122.146 56.0001C121.316 56.0939 120.479 55.9039 119.773 55.4617C119.067 55.0195 118.536 54.3519 118.269 53.5701C118.251 53.5344 118.241 53.4953 118.24 53.4556C118.24 53.4158 118.248 53.3763 118.264 53.34C118.281 53.3037 118.305 53.2715 118.335 53.2455C118.366 53.2196 118.402 53.2007 118.441 53.1901L118.886 53.0301C118.921 53.0159 118.959 53.0091 118.997 53.0101C119.035 53.0111 119.072 53.0199 119.106 53.0359C119.141 53.0519 119.171 53.0747 119.196 53.103C119.221 53.1312 119.24 53.1643 119.251 53.2001C119.477 53.765 119.88 54.244 120.401 54.5676C120.921 54.8913 121.533 55.0428 122.146 55.0001C124.06 55.0001 125.002 54.3401 125.002 53.0001C125.02 52.6478 124.91 52.3008 124.693 52.0206C124.476 51.7405 124.166 51.5454 123.817 51.4701C123.293 51.3157 122.753 51.2218 122.207 51.1901L121.114 51.0501C120.772 50.9783 120.434 50.8882 120.101 50.7801C119.773 50.6822 119.467 50.5226 119.2 50.3101C118.932 50.0699 118.72 49.7742 118.58 49.4441C118.44 49.1141 118.375 48.7576 118.39 48.4001C118.461 46.6501 119.787 45.5101 122.126 45.5101Z" fill="#76787F"/>
<path d="M131.512 52.35C131.555 53.0571 131.87 53.7214 132.392 54.2071C132.914 54.6928 133.604 54.9633 134.322 54.9633C135.039 54.9633 135.729 54.6928 136.251 54.2071C136.774 53.7214 137.088 53.0571 137.131 52.35V46C137.131 45.78 137.202 45.71 137.425 45.71H137.891C138.113 45.71 138.184 45.78 138.184 46V52.34C138.184 54.61 136.828 55.98 134.327 55.98C131.826 55.98 130.469 54.61 130.469 52.34V46C130.469 45.78 130.54 45.71 130.753 45.71H131.228C131.441 45.71 131.512 45.78 131.512 46V52.35Z" fill="#76787F"/>
<path d="M152.157 45.71C152.379 45.71 152.45 45.78 152.45 46V55.48C152.45 55.7 152.379 55.77 152.157 55.77H151.731C151.519 55.77 151.448 55.7 151.448 55.48V49.71C151.448 48.8704 151.505 48.0318 151.62 47.2H151.559C151.243 47.9607 150.874 48.6991 150.456 49.41L148.279 53.2C148.252 53.2657 148.206 53.322 148.146 53.3612C148.087 53.4005 148.016 53.421 147.945 53.42H147.661C147.588 53.4203 147.517 53.3997 147.456 53.3606C147.395 53.3216 147.346 53.2657 147.317 53.2L145.11 49.37C144.718 48.6692 144.379 47.9405 144.097 47.19H144.036C144.14 48.0295 144.194 48.8743 144.198 49.72V55.48C144.198 55.7 144.128 55.77 143.905 55.77H143.51C143.287 55.77 143.216 55.7 143.216 55.48V46C143.216 45.78 143.287 45.71 143.51 45.71H143.874C143.958 45.7023 144.041 45.7203 144.114 45.7615C144.186 45.8027 144.244 45.865 144.279 45.94L147.823 52.16L151.347 46C151.458 45.79 151.519 45.76 151.741 45.76L152.157 45.71Z" fill="#76787F"/>
<path d="M36.3888 53.55V60.78C36.3888 61.0572 36.2773 61.323 36.0789 61.5189C35.8805 61.7149 35.6114 61.825 35.3307 61.825C35.0501 61.825 34.781 61.7149 34.5826 61.5189C34.3842 61.323 34.2727 61.0572 34.2727 60.78V53.56C34.5673 53.7725 34.9205 53.8911 35.2852 53.9C35.6827 53.9112 36.0722 53.7877 36.3888 53.55ZM45.3999 51.46C45.1314 51.46 44.8739 51.5654 44.684 51.7529C44.4941 51.9404 44.3874 52.1948 44.3874 52.46V53.72C44.3874 53.9972 44.4989 54.263 44.6973 54.4589C44.8958 54.6549 45.1649 54.765 45.4455 54.765C45.7261 54.765 45.9952 54.6549 46.1937 54.4589C46.3921 54.263 46.5035 53.9972 46.5035 53.72V52.51C46.5114 52.3666 46.4879 52.2232 46.4347 52.0896C46.3815 51.956 46.2997 51.8352 46.195 51.7356C46.0903 51.636 45.9651 51.5598 45.8279 51.5123C45.6907 51.4647 45.5447 51.4469 45.3999 51.46ZM31.9744 56.29C31.61 56.2792 31.2573 56.1608 30.9619 55.95V63.2C30.9619 63.4785 31.0739 63.7456 31.2732 63.9425C31.4726 64.1394 31.743 64.25 32.025 64.25C32.3069 64.25 32.5773 64.1394 32.7767 63.9425C32.9761 63.7456 33.0881 63.4785 33.0881 63.2V56C32.7575 56.2111 32.3674 56.3127 31.9744 56.29ZM42.0992 49.29C41.9621 49.2832 41.8249 49.3041 41.6962 49.3513C41.5675 49.3985 41.4498 49.4711 41.3503 49.5646C41.2509 49.6582 41.1717 49.7707 41.1177 49.8954C41.0637 50.0201 41.0359 50.1544 41.0361 50.29V55.86C41.0361 56.1385 41.1481 56.4056 41.3475 56.6025C41.5469 56.7994 41.8173 56.91 42.0992 56.91C42.3812 56.91 42.6516 56.7994 42.851 56.6025C43.0503 56.4056 43.1623 56.1385 43.1623 55.86V50.36C43.1704 50.2157 43.1467 50.0714 43.0929 49.937C43.039 49.8026 42.9563 49.6813 42.8505 49.5815C42.7446 49.4817 42.6181 49.4057 42.4797 49.3589C42.3413 49.312 42.1942 49.2953 42.0486 49.31L42.0992 49.29ZM38.7378 51.43C38.3564 51.4274 37.9852 51.3087 37.6747 51.09V58.36C37.6747 58.6385 37.7867 58.9056 37.986 59.1025C38.1854 59.2994 38.4558 59.41 38.7378 59.41C39.0197 59.41 39.2901 59.2994 39.4895 59.1025C39.6889 58.9056 39.8009 58.6385 39.8009 58.36V51.1C39.4797 51.3363 39.0876 51.4595 38.6871 51.45L38.7378 51.43ZM29.676 57V36.69C29.6733 36.4424 29.5719 36.2059 29.3937 36.0318C29.2155 35.8577 28.9749 35.76 28.7243 35.76H28.5015C28.2508 35.76 28.0103 35.8577 27.8321 36.0318C27.6539 36.2059 27.5524 36.4424 27.5498 36.69V57C27.5498 57.2493 27.6501 57.4884 27.8285 57.6647C28.007 57.841 28.2491 57.94 28.5015 57.94H28.7243C28.9767 57.94 29.2188 57.841 29.3972 57.6647C29.5757 57.4884 29.676 57.2493 29.676 57ZM32.0857 55.52H31.863C31.6106 55.52 31.3685 55.421 31.19 55.2447C31.0115 55.0684 30.9112 54.8293 30.9112 54.58V39.11C30.9139 38.8624 31.0154 38.6259 31.1936 38.4518C31.3718 38.2777 31.6123 38.18 31.863 38.18H32.0857C32.3364 38.18 32.577 38.2777 32.7552 38.4518C32.9333 38.6259 33.0348 38.8624 33.0375 39.11V54.6C33.0375 54.8493 32.9372 55.0884 32.7587 55.2647C32.5802 55.441 32.3381 55.54 32.0857 55.54V55.52ZM35.4371 53.14H35.2042C34.9545 53.14 34.715 53.042 34.5384 52.8676C34.3618 52.6932 34.2626 52.4567 34.2626 52.21V41.51C34.2612 41.387 34.2846 41.265 34.3313 41.151C34.378 41.0371 34.4472 40.9333 34.5348 40.8459C34.6223 40.7585 34.7266 40.6891 34.8415 40.6417C34.9564 40.5944 35.0797 40.57 35.2042 40.57H35.4371C35.6877 40.5726 35.9272 40.6728 36.1035 40.8488C36.2798 41.0248 36.3787 41.2624 36.3787 41.51V52.21C36.3787 52.4567 36.2795 52.6932 36.1029 52.8676C35.9263 53.042 35.6868 53.14 35.4371 53.14ZM38.7884 50.69H38.5758C38.3251 50.69 38.0845 50.5924 37.9063 50.4182C37.7281 50.2441 37.6267 50.0076 37.624 49.76V44C37.6157 43.8716 37.6342 43.7429 37.6783 43.6218C37.7224 43.5008 37.7911 43.3899 37.8804 43.2962C37.9696 43.2025 38.0773 43.1278 38.197 43.0768C38.3166 43.0259 38.4455 42.9997 38.5758 43H38.7985C39.0509 43 39.293 43.099 39.4715 43.2753C39.65 43.4516 39.7503 43.6907 39.7503 43.94V49.74C39.7516 49.8643 39.728 49.9876 39.6807 50.1028C39.6335 50.218 39.5636 50.3228 39.4751 50.4112C39.3866 50.4995 39.2812 50.5697 39.1651 50.6175C39.049 50.6654 38.9244 50.69 38.7985 50.69H38.7884ZM42.1499 48.54H41.9271C41.6747 48.54 41.4326 48.441 41.2541 48.2647C41.0756 48.0884 40.9754 47.8493 40.9754 47.6V46.11C40.978 45.8624 41.0795 45.6259 41.2577 45.4518C41.4359 45.2777 41.6764 45.18 41.9271 45.18H42.1499C42.4005 45.18 42.6411 45.2777 42.8193 45.4518C42.9975 45.6259 43.0989 45.8624 43.1016 46.11V47.6C43.1016 47.8476 43.0027 48.0852 42.8264 48.2612C42.6501 48.4372 42.4106 48.5374 42.16 48.54H42.1499Z" fill="#76787F"/>
</svg>
