<svg width="180" height="100" viewBox="0 0 180 100" fill="none" xmlns="http://www.w3.org/2000/svg">
<path d="M32.3402 62.825H58.3108V37.175H32.3402V62.825ZM53.3121 47.5321H47.8244V42.112H53.3121V47.5321ZM37.3379 42.112H42.8287V52.468H53.3121V57.888H37.3379V42.112ZM75.2226 37.175C72.6543 37.175 70.1437 37.9272 68.0083 39.3365C65.8729 40.7457 64.2086 42.7487 63.2257 45.0921C62.2429 47.4356 61.9858 50.0143 62.4868 52.5021C62.9878 54.9899 64.2246 57.2751 66.0406 59.0687C67.8566 60.8623 70.1704 62.0838 72.6893 62.5786C75.2082 63.0735 77.8191 62.8195 80.1918 61.8488C82.5646 60.8781 84.5926 59.2343 86.0195 57.1252C87.4463 55.0162 88.2079 52.5366 88.2079 50C88.2039 46.5999 86.8345 43.3401 84.4001 40.9358C81.9658 38.5315 78.6653 37.179 75.2226 37.175ZM75.2226 57.888C73.643 57.888 72.0989 57.4254 70.7855 56.5587C69.4721 55.6919 68.4484 54.46 67.8439 53.0187C67.2394 51.5773 67.0813 49.9913 67.3894 48.4612C67.6976 46.9311 68.4583 45.5255 69.5752 44.4224C70.6921 43.3192 72.1152 42.568 73.6645 42.2636C75.2137 41.9593 76.8196 42.1155 78.2789 42.7125C79.7383 43.3095 80.9856 44.3205 81.8632 45.6177C82.7408 46.9149 83.2092 48.4399 83.2092 50C83.206 52.0911 82.3635 54.0956 80.8664 55.5742C79.3693 57.0528 77.3398 57.8849 75.2226 57.888ZM134.675 37.175C132.107 37.1749 129.597 37.9269 127.461 39.336C125.325 40.7451 123.661 42.748 122.678 45.0914C121.695 47.4349 121.438 50.0136 121.939 52.5015C122.439 54.9893 123.676 57.2746 125.492 59.0683C127.308 60.862 129.622 62.0836 132.141 62.5785C134.66 63.0735 137.271 62.8196 139.643 61.8489C142.016 60.8782 144.044 59.2344 145.471 57.1253C146.898 55.0163 147.66 52.5366 147.66 50C147.656 46.6 146.287 43.3404 143.852 40.9361C141.418 38.5319 138.118 37.1793 134.675 37.175ZM134.675 57.888C133.096 57.8882 131.552 57.4258 130.238 56.5592C128.925 55.6925 127.901 54.4607 127.296 53.0193C126.691 51.578 126.533 49.992 126.841 48.4618C127.149 46.9316 127.91 45.526 129.027 44.4227C130.144 43.3195 131.567 42.5681 133.116 42.2637C134.665 41.9592 136.271 42.1154 137.731 42.7124C139.19 43.3094 140.437 44.3204 141.315 45.6176C142.193 46.9148 142.661 48.4399 142.661 50C142.658 52.0909 141.816 54.0953 140.319 55.5738C138.822 57.0524 136.792 57.8846 134.675 57.888ZM104.949 37.175C102.38 37.175 99.8697 37.9272 97.7343 39.3365C95.5989 40.7457 93.9345 42.7487 92.9517 45.0921C91.9688 47.4356 91.7117 50.0143 92.2127 52.5021C92.7138 54.9899 93.9505 57.2751 95.7665 59.0687C97.5826 60.8623 99.8963 62.0838 102.415 62.5786C104.934 63.0735 107.545 62.8195 109.918 61.8488C112.291 60.8781 114.319 59.2343 115.745 57.1252C117.172 55.0162 117.934 52.5366 117.934 50C117.93 46.5999 116.56 43.3401 114.126 40.9358C111.692 38.5315 108.391 37.179 104.949 37.175ZM104.949 57.888C103.477 57.8888 102.034 57.4879 100.778 56.7296C99.5224 55.9713 98.5034 54.8851 97.8335 53.5909C97.1635 52.2967 96.8686 50.8449 96.9814 49.3956C97.0942 47.9464 97.6102 46.5561 98.4725 45.3782C99.3348 44.2003 100.51 43.2807 101.868 42.7208C103.226 42.1608 104.715 41.9825 106.169 42.2053C107.623 42.4281 108.987 43.0435 110.109 43.9835C111.232 44.9234 112.07 46.1515 112.53 47.5321H104.949V52.468H112.53C112.003 54.0434 110.987 55.4147 109.626 56.3876C108.265 57.3604 106.628 57.8854 104.949 57.888Z" fill="#76787F"/>
</svg>
