<svg width="180" height="100" viewBox="0 0 180 100" fill="none" xmlns="http://www.w3.org/2000/svg">
<path d="M41.9367 48.371C41.553 48.7523 41.2591 49.2125 41.0761 49.7187C40.893 50.225 40.8253 50.7649 40.8776 51.3L40.8594 51.282C40.9132 51.9119 40.8272 52.5457 40.6074 53.1394C40.3876 53.733 40.0393 54.2721 39.5867 54.7191C39.1342 55.166 38.5883 55.5101 37.9873 55.7272C37.3862 55.9443 36.7444 56.0292 36.1067 55.976L36.1249 55.994C35.3621 55.9239 34.5959 56.0878 33.9309 56.4635C33.2659 56.8392 32.7343 57.4083 32.4088 58.0933C32.0832 58.7783 31.9795 59.5458 32.1118 60.2911C32.244 61.0364 32.6058 61.7233 33.1478 62.2581C33.6898 62.7929 34.3856 63.1496 35.1403 63.2795C35.8951 63.4095 36.672 63.3064 37.3653 62.9842C38.0585 62.6621 38.6343 62.1366 39.014 61.4794C39.3938 60.8222 39.5591 60.0654 39.4874 59.312L39.5067 59.33C39.4529 58.7002 39.5388 58.0663 39.7587 57.4727C39.9785 56.879 40.3268 56.3399 40.7793 55.8929C41.2319 55.446 41.7777 55.102 42.3788 54.8849C42.9798 54.6678 43.6216 54.5828 44.2594 54.636L44.2401 54.618C44.8633 54.6734 45.4905 54.5725 46.0636 54.3246C46.6368 54.0768 47.1373 53.6902 47.5188 53.2004C47.9004 52.7107 48.1506 52.1337 48.2462 51.5231C48.3419 50.9124 48.2799 50.2878 48.0661 49.7071C47.8522 49.1263 47.4934 48.6083 47.0229 48.201C46.5524 47.7937 45.9854 47.5104 45.3744 47.3771C44.7635 47.2439 44.1284 47.2651 43.528 47.4389C42.9276 47.6126 42.3813 47.9332 41.9397 48.371H41.9367Z" fill="#76787F"/>
<path d="M34.4675 53.636L34.4482 53.618C34.9903 53.6719 35.5376 53.6062 36.0508 53.4256C36.564 53.245 37.0301 52.9541 37.4154 52.5738C37.8008 52.1935 38.0957 51.7333 38.279 51.2266C38.4622 50.7199 38.5292 50.1794 38.475 49.644L38.4942 49.662C38.4404 49.0321 38.5263 48.3983 38.7462 47.8046C38.966 47.211 39.3143 46.6719 39.7668 46.2249C40.2194 45.778 40.7652 45.4339 41.3663 45.2169C41.9673 44.9998 42.6091 44.9148 43.2469 44.968L43.2276 44.95C43.9905 45.0208 44.757 44.8574 45.4224 44.4821C46.0878 44.1068 46.6198 43.538 46.9458 42.8531C47.2719 42.1682 47.3761 41.4007 47.2442 40.6552C47.1124 39.9097 46.7509 39.2225 46.2091 38.6874C45.6672 38.1522 44.9715 37.7952 44.2166 37.665C43.4618 37.5347 42.6847 37.6377 41.9913 37.9597C41.2978 38.2817 40.7219 38.8071 40.3419 39.4643C39.9619 40.1216 39.7965 40.8785 39.8682 41.632L39.8499 41.613C39.9039 42.2429 39.8181 42.8768 39.5983 43.4706C39.3786 44.0643 39.0303 44.6035 38.5777 45.0505C38.1251 45.4974 37.5792 45.8415 36.978 46.0585C36.3769 46.2755 35.735 46.3603 35.0973 46.307L35.1155 46.326C34.5735 46.2721 34.0261 46.3378 33.5129 46.5184C32.9998 46.6989 32.5337 46.9899 32.1483 47.3702C31.7629 47.7505 31.468 48.2107 31.2847 48.7174C31.1015 49.2241 31.0346 49.7646 31.0888 50.3L31.0706 50.282C31.1242 50.9118 31.0381 51.5456 30.8182 52.1392C30.5984 52.7327 30.25 53.2718 29.7975 53.7187C29.345 54.1656 28.7992 54.5096 28.1983 54.7268C27.5973 54.9439 26.9556 55.029 26.3179 54.976L26.3361 54.994C25.5732 54.9232 24.8068 55.0866 24.1414 55.4619C23.4759 55.8372 22.9439 56.406 22.6179 57.0909C22.2918 57.7758 22.1876 58.5433 22.3195 59.2888C22.4514 60.0343 22.8129 60.7215 23.3547 61.2566C23.8965 61.7918 24.5923 62.1488 25.3471 62.279C26.1019 62.4093 26.8791 62.3063 27.5725 61.9843C28.2659 61.6623 28.8419 61.1369 29.2218 60.4797C29.6018 59.8224 29.7672 59.0655 29.6956 58.312L29.7148 58.33C29.661 57.7002 29.747 57.0663 29.9668 56.4726C30.1866 55.879 30.5349 55.3399 30.9875 54.8929C31.44 54.446 31.9859 54.1019 32.5869 53.8849C33.188 53.6678 33.8298 53.5828 34.4675 53.636Z" fill="#76787F"/>
<path d="M27.6817 51.6289C28.0655 51.2477 28.3593 50.7875 28.5422 50.2812C28.7251 49.7749 28.7926 49.235 28.7398 48.6999L28.759 48.7179C28.7052 48.0879 28.7912 47.4539 29.0111 46.8601C29.231 46.2663 29.5795 45.727 30.0323 45.2801C30.4851 44.8331 31.0312 44.4891 31.6325 44.2721C32.2338 44.0552 32.8758 43.9705 33.5137 44.0239L33.4945 44.0059C34.2571 44.0765 35.0232 43.913 35.6883 43.5378C36.3535 43.1625 36.8852 42.5938 37.211 41.9092C37.5369 41.2245 37.641 40.4573 37.5091 39.712C37.3773 38.9668 37.0159 38.2799 36.4743 37.7449C35.9326 37.21 35.2371 36.8531 34.4826 36.7229C33.7281 36.5926 32.9512 36.6954 32.258 37.0173C31.5648 37.3391 30.9889 37.8643 30.609 38.5212C30.2291 39.1781 30.0636 39.9347 30.135 40.6879L30.1168 40.6699C30.1706 41.2998 30.0846 41.9337 29.8648 42.5273C29.645 43.1209 29.2967 43.6601 28.8441 44.107C28.3916 44.554 27.8458 44.898 27.2447 45.1151C26.6436 45.3322 26.0018 45.4171 25.3641 45.3639L25.3823 45.3819C24.7592 45.3268 24.1321 45.4278 23.559 45.6757C22.986 45.9236 22.4855 46.3104 22.1041 46.8002C21.7227 47.29 21.4726 47.8669 21.3771 48.4776C21.2815 49.0882 21.3436 49.7128 21.5575 50.2935C21.7714 50.8741 22.1303 51.3921 22.6008 51.7993C23.0713 52.2065 23.6383 52.4898 24.2493 52.623C24.8602 52.7562 25.4952 52.7349 26.0956 52.5611C26.696 52.3874 27.2422 52.0667 27.6838 51.6289H27.6817Z" fill="#76787F"/>
<path d="M59.0459 41.655H62.053V56.108H59.0459V41.655Z" fill="#76787F"/>
<path d="M63.756 51.1591C63.7518 50.1205 64.0598 49.104 64.641 48.2383C65.2222 47.3727 66.0504 46.6969 67.0208 46.2966C67.9912 45.8962 69.06 45.7893 70.092 45.9894C71.1239 46.1895 72.0725 46.6875 72.8176 47.4205C73.5627 48.1535 74.0708 49.0883 74.2775 50.1067C74.4842 51.1251 74.3803 52.1812 73.9788 53.1412C73.5773 54.1012 72.8964 54.9219 72.0223 55.4994C71.1482 56.0768 70.1202 56.3851 69.0686 56.3851C68.3705 56.393 67.6779 56.2633 67.0311 56.0037C66.3844 55.7442 65.7965 55.3598 65.3019 54.8733C64.8072 54.3867 64.4158 53.8076 64.1503 53.1699C63.8849 52.5322 63.7509 51.8486 63.756 51.1591ZM71.3741 51.1591C71.3615 50.7114 71.2156 50.2773 70.9547 49.911C70.6937 49.5448 70.3292 49.2626 69.9067 49.0999C69.4843 48.9371 69.0226 48.9009 68.5794 48.9959C68.1363 49.0909 67.7313 49.3128 67.4151 49.6338C67.0989 49.9549 66.8856 50.3608 66.8018 50.801C66.7179 51.2411 66.7673 51.6959 66.9438 52.1085C67.1202 52.5211 67.4159 52.8731 67.7938 53.1206C68.1717 53.3681 68.6151 53.5001 69.0686 53.5001C69.3792 53.5083 69.6881 53.4529 69.9759 53.3373C70.2636 53.2217 70.524 53.0484 70.7406 52.8285C70.9572 52.6085 71.1254 52.3466 71.2344 52.0593C71.3434 51.772 71.391 51.4655 71.3741 51.1591Z" fill="#76787F"/>
<path d="M86.3661 46.2091V55.6091C86.3661 58.9351 83.7397 60.3411 81.0738 60.3411C80.1352 60.4104 79.1953 60.2232 78.3573 59.7998C77.5193 59.3765 76.8155 58.7334 76.3232 57.9411L78.8888 56.4761C79.0958 56.8891 79.4255 57.2298 79.8339 57.4527C80.2423 57.6755 80.7099 57.7699 81.174 57.7231C81.4707 57.7637 81.7728 57.7379 82.058 57.6476C82.3432 57.5573 82.6042 57.4048 82.8217 57.2014C83.0392 56.9981 83.2075 56.749 83.3144 56.4727C83.4213 56.1964 83.4638 55.8998 83.439 55.6051V54.7001C83.0869 55.1256 82.6387 55.4637 82.1303 55.6872C81.622 55.9107 81.0677 56.0134 80.5119 55.9871C79.1893 55.9459 77.935 55.398 77.0142 54.4595C76.0934 53.521 75.5786 52.2654 75.5786 50.9586C75.5786 49.6517 76.0934 48.3962 77.0142 47.4576C77.935 46.5191 79.1893 45.9713 80.5119 45.9301C81.0677 45.9037 81.622 46.0064 82.1303 46.2299C82.6387 46.4534 83.0869 46.7915 83.439 47.2171V46.2071L86.3661 46.2091ZM83.44 50.9601C83.4602 50.4814 83.3349 50.0078 83.0803 49.6C82.8256 49.1923 82.4532 48.8692 82.0111 48.6722C81.5689 48.4753 81.0772 48.4136 80.5992 48.495C80.1212 48.5764 79.6788 48.7972 79.329 49.129C78.9791 49.4609 78.7378 49.8885 78.6361 50.3569C78.5344 50.8253 78.577 51.3131 78.7584 51.7574C78.9397 52.2017 79.2515 52.5823 79.6537 52.8501C80.0559 53.1179 80.53 53.2606 81.0151 53.2601C81.331 53.2818 81.6481 53.238 81.9459 53.1314C82.2436 53.0248 82.5155 52.8578 82.7439 52.6411C82.9724 52.4245 83.1523 52.1629 83.2722 51.8734C83.3921 51.5839 83.4493 51.2727 83.44 50.9601Z" fill="#76787F"/>
<path d="M88.0692 51.1591C88.065 50.1205 88.373 49.104 88.9541 48.2383C89.5353 47.3727 90.3636 46.6969 91.3339 46.2966C92.3043 45.8962 93.3732 45.7893 94.4051 45.9894C95.437 46.1895 96.3856 46.6875 97.1307 47.4205C97.8758 48.1535 98.3839 49.0883 98.5906 50.1067C98.7974 51.1251 98.6934 52.1812 98.2919 53.1412C97.8905 54.1012 97.2096 54.9219 96.3355 55.4994C95.4614 56.0768 94.4334 56.3851 93.3818 56.3851C92.6837 56.393 91.991 56.2633 91.3443 56.0037C90.6975 55.7442 90.1096 55.3598 89.615 54.8733C89.1204 54.3867 88.7289 53.8076 88.4635 53.1699C88.1981 52.5322 88.064 51.8486 88.0692 51.1591ZM95.6872 51.1591C95.6747 50.7114 95.5288 50.2773 95.2678 49.911C95.0068 49.5448 94.6423 49.2626 94.2198 49.0999C93.7974 48.9371 93.3357 48.9009 92.8926 48.9959C92.4494 49.0909 92.0444 49.3128 91.7283 49.6338C91.4121 49.9549 91.1987 50.3608 91.1149 50.801C91.0311 51.2411 91.0805 51.6959 91.2569 52.1085C91.4334 52.5211 91.729 52.8731 92.107 53.1206C92.4849 53.3681 92.9283 53.5001 93.3818 53.5001C93.6923 53.5083 94.0012 53.4529 94.289 53.3373C94.5768 53.2217 94.8372 53.0484 95.0538 52.8285C95.2704 52.6085 95.4385 52.3466 95.5475 52.0593C95.6565 51.772 95.7041 51.4655 95.6872 51.1591Z" fill="#76787F"/>
<path d="M100.097 43.5559C100.097 43.2035 100.202 42.859 100.401 42.5659C100.599 42.2729 100.881 42.0444 101.21 41.9096C101.54 41.7747 101.903 41.7394 102.253 41.8082C102.603 41.8769 102.924 42.0466 103.177 42.2959C103.429 42.5451 103.601 42.8626 103.671 43.2083C103.74 43.5539 103.704 43.9123 103.568 44.2379C103.431 44.5635 103.2 44.8418 102.903 45.0376C102.607 45.2334 102.258 45.3379 101.901 45.3379C101.424 45.3332 100.968 45.144 100.63 44.8108C100.293 44.4776 100.101 44.0271 100.097 43.5559ZM100.4 46.2089H103.409V56.1089H100.396L100.4 46.2089Z" fill="#76787F"/>
<path d="M116.393 51.159C116.428 51.8133 116.331 52.4679 116.109 53.0852C115.886 53.7025 115.543 54.2703 115.098 54.756C114.652 55.2417 114.114 55.6356 113.514 55.9152C112.914 56.1948 112.264 56.3544 111.602 56.385C111.044 56.4151 110.487 56.3222 109.971 56.1133C109.454 55.9044 108.992 55.5845 108.616 55.177V60.068H105.609V46.209H108.616V47.139C108.992 46.7318 109.455 46.4123 109.971 46.2035C110.488 45.9947 111.044 45.902 111.602 45.932C112.264 45.9625 112.915 46.1221 113.515 46.4017C114.115 46.6813 114.653 47.0753 115.098 47.5611C115.543 48.0469 115.887 48.6149 116.109 49.2324C116.331 49.8499 116.428 50.5046 116.393 51.159ZM113.386 51.159C113.374 50.6957 113.224 50.2461 112.955 49.8665C112.686 49.4868 112.309 49.1941 111.872 49.0248C111.435 48.8555 110.958 48.8173 110.499 48.9148C110.04 49.0123 109.621 49.2414 109.293 49.5732C108.966 49.905 108.744 50.3249 108.657 50.7803C108.57 51.2357 108.621 51.7064 108.803 52.1334C108.985 52.5605 109.291 52.9249 109.682 53.1812C110.073 53.4374 110.532 53.5741 111.001 53.574C111.323 53.5882 111.645 53.5349 111.945 53.4178C112.245 53.3006 112.516 53.1221 112.741 52.8941C112.966 52.6661 113.14 52.3936 113.251 52.0946C113.362 51.7956 113.408 51.4768 113.386 51.159Z" fill="#76787F"/>
<path d="M125.672 53.1381C125.672 55.4151 123.669 56.3851 121.504 56.3851C120.629 56.4633 119.751 56.2807 118.983 55.8606C118.214 55.4406 117.591 54.8026 117.194 54.0291L119.799 52.5641C119.904 52.9216 120.131 53.2327 120.44 53.4452C120.75 53.6578 121.124 53.7591 121.5 53.7321C122.221 53.7321 122.582 53.5141 122.582 53.1191C122.582 52.0291 117.65 52.6041 117.65 49.1791C117.65 47.0201 119.495 45.9321 121.58 45.9321C122.364 45.9076 123.14 46.0912 123.827 46.4637C124.514 46.8363 125.088 47.3841 125.488 48.0501L122.922 49.4161C122.81 49.1568 122.623 48.9359 122.384 48.781C122.145 48.6261 121.865 48.5441 121.58 48.5451C121.058 48.5451 120.737 48.7451 120.737 49.0991C120.741 50.2281 125.672 49.4751 125.672 53.1381Z" fill="#76787F"/>
<path d="M136.657 46.209V56.109H133.65V55.178C133.303 55.5888 132.862 55.9125 132.364 56.1225C131.866 56.3325 131.325 56.4228 130.784 56.386C128.759 56.386 127.038 54.961 127.038 52.286V46.209H130.045V51.851C130.02 52.0868 130.047 52.3251 130.125 52.5495C130.203 52.7739 130.329 52.9788 130.495 53.1502C130.661 53.3215 130.862 53.455 131.086 53.5415C131.309 53.628 131.549 53.6654 131.789 53.651C132.891 53.651 133.653 53.018 133.653 51.612V46.212L136.657 46.209Z" fill="#76787F"/>
<path d="M153.9 50.03V56.108H150.893V50.287C150.893 49.297 150.412 48.664 149.45 48.664C148.448 48.664 147.886 49.357 147.886 50.525V56.108H144.879V50.287C144.879 49.297 144.399 48.664 143.436 48.664C142.433 48.664 141.872 49.357 141.872 50.525V56.108H138.865V46.208H141.872V47.118C142.184 46.7143 142.593 46.3941 143.062 46.1868C143.532 45.9794 144.046 45.8915 144.559 45.931C145.073 45.9061 145.585 46.0134 146.045 46.2422C146.506 46.4711 146.898 46.8138 147.184 47.237C147.517 46.7943 147.959 46.4423 148.467 46.2139C148.975 45.9855 149.534 45.8882 150.091 45.931C152.392 45.932 153.9 47.555 153.9 50.03Z" fill="#76787F"/>
<path d="M156.443 46.148C157.676 46.148 158.675 45.1612 158.675 43.944C158.675 42.7268 157.676 41.74 156.443 41.74C155.211 41.74 154.212 42.7268 154.212 43.944C154.212 45.1612 155.211 46.148 156.443 46.148Z" fill="#76787F"/>
</svg>
