<svg width="180" height="100" viewBox="0 0 180 100" fill="none" xmlns="http://www.w3.org/2000/svg">
<path d="M56.0108 42.25H59.0483V56.7H56.0108V42.25Z" fill="#76787F"/>
<path d="M60.7492 51.7499C60.7492 50.7103 61.0618 49.6941 61.6472 48.8301C62.2326 47.9661 63.0646 47.2932 64.0377 46.8967C65.0108 46.5003 66.0811 46.3981 67.113 46.6031C68.145 46.8081 69.092 47.3111 69.8342 48.0483C70.5764 48.7856 71.0802 49.7238 71.2819 50.7442C71.4835 51.7646 71.3739 52.8211 70.967 53.7799C70.56 54.7387 69.8739 55.5565 68.9958 56.1298C68.1177 56.703 67.087 57.0059 66.0344 56.9999C65.3363 57.0053 64.6441 56.873 63.9984 56.6107C63.3527 56.3484 62.7665 55.9614 62.2743 55.4724C61.782 54.9834 61.3936 54.4023 61.1317 53.763C60.8698 53.1238 60.7398 52.4394 60.7492 51.7499ZM68.3631 51.7499C68.3512 51.3017 68.2057 50.867 67.9449 50.5C67.6841 50.133 67.3195 49.8501 66.8968 49.6867C66.4741 49.5233 66.0119 49.4867 65.5682 49.5813C65.1245 49.6759 64.7189 49.8977 64.4021 50.2188C64.0853 50.5399 63.8714 50.9462 63.7871 51.3867C63.7028 51.8273 63.752 52.2826 63.9283 52.6957C64.1047 53.1089 64.4005 53.4615 64.7787 53.7094C65.1569 53.9574 65.6007 54.0898 66.0547 54.0899C66.3637 54.0959 66.6707 54.0388 66.9565 53.9222C67.2422 53.8057 67.5005 53.6322 67.7152 53.4126C67.93 53.193 68.0966 52.932 68.2046 52.6459C68.3126 52.3598 68.3597 52.0548 68.3429 51.7499H68.3631Z" fill="#76787F"/>
<path d="M83.3378 46.8001V56.2101C83.3378 59.5301 80.7054 60.9401 78.0425 60.9401C77.1033 61.0162 76.1612 60.8319 75.3222 60.4079C74.4833 59.9839 73.7808 59.337 73.294 58.5401L75.8555 57.0801C76.0631 57.4935 76.3933 57.8345 76.8021 58.0578C77.2109 58.2812 77.6789 58.3761 78.1438 58.3301C78.4399 58.3661 78.7404 58.3371 79.0239 58.2451C79.3073 58.153 79.5666 58.0003 79.7833 57.7977C80 57.5951 80.1687 57.3478 80.2774 57.0733C80.386 56.7989 80.4319 56.5041 80.4117 56.2101V55.3001C80.0583 55.7234 79.6098 56.0595 79.1019 56.2816C78.5939 56.5038 78.0406 56.606 77.4857 56.5801C76.143 56.5801 74.8554 56.0533 73.906 55.1156C72.9566 54.178 72.4232 52.9062 72.4232 51.5801C72.4232 50.254 72.9566 48.9823 73.906 48.0446C74.8554 47.1069 76.143 46.5801 77.4857 46.5801C78.0406 46.5542 78.5939 46.6564 79.1019 46.8786C79.6098 47.1008 80.0583 47.4368 80.4117 47.8601V46.8601L83.3378 46.8001ZM80.4117 51.5501C80.4319 51.0717 80.3068 50.5982 80.0523 50.1906C79.7979 49.783 79.4258 49.4599 78.984 49.2628C78.5421 49.0657 78.0507 49.0037 77.5728 49.0847C77.095 49.1657 76.6526 49.386 76.3026 49.7173C75.9525 50.0487 75.7108 50.4758 75.6086 50.9439C75.5063 51.412 75.5482 51.8995 75.7287 52.3439C75.9093 52.7883 76.2203 53.1692 76.6218 53.4376C77.0233 53.706 77.4969 53.8497 77.9818 53.8501C78.2981 53.8726 78.6158 53.8293 78.9141 53.7231C79.2125 53.6168 79.485 53.4499 79.714 53.2332C79.943 53.0164 80.1234 52.7546 80.2436 52.4647C80.3638 52.1748 80.4211 51.8632 80.4117 51.5501Z" fill="#76787F"/>
<path d="M85.0489 51.75C85.0489 50.7112 85.3609 49.6958 85.9455 48.8322C86.53 47.9686 87.3608 47.2957 88.3327 46.8987C89.3045 46.5016 90.3738 46.3982 91.4052 46.6016C92.4366 46.805 93.3838 47.306 94.1267 48.0412C94.8697 48.7765 95.3752 49.7129 95.5791 50.7319C95.7831 51.751 95.6764 52.8069 95.2725 53.766C94.8686 54.7252 94.1858 55.5444 93.3103 56.1201C92.4348 56.6957 91.4061 57.002 90.3544 57C89.6549 57.0067 88.9611 56.8754 88.3137 56.6138C87.6663 56.3522 87.0783 55.9656 86.5841 55.4766C86.09 54.9876 85.6997 54.4061 85.4361 53.7662C85.1724 53.1263 85.0408 52.4408 85.0489 51.75ZM92.6628 51.75C92.6509 51.3014 92.5051 50.8662 92.2439 50.499C91.9826 50.1319 91.6174 49.849 91.1941 49.6859C90.7708 49.5228 90.3082 49.4867 89.8642 49.5822C89.4202 49.6776 89.0146 49.9004 88.6982 50.2225C88.3819 50.5446 88.1688 50.9518 88.0857 51.393C88.0025 51.8342 88.0531 52.2898 88.231 52.7027C88.4089 53.1157 88.7063 53.4676 89.0858 53.7144C89.4653 53.9611 89.9101 54.0918 90.3645 54.09C90.6736 54.0959 90.9806 54.0389 91.2663 53.9223C91.552 53.8058 91.8103 53.6323 92.0251 53.4127C92.2398 53.193 92.4064 52.932 92.5144 52.646C92.6224 52.3599 92.6695 52.0549 92.6527 51.75H92.6628Z" fill="#76787F"/>
<path d="M97.0672 44.1501C97.0672 43.7981 97.1729 43.4539 97.3709 43.1612C97.5689 42.8685 97.8504 42.6403 98.1797 42.5056C98.509 42.3709 98.8714 42.3356 99.221 42.4043C99.5706 42.473 99.8917 42.6425 100.144 42.8915C100.396 43.1404 100.567 43.4576 100.637 43.8029C100.707 44.1481 100.671 44.506 100.534 44.8313C100.398 45.1565 100.167 45.4345 99.8707 45.6301C99.5743 45.8257 99.2258 45.9301 98.8694 45.9301C98.393 45.9249 97.9377 45.7357 97.6008 45.403C97.264 45.0703 97.0724 44.6206 97.0672 44.1501ZM97.3608 46.8001H100.398V56.7001H97.3608V46.8001Z" fill="#76787F"/>
<path d="M113.399 51.7501C113.433 52.4085 113.334 53.0671 113.11 53.6879C112.885 54.3087 112.538 54.8795 112.09 55.3674C111.641 55.8553 111.099 56.2508 110.494 56.531C109.89 56.8112 109.236 56.9706 108.569 57.0001C108.003 57.0373 107.436 56.9478 106.91 56.7383C106.384 56.5287 105.913 56.2046 105.532 55.7901V60.6801H102.494V46.8001H105.532V47.7301C105.913 47.3168 106.385 46.9942 106.911 46.7863C107.437 46.5785 108.004 46.4909 108.569 46.5301C109.233 46.5596 109.885 46.7181 110.487 46.9964C111.089 47.2747 111.63 47.6675 112.078 48.1522C112.527 48.6369 112.874 49.2041 113.101 49.8215C113.327 50.4388 113.428 51.0941 113.399 51.7501ZM110.361 51.7501C110.349 51.2856 110.199 50.835 109.928 50.4547C109.658 50.0743 109.28 49.7812 108.842 49.6121C108.404 49.4429 107.925 49.4053 107.466 49.5038C107.006 49.6023 106.586 49.8327 106.258 50.166C105.93 50.4993 105.71 50.9207 105.623 51.3775C105.537 51.8342 105.589 52.3059 105.773 52.7335C105.957 53.161 106.265 53.5254 106.658 53.781C107.051 54.0366 107.511 54.1719 107.982 54.1701C108.304 54.1836 108.625 54.1297 108.925 54.0119C109.225 53.8941 109.496 53.7151 109.72 53.4866C109.945 53.2581 110.118 52.9852 110.229 52.686C110.339 52.3867 110.384 52.0678 110.361 51.7501Z" fill="#76787F"/>
<path d="M122.643 53.73C122.643 56.01 120.618 56.98 118.471 56.98C117.596 57.0578 116.717 56.8745 115.948 56.4538C115.179 56.0331 114.555 55.3943 114.158 54.62L116.77 53.16C116.874 53.5168 117.098 53.8277 117.406 54.0407C117.714 54.2537 118.086 54.3558 118.461 54.33C119.18 54.33 119.544 54.11 119.544 53.71C119.544 52.62 114.614 53.2 114.614 49.77C114.614 47.61 116.456 46.53 118.542 46.53C119.335 46.4949 120.122 46.6726 120.821 47.0441C121.52 47.4156 122.104 47.9671 122.511 48.64L119.899 50C119.783 49.742 119.595 49.5225 119.356 49.3682C119.117 49.2138 118.838 49.131 118.552 49.13C118.026 49.13 117.712 49.33 117.712 49.68C117.712 50.82 122.643 50.07 122.643 53.73Z" fill="#76787F"/>
<path d="M133.648 46.8V56.7001H130.611V55.7701C130.266 56.1817 129.828 56.5075 129.332 56.7212C128.836 56.9348 128.296 57.0303 127.756 57.0001C125.731 57.0001 123.999 55.5701 123.999 52.9001V46.8H127.037V52.4501C127.013 52.6863 127.041 52.9248 127.12 53.1491C127.198 53.3735 127.325 53.5783 127.492 53.7494C127.658 53.9206 127.861 54.054 128.084 54.1404C128.308 54.2268 128.548 54.2643 128.788 54.2501C129.882 54.2501 130.651 53.6101 130.651 52.2501V46.8H133.648Z" fill="#76787F"/>
<path d="M150.861 50.62V56.7H147.823V50.88C147.823 49.88 147.347 49.26 146.385 49.26C145.424 49.26 144.816 49.95 144.816 51.12V56.7H141.779V50.88C141.779 49.88 141.303 49.26 140.341 49.26C139.379 49.26 138.772 49.95 138.772 51.12V56.7H135.734V46.8H138.772V47.71C139.086 47.3079 139.497 46.9895 139.967 46.7835C140.437 46.5775 140.952 46.4904 141.465 46.53C141.978 46.5035 142.49 46.6094 142.95 46.8373C143.41 47.0652 143.802 47.4073 144.087 47.83C144.421 47.3884 144.862 47.0376 145.37 46.8102C145.879 46.5829 146.437 46.4865 146.993 46.53C149.362 46.53 150.861 48.15 150.861 50.62Z" fill="#76787F"/>
<path d="M37.9177 39.6499V35.3999H24.3503V64.5999H37.9177V60.3499C35.1384 60.3499 32.473 59.2595 30.5077 57.3185C28.5425 55.3775 27.4384 52.7449 27.4384 49.9999C27.4384 47.2549 28.5425 44.6223 30.5077 42.6813C32.473 40.7403 35.1384 39.6499 37.9177 39.6499Z" fill="#76787F"/>
<path d="M37.9176 39.6499V60.3499C40.6969 60.3499 43.3624 59.2595 45.3276 57.3185C47.2928 55.3775 48.3969 52.7449 48.3969 49.9999C48.3969 47.2549 47.2928 44.6223 45.3276 42.6813C43.3624 40.7403 40.6969 39.6499 37.9176 39.6499Z" fill="#76787F"/>
<path d="M153.412 46.7401C154.642 46.7401 155.64 45.7551 155.64 44.5401C155.64 43.3251 154.642 42.3401 153.412 42.3401C152.182 42.3401 151.185 43.3251 151.185 44.5401C151.185 45.7551 152.182 46.7401 153.412 46.7401Z" fill="#76787F"/>
</svg>
