<svg width="180" height="100" viewBox="0 0 180 100" fill="none" xmlns="http://www.w3.org/2000/svg">
<path d="M64.6675 44.0699H67.705V56.1999H64.6675V44.0699ZM68.9099 51.6199C68.9099 48.6199 70.7728 46.8299 73.6483 46.8299C76.5238 46.8299 78.3867 48.6199 78.3867 51.6199C78.3867 54.6199 76.5643 56.4199 73.6483 56.4199C70.7323 56.4199 68.9099 54.6699 68.9099 51.6199ZM75.3392 51.6199C75.3392 49.9699 74.681 48.9999 73.6483 48.9999C72.6156 48.9999 71.9676 49.9999 71.9676 51.6199C71.9676 53.2399 72.6054 54.2199 73.6483 54.2199C74.6912 54.2199 75.3392 53.2999 75.3392 51.6299V51.6199ZM79.5309 56.7899H82.4468C82.5856 57.0944 82.8202 57.3465 83.1158 57.5087C83.4113 57.6709 83.752 57.7344 84.0871 57.6899C85.2413 57.6899 85.8488 57.0699 85.8488 56.1699V54.4899H85.788C85.546 55.0048 85.1533 55.4363 84.6606 55.7286C84.1679 56.0209 83.5979 56.1607 83.0239 56.1299C80.8066 56.1299 79.3385 54.4599 79.3385 51.5899C79.3385 48.7199 80.7357 46.9099 83.0644 46.9099C83.6563 46.887 84.2412 47.0433 84.7406 47.3579C85.2401 47.6724 85.6303 48.1302 85.8589 48.6699V46.9999H88.8964V56.0999C88.8964 58.2899 86.9423 59.6499 84.0567 59.6499C81.3736 59.6499 79.703 58.4599 79.5309 56.7999V56.7899ZM85.8589 51.6099C85.8589 50.1499 85.1805 49.2299 84.1073 49.2299C83.0341 49.2299 82.3759 50.1399 82.3759 51.6099C82.3759 53.0799 83.0239 53.9099 84.1073 53.9099C85.1907 53.9099 85.8589 53.0999 85.8589 51.6199V51.6099ZM90.0405 51.6099C90.0405 48.6099 91.9035 46.8199 94.7789 46.8199C97.6544 46.8199 99.5275 48.6099 99.5275 51.6099C99.5275 54.6099 97.705 56.4099 94.7789 56.4099C91.8528 56.4099 90.0405 54.6699 90.0405 51.6199V51.6099ZM96.4698 51.6099C96.4698 49.9599 95.8117 48.9899 94.7789 48.9899C93.7462 48.9899 93.1488 49.9999 93.1488 51.6299C93.1488 53.2599 93.7867 54.2299 94.8194 54.2299C95.8522 54.2299 96.4698 53.2999 96.4698 51.6299V51.6099ZM100.682 44.8199C100.674 44.517 100.757 44.2186 100.921 43.9625C101.085 43.7065 101.322 43.5042 101.603 43.3814C101.883 43.2587 102.194 43.2209 102.496 43.273C102.799 43.325 103.078 43.4646 103.3 43.6738C103.522 43.8831 103.676 44.1527 103.743 44.4485C103.809 44.7443 103.785 45.0529 103.674 45.3353C103.563 45.6177 103.369 45.861 103.117 46.0345C102.866 46.208 102.568 46.3039 102.261 46.3099C102.058 46.3237 101.854 46.2959 101.662 46.2281C101.47 46.1603 101.294 46.054 101.146 45.9159C100.998 45.7779 100.88 45.6111 100.8 45.4259C100.72 45.2407 100.68 45.0412 100.682 44.8399V44.8199ZM100.682 47.0199H103.719V56.1999H100.682V47.0199ZM114.745 51.6099C114.745 54.6099 113.399 56.3199 111.09 56.3199C110.498 56.3575 109.909 56.2145 109.402 55.9105C108.895 55.6065 108.494 55.156 108.255 54.6199H108.194V59.1399H105.157V46.9999H108.194V48.6399H108.255C108.483 48.0951 108.876 47.6328 109.38 47.3161C109.883 46.9994 110.473 46.8436 111.07 46.8699C113.399 46.9099 114.786 48.6299 114.786 51.6299L114.745 51.6099ZM111.708 51.6099C111.708 50.1499 111.029 49.2199 109.966 49.2199C108.903 49.2199 108.225 50.1599 108.215 51.6099C108.204 53.0599 108.903 53.9899 109.966 53.9899C111.029 53.9899 111.708 53.0799 111.708 51.6299V51.6099ZM119.959 46.8099C122.481 46.8099 124.009 47.9899 124.08 49.8799H121.316C121.316 49.2299 120.769 48.8199 119.929 48.8199C119.089 48.8199 118.714 49.1399 118.714 49.6099C118.714 50.0799 119.048 50.2299 119.727 50.3699L121.671 50.7599C123.523 51.1499 124.313 51.8899 124.313 53.2799C124.313 55.1799 122.562 56.3999 119.98 56.3999C117.398 56.3999 115.707 55.1799 115.575 53.3099H118.501C118.593 53.9899 119.139 54.3899 120.03 54.3899C120.921 54.3899 121.326 54.0999 121.326 53.6199C121.326 53.1399 121.043 53.0399 120.314 52.8899L118.562 52.5199C116.75 52.1499 115.798 51.1999 115.798 49.7999C115.818 47.9999 117.449 46.8299 119.959 46.8299V46.8099ZM134.448 56.1799H131.522V54.4699H131.461C131.3 55.0441 130.946 55.5466 130.456 55.894C129.966 56.2415 129.37 56.4129 128.768 56.3799C128.307 56.4058 127.845 56.3336 127.414 56.1681C126.983 56.0027 126.593 55.7478 126.271 55.4207C125.949 55.0937 125.701 54.7021 125.545 54.2724C125.389 53.8427 125.328 53.3849 125.366 52.9299V46.9999H128.404V52.2399C128.404 53.3299 128.971 53.9099 129.912 53.9099C130.133 53.9104 130.351 53.8642 130.553 53.7745C130.754 53.6848 130.933 53.5536 131.079 53.3898C131.225 53.226 131.333 53.0333 131.398 52.8246C131.462 52.6159 131.48 52.3961 131.451 52.1799V46.9999H134.489L134.448 56.1799ZM135.916 46.9999H138.852V48.7699H138.913C139.074 48.2034 139.421 47.7057 139.899 47.3546C140.378 47.0036 140.96 46.8191 141.556 46.8299C142.162 46.782 142.764 46.9611 143.242 47.3317C143.721 47.7023 144.04 48.2372 144.138 48.8299H144.198C144.382 48.2309 144.762 47.7092 145.279 47.3471C145.796 46.985 146.42 46.8031 147.054 46.8299C147.467 46.8162 147.878 46.8885 148.261 47.0421C148.644 47.1957 148.99 47.4271 149.276 47.7214C149.563 48.0156 149.783 48.3661 149.924 48.75C150.064 49.134 150.121 49.5428 150.091 49.9499V56.1999H147.054V50.7499C147.054 49.7499 146.598 49.2899 145.748 49.2899C145.558 49.2884 145.37 49.327 145.197 49.4032C145.024 49.4794 144.869 49.5914 144.743 49.7316C144.617 49.8719 144.524 50.0372 144.468 50.2163C144.413 50.3954 144.397 50.5842 144.421 50.7699V56.1999H141.536V50.7099C141.536 49.7899 141.08 49.2899 140.25 49.2899C140.058 49.29 139.868 49.3302 139.693 49.408C139.518 49.4857 139.362 49.5992 139.235 49.7409C139.108 49.8827 139.012 50.0495 138.955 50.2303C138.898 50.4111 138.88 50.6019 138.903 50.7899V56.1999H135.866L135.916 46.9999Z" fill="#76787F"/>
<path d="M56.1728 44.6199C55.6575 43.4562 54.9756 42.3718 54.1478 41.3999C52.9242 39.9202 51.3972 38.7133 49.6672 37.8585C47.9373 37.0037 46.0437 36.5205 44.111 36.4406C42.1784 36.3606 40.2505 36.6859 38.4543 37.3949C36.6581 38.1039 35.0343 39.1805 33.6897 40.554C32.3451 41.9275 31.3103 43.5666 30.6534 45.3636C29.9964 47.1605 29.7322 49.0745 29.8782 50.9795C30.0241 52.8846 30.5769 54.7375 31.5001 56.4163C32.4233 58.0952 33.6961 59.5619 35.2346 60.7199C36.2217 61.4778 37.3125 62.0939 38.4745 62.5499C40.1036 63.2093 41.8472 63.5489 43.6078 63.5499C47.2421 63.5419 50.7248 62.1112 53.2927 59.5712C55.8606 57.0312 57.3041 53.5893 57.3068 49.9999C57.3095 48.1484 56.9233 46.3165 56.1728 44.6199ZM43.5977 39.1899C45.1788 39.1897 46.7407 39.531 48.1742 40.1899C47.8246 40.3391 47.4571 40.4432 47.0807 40.4999C45.842 40.677 44.6945 41.245 43.8095 42.1191C42.9245 42.9932 42.3494 44.1265 42.1701 45.3499C42.0914 46.036 41.7754 46.6743 41.2756 47.1571C40.7757 47.6399 40.1225 47.9375 39.4263 47.9999C38.1876 48.177 37.0401 48.745 36.1551 49.6191C35.2701 50.4932 34.695 51.6265 34.5157 52.8499C34.455 53.5023 34.1732 54.1154 33.7158 54.5899C32.9268 52.9432 32.5723 51.126 32.6854 49.3076C32.7985 47.4892 33.3755 45.7286 34.3628 44.1896C35.35 42.6507 36.7154 41.3834 38.3318 40.5057C39.9483 39.6281 41.7632 39.1685 43.6078 39.1699L43.5977 39.1899ZM35.2244 56.9999C35.3459 56.8899 35.4674 56.7899 35.5889 56.6699C36.4897 55.8073 37.0679 54.6687 37.2292 53.4399C37.2946 52.7491 37.6068 52.1039 38.11 51.6199C38.5942 51.1221 39.246 50.8162 39.9426 50.7599C41.1813 50.5828 42.3288 50.0148 43.2138 49.1407C44.0988 48.2666 44.6739 47.1333 44.8532 45.9099C44.897 45.1874 45.2109 44.5067 45.7341 43.9999C46.2302 43.5117 46.8882 43.217 47.5869 43.1699C48.7249 43.0153 49.7862 42.5156 50.6244 41.7399C51.5788 42.522 52.3874 43.4628 53.0138 44.5199C52.9754 44.5712 52.9312 44.6182 52.8822 44.6599C52.3989 45.1621 51.748 45.4747 51.0496 45.5399C49.8097 45.7139 48.6604 46.2809 47.7749 47.1555C46.8893 48.0302 46.3152 49.1652 46.139 50.3899C46.0677 51.0783 45.7576 51.7212 45.2612 52.2096C44.7648 52.6981 44.1127 53.002 43.4155 53.0699C42.1732 53.2456 41.0214 53.8125 40.1313 54.6862C39.2411 55.56 38.6601 56.694 38.4745 57.9199C38.42 58.4086 38.2501 58.8779 37.9784 59.2899C36.9396 58.6807 36.0092 57.9071 35.2244 56.9999ZM43.5977 60.8599C42.5703 60.861 41.5478 60.7196 40.5602 60.4399C40.8981 59.8179 41.1177 59.14 41.2082 58.4399C41.2792 57.753 41.5879 57.1113 42.0822 56.6231C42.5765 56.1348 43.2262 55.83 43.9217 55.7599C45.1622 55.5848 46.312 55.0177 47.199 54.1434C48.086 53.2692 48.6625 52.1347 48.8424 50.9099C48.9133 50.223 49.222 49.5813 49.7164 49.0931C50.2107 48.6048 50.8604 48.3 51.5559 48.2299C52.4894 48.11 53.3792 47.7667 54.1478 47.2299C54.5746 48.8278 54.6252 50.501 54.2956 52.1212C53.966 53.7414 53.2651 55.2656 52.2465 56.5766C51.2279 57.8877 49.9188 58.951 48.4196 59.6848C46.9204 60.4186 45.2709 60.8035 43.5977 60.8099V60.8599Z" fill="#76787F"/>
</svg>
