<svg width="180" height="100" viewBox="0 0 180 100" fill="none" xmlns="http://www.w3.org/2000/svg">
<path d="M89.8016 55.3741H84.6176V41.6861H89.8016V55.3741ZM85.1238 54.8741H89.2953V42.1861H85.1238V54.8741ZM97.0146 55.3741H91.9349V41.6861H102.548C104.068 41.5645 105.582 41.9861 106.815 42.8741C107.345 43.3534 107.756 43.9473 108.016 44.6094C108.276 45.2715 108.377 45.9839 108.312 46.6911C108.388 47.9131 107.994 49.1183 107.209 50.0661C106.281 51.1181 104.736 51.6601 102.618 51.6791C102.084 51.6931 98.0858 51.6791 97.0176 51.6791L97.0146 55.3741ZM92.4381 54.8741H96.5084V51.1741H96.7625C96.8141 51.1741 102.005 51.1901 102.606 51.1741C104.579 51.1571 105.997 50.6741 106.827 49.7311C107.525 48.8736 107.872 47.7883 107.799 46.6901C107.861 46.0565 107.775 45.4172 107.546 44.8218C107.318 44.2265 106.954 43.6911 106.482 43.2571C105.34 42.4472 103.942 42.067 102.541 42.1851H92.4411L92.4381 54.8741ZM101.473 48.6041H96.4739V44.8781H101.506C101.863 44.8294 102.226 44.8705 102.562 44.9976C102.899 45.1247 103.197 45.3337 103.43 45.6051C103.641 45.952 103.74 46.3541 103.715 46.7581C103.734 47.1332 103.652 47.5066 103.477 47.8401C103.237 48.126 102.927 48.3461 102.576 48.4792C102.225 48.6123 101.845 48.6539 101.473 48.6001V48.6041ZM96.9802 48.1041H101.473C102.303 48.1041 102.817 47.9331 103.045 47.5811C103.171 47.3253 103.227 47.0419 103.21 46.7581C103.232 46.4602 103.167 46.1622 103.022 45.9001L103.016 45.8911C102.775 45.5411 102.296 45.3781 101.506 45.3781H96.9802V48.1041ZM117.551 55.5761C113.005 55.5761 110.291 54.4611 109.258 52.1681C109.089 51.7252 108.974 51.2639 108.916 50.7941L108.871 50.5061H114.28L114.315 50.7161C114.357 50.9293 114.448 51.13 114.582 51.3021C114.796 51.5571 115.509 51.9851 117.874 51.9851C120.717 51.9851 120.717 51.4921 120.717 51.2271C120.717 50.7801 120.388 50.6271 118.07 50.3831L117.629 50.3421C116.756 50.2611 115.653 50.1581 115.148 50.1151C110.896 49.7351 108.998 48.4301 108.998 45.8851C108.998 43.2121 112.228 41.4851 117.229 41.4851C121.308 41.4851 123.937 42.5471 125.04 44.6441C125.301 45.1319 125.477 45.6601 125.559 46.2061L125.594 46.4871H120.18L120.157 46.2611C120.136 46.0845 120.06 45.9188 119.939 45.7871C119.736 45.5191 119.096 45.0761 117.11 45.0761C114.671 45.0761 114.334 45.3841 114.334 45.7161C114.334 46.1591 115.105 46.3161 117.574 46.5771C118.604 46.6601 120.26 46.8281 120.827 46.8961C124.392 47.2781 125.982 48.5511 125.982 51.0251C125.983 53.1001 124.52 55.5761 117.551 55.5761ZM109.462 51.0061C109.513 51.3359 109.6 51.6591 109.722 51.9701C110.664 54.0591 113.226 55.0761 117.551 55.0761C121.168 55.0761 125.48 54.3761 125.48 51.0251C125.48 48.8321 124.073 47.7461 120.773 47.3931C120.206 47.3251 118.561 47.1581 117.533 47.0741C114.9 46.7921 113.83 46.6421 113.83 45.7161C113.83 44.7581 114.983 44.5761 117.112 44.5761C118.793 44.5761 119.88 44.8761 120.341 45.4811C120.466 45.6302 120.561 45.8021 120.62 45.9871H125.008C124.92 45.6004 124.78 45.2268 124.593 44.8761C123.581 42.9571 121.107 41.9851 117.231 41.9851C112.538 41.9851 109.506 43.5161 109.506 45.8851C109.506 48.1451 111.208 49.2611 115.195 49.6171C115.701 49.6601 116.804 49.7631 117.679 49.8451L118.122 49.8861C120.276 50.1101 121.225 50.2501 121.225 51.2271C121.225 52.2791 119.997 52.4851 117.876 52.4851C115.914 52.4851 114.675 52.1941 114.196 51.6211C114.048 51.4384 113.937 51.2297 113.868 51.0061H109.462ZM135.601 55.5591C130.316 55.5591 127.4 53.4481 127.4 49.6141V41.6861H132.515V49.6141C132.515 50.9291 133.707 51.6831 135.783 51.6831C137.768 51.6831 139 50.8961 139 49.6311V41.6861H144.062V50.0341C144.067 53.5451 140.98 55.5591 135.598 55.5591H135.601ZM127.906 42.1861V49.6141C127.906 54.3521 132.723 55.0591 135.601 55.0591C138.576 55.0591 143.564 54.4061 143.564 50.0341V42.1861H139.514V49.6311C139.514 51.1811 138.052 52.1831 135.791 52.1831C133.428 52.1831 132.017 51.2231 132.017 49.6141V42.1861H127.906ZM165.515 55.3741H160.688V49.1941L157.95 55.3741H153.739L151.029 49.2061V55.3741H146.185V41.6861H152.557L155.868 49.2331L159.339 41.6861H165.521L165.515 55.3741ZM161.194 54.8741H165.009V42.1861H159.661L155.852 50.4651L152.221 42.1861H146.687V54.8741H150.519V46.8001L154.063 54.8771H157.607L161.188 46.8121L161.194 54.8741ZM19.2922 41.9361H14.6812V55.1241H27.4225V51.6131H19.2922V41.9361ZM36.7294 41.6361C30.8438 41.6361 27.7486 44.3911 27.7486 48.4361C27.7486 53.0061 30.9977 55.3241 36.7294 55.3241C43.0393 55.3241 45.6931 52.6361 45.6931 48.4361C45.6931 44.1711 42.6991 41.6341 36.7294 41.6341V41.6361ZM36.7122 45.0631C37.1129 45.0612 37.5133 45.0843 37.911 45.1321L32.7564 50.2231C32.5124 49.6782 32.3935 49.0867 32.4081 48.4911C32.4081 46.4221 33.4631 45.0611 36.7122 45.0611V45.0631ZM36.7294 51.9511C36.3434 51.9528 35.9576 51.9314 35.5742 51.8871L40.7379 46.7871C40.9727 47.323 41.0851 47.9034 41.067 48.4871C41.067 50.5001 40.095 51.9491 36.7294 51.9491V51.9511ZM54.8288 50.1511H59.5744C59.5046 50.4764 59.359 50.7811 59.1492 51.0411C58.1654 51.8327 56.9097 52.2179 55.6449 52.1161C55.0083 52.1834 54.3645 52.1147 53.7571 51.9147C53.1497 51.7148 52.5929 51.3882 52.1245 50.9571C51.6447 50.262 51.4167 49.4272 51.4775 48.5881C51.3999 47.7088 51.6477 46.8316 52.1751 46.1191C52.8383 45.3791 53.9611 45.0601 55.6115 45.0601C56.6616 44.9742 57.7104 45.2406 58.5883 45.8161C58.865 46.0332 59.0718 46.325 59.1836 46.6561H63.5849C63.5529 46.1106 63.4201 45.5754 63.1931 45.0771C62.1391 42.9601 59.6888 41.7001 55.5224 41.7001C51.8987 41.7001 49.4666 42.7921 48.1231 44.4391C47.2357 45.6285 46.7802 47.0785 46.8301 48.5551C46.7727 50.0651 47.2164 51.5522 48.0937 52.7901C49.4211 54.4901 51.7853 55.3261 54.6263 55.3261C56.5152 55.4562 58.3911 54.9337 59.9328 53.8481L60.0523 55.1241H63.7085V47.3121H54.8288V50.1511ZM74.0856 41.6331C68.2009 41.6331 65.1047 44.3881 65.1047 48.4331C65.1047 53.0031 68.3528 55.3211 74.0856 55.3211C80.3965 55.3211 83.0502 52.6331 83.0502 48.4331C83.0502 44.1711 80.0563 41.6341 74.0856 41.6341V41.6331ZM74.0694 45.0601C74.4595 45.059 74.8493 45.081 75.2368 45.1261L70.1024 50.2001C69.8661 49.6613 69.7511 49.0782 69.7652 48.4911C69.7612 46.4221 70.8202 45.0611 74.0694 45.0611V45.0601ZM74.0856 51.9481C73.6893 51.9498 73.2933 51.927 72.8999 51.8801L78.0809 46.7621C78.3246 47.3051 78.4412 47.8954 78.4221 48.4891C78.4241 50.5001 77.4562 51.9491 74.0856 51.9491V51.9481Z" fill="#76787F"/>
</svg>
