<svg xmlns="http://www.w3.org/2000/svg" width="320" height="320" viewBox="0 0 320 320" fill="none"><mask id="mask0" maskUnits="userSpaceOnUse" x="0" y="0" width="320" height="320"><path d="M320 3.05176e-05L-1.66893e-05 -2.5433e-05L-7.26399e-05 320L320 3.05176e-05Z" fill="#2CCAB9"></path></mask><g mask="url(#mask0)"><line x1="163.089" y1="-223.293" x2="-193.293" y2="133.089" stroke="#2CCAB9" stroke-width="2"></line><line x1="344.108" y1="-42.2735" x2="-12.2734" y2="314.108" stroke="#2CCAB9" stroke-width="2"></line><line x1="253.599" y1="-132.783" x2="-102.783" y2="223.599" stroke="#2CCAB9" stroke-width="2"></line><line x1="434.618" y1="48.2361" x2="78.2359" y2="404.618" stroke="#2CCAB9" stroke-width="2"></line><line x1="208.344" y1="-178.038" x2="-148.038" y2="178.344" stroke="#2CCAB9" stroke-width="2"></line><line x1="389.363" y1="2.98128" x2="32.981" y2="359.363" stroke="#2CCAB9" stroke-width="2"></line><line x1="298.854" y1="-87.5284" x2="-57.5283" y2="268.853" stroke="#2CCAB9" stroke-width="2"></line><line x1="479.873" y1="93.4909" x2="123.491" y2="449.873" stroke="#2CCAB9" stroke-width="2"></line><line x1="185.716" y1="-200.665" x2="-170.665" y2="155.716" stroke="#2CCAB9" stroke-width="2"></line><line x1="366.736" y1="-19.6461" x2="10.3541" y2="336.736" stroke="#2CCAB9" stroke-width="2"></line><line x1="276.226" y1="-110.156" x2="-80.1557" y2="246.226" stroke="#2CCAB9" stroke-width="2"></line><line x1="457.245" y1="70.8635" x2="100.863" y2="427.245" stroke="#2CCAB9" stroke-width="2"></line><line x1="230.971" y1="-155.411" x2="-125.411" y2="200.971" stroke="#2CCAB9" stroke-width="2"></line><line x1="411.99" y1="25.6087" x2="55.6085" y2="381.99" stroke="#2CCAB9" stroke-width="2"></line><line x1="321.481" y1="-64.901" x2="-34.9008" y2="291.481" stroke="#2CCAB9" stroke-width="2"></line><line x1="502.5" y1="116.118" x2="146.118" y2="472.5" stroke="#2CCAB9" stroke-width="2"></line><line x1="174.402" y1="-211.979" x2="-181.979" y2="144.403" stroke="#2CCAB9" stroke-width="2"></line><line x1="355.422" y1="-30.9599" x2="-0.959891" y2="325.422" stroke="#2CCAB9" stroke-width="2"></line><line x1="264.912" y1="-121.469" x2="-91.4697" y2="234.912" stroke="#2CCAB9" stroke-width="2"></line><line x1="445.932" y1="59.5498" x2="89.5499" y2="415.932" stroke="#2CCAB9" stroke-width="2"></line><line x1="219.657" y1="-166.724" x2="-136.725" y2="189.657" stroke="#2CCAB9" stroke-width="2"></line><line x1="400.677" y1="14.295" x2="44.295" y2="370.677" stroke="#2CCAB9" stroke-width="2"></line><line x1="310.167" y1="-76.2147" x2="-46.2148" y2="280.167" stroke="#2CCAB9" stroke-width="2"></line><line x1="491.187" y1="104.805" x2="134.805" y2="461.186" stroke="#2CCAB9" stroke-width="2"></line><line x1="197.03" y1="-189.352" x2="-159.352" y2="167.03" stroke="#2CCAB9" stroke-width="2"></line><line x1="378.049" y1="-8.33244" x2="21.6676" y2="348.049" stroke="#2CCAB9" stroke-width="2"></line><line x1="287.54" y1="-98.8421" x2="-68.8422" y2="257.54" stroke="#2CCAB9" stroke-width="2"></line><line x1="468.559" y1="82.1773" x2="112.177" y2="438.559" stroke="#2CCAB9" stroke-width="2"></line><line x1="242.285" y1="-144.097" x2="-114.097" y2="212.285" stroke="#2CCAB9" stroke-width="2"></line><line x1="423.304" y1="36.9224" x2="66.9224" y2="393.304" stroke="#2CCAB9" stroke-width="2"></line><line x1="332.795" y1="-53.5873" x2="-23.5873" y2="302.795" stroke="#2CCAB9" stroke-width="2"></line><line x1="513.814" y1="127.432" x2="157.432" y2="483.814" stroke="#2CCAB9" stroke-width="2"></line><line x1="168.746" y1="-217.636" x2="-187.636" y2="138.746" stroke="#2CCAB9" stroke-width="2"></line><line x1="349.765" y1="-36.6167" x2="-6.61663" y2="319.765" stroke="#2CCAB9" stroke-width="2"></line><line x1="259.255" y1="-127.126" x2="-97.1264" y2="229.255" stroke="#2CCAB9" stroke-width="2"></line><line x1="440.275" y1="53.893" x2="83.8931" y2="410.275" stroke="#2CCAB9" stroke-width="2"></line><line x1="214.001" y1="-172.381" x2="-142.381" y2="184.001" stroke="#2CCAB9" stroke-width="2"></line><line x1="395.02" y1="8.63814" x2="38.6383" y2="365.02" stroke="#2CCAB9" stroke-width="2"></line><line x1="304.51" y1="-81.8715" x2="-51.8715" y2="274.51" stroke="#2CCAB9" stroke-width="2"></line><line x1="485.53" y1="99.1478" x2="129.148" y2="455.53" stroke="#2CCAB9" stroke-width="2"></line><line x1="191.373" y1="-195.009" x2="-165.009" y2="161.373" stroke="#2CCAB9" stroke-width="2"></line><line x1="372.393" y1="-13.9893" x2="16.0108" y2="342.392" stroke="#2CCAB9" stroke-width="2"></line><line x1="281.883" y1="-104.499" x2="-74.499" y2="251.883" stroke="#2CCAB9" stroke-width="2"></line><line x1="462.902" y1="76.5204" x2="106.521" y2="432.902" stroke="#2CCAB9" stroke-width="2"></line><line x1="236.628" y1="-149.754" x2="-119.754" y2="206.628" stroke="#2CCAB9" stroke-width="2"></line><line x1="417.648" y1="31.2655" x2="61.2657" y2="387.647" stroke="#2CCAB9" stroke-width="2"></line><line x1="327.138" y1="-59.2441" x2="-29.2441" y2="297.138" stroke="#2CCAB9" stroke-width="2"></line><line x1="508.157" y1="121.775" x2="151.775" y2="478.157" stroke="#2CCAB9" stroke-width="2"></line><line x1="180.06" y1="-206.322" x2="-176.322" y2="150.059" stroke="#2CCAB9" stroke-width="2"></line><line x1="361.079" y1="-25.303" x2="4.69685" y2="331.079" stroke="#2CCAB9" stroke-width="2"></line><line x1="270.569" y1="-115.813" x2="-85.8124" y2="240.569" stroke="#2CCAB9" stroke-width="2"></line><line x1="451.588" y1="65.2067" x2="95.2066" y2="421.588" stroke="#2CCAB9" stroke-width="2"></line><line x1="225.315" y1="-161.067" x2="-131.067" y2="195.314" stroke="#2CCAB9" stroke-width="2"></line><line x1="406.334" y1="19.9518" x2="49.9517" y2="376.334" stroke="#2CCAB9" stroke-width="2"></line><line x1="315.824" y1="-70.5578" x2="-40.558" y2="285.824" stroke="#2CCAB9" stroke-width="2"></line><line x1="496.843" y1="110.462" x2="140.462" y2="466.843" stroke="#2CCAB9" stroke-width="2"></line><line x1="202.687" y1="-183.695" x2="-153.695" y2="172.687" stroke="#2CCAB9" stroke-width="2"></line><line x1="383.706" y1="-2.67558" x2="27.3243" y2="353.706" stroke="#2CCAB9" stroke-width="2"></line><line x1="293.196" y1="-93.1852" x2="-63.1855" y2="263.197" stroke="#2CCAB9" stroke-width="2"></line><line x1="474.216" y1="87.8341" x2="117.834" y2="444.216" stroke="#2CCAB9" stroke-width="2"></line><line x1="247.942" y1="-138.44" x2="-108.44" y2="217.942" stroke="#2CCAB9" stroke-width="2"></line><line x1="428.961" y1="42.5792" x2="72.5792" y2="398.961" stroke="#2CCAB9" stroke-width="2"></line><line x1="338.451" y1="-47.9304" x2="-17.9306" y2="308.451" stroke="#2CCAB9" stroke-width="2"></line><line x1="519.471" y1="133.089" x2="163.089" y2="489.471" stroke="#2CCAB9" stroke-width="2"></line></g></svg>