<svg xmlns="http://www.w3.org/2000/svg" width="320" height="320" viewBox="0 0 320 320" fill="none"><mask id="mask0" maskUnits="userSpaceOnUse" x="0" y="0" width="320" height="321"><path d="M320 6.10352e-05L320 320L3.54453e-05 320L320 6.10352e-05Z" fill="#2CCAB9"></path></mask><g mask="url(#mask0)"><line y1="-1" x2="504" y2="-1" transform="matrix(-0.707107 0.707107 0.707107 0.707107 544 157.618)" stroke="#2951D5" stroke-width="2"></line><line y1="-1" x2="504" y2="-1" transform="matrix(-0.707107 0.707107 0.707107 0.707107 362.98 -23.4011)" stroke="#2951D5" stroke-width="2"></line><line y1="-1" x2="504" y2="-1" transform="matrix(-0.707107 0.707107 0.707107 0.707107 453.49 67.1086)" stroke="#2951D5" stroke-width="2"></line><line y1="-1" x2="504" y2="-1" transform="matrix(-0.707107 0.707107 0.707107 0.707107 272.471 -113.911)" stroke="#2951D5" stroke-width="2"></line><line y1="-1" x2="504" y2="-1" transform="matrix(-0.707107 0.707107 0.707107 0.707107 498.745 112.363)" stroke="#2951D5" stroke-width="2"></line><line y1="-1" x2="504" y2="-1" transform="matrix(-0.707107 0.707107 0.707107 0.707107 317.726 -68.6559)" stroke="#2951D5" stroke-width="2"></line><line y1="-1" x2="504" y2="-1" transform="matrix(-0.707107 0.707107 0.707107 0.707107 408.235 21.8538)" stroke="#2951D5" stroke-width="2"></line><line y1="-1" x2="504" y2="-1" transform="matrix(-0.707107 0.707107 0.707107 0.707107 227.216 -159.166)" stroke="#2951D5" stroke-width="2"></line><line y1="-1" x2="504" y2="-1" transform="matrix(-0.707107 0.707107 0.707107 0.707107 521.373 134.991)" stroke="#2951D5" stroke-width="2"></line><line y1="-1" x2="504" y2="-1" transform="matrix(-0.707107 0.707107 0.707107 0.707107 340.353 -46.0284)" stroke="#2951D5" stroke-width="2"></line><line y1="-1" x2="504" y2="-1" transform="matrix(-0.707107 0.707107 0.707107 0.707107 430.863 44.4812)" stroke="#2951D5" stroke-width="2"></line><line y1="-1" x2="504" y2="-1" transform="matrix(-0.707107 0.707107 0.707107 0.707107 249.844 -136.538)" stroke="#2951D5" stroke-width="2"></line><line y1="-1" x2="504" y2="-1" transform="matrix(-0.707107 0.707107 0.707107 0.707107 476.118 89.736)" stroke="#2951D5" stroke-width="2"></line><line y1="-1" x2="504" y2="-1" transform="matrix(-0.707107 0.707107 0.707107 0.707107 295.099 -91.2833)" stroke="#2951D5" stroke-width="2"></line><line y1="-1" x2="504" y2="-1" transform="matrix(-0.707107 0.707107 0.707107 0.707107 385.608 -0.773621)" stroke="#2951D5" stroke-width="2"></line><line y1="-1" x2="504" y2="-1" transform="matrix(-0.707107 0.707107 0.707107 0.707107 204.589 -181.793)" stroke="#2951D5" stroke-width="2"></line><line y1="-1" x2="504" y2="-1" transform="matrix(-0.707107 0.707107 0.707107 0.707107 532.687 146.305)" stroke="#2951D5" stroke-width="2"></line><line y1="-1" x2="504" y2="-1" transform="matrix(-0.707107 0.707107 0.707107 0.707107 351.667 -34.7148)" stroke="#2951D5" stroke-width="2"></line><line y1="-1" x2="504" y2="-1" transform="matrix(-0.707107 0.707107 0.707107 0.707107 442.177 55.7949)" stroke="#2951D5" stroke-width="2"></line><line y1="-1" x2="504" y2="-1" transform="matrix(-0.707107 0.707107 0.707107 0.707107 261.157 -125.224)" stroke="#2951D5" stroke-width="2"></line><line y1="-1" x2="504" y2="-1" transform="matrix(-0.707107 0.707107 0.707107 0.707107 487.432 101.05)" stroke="#2951D5" stroke-width="2"></line><line y1="-1" x2="504" y2="-1" transform="matrix(-0.707107 0.707107 0.707107 0.707107 306.412 -79.9696)" stroke="#2951D5" stroke-width="2"></line><line y1="-1" x2="504" y2="-1" transform="matrix(-0.707107 0.707107 0.707107 0.707107 396.922 10.54)" stroke="#2951D5" stroke-width="2"></line><line y1="-1" x2="504" y2="-1" transform="matrix(-0.707107 0.707107 0.707107 0.707107 215.902 -170.479)" stroke="#2951D5" stroke-width="2"></line><line y1="-1" x2="504" y2="-1" transform="matrix(-0.707107 0.707107 0.707107 0.707107 510.059 123.677)" stroke="#2951D5" stroke-width="2"></line><line y1="-1" x2="504" y2="-1" transform="matrix(-0.707107 0.707107 0.707107 0.707107 329.04 -57.3422)" stroke="#2951D5" stroke-width="2"></line><line y1="-1" x2="504" y2="-1" transform="matrix(-0.707107 0.707107 0.707107 0.707107 419.549 33.1675)" stroke="#2951D5" stroke-width="2"></line><line y1="-1" x2="504" y2="-1" transform="matrix(-0.707107 0.707107 0.707107 0.707107 238.53 -147.852)" stroke="#2951D5" stroke-width="2"></line><line y1="-1" x2="504" y2="-1" transform="matrix(-0.707107 0.707107 0.707107 0.707107 464.804 78.4223)" stroke="#2951D5" stroke-width="2"></line><line y1="-1" x2="504" y2="-1" transform="matrix(-0.707107 0.707107 0.707107 0.707107 283.785 -102.597)" stroke="#2951D5" stroke-width="2"></line><line y1="-1" x2="504" y2="-1" transform="matrix(-0.707107 0.707107 0.707107 0.707107 374.294 -12.0873)" stroke="#2951D5" stroke-width="2"></line><line y1="-1" x2="504" y2="-1" transform="matrix(-0.707107 0.707107 0.707107 0.707107 193.275 -193.107)" stroke="#2951D5" stroke-width="2"></line><line y1="-1" x2="504" y2="-1" transform="matrix(-0.707107 0.707107 0.707107 0.707107 538.343 151.961)" stroke="#2951D5" stroke-width="2"></line><line y1="-1" x2="504" y2="-1" transform="matrix(-0.707107 0.707107 0.707107 0.707107 357.324 -29.0579)" stroke="#2951D5" stroke-width="2"></line><line y1="-1" x2="504" y2="-1" transform="matrix(-0.707107 0.707107 0.707107 0.707107 447.833 61.4518)" stroke="#2951D5" stroke-width="2"></line><line y1="-1" x2="504" y2="-1" transform="matrix(-0.707107 0.707107 0.707107 0.707107 266.814 -119.568)" stroke="#2951D5" stroke-width="2"></line><line y1="-1" x2="504" y2="-1" transform="matrix(-0.707107 0.707107 0.707107 0.707107 493.088 106.707)" stroke="#2951D5" stroke-width="2"></line><line y1="-1" x2="504" y2="-1" transform="matrix(-0.707107 0.707107 0.707107 0.707107 312.069 -74.3127)" stroke="#2951D5" stroke-width="2"></line><line y1="-1" x2="504" y2="-1" transform="matrix(-0.707107 0.707107 0.707107 0.707107 402.579 16.1969)" stroke="#2951D5" stroke-width="2"></line><line y1="-1" x2="504" y2="-1" transform="matrix(-0.707107 0.707107 0.707107 0.707107 221.559 -164.822)" stroke="#2951D5" stroke-width="2"></line><line y1="-1" x2="504" y2="-1" transform="matrix(-0.707107 0.707107 0.707107 0.707107 515.716 129.334)" stroke="#2951D5" stroke-width="2"></line><line y1="-1" x2="504" y2="-1" transform="matrix(-0.707107 0.707107 0.707107 0.707107 334.696 -51.6853)" stroke="#2951D5" stroke-width="2"></line><line y1="-1" x2="504" y2="-1" transform="matrix(-0.707107 0.707107 0.707107 0.707107 425.206 38.8243)" stroke="#2951D5" stroke-width="2"></line><line y1="-1" x2="504" y2="-1" transform="matrix(-0.707107 0.707107 0.707107 0.707107 244.187 -142.195)" stroke="#2951D5" stroke-width="2"></line><line y1="-1" x2="504" y2="-1" transform="matrix(-0.707107 0.707107 0.707107 0.707107 470.461 84.0792)" stroke="#2951D5" stroke-width="2"></line><line y1="-1" x2="504" y2="-1" transform="matrix(-0.707107 0.707107 0.707107 0.707107 289.441 -96.9401)" stroke="#2951D5" stroke-width="2"></line><line y1="-1" x2="504" y2="-1" transform="matrix(-0.707107 0.707107 0.707107 0.707107 379.951 -6.43048)" stroke="#2951D5" stroke-width="2"></line><line y1="-1" x2="504" y2="-1" transform="matrix(-0.707107 0.707107 0.707107 0.707107 198.932 -187.45)" stroke="#2951D5" stroke-width="2"></line><line y1="-1" x2="504" y2="-1" transform="matrix(-0.707107 0.707107 0.707107 0.707107 527.029 140.648)" stroke="#2951D5" stroke-width="2"></line><line y1="-1" x2="504" y2="-1" transform="matrix(-0.707107 0.707107 0.707107 0.707107 346.01 -40.3716)" stroke="#2951D5" stroke-width="2"></line><line y1="-1" x2="504" y2="-1" transform="matrix(-0.707107 0.707107 0.707107 0.707107 436.52 50.1381)" stroke="#2951D5" stroke-width="2"></line><line y1="-1" x2="504" y2="-1" transform="matrix(-0.707107 0.707107 0.707107 0.707107 255.5 -130.881)" stroke="#2951D5" stroke-width="2"></line><line y1="-1" x2="504" y2="-1" transform="matrix(-0.707107 0.707107 0.707107 0.707107 481.774 95.3929)" stroke="#2951D5" stroke-width="2"></line><line y1="-1" x2="504" y2="-1" transform="matrix(-0.707107 0.707107 0.707107 0.707107 300.755 -85.6265)" stroke="#2951D5" stroke-width="2"></line><line y1="-1" x2="504" y2="-1" transform="matrix(-0.707107 0.707107 0.707107 0.707107 391.265 4.88324)" stroke="#2951D5" stroke-width="2"></line><line y1="-1" x2="504" y2="-1" transform="matrix(-0.707107 0.707107 0.707107 0.707107 210.246 -176.136)" stroke="#2951D5" stroke-width="2"></line><line y1="-1" x2="504" y2="-1" transform="matrix(-0.707107 0.707107 0.707107 0.707107 504.402 118.02)" stroke="#2951D5" stroke-width="2"></line><line y1="-1" x2="504" y2="-1" transform="matrix(-0.707107 0.707107 0.707107 0.707107 323.383 -62.999)" stroke="#2951D5" stroke-width="2"></line><line y1="-1" x2="504" y2="-1" transform="matrix(-0.707107 0.707107 0.707107 0.707107 413.893 27.5106)" stroke="#2951D5" stroke-width="2"></line><line y1="-1" x2="504" y2="-1" transform="matrix(-0.707107 0.707107 0.707107 0.707107 232.873 -153.509)" stroke="#2951D5" stroke-width="2"></line><line y1="-1" x2="504" y2="-1" transform="matrix(-0.707107 0.707107 0.707107 0.707107 459.147 72.7654)" stroke="#2951D5" stroke-width="2"></line><line y1="-1" x2="504" y2="-1" transform="matrix(-0.707107 0.707107 0.707107 0.707107 278.128 -108.254)" stroke="#2951D5" stroke-width="2"></line><line y1="-1" x2="504" y2="-1" transform="matrix(-0.707107 0.707107 0.707107 0.707107 368.638 -17.7442)" stroke="#2951D5" stroke-width="2"></line><line y1="-1" x2="504" y2="-1" transform="matrix(-0.707107 0.707107 0.707107 0.707107 187.618 -198.764)" stroke="#2951D5" stroke-width="2"></line></g></svg>