<svg width="561" height="236" viewBox="0 0 561 236" fill="none" xmlns="http://www.w3.org/2000/svg">
<path fill-rule="evenodd" clip-rule="evenodd" d="M203.913 -238.094C240.705 -229.204 274.498 -219.6 310.457 -207.792C367.038 -189.211 440.482 -197.942 474.598 -149.203C509.006 -100.047 497.361 -29.083 474.311 26.2934C452.187 79.4451 404.102 116.842 352.869 143.247C307.133 166.819 255.383 165.118 203.913 165.655C151.821 166.198 98.0622 171.913 52.6799 146.377C4.13876 119.065 -38.9831 75.6852 -52.072 21.6189C-64.8081 -30.99 -32.9603 -81.3493 -14.7962 -132.345C2.76655 -181.652 4.71493 -247.458 51.8959 -270.271C99.6836 -293.377 152.305 -250.565 203.913 -238.094Z" fill="#59EDC1"/>
<g filter="url(#filter0_f)">
<path fill-rule="evenodd" clip-rule="evenodd" d="M187.913 -131.094C224.705 -122.204 258.498 -112.6 294.457 -100.792C351.038 -82.211 424.482 -90.9422 458.598 -42.2029C493.006 6.95259 481.361 77.917 458.311 133.293C436.187 186.445 388.102 223.842 336.869 250.247C291.133 273.819 239.383 272.118 187.913 272.655C135.821 273.198 82.0622 278.913 36.6799 253.377C-11.8612 226.065 -54.9831 182.685 -68.072 128.619C-80.8081 76.01 -48.9603 25.6507 -30.7962 -25.3451C-13.2334 -74.6524 -11.2851 -140.458 35.8959 -163.271C83.6836 -186.377 136.305 -143.565 187.913 -131.094Z" fill="#59EDC1"/>
</g>
<defs>
<filter id="filter0_f" x="-151" y="-250" width="711.229" height="603.573" filterUnits="userSpaceOnUse" color-interpolation-filters="sRGB">
<feFlood flood-opacity="0" result="BackgroundImageFix"/>
<feBlend mode="normal" in="SourceGraphic" in2="BackgroundImageFix" result="shape"/>
<feGaussianBlur stdDeviation="40" result="effect1_foregroundBlur"/>
</filter>
</defs>
</svg>
