<svg xmlns="http://www.w3.org/2000/svg" width="178" height="100" viewBox="0 0 178 100" fill="none"><path d="M61.5861 44.26H64.8001V57.26H61.5861V44.26ZM66.0817 52.37C66.0817 49.15 68.0842 47.22 71.0879 47.22C74.0916 47.22 76.0941 49.15 76.0941 52.37C76.0941 55.59 74.1617 57.54 71.0879 57.54C68.0141 57.54 66.0817 55.66 66.0817 52.37ZM72.9101 52.37C72.9101 50.6 72.2193 49.56 71.1179 49.56C70.0165 49.56 69.3357 50.56 69.3357 52.37C69.3357 54.18 70.0165 55.17 71.1179 55.17C72.2193 55.17 72.9301 54.18 72.9301 52.38L72.9101 52.37ZM77.3756 57.93H80.4795C80.6208 58.2637 80.8675 58.5421 81.1821 58.7227C81.4967 58.9033 81.8618 58.9761 82.2216 58.93C83.4531 58.93 84.0939 58.27 84.0939 57.29V55.49H84.1039C83.8387 56.0505 83.4098 56.5176 82.8737 56.83C82.3375 57.1424 81.7193 57.2853 81.1002 57.24C78.7473 57.24 77.1854 55.45 77.1854 52.37C77.1854 49.29 78.6772 47.37 81.1903 47.37C81.8252 47.3361 82.4551 47.4996 82.993 47.8381C83.531 48.1766 83.9506 48.6734 84.1941 49.26H84.1039V47.45H87.2879V57.19C87.2879 59.54 85.2053 61.01 82.1415 61.01C79.3581 61 77.5759 59.73 77.3957 57.94L77.3756 57.93ZM84.1039 52.37C84.1039 50.8 83.3831 49.81 82.2416 49.81C81.1002 49.81 80.3994 50.81 80.3994 52.37C80.3994 53.93 81.0902 54.85 82.2416 54.85C83.3931 54.85 84.1039 54 84.1039 52.37ZM88.5595 52.37C88.5595 49.15 90.5619 47.22 93.5656 47.22C96.5694 47.22 98.5718 49.15 98.5718 52.37C98.5718 55.59 96.6294 57.54 93.5656 57.54C90.5019 57.54 88.5795 55.66 88.5795 52.37H88.5595ZM95.3879 52.37C95.3879 50.6 94.687 49.56 93.5957 49.56C92.5043 49.56 91.8135 50.56 91.8135 52.37C91.8135 54.18 92.4943 55.17 93.5957 55.17C94.697 55.17 95.4079 54.18 95.4079 52.38L95.3879 52.37ZM99.8734 45.08C99.8594 44.753 99.9437 44.4293 100.115 44.1506C100.287 43.8718 100.538 43.6508 100.837 43.5159C101.136 43.3809 101.468 43.3383 101.791 43.3935C102.114 43.4486 102.413 43.599 102.649 43.8253C102.886 44.0517 103.05 44.3435 103.119 44.6634C103.188 44.9833 103.16 45.3166 103.038 45.6203C102.916 45.9241 102.706 46.1845 102.435 46.368C102.163 46.5515 101.843 46.6497 101.515 46.65C101.306 46.6553 101.098 46.619 100.902 46.5433C100.707 46.4675 100.529 46.3537 100.378 46.2086C100.227 46.0635 100.107 45.8899 100.023 45.6978C99.9402 45.5058 99.896 45.2992 99.8935 45.09L99.8734 45.08ZM99.8734 47.44H103.127V57.3H99.9235L99.8734 47.44ZM114.832 52.37C114.832 55.58 113.39 57.44 110.937 57.44C110.309 57.4787 109.684 57.3239 109.147 56.9967C108.61 56.6694 108.186 56.1854 107.933 55.61H107.873V60.47H104.659V47.47H107.853V49.23H107.913C108.158 48.6433 108.577 48.146 109.115 47.806C109.652 47.466 110.282 47.2998 110.917 47.33C113.44 47.31 114.892 49.16 114.892 52.38L114.832 52.37ZM111.558 52.37C111.558 50.81 110.827 49.8 109.696 49.8C108.564 49.8 107.853 50.8 107.843 52.37C107.833 53.94 108.564 54.93 109.696 54.93C110.827 54.93 111.618 54 111.618 52.38L111.558 52.37ZM120.319 47.21C123.012 47.21 124.684 48.48 124.704 50.52H121.77C121.77 49.81 121.18 49.37 120.299 49.37C119.418 49.37 118.997 49.71 118.997 50.22C118.997 50.73 119.368 50.89 120.108 51.04L122.171 51.46C124.173 51.88 124.974 52.68 124.974 54.17C124.974 56.17 123.122 57.53 120.369 57.53C117.615 57.53 115.823 56.21 115.693 54.2H118.807C118.897 54.93 119.478 55.36 120.419 55.36C121.36 55.36 121.801 55.06 121.801 54.53C121.801 54 121.5 53.91 120.729 53.75L118.867 53.36C116.935 52.95 115.923 51.94 115.923 50.43C115.983 48.47 117.665 47.22 120.379 47.22L120.319 47.21ZM135.738 57.29H132.624V55.44H132.564C132.39 56.0571 132.01 56.5964 131.488 56.969C130.965 57.3417 130.331 57.5254 129.69 57.49C129.206 57.5057 128.725 57.4191 128.277 57.2357C127.828 57.0524 127.424 56.7765 127.091 56.4262C126.757 56.0758 126.501 55.6589 126.34 55.2029C126.179 54.7469 126.116 54.2619 126.156 53.78V47.45H129.37V53.09C129.37 54.25 129.981 54.88 130.982 54.88C131.217 54.8782 131.449 54.8261 131.662 54.7273C131.875 54.6284 132.064 54.485 132.217 54.3068C132.37 54.1286 132.482 53.9197 132.547 53.6943C132.612 53.4688 132.628 53.2321 132.594 53V47.45H135.798L135.738 57.29ZM137.29 47.44H140.414V49.34H140.484C140.656 48.7313 141.026 48.197 141.535 47.8206C142.044 47.4443 142.664 47.2471 143.297 47.26C143.933 47.2048 144.566 47.3884 145.074 47.7749C145.581 48.1614 145.926 48.7231 146.04 49.35H146.181C146.381 48.7197 146.784 48.1731 147.327 47.7952C147.87 47.4172 148.523 47.2291 149.184 47.26C149.624 47.2433 150.062 47.3195 150.47 47.4836C150.878 47.6476 151.247 47.8959 151.552 48.2122C151.857 48.5284 152.092 48.9055 152.242 49.3187C152.391 49.7319 152.451 50.1719 152.418 50.61V57.3H149.184V51.43C149.184 50.43 148.714 49.87 147.803 49.87C147.601 49.8667 147.4 49.9071 147.215 49.9883C147.03 50.0696 146.865 50.1899 146.731 50.3409C146.597 50.4919 146.497 50.6701 146.438 50.8633C146.38 51.0565 146.363 51.26 146.391 51.46V57.3H143.327V51.4C143.327 50.4 142.837 49.87 141.955 49.87C141.751 49.8684 141.549 49.9104 141.362 49.9932C141.176 50.0761 141.009 50.1978 140.874 50.3503C140.738 50.5028 140.637 50.6825 140.576 50.8773C140.516 51.0722 140.498 51.2777 140.524 51.48V57.3H137.31L137.29 47.44Z" fill="#938E8A"></path><path d="M55.2283 45.11C55.2283 43.1197 54.6266 41.1757 53.5018 39.5328C52.377 37.8898 50.7816 36.6245 48.9245 35.9025C47.0675 35.1805 45.0354 35.0355 43.0945 35.4865C41.1536 35.9375 39.3943 36.9634 38.047 38.43H25.5516V64.77H51.9342V52.46C52.9697 51.5349 53.7983 50.4022 54.3659 49.1358C54.9335 47.8693 55.2273 46.4975 55.2283 45.11ZM50.152 45.11C50.154 46.0637 49.8726 46.9966 49.3435 47.7905C48.8145 48.5845 48.0614 49.2038 47.1798 49.5702C46.2981 49.9365 45.3275 50.0334 44.3907 49.8486C43.4539 49.6637 42.593 49.2055 41.9171 48.5318C41.2412 47.8581 40.7805 46.9993 40.5935 46.064C40.4065 45.1287 40.5015 44.1591 40.8665 43.2778C41.2314 42.3964 41.85 41.6431 42.6438 41.113C43.4377 40.5829 44.3711 40.3 45.326 40.3C46.6042 40.3 47.8302 40.8064 48.735 41.7082C49.6397 42.6099 50.1493 43.8334 50.152 45.11ZM46.8579 59.7H30.6278V43.5H35.574C35.4784 44.0314 35.4282 44.57 35.4238 45.11C35.4264 47.7322 36.4705 50.2462 38.327 52.1003C40.1835 53.9545 42.7006 54.9973 45.326 55C45.8393 54.9973 46.3515 54.9538 46.8579 54.87V59.7Z" fill="#938E8A"></path></svg>