<svg xmlns="http://www.w3.org/2000/svg" width="178" height="100" viewBox="0 0 178 100" fill="none"><path d="M36.1548 46.2335C36.1181 47.0903 36.0998 48.1751 36.0998 49.4877C36.0998 50.8003 36.1181 51.8941 36.1548 52.7692C36.1914 53.6261 36.2647 54.3097 36.3748 54.8202C36.5031 55.3306 36.6773 55.6861 36.8973 55.8867C37.1356 56.0872 37.4473 56.1875 37.8323 56.1875C38.2173 56.1875 38.5198 56.0872 38.7398 55.8867C38.9782 55.6861 39.1524 55.3306 39.2624 54.8202C39.3907 54.3097 39.4732 53.6261 39.5099 52.7692C39.5466 51.8941 39.5649 50.8003 39.5649 49.4877C39.5649 48.1751 39.5466 47.0903 39.5099 46.2335C39.4732 45.3584 39.3907 44.6656 39.2624 44.1552C39.1524 43.6447 38.9782 43.2892 38.7398 43.0887C38.5198 42.8881 38.2173 42.7878 37.8323 42.7878C37.4473 42.7878 37.1356 42.8881 36.8973 43.0887C36.6773 43.2892 36.5031 43.6447 36.3748 44.1552C36.2647 44.6656 36.1914 45.3584 36.1548 46.2335Z" fill="#938E8A"></path><path fill-rule="evenodd" clip-rule="evenodd" d="M37.1291 29.1733C30.498 29.3144 25.2272 34.7556 25.3336 41.35L25.4644 49.4524L25.3336 57.5548C25.2272 64.1493 30.498 69.5905 37.1291 69.7315L45.2785 69.9049L53.4279 69.7315C60.0589 69.5905 65.3298 64.1493 65.2234 57.5548L65.0927 49.4524L65.2234 41.35C65.3298 34.7556 60.0589 29.3144 53.4279 29.1733L45.2785 29L37.1291 29.1733ZM45.5601 59.7698L42.48 62.4224L39.6749 59.4143C39.4549 59.4508 39.2348 59.4782 39.0149 59.4964C38.8132 59.5328 38.584 59.5511 38.3273 59.5511H37.8323C36.5306 59.5511 35.4306 59.3779 34.5322 59.0315C33.6339 58.6851 32.9097 58.1108 32.3597 57.3087C31.8097 56.4883 31.4155 55.44 31.1772 54.1639C30.9388 52.8695 30.8196 51.3107 30.8196 49.4877C30.8196 47.6646 30.9388 46.115 31.1772 44.8388C31.4155 43.5444 31.8097 42.4962 32.3597 41.694C32.9097 40.8736 33.6339 40.2811 34.5322 39.9165C35.4306 39.5336 36.5306 39.3422 37.8323 39.3422C39.1341 39.3422 40.234 39.5336 41.1324 39.9165C42.0307 40.2811 42.755 40.8736 43.305 41.694C43.855 42.4962 44.2492 43.5444 44.4875 44.8388C44.7259 46.115 44.845 47.6646 44.845 49.4877C44.845 51.3654 44.7167 52.9515 44.46 54.2459C44.2033 55.5403 43.7817 56.5977 43.195 57.4181L45.5601 59.7698ZM54.241 46.753V45.6592C54.241 44.5471 54.131 43.7905 53.911 43.3895C53.691 42.9884 53.3335 42.7878 52.8384 42.7878C52.4535 42.7878 52.1418 42.8881 51.9035 43.0887C51.6835 43.2892 51.5093 43.6447 51.381 44.1552C51.2709 44.6656 51.1976 45.3584 51.1609 46.2335C51.1242 47.0903 51.1059 48.1751 51.1059 49.4877C51.1059 50.8003 51.1242 51.8941 51.1609 52.7692C51.1976 53.6261 51.2709 54.3097 51.381 54.8202C51.5093 55.3306 51.6835 55.6861 51.9035 55.8867C52.1418 56.0872 52.4535 56.1875 52.8384 56.1875C53.1501 56.1875 53.4068 56.1146 53.6085 55.9687C53.8102 55.8046 53.966 55.5403 54.076 55.1757C54.186 54.8111 54.2593 54.3279 54.296 53.7263C54.351 53.1065 54.3785 52.3317 54.3785 51.4019H59.3286V52.8513C59.3286 54.2186 59.1453 55.3398 58.7786 56.2148C58.412 57.0899 57.9261 57.7827 57.3211 58.2931C56.716 58.7854 56.0194 59.1135 55.231 59.2776C54.4611 59.4599 53.6635 59.5511 52.8384 59.5511C51.4084 59.5511 50.2351 59.3779 49.3184 59.0315C48.4017 58.6851 47.6867 58.1108 47.1733 57.3087C46.6599 56.4883 46.3024 55.44 46.1008 54.1639C45.9175 52.8695 45.8258 51.3107 45.8258 49.4877C45.8258 47.6281 45.9358 46.0512 46.1558 44.7568C46.3941 43.4624 46.7884 42.4141 47.3384 41.612C47.8883 40.8098 48.6125 40.2355 49.5109 39.8891C50.4092 39.5245 51.5184 39.3422 52.8384 39.3422C53.9935 39.3422 54.9743 39.4881 55.7811 39.7798C56.5877 40.0715 57.2386 40.4908 57.7337 41.0377C58.2469 41.5664 58.6136 42.2136 58.8336 42.9793C59.072 43.7267 59.1911 44.5745 59.1911 45.5225V46.753H54.241Z" fill="#938E8A"></path><path fill-rule="evenodd" clip-rule="evenodd" d="M89.2563 42.9364L93.7397 47.5629L98.2231 42.9364H106.013L97.6286 50.8676L106.013 58.7987H98.2231L93.7397 54.1604L89.2563 58.7987H81.455L89.8391 50.8676L81.455 42.9364H89.2563ZM88.8241 50.8676L79.7054 42.2415H89.5544L93.7397 46.5604L97.925 42.2415H107.422V42.2297H123.519C127.2 42.1923 130.315 45.2529 130.265 48.9252C130.264 50.2461 129.905 51.4637 129.186 52.5474C128.645 53.3677 127.959 54.0426 127.137 54.5558L130.57 58.9379V56.096C130.57 53.8694 132.243 52.4499 134.168 51.5085C136.112 50.5581 138.564 49.9643 140.607 49.4839C140.608 49.4837 140.609 49.4834 140.61 49.4832L140.633 49.4774C141.892 49.1695 142.964 48.9074 143.727 48.6247C144.114 48.4814 144.367 48.3517 144.512 48.2415C144.53 48.2275 144.545 48.2151 144.558 48.2044C144.514 48.164 144.423 48.1037 144.245 48.0342C143.83 47.8725 143.121 47.7507 142.047 47.7504C140.9 47.7622 139.924 47.855 139.258 48.0872C138.931 48.2017 138.732 48.3321 138.621 48.4545C138.526 48.5596 138.47 48.6843 138.475 48.8799L138.492 49.5915H130.819V48.8966C130.819 47.47 131.101 46.2772 131.664 45.2999C132.23 44.3182 133.055 43.6014 134.06 43.0873C136.033 42.0786 138.751 41.8284 141.783 41.8284C144.886 41.8284 147.462 42.1845 149.287 43.1013C150.21 43.5659 150.96 44.1842 151.476 44.9883C151.993 45.7945 152.246 46.7435 152.246 47.8226C152.246 49.8195 151.035 51.0914 149.549 51.9204C148.107 52.7253 146.292 53.1824 144.784 53.5481H151.985V59.4701H130.986L130.995 59.4819H122.584L119.575 55.6107H115.054V59.4819H107.749L107.762 59.4937H97.9245L93.7397 55.1643L89.5549 59.4937H79.7054L88.8241 50.8676ZM107.422 59.1719V42.5632L98.6435 50.8676L107.422 59.1719ZM119.92 54.9158L122.929 58.7869H129.564L126.079 54.3374C126.298 54.2369 126.506 54.1257 126.706 54.0041C127.468 53.5399 128.102 52.9232 128.6 52.1658C129.243 51.198 129.564 50.1122 129.564 48.9202C129.612 45.6391 126.817 42.8892 123.523 42.9246H108.122V58.7869H114.353V54.9158H119.92ZM141.117 54.243C141.335 53.9777 141.73 53.7521 142.255 53.5481C142.874 53.3073 143.67 53.0965 144.565 52.8858C147.633 52.1422 151.546 51.1272 151.546 47.8226C151.546 43.9514 147.931 42.5233 141.783 42.5233C136.001 42.5233 131.901 43.4599 131.545 48.2016C131.528 48.4248 131.519 48.6563 131.519 48.8966H137.775C137.774 48.8704 137.774 48.8446 137.775 48.8192C137.809 47.4093 139.766 47.0786 142.044 47.0554C144.267 47.0554 145.29 47.5511 145.29 48.2239C145.29 49.0543 143.317 49.537 140.839 50.1429L140.772 50.1594C136.657 51.1272 131.269 52.4727 131.269 56.096V58.7751H151.284V54.243H141.117ZM144.597 48.2577C144.596 48.2579 144.593 48.2533 144.591 48.2431C144.597 48.2523 144.598 48.2574 144.597 48.2577ZM122.621 48.9202C122.621 48.5487 122.327 48.2579 121.953 48.2579H115.054V49.5707H121.953C122.154 49.5707 122.295 49.51 122.421 49.3848C122.565 49.2422 122.621 49.0996 122.621 48.9202ZM123.321 48.9202C123.321 48.1648 122.714 47.5629 121.953 47.5629H114.353V50.2656H121.953C122.333 50.2656 122.655 50.1358 122.917 49.8762C123.19 49.6047 123.321 49.2861 123.321 48.9202Z" fill="#938E8A"></path><path d="M82.0318 70.2423H85.0164V66.1786L88.0066 70.2423H89.4989L92.4892 66.1786V70.2423H95.4739V62.6249H91.7431L88.7528 66.4336L85.7682 62.6249H82.0318V70.2423Z" fill="#938E8A"></path><path d="M101.762 62.4379C98.8799 62.4436 96.5218 63.271 96.5332 66.1559V66.7113C96.5218 69.5905 98.8799 70.4237 101.762 70.4293C104.638 70.4237 106.996 69.5905 106.985 66.7113V66.1559C106.985 63.2767 104.644 62.4379 101.762 62.4379ZM104 66.5243C104.017 67.7712 102.981 67.9979 101.762 68.0149C100.537 67.9979 99.5007 67.7712 99.5178 66.5243V66.3373C99.5007 65.096 100.537 64.8693 101.762 64.8523C102.981 64.8693 104.017 65.096 104 66.3373V66.5243Z" fill="#938E8A"></path><path d="M115.346 66.445C115.346 67.2101 114.908 67.8392 114.133 67.8392H110.864V65.0507H114.133C114.908 65.0507 115.346 65.6741 115.346 66.445ZM107.879 62.6363V70.2536H114.691C116.793 70.282 118.354 68.5137 118.337 66.445C118.354 64.3649 116.793 62.6079 114.691 62.6363H107.879Z" fill="#938E8A"></path><path d="M126.646 66.53C126.664 67.7825 125.628 67.9979 124.408 68.0149C123.184 67.9979 122.153 67.7825 122.164 66.53V62.6249H119.18V66.717C119.168 69.5962 121.538 70.4237 124.408 70.4293C127.279 70.4237 129.648 69.5962 129.637 66.717V62.6249H126.646V66.53Z" fill="#938E8A"></path><path d="M130.981 62.6249V70.2423H139.941V67.8279H133.966V62.6249H130.981Z" fill="#938E8A"></path><path d="M140.96 70.2536H149.92V68.2983H143.945V67.3234H149.92V65.5608H143.945V64.5859H149.92V62.6363H140.96V70.2536Z" fill="#938E8A"></path><path d="M83.7502 33.6056V32.0003H88.174C88.3883 32.0003 88.5748 32.0774 88.7269 32.2386C88.8859 32.3929 88.9619 32.5821 88.9619 32.8064C88.9619 33.0238 88.8859 33.213 88.7269 33.3743C88.5748 33.5285 88.3883 33.6056 88.174 33.6056H83.7502ZM80.1284 29.2454V38.6668H83.7502V36.3675H89.0794C90.9941 36.3956 92.6184 34.7482 92.5908 32.8064C92.6184 30.8577 90.9941 29.2243 89.0794 29.2454H80.1284Z" fill="#938E8A"></path><path d="M99.8 29C96.3025 29.007 93.441 30.0305 93.4547 33.5986V34.2856C93.441 37.8467 96.3025 38.8771 99.8 38.8841C103.29 38.8771 106.152 37.8467 106.138 34.2856V33.5986C106.138 30.0375 103.297 29 99.8 29ZM102.516 34.0542C102.537 35.5964 101.279 35.8768 99.8 35.8979C98.3139 35.8768 97.056 35.5964 97.0767 34.0542V33.8229C97.056 32.2877 98.3139 32.0073 99.8 31.9863C101.279 32.0073 102.537 32.2877 102.516 33.8229V34.0542Z" fill="#938E8A"></path><path d="M120.26 35.2109L118.11 29.2454H114.032L111.876 35.2109L109.725 29.2454H105.648L109.725 38.6668H114.032L116.071 33.9561L118.11 38.6668H122.416L126.495 29.2454H122.416L120.26 35.2109Z" fill="#938E8A"></path><path d="M126.771 38.6668H137.643V36.2484H130.393V35.0426H137.643V32.8625H130.393V31.6568H137.643V29.2454H126.771V38.6668Z" fill="#938E8A"></path><path d="M139.572 29.2383V38.6598H143.193V36.3605H146.429L148.177 38.6598H152.034L150.009 36.017C150.617 35.7296 151.108 35.295 151.474 34.7272C151.848 34.1524 152.034 33.5075 152.034 32.7994C152.062 30.8506 150.437 29.2173 148.523 29.2383H139.572ZM147.61 31.9933C148.053 31.9933 148.406 32.3508 148.406 32.7994C148.406 33.0167 148.329 33.206 148.17 33.3672C148.019 33.5215 147.832 33.5986 147.61 33.5986H143.193V31.9933H147.61Z" fill="#938E8A"></path></svg>