<svg xmlns="http://www.w3.org/2000/svg" width="178" height="100" viewBox="0 0 178 100" fill="none"><path d="M126.509 36.3518C126.899 34.7277 126.105 33.2122 125.279 31.9837C124.369 30.6312 122.848 29.432 121.15 29C121.457 30.5328 122.355 31.8552 123.22 33.0988C124.079 34.3341 125.162 35.5854 126.509 36.3518Z" fill="#938E8A"></path><path d="M53.5081 31.9821C52.6799 33.2099 51.8849 34.7248 52.2741 36.3492C53.6211 35.5839 54.7057 34.3334 55.5657 33.0987C56.4314 31.8559 57.3309 30.534 57.6395 29.0015C55.9408 29.4323 54.4197 30.6304 53.5081 31.9821Z" fill="#938E8A"></path><path d="M51.0889 39.4651C51.3927 38.1787 51.386 36.7704 51.0968 35.5638C50.8424 34.5034 50.4723 33.0044 49.2543 32.4986C48.3689 33.9108 48.013 35.8339 48.529 37.2749C48.9021 38.3172 49.5731 39.6953 50.9646 39.9086C52.2415 40.2013 53.5326 39.524 54.5524 38.9648C55.6862 38.3431 56.7969 37.354 57.4717 36.1781C56.2338 35.5568 54.8241 36.061 53.7635 36.5442C52.6203 37.0651 51.5701 38.1827 51.0889 39.4651Z" fill="#938E8A"></path><path d="M75.8693 34.2424V40.701H73.6519V38.3562H70.3257V40.701H68.1082V34.2424H70.3257V36.5955H73.6519V34.2424H75.8693Z" fill="#938E8A"></path><path d="M83.2222 34.2424H85.6713L82.1963 38.5701V40.701H79.9706V38.5783L76.5369 34.2424H79.0603L81.1124 36.8258L83.2222 34.2424Z" fill="#938E8A"></path><path fill-rule="evenodd" clip-rule="evenodd" d="M94.0809 36.5708C94.0809 35.7234 93.8327 35.1392 93.3941 34.7936C92.9722 34.4234 92.2936 34.2424 91.4001 34.2424H86.3612V40.701H88.5869V38.891C88.5869 38.891 91.1353 38.8992 91.4332 38.891C92.393 38.8827 93.1293 38.6524 93.5761 38.1423C93.9071 37.7802 94.0809 37.2619 94.0809 36.5708ZM91.8469 36.6037C91.8469 36.8094 91.8138 36.9575 91.7476 37.0727C91.6152 37.2784 91.3422 37.3853 90.8788 37.3853H88.5704V35.8056H90.8954C91.3256 35.8056 91.5904 35.9044 91.7311 36.1101C91.8055 36.2088 91.8469 36.3898 91.8469 36.6037Z" fill="#938E8A"></path><path d="M101.809 39.0966V40.701H94.9666V34.2424H101.752V35.855H97.1508V36.686H101.619V38.2574H97.1508V39.0966H101.809Z" fill="#938E8A"></path><path fill-rule="evenodd" clip-rule="evenodd" d="M110.555 36.2088C110.555 35.6246 110.415 35.205 110.117 34.9006C109.728 34.4892 109.058 34.2424 108.032 34.2424H102.861V40.701H105.07V38.422H107.081L108.694 40.701H111.159L109.198 38.0682C109.637 38.0024 109.993 37.7391 110.224 37.4265C110.431 37.1385 110.555 36.7107 110.555 36.2088ZM108.404 36.4145C108.404 36.5214 108.388 36.6531 108.33 36.7518C108.247 36.9164 108.032 36.9822 107.676 36.9822H105.078V35.8056H107.635C107.983 35.8056 108.214 35.8632 108.33 36.0771C108.388 36.1594 108.404 36.2911 108.404 36.4145Z" fill="#938E8A"></path><path d="M100.624 48.8017C100.624 47.3254 99.681 46.5495 97.4811 46.3124C97.1235 46.2693 96.0722 46.1615 95.4111 46.1076C93.7097 45.9244 93.2004 45.8275 93.2004 45.3964C93.2004 45.0085 93.6014 44.8253 95.1294 44.8253C96.2131 44.8253 96.82 45.03 97.0584 45.3425C97.1777 45.4934 97.221 45.6119 97.2319 45.7305H100.353C100.32 45.4718 100.212 45.1054 100.039 44.7822C99.4752 43.7045 98.1205 42.8424 95.2053 42.8424C91.9215 42.8424 90.1226 43.9955 90.1226 45.5042C90.1226 46.959 91.1412 47.8103 93.8939 48.0582C94.2116 48.0852 94.9015 48.1501 95.4547 48.2021L95.4608 48.2027L95.4632 48.2029L95.758 48.2306C97.1993 48.3815 97.5895 48.4784 97.5895 48.9311C97.5895 49.3513 97.2101 49.5776 95.6171 49.5776C94.3817 49.5776 93.6556 49.3944 93.3954 49.0819C93.2871 48.9526 93.2112 48.7586 93.1896 48.6293H90.0684C90.1009 48.8448 90.1551 49.1897 90.2743 49.4699C90.8054 50.6553 92.1926 51.5605 95.4111 51.5605C98.8683 51.5605 100.624 50.5906 100.624 48.8017Z" fill="#938E8A"></path><path fill-rule="evenodd" clip-rule="evenodd" d="M78.9855 49.0388C78.9855 49.6207 78.823 50.1919 78.4979 50.5691C77.9994 51.1725 77.0674 51.4312 75.8644 51.4312H68.3109V42.9717H75.6585C76.8289 42.9717 77.5767 43.2519 77.9885 43.6722C78.357 44.0386 78.5195 44.5235 78.5195 45.0731C78.5195 45.6227 78.3895 46.0753 78.1077 46.4094C77.8801 46.6896 77.49 46.9051 77.0782 46.959C77.685 47.0344 78.2594 47.3361 78.5846 47.7564C78.8555 48.0689 78.9855 48.5431 78.9855 49.0388ZM75.3334 46.0753C75.4417 45.9568 75.5068 45.7844 75.5068 45.5796C75.5068 45.3748 75.4417 45.2024 75.3008 45.0839C75.1492 44.9438 74.8674 44.8899 74.4556 44.8899H71.1502V46.2693H74.5314C74.8999 46.2693 75.1817 46.2154 75.3334 46.0753ZM74.8457 49.513C75.355 49.513 75.6585 49.4483 75.8319 49.2867C75.9402 49.1789 75.9836 49.0173 75.9836 48.8125C75.9836 48.597 75.9295 48.4353 75.7993 48.306C75.6368 48.1659 75.355 48.1013 74.8783 48.1013H71.1502V49.513H74.8457Z" fill="#938E8A"></path><path d="M89.19 49.3298V51.4312H80.2276V42.9717H89.1141V45.0839H83.0886V46.1723H88.9408V48.2306H83.0886V49.3298H89.19Z" fill="#938E8A"></path><path d="M111.17 42.9717V45.0947H107.571V51.4312H104.603V45.0947H101.016V42.9717H111.17Z" fill="#938E8A"></path><path d="M110.912 58.8853V58.9168H110.434L110.4 58.4594C110.254 58.691 109.946 58.9689 109.294 58.9689C108.193 58.9689 107.681 58.3088 107.681 56.6238C107.681 55.321 108.007 54.273 109.351 54.273C110.517 54.273 110.872 55.0315 110.889 55.8479H110.307C110.29 55.3152 110.05 54.823 109.363 54.823C108.537 54.823 108.297 55.3152 108.297 56.6412C108.297 58.0251 108.595 58.4594 109.375 58.4594C109.923 58.4594 110.242 58.1583 110.348 57.7993V56.9365H109.171V56.4096H110.906V57.7414C110.906 58.2199 110.911 58.737 110.912 58.8791V58.8829V58.8853Z" fill="#938E8A"></path><path fill-rule="evenodd" clip-rule="evenodd" d="M70.0516 57.7645H68.4211L68.0716 58.9168H67.4602L68.9044 54.3309H69.6555L71.0065 58.9168H70.3893L70.0516 57.7645ZM68.5783 57.2492H69.9059C69.9059 57.2492 69.3644 55.3847 69.3586 55.3558L69.3299 55.2198L69.2654 54.9157C69.2654 54.9157 69.1722 55.3268 69.1664 55.3558C69.1547 55.3963 68.5783 57.2492 68.5783 57.2492Z" fill="#938E8A"></path><path d="M75.4263 54.3309H75.9853L74.8964 58.9168H74.2034C74.2034 58.9168 73.429 55.35 73.429 55.1994C73.4231 55.35 72.6312 58.9168 72.6312 58.9168H71.9383L70.8494 54.3309H71.4782C71.4782 54.3309 72.3225 57.9614 72.3225 58.1062C72.3225 57.9614 73.0971 54.3309 73.0971 54.3309H73.79C73.79 54.3309 74.5644 57.9672 74.5644 58.1062C74.5644 57.9672 75.4263 54.3309 75.4263 54.3309Z" fill="#938E8A"></path><path fill-rule="evenodd" clip-rule="evenodd" d="M76.7461 57.7645H78.3766L78.7144 58.9168H79.3317L77.9807 54.3309H77.2295L75.7853 58.9168H76.3968L76.7461 57.7645ZM78.2311 57.2492H76.9034C76.9034 57.2492 77.4799 55.3963 77.4915 55.3558C77.4974 55.3268 77.5905 54.9157 77.5905 54.9157L77.6397 55.1471L77.6837 55.3558C77.6895 55.3847 78.2311 57.2492 78.2311 57.2492Z" fill="#938E8A"></path><path fill-rule="evenodd" clip-rule="evenodd" d="M81.5753 54.3309C82.2856 54.3309 82.67 54.6609 82.67 55.6221C82.67 56.4386 82.3614 56.7107 82.0411 56.8033L82.9263 58.9168H82.2857L81.4646 56.9192H80.3467V58.9168H79.7643V54.3309H81.5753ZM81.488 56.398C81.948 56.398 82.0586 56.1606 82.0586 55.6395C82.0586 55.0489 81.8839 54.8694 81.4588 54.8694H80.3524V56.398H81.488Z" fill="#938E8A"></path><path fill-rule="evenodd" clip-rule="evenodd" d="M86.2326 58.4015C86.4655 58.0714 86.5469 57.6314 86.5469 56.5486C86.5469 55.57 86.4771 55.1531 86.2442 54.8173C86.0345 54.5046 85.5804 54.3309 84.998 54.3309H83.455V58.9168H85.0387C85.6328 58.9168 85.9996 58.72 86.2326 58.4015ZM85.7201 58.0772C85.5687 58.2799 85.2718 58.3725 84.9166 58.3725H84.0431V54.8809H84.9049C85.2601 54.8809 85.5629 54.9736 85.7201 55.1878C85.8889 55.4368 85.9298 55.8248 85.9298 56.5486C85.9298 57.4113 85.8832 57.8572 85.7201 58.0772Z" fill="#938E8A"></path><path d="M92.6907 54.3309H93.2498L92.1609 58.9168H91.4679C91.4679 58.9168 90.6934 55.35 90.6934 55.1994C90.6876 55.35 89.8956 58.9168 89.8956 58.9168H89.2027L88.1138 54.3309H88.7427C88.7427 54.3309 89.587 57.9614 89.587 58.1062C89.587 57.9614 90.3615 54.3309 90.3615 54.3309H91.0545C91.0545 54.3309 91.8289 57.9672 91.8289 58.1062C91.8289 57.9672 92.6907 54.3309 92.6907 54.3309Z" fill="#938E8A"></path><path d="M94.2794 58.9168V54.3309H93.6738V58.9168H94.2794Z" fill="#938E8A"></path><path d="M98.0704 54.3309V58.9168H97.4008L95.6829 55.3615V58.9168H95.118V54.3309H95.8227L97.4997 57.834V54.3309H98.0704Z" fill="#938E8A"></path><path d="M101.846 58.9168V54.3309H101.276V57.834L99.5986 54.3309H98.894V58.9168H99.4589V55.3615L101.176 58.9168H101.846Z" fill="#938E8A"></path><path d="M103.275 54.3309V58.9168H102.67V54.3309H103.275Z" fill="#938E8A"></path><path d="M107.066 58.9168V54.3309H106.496V57.834L104.819 54.3309H104.114V58.9168H104.679V55.3615L106.397 58.9168H107.066Z" fill="#938E8A"></path><path d="M74.9765 67.9554L74.3093 65.9132L73.6419 67.9554H71.4826L73.2295 69.2176L72.5623 71.2598L74.3093 69.9976L76.0563 71.2598L75.389 69.2176L77.136 67.9554H74.9765Z" fill="#938E8A"></path><path d="M82.0125 65.9134L82.6934 67.9556H84.8969L83.1142 69.2177L83.7952 71.2599L82.0125 69.9978L80.2298 71.2599L80.9108 69.2177L79.1281 67.9556H81.3315L82.0125 65.9134Z" fill="#938E8A"></path><path d="M90.3364 67.9556L89.6555 65.9134L88.9745 67.9556H86.7711L88.5537 69.2177L87.8727 71.2599L89.6555 69.9978L91.4381 71.2599L90.7572 69.2177L92.5399 67.9556H90.3364Z" fill="#938E8A"></path><path d="M97.2983 65.9134L97.9793 67.9556H100.183L98.4 69.2177L99.081 71.2599L97.2983 69.9978L95.5156 71.2599L96.1966 69.2177L94.4139 67.9556H96.6174L97.2983 65.9134Z" fill="#938E8A"></path><path d="M105.669 67.9556L105.002 65.9134L104.334 67.9556H102.175L103.922 69.2177L103.255 71.2599L105.002 69.9978L106.749 71.2599L106.081 69.2177L107.829 67.9556H105.669Z" fill="#938E8A"></path><path d="M50.1736 45.0483C48.7568 45.0823 47.7852 43.8891 47.1572 42.9365C46.3291 41.6805 46.1649 39.7839 46.6795 38.2338C47.9859 38.503 48.7181 39.8496 49.2435 40.8458C49.8183 41.9355 50.1748 43.2882 50.1869 44.5979C50.3493 43.2906 51.1048 42.0174 52.0872 41.3217C53.028 40.6556 54.2896 39.9494 55.6073 40.3306C55.2476 41.5731 54.3955 42.7224 53.4515 43.5083C52.575 44.238 51.4619 45.1123 50.1736 45.0483Z" fill="#938E8A"></path><path d="M50.5927 50.1789C49.2778 50.398 47.9952 49.5969 47.1622 48.6546C46.0898 47.4414 45.4517 45.8139 45.5819 44.1846C46.9327 44.2187 47.9557 45.3798 48.7118 46.2578C49.5262 47.2034 50.1935 48.4475 50.5136 49.7309C50.3728 48.4519 50.8046 47.0708 51.6062 46.2174C52.38 45.3936 53.4638 44.4958 54.8124 44.6399C54.7834 45.9368 54.1296 47.1724 53.4553 48.0978C52.8268 48.9602 51.8585 50.0269 50.5927 50.1789Z" fill="#938E8A"></path><path d="M52.387 55.461C50.8434 56.0483 49.3747 55.2723 48.1637 54.4883C46.6578 53.5135 45.5369 51.6186 45.2542 49.7921C46.74 49.6086 48.2151 50.5842 49.2391 51.5103C50.3657 52.5291 51.4291 53.6317 52.1563 54.9944C51.6642 53.6698 51.787 52.166 52.4277 50.9026C53.0406 49.6941 54.1945 48.7041 55.586 48.5813C55.8285 49.9305 55.4782 51.3519 54.9536 52.5846C54.4585 53.748 53.6533 55.0155 52.387 55.461Z" fill="#938E8A"></path><path d="M55.5062 60.3988C56.6979 59.6904 57.1775 58.1998 57.3735 56.9225C57.5848 55.545 57.5758 54.0258 57.0004 52.719C55.6179 53.103 54.6688 54.3404 54.3555 55.6957C54.0244 57.1276 54.3038 58.6537 55.1091 59.8729C54.0386 58.6516 52.6151 57.6432 51.2509 56.9361C49.9332 56.2531 48.3167 55.4293 46.7342 55.9268C47.4972 57.7787 49.1296 59.5029 50.9388 60.2161C52.3399 60.7683 54.0443 61.3144 55.5062 60.3988Z" fill="#938E8A"></path><path d="M60.2876 64.9176C61.3257 63.8942 61.3307 62.2078 61.1558 60.8782C60.9595 59.385 60.5199 57.8121 59.5812 56.587C58.2367 57.2693 57.6119 58.8007 57.6505 60.2321C57.6934 61.8325 58.5707 63.4203 59.7746 64.5021C58.2659 63.4363 56.462 62.6563 54.7692 62.172L54.6826 62.1473C53.1661 61.713 51.2927 61.1765 49.7609 62.0152C51.0151 63.8925 53.3553 65.3024 55.4341 65.6927C56.9826 65.9832 58.9903 66.238 60.2876 64.9176Z" fill="#938E8A"></path><path d="M67.1807 68.6824C67.9452 67.2353 67.1877 65.5369 66.5842 64.2816C65.8705 62.7976 64.8956 61.2852 63.5002 60.199C62.1604 61.3472 62.2878 62.9901 62.6862 64.4179C63.1598 66.1156 64.8019 67.5628 66.5024 68.3875C64.533 67.6572 62.3823 67.2189 60.336 67.0895L60.1287 67.0762C58.4848 66.9697 56.3446 66.8311 55.0347 68.0274C57.0153 69.7017 59.8286 70.6677 62.3081 70.6175C63.9698 70.5839 66.2496 70.3884 67.1807 68.6824Z" fill="#938E8A"></path><path d="M125.019 36.5455C126.162 37.0674 127.212 38.1864 127.691 39.4697C127.389 38.1827 127.397 36.7739 127.687 35.567C127.942 34.5067 128.314 33.0081 129.533 32.503C130.417 33.9161 130.771 35.8396 130.253 37.2799C129.879 38.3222 129.206 39.7 127.814 39.912C126.537 40.2035 125.247 39.5253 124.228 38.9655C123.095 38.3429 121.985 37.353 121.312 36.1766C122.549 35.5564 123.958 36.0615 125.019 36.5455Z" fill="#938E8A"></path><path d="M126.691 41.3244C127.672 42.0204 128.425 43.2929 128.587 44.5993C128.601 43.2903 128.96 41.9389 129.535 40.8503C130.061 39.8544 130.795 38.5084 132.101 38.2401C132.614 39.7907 132.448 41.6872 131.618 42.9425C130.991 43.8934 130.019 45.0841 128.606 45.0522C127.315 45.1177 126.201 44.2413 125.324 43.5101C124.381 42.7234 123.53 41.5735 123.172 40.3308C124.489 39.9504 125.75 40.6576 126.691 41.3244Z" fill="#938E8A"></path><path d="M127.166 46.2202C127.969 47.0753 128.399 48.4593 128.256 49.7394C128.576 48.4545 129.245 47.209 130.062 46.2628C130.819 45.3854 131.843 44.2252 133.194 44.192C133.322 45.8215 132.682 47.4485 131.609 48.6608C130.775 49.603 129.49 50.4037 128.175 50.1822C126.91 50.0285 125.944 48.9618 125.316 48.0993C124.642 47.1734 123.99 45.9372 123.962 44.6403C125.311 44.4972 126.394 45.3958 127.166 46.2202Z" fill="#938E8A"></path><path d="M126.341 50.905C126.98 52.1691 127.102 53.6732 126.608 54.9974C127.336 53.6349 128.401 52.533 129.529 51.5149C130.553 50.5895 132.03 49.6152 133.515 49.7997C133.232 51.6261 132.108 53.5202 130.602 54.4938C129.391 55.2758 127.924 56.0502 126.382 55.4653C125.114 55.0206 124.308 53.7505 123.814 52.5851C123.29 51.352 122.941 49.9304 123.185 48.5813C124.576 48.7052 125.729 49.6961 126.341 50.905Z" fill="#938E8A"></path><path d="M124.409 55.6968C124.738 57.128 124.457 58.6526 123.653 59.8706C124.724 58.6513 126.148 57.645 127.511 56.9393C128.83 56.2573 130.447 55.4347 132.029 55.9332C131.264 57.7847 129.63 59.5077 127.82 60.2196C126.417 60.7716 124.709 61.3174 123.245 60.3946C122.061 59.6836 121.584 58.196 121.389 56.9212C121.18 55.5434 121.19 54.0243 121.766 52.7181C123.149 53.1031 124.097 54.3412 124.409 55.6968Z" fill="#938E8A"></path><path d="M117.603 60.8743C117.427 62.2036 117.43 63.8899 118.468 64.9142C119.763 66.2356 121.771 65.9822 123.32 65.6927C125.399 65.304 127.741 63.8956 128.997 62.0194C127.466 61.1797 125.592 61.7146 124.075 62.1477L123.988 62.1725C122.295 62.6553 120.491 63.4337 118.981 64.4979C120.186 63.417 121.064 61.8305 121.108 60.2307C121.149 58.7994 120.525 57.2675 119.182 56.5841C118.241 57.8085 117.801 59.3812 117.603 60.8743Z" fill="#938E8A"></path><path d="M111.571 68.6737C112.5 70.3805 114.78 70.5776 116.441 70.6125C118.921 70.6645 121.735 69.7004 123.717 68.0278C122.409 66.8308 120.269 66.9676 118.624 67.0728L118.416 67.086C116.37 67.214 114.219 67.6507 112.249 68.3795C113.95 67.5562 115.593 66.11 116.069 64.4126C116.468 62.9852 116.598 61.3424 115.259 60.1933C113.863 61.2783 112.886 62.79 112.171 64.2735C111.57 65.5214 110.816 67.2076 111.558 68.6503L111.571 68.6737Z" fill="#938E8A"></path></svg>