<svg xmlns="http://www.w3.org/2000/svg" width="178" height="100" viewBox="0 0 178 100" fill="none"><path d="M75.9727 40.621C75.9727 40.4686 75.9727 38.2513 75.9727 38.2513H74.6477C74.6477 38.2513 74.6477 40.4342 74.6477 40.5031C74.6477 40.9062 74.272 41.1766 73.6391 41.1766C72.9766 41.1766 72.6157 40.916 72.6157 40.4981C72.6157 40.4293 72.6157 38.2513 72.6157 38.2513H71.2757C71.2757 38.2513 71.2757 40.3211 71.2757 40.4981C71.2757 41.6682 72.2398 42.1648 73.5847 42.1648C75.0235 42.1648 75.9727 41.6633 75.9727 40.621Z" fill="#938E8A"></path><path d="M80.4352 42.1107V41.0832H78.0719V38.2513H76.732V42.1107H80.4352Z" fill="#938E8A"></path><path d="M84.4173 39.2199V38.2513H79.7845V39.2199H81.421V42.1107H82.7757V39.2199H84.4173Z" fill="#938E8A"></path><path d="M86.1986 42.1107V38.2513H84.8389V42.1107H86.1986Z" fill="#938E8A"></path><path d="M92.4365 42.1107V38.2513H90.7604L89.7023 40.567L88.6938 38.2513H86.9633V42.1107H88.224V40.0262L89.1338 42.1107H90.2611L91.1807 40.0262V42.1107H92.4365Z" fill="#938E8A"></path><path d="M94.5365 41.3978H96.6329L96.9741 42.1107H98.4029L96.445 38.2513H94.8481L92.7764 42.1107H94.1756L94.5365 41.3978ZM96.2126 40.5325H94.9716L95.4611 39.6033L95.6094 39.2494L95.7479 39.5984L96.2126 40.5325Z" fill="#938E8A"></path><path d="M102.605 39.2199V38.2513H97.9729V39.2199H99.6094V42.1107H100.964V39.2199H102.605Z" fill="#938E8A"></path><path d="M107.111 42.1107V41.152H104.328V40.6505H106.997V39.7115H104.328V39.2149H107.077V38.2513H103.023V42.1107H107.111Z" fill="#938E8A"></path><path d="M81.3804 44.1623H80.0998C80.0998 44.1623 79.2642 46.591 79.2642 46.65C79.2642 46.591 78.483 44.1623 78.483 44.1623H77.0937C77.0937 44.1623 76.3174 46.591 76.3174 46.65C76.3174 46.591 75.4769 44.1623 75.4769 44.1623H74.0381L75.4918 48.0217H76.9404C76.9404 48.0217 77.7216 45.7159 77.7266 45.652C77.7315 45.7159 78.5078 48.0217 78.5078 48.0217H79.9613L81.3804 44.1623Z" fill="#938E8A"></path><path d="M83.1325 48.0217V44.1623H81.7729V48.0217H83.1325Z" fill="#938E8A"></path><path d="M88.4212 48.0217V44.1623H87.1555V46.2616L85.2916 44.1623H83.8972V48.0217H85.1729V45.8732L87.0962 48.0217H88.4212Z" fill="#938E8A"></path><path d="M93.7179 48.0217V44.1623H92.4522V46.2616L90.5882 44.1623H89.194V48.0217H90.4696V45.8732L92.3929 48.0217H93.7179Z" fill="#938E8A"></path><path d="M98.5795 48.0217V47.063H95.796V46.5615H98.4658V45.6225H95.796V45.1259H98.5449V44.1623H94.4906V48.0217H98.5795Z" fill="#938E8A"></path><path d="M103.806 45.3373C103.806 44.9883 103.722 44.7375 103.544 44.5556C103.311 44.3098 102.911 44.1623 102.298 44.1623H99.2079V48.0217H100.528V46.6599H101.73L102.694 48.0217H104.167L102.996 46.4484C103.257 46.4091 103.47 46.2518 103.608 46.065C103.732 45.8929 103.806 45.6372 103.806 45.3373ZM102.521 45.4602C102.521 45.5242 102.511 45.6028 102.476 45.6618C102.426 45.7601 102.298 45.7995 102.086 45.7995H100.533V45.0964H102.06C102.269 45.0964 102.407 45.1308 102.476 45.2587C102.511 45.3078 102.521 45.3865 102.521 45.4602Z" fill="#938E8A"></path><path d="M76.5301 51.8187C76.5301 51.7556 76.5301 49.9328 76.5301 49.9328H76.0672C76.0672 49.9328 76.0672 51.7481 76.0672 51.789C76.0672 52.227 75.6528 52.4758 75.0555 52.4758C74.3499 52.4758 74.0026 52.2085 74.0026 51.7853C74.0026 51.7444 74.0026 49.9328 74.0026 49.9328H73.536C73.536 49.9328 73.536 51.6999 73.536 51.7704C73.536 52.5426 74.1408 52.8841 75.0369 52.8841C75.9627 52.8841 76.5301 52.5203 76.5301 51.8187Z" fill="#938E8A"></path><path d="M79.8517 52.847V52.4201H77.832V49.9328H77.3653V52.847H79.8517Z" fill="#938E8A"></path><path d="M82.5034 50.356V49.9328H79.3897V50.356H80.7113V52.847H81.1818V50.356H82.5034Z" fill="#938E8A"></path><path d="M85.8216 50.7569C85.8216 50.549 85.7768 50.3968 85.6985 50.2743C85.5603 50.0701 85.2952 49.9328 84.8547 49.9328H82.9582V52.847H83.4173V51.6182H84.7538L85.5714 52.847H86.1091L85.2243 51.5402C85.4482 51.5143 85.6237 51.388 85.7171 51.2247C85.7843 51.1133 85.8216 50.95 85.8216 50.7569ZM85.3586 50.794C85.3586 50.8757 85.34 50.976 85.3065 51.0428C85.2467 51.1504 85.1085 51.2061 84.8846 51.2098H83.4211C83.4211 51.2024 83.4211 50.3486 83.4211 50.3486H84.7987C85.0787 50.3486 85.228 50.4154 85.3065 50.5416C85.34 50.601 85.3586 50.7012 85.3586 50.794Z" fill="#938E8A"></path><path d="M87.1502 52.1268H88.9759L89.3492 52.847H89.8495L88.3635 49.9328H87.8147L86.2803 52.847H86.7694L87.1502 52.1268ZM88.7817 51.7147H87.3518L87.9454 50.5973L88.0761 50.3263L88.2067 50.5973L88.7817 51.7147Z" fill="#938E8A"></path><path d="M94.5844 52.5686C94.7001 52.4349 94.7524 52.2456 94.7524 52.0414C94.7524 51.8484 94.6964 51.6553 94.5807 51.5365C94.4649 51.4252 94.2783 51.3324 94.0729 51.3138C94.1924 51.2952 94.2857 51.221 94.3492 51.143C94.45 51.0279 94.5097 50.8423 94.5097 50.6567C94.5097 50.4599 94.45 50.2817 94.323 50.1592C94.1849 50.0219 93.9497 49.9328 93.6212 49.9328H91.6499V52.847H93.7668C94.1625 52.847 94.4388 52.7468 94.5844 52.5686ZM94.0281 50.7495C94.0281 50.8794 93.987 50.9945 93.9161 51.0613C93.8451 51.1393 93.7257 51.1727 93.5987 51.1727H92.1053V50.3337H93.5129C93.6846 50.3337 93.8153 50.3671 93.9049 50.4488C93.9833 50.523 94.0281 50.6307 94.0281 50.7495ZM94.1774 52.2864C94.0841 52.3904 93.9236 52.4424 93.6883 52.4424H92.1053V51.5774H93.6996C93.9161 51.5774 94.0655 51.6219 94.1551 51.7073C94.2371 51.7853 94.2708 51.8855 94.2708 52.0006C94.2708 52.1194 94.2447 52.2196 94.1774 52.2864Z" fill="#938E8A"></path><path d="M98.1417 52.847V52.4201H95.8644V51.5885H98.052V51.1653H95.8644V50.356H98.1155V49.9328H95.4088V52.847H98.1417Z" fill="#938E8A"></path><path d="M101.789 51.9857C101.789 51.5105 101.472 51.2655 100.692 51.1764C100.561 51.1579 100.277 51.1282 100.124 51.1096C99.3995 51.0242 99.1793 50.9277 99.1793 50.679C99.1793 50.4377 99.422 50.3003 100.154 50.3003C100.721 50.3003 101.012 50.4117 101.158 50.6121C101.2 50.6678 101.222 50.7347 101.233 50.7866H101.733C101.718 50.7012 101.684 50.5824 101.632 50.4859C101.431 50.1407 101.017 49.8919 100.154 49.8919C99.1233 49.8882 98.6977 50.2595 98.6977 50.7198C98.6977 51.1801 99.0299 51.414 99.8924 51.5143C100.042 51.5328 100.307 51.5625 100.437 51.5774C101.106 51.659 101.315 51.7593 101.315 52.0377C101.315 52.2939 101.076 52.4795 100.31 52.4795C99.6833 52.4795 99.3472 52.3681 99.2129 52.1528C99.1718 52.0934 99.1457 52.0006 99.142 51.9375H98.6491C98.6604 52.0711 98.6977 52.2159 98.7649 52.331C98.959 52.6837 99.4145 52.8879 100.296 52.8879C101.348 52.8879 101.789 52.55 101.789 51.9857Z" fill="#938E8A"></path><path d="M105.137 50.356V49.9328H102.023V50.356H103.345V52.847H103.815V50.356H105.137Z" fill="#938E8A"></path><path d="M72.2145 55.38C72.2145 55.083 72.1548 54.8825 72.0539 54.7303C71.9121 54.5112 71.6358 54.3962 71.1541 54.3962H69.3024V57.3104H69.7653V56.36C69.7653 56.36 71.0721 56.36 71.1355 56.36C71.5873 56.3563 71.8971 56.2524 72.0614 56.0148C72.1659 55.87 72.2145 55.6621 72.2145 55.38ZM71.7441 55.38C71.7441 55.5284 71.7291 55.6398 71.6806 55.7141C71.5947 55.8514 71.4192 55.9368 71.0571 55.9368C71.0235 55.9368 69.7653 55.9368 69.7653 55.9368V54.812H71.0721C71.4118 54.812 71.5873 54.8899 71.6806 55.0421C71.7254 55.1089 71.7441 55.2315 71.7441 55.38Z" fill="#938E8A"></path><path d="M75.5937 57.3104V56.8835H73.3163V56.0519H75.5041V55.6287H73.3163V54.8194H75.5675V54.3962H72.8608V57.3104H75.5937Z" fill="#938E8A"></path><path d="M79.1551 55.2203C79.1551 55.0124 79.1103 54.8602 79.0319 54.7377C78.8937 54.5335 78.6287 54.3962 78.1882 54.3962H76.2916V57.3104H76.7508V56.0816H78.0874L78.905 57.3104H79.4426L78.5577 56.0036C78.7818 55.9777 78.9573 55.8514 79.0506 55.6881C79.1178 55.5767 79.1551 55.4134 79.1551 55.2203ZM78.6922 55.2574C78.6922 55.3391 78.6735 55.4394 78.6399 55.5062C78.5802 55.6138 78.442 55.6695 78.218 55.6732H76.7545C76.7545 55.6658 76.7545 54.812 76.7545 54.812H78.1321C78.4121 54.812 78.5615 54.8788 78.6399 55.005C78.6735 55.0644 78.6922 55.1646 78.6922 55.2574Z" fill="#938E8A"></path><path d="M82.6163 54.8194V54.3962H80.0104V57.3104H80.4733V56.0705H82.5193V55.6361H80.4733V54.8194H82.6163Z" fill="#938E8A"></path><path d="M84.7412 54.3442C84.1177 54.3442 83.6884 54.4964 83.3821 54.8157C83.1246 55.0644 83.0126 55.4097 83.0126 55.844C83.0126 56.3192 83.1582 56.6756 83.427 56.9169C83.7145 57.2028 84.155 57.3512 84.7412 57.3512C85.346 57.3512 85.8163 57.2028 86.0964 56.902C86.3391 56.657 86.466 56.3081 86.466 55.8403C86.466 55.3874 86.3577 55.0421 86.1001 54.7971C85.8052 54.4927 85.3646 54.3442 84.7412 54.3442ZM84.7412 56.9355C84.3305 56.9355 84.0392 56.8464 83.819 56.6682C83.595 56.4863 83.4867 56.2078 83.4867 55.8514C83.4867 55.5173 83.58 55.2389 83.7593 55.0718C83.9646 54.8788 84.2782 54.7637 84.7375 54.7637C85.2115 54.7637 85.5065 54.8751 85.7267 55.0681C85.9135 55.2315 85.9955 55.521 85.9955 55.8477C85.9955 56.1781 85.9097 56.4603 85.7193 56.631C85.499 56.8352 85.1892 56.9355 84.7412 56.9355Z" fill="#938E8A"></path><path d="M89.9688 55.2203C89.9688 55.0124 89.924 54.8602 89.8456 54.7377C89.7075 54.5335 89.4424 54.3962 89.0019 54.3962H87.1054V57.3104H87.5645V56.0816H88.901L89.7187 57.3104H90.2563L89.3715 56.0036C89.5954 55.9777 89.7709 55.8514 89.8643 55.6881C89.9315 55.5767 89.9688 55.4134 89.9688 55.2203ZM89.5058 55.2574C89.5058 55.3391 89.4872 55.4394 89.4537 55.5062C89.3939 55.6138 89.2557 55.6695 89.0318 55.6732H87.5683C87.5683 55.6658 87.5683 54.812 87.5683 54.812H88.9459C89.2259 54.812 89.3752 54.8788 89.4537 55.005C89.4872 55.0644 89.5058 55.1646 89.5058 55.2574Z" fill="#938E8A"></path><path d="M94.4343 57.3104V54.3962H93.8295L92.6237 56.7944L91.4401 54.3962H90.8242V57.3104H91.2684V55.0681L92.3735 57.3104H92.8588L93.99 55.0681V57.3104H94.4343Z" fill="#938E8A"></path><path d="M95.7454 56.5902H97.5711L97.9443 57.3104H98.4447L96.9587 54.3962H96.4099L94.8755 57.3104H95.3645L95.7454 56.5902ZM97.3769 56.1781H95.947L96.5406 55.0607L96.6713 54.7897L96.8019 55.0607L97.3769 56.1781Z" fill="#938E8A"></path><path d="M101.808 57.3104V54.3962H101.363V56.6607L99.4226 54.3962H98.8961V57.3104H99.3478V55.031L101.304 57.3104H101.808Z" fill="#938E8A"></path><path d="M105.836 56.2227H105.35C105.335 56.3563 105.282 56.49 105.189 56.5902C104.988 56.8241 104.667 56.9243 104.174 56.9243C103.76 56.9243 103.315 56.8092 103.102 56.5085C102.991 56.3675 102.919 56.1596 102.919 55.8477C102.919 55.5693 102.968 55.3614 103.076 55.2203C103.255 54.9345 103.632 54.786 104.163 54.786C104.678 54.786 105.003 54.927 105.175 55.1238C105.271 55.2277 105.328 55.3503 105.346 55.495H105.832C105.816 55.3317 105.764 55.1386 105.653 54.9753C105.413 54.6226 104.973 54.3442 104.166 54.3442C103.398 54.3442 102.938 54.5892 102.684 54.9567C102.52 55.1683 102.437 55.4653 102.437 55.844C102.437 56.2672 102.539 56.5791 102.714 56.7981C102.968 57.1434 103.457 57.3512 104.196 57.3512C104.955 57.3512 105.406 57.1248 105.63 56.7647C105.757 56.5902 105.82 56.3823 105.836 56.2227Z" fill="#938E8A"></path><path d="M109.176 57.3104V56.8835H106.899V56.0519H109.087V55.6287H106.899V54.8194H109.15V54.3962H106.443V57.3104H109.176Z" fill="#938E8A"></path><path d="M75.0333 60.2054L75.5917 61.9142H77.3985L75.9368 62.9703L76.4951 64.679L75.0333 63.623L73.5715 64.679L74.13 62.9703L72.6682 61.9142H74.475L75.0333 60.2054Z" fill="#938E8A"></path><path d="M81.4791 60.2055L82.0488 61.9142H83.8926L82.401 62.9703L82.9707 64.6791L81.4791 63.623L79.9876 64.6791L80.5573 62.9703L79.0657 61.9142H80.9095L81.4791 60.2055Z" fill="#938E8A"></path><path d="M87.874 60.2055L88.4438 61.9142H90.2874L88.7959 62.9703L89.3657 64.6791L87.874 63.623L86.3824 64.6791L86.9521 62.9703L85.4605 61.9142H87.3043L87.874 60.2055Z" fill="#938E8A"></path><path d="M94.269 60.2055L94.8387 61.9142H96.6825L95.1909 62.9703L95.7606 64.6791L94.269 63.623L92.7774 64.6791L93.3471 62.9703L91.8555 61.9142H93.6993L94.269 60.2055Z" fill="#938E8A"></path><path d="M100.715 60.2055L101.273 61.9142H103.08L101.618 62.9703L102.176 64.6791L100.715 63.623L99.2529 64.6791L99.8113 62.9703L98.3495 61.9142H100.156L100.715 60.2055Z" fill="#938E8A"></path><path d="M78.1651 31.3762L78.5873 32.6682H79.9535L78.8483 33.4667L79.2704 34.7586L78.1651 33.9602L77.0599 34.7586L77.4821 33.4667L76.3769 32.6682H77.7431L78.1651 31.3762Z" fill="#938E8A"></path><path d="M83.0388 31.3744L83.4696 32.6664H84.8636L83.7358 33.4649L84.1665 34.7568L83.0388 33.9583L81.911 34.7568L82.3418 33.4649L81.214 32.6664H82.608L83.0388 31.3744Z" fill="#938E8A"></path><path d="M87.8738 31.3744L88.3045 32.6664H89.6985L88.5708 33.4649L89.0015 34.7568L87.8738 33.9583L86.7459 34.7568L87.1768 33.4649L86.0489 32.6664H87.443L87.8738 31.3744Z" fill="#938E8A"></path><path d="M92.7094 31.3744L93.1402 32.6664H94.5342L93.4065 33.4649L93.8372 34.7568L92.7094 33.9583L91.5816 34.7568L92.0124 33.4649L90.8846 32.6664H92.2786L92.7094 31.3744Z" fill="#938E8A"></path><path d="M97.5823 31.3744L98.0045 32.6664H99.3707L98.2655 33.4649L98.6876 34.7568L97.5823 33.9583L96.4771 34.7568L96.8993 33.4649L95.7941 32.6664H97.1601L97.5823 31.3744Z" fill="#938E8A"></path><path fill-rule="evenodd" clip-rule="evenodd" d="M58.7062 54.6304C56.8431 43.0395 62.2805 31.5717 73.1657 26.6471L73.2662 26.8667C62.4905 31.7417 57.0981 43.0973 58.9458 54.5923C60.9899 67.3096 71.3073 74.9366 83.9418 75.3043L83.9346 75.5455C71.2017 75.1749 60.7714 67.4789 58.7062 54.6304Z" fill="#938E8A"></path><path d="M70.8056 29.6052C68.794 29.6508 66.4397 30.7788 65.0504 32.4172C66.1645 33.4459 67.957 33.0656 69.2469 32.8552C71.088 32.555 73.0458 31.9734 74.783 31.1501C74.0687 29.6381 72.1445 29.5749 70.8056 29.6052Z" fill="#938E8A"></path><path d="M69.2236 27.1376C68.0321 28.9832 66.6121 30.8175 65.0668 32.4328C63.774 31.226 64.5544 29.2177 65.082 27.9688C66.0379 25.7058 68.3297 23.7543 70.7256 22.7558C71.3832 24.2435 69.9549 26.0048 69.2236 27.1376Z" fill="#938E8A"></path><path d="M64.9845 34.7807C63.1009 35.4465 61.4823 37.3207 60.6696 39.2023C62.0241 39.8285 63.5638 38.9242 64.6902 38.3221C66.2369 37.4953 67.8149 36.3545 69.0565 35.0343C67.9347 33.8573 66.2313 34.3401 64.9845 34.7807Z" fill="#938E8A"></path><path d="M62.7012 32.9365C62.2889 35.0415 61.5977 37.2233 60.6897 39.2119C59.105 38.4687 59.1654 36.3401 59.2333 34.9855C59.3491 32.6734 60.6499 30.0368 62.461 28.3612C63.5697 29.5432 62.9639 31.5956 62.7012 32.9365Z" fill="#938E8A"></path><path d="M61.3602 41.4625C59.7907 42.6937 58.8394 44.9754 58.619 47.0129C60.1038 47.1824 61.2905 45.8388 62.1736 44.917C63.3758 43.6619 64.5139 42.0877 65.2367 40.4408C63.8213 39.673 62.3826 40.6605 61.3602 41.4625Z" fill="#938E8A"></path><path d="M58.6409 40.4231C58.9208 42.5488 58.9214 44.8485 58.6414 47.0157C56.9147 46.8048 56.342 44.7432 56.0037 43.4499C55.4196 41.2175 55.8113 38.3339 56.949 36.1637C58.3709 36.9464 58.4621 39.0644 58.6409 40.4231Z" fill="#938E8A"></path><path d="M60.1285 48.756C58.8865 50.5651 58.4498 53.4002 59.0083 55.679C60.6495 55.2926 61.4631 53.4449 62.1164 52.14C62.9845 50.4057 63.7184 48.3824 63.981 46.3973C62.2009 46.0289 60.9466 47.5642 60.1285 48.756Z" fill="#938E8A"></path><path d="M56.8682 48.5731C57.8358 50.8008 58.591 53.2527 59.0328 55.6735C57.1506 56.0756 55.7959 54.1102 55.0088 52.807C53.6077 50.4872 53.1995 47.2713 53.7128 44.4961C55.4355 44.8396 56.2786 47.2161 56.8682 48.5731Z" fill="#938E8A"></path><path d="M60.9973 56.6271C60.3304 58.8217 60.7939 61.8052 62.1441 63.8684C63.6279 62.9078 63.8332 60.7936 64.0435 59.2777C64.3207 57.2773 64.4513 55.0613 64.1068 52.987C62.2091 53.2279 61.4427 55.161 60.9973 56.6271Z" fill="#938E8A"></path><path d="M57.6994 57.5666C59.3643 59.4663 60.9001 61.6323 62.1668 63.8542C60.4489 64.9206 58.4331 63.4637 57.2105 62.4327C55.0416 60.6038 53.6333 57.4953 53.2994 54.5647C55.1044 54.3235 56.695 56.4205 57.6994 57.5666Z" fill="#938E8A"></path><path d="M64.4964 64.0967C64.6395 66.6512 66.312 69.3317 68.5389 70.8574C69.6144 69.3933 68.9403 67.15 68.5734 65.5841C68.0796 63.4758 67.396 61.2804 66.3802 59.3324C64.6089 60.2632 64.4022 62.4144 64.4964 64.0967Z" fill="#938E8A"></path><path d="M61.5013 66.2545C63.914 67.5876 66.3197 69.1607 68.5565 70.8346C67.2169 72.5886 64.5395 71.8892 62.8798 71.3254C59.9549 70.3319 57.3474 67.7129 55.9854 64.8032C57.7122 63.9187 60.0761 65.467 61.5013 66.2545Z" fill="#938E8A"></path><path d="M71.3678 70.3374C72.8159 72.9652 76.1157 74.6795 79.2232 75.0922C79.5577 73.1818 77.4789 71.2903 76.3461 70.0529C74.7334 68.2912 73.0528 66.463 71.1686 64.9398C69.757 66.5696 70.5033 68.7685 71.3678 70.3374Z" fill="#938E8A"></path><path d="M69.2998 73.6678C72.5914 74.0081 75.9388 74.498 79.2285 75.0629C78.9144 77.4733 75.0677 77.8623 73.3214 78.0046C69.7408 78.2964 65.7576 76.8652 62.9841 74.4558C64.3617 72.844 67.5465 73.4866 69.2998 73.6678Z" fill="#938E8A"></path><path d="M75.6398 24.624C73.4299 25.2509 70.8432 26.4402 69.5653 28.6356C71.8848 28.3842 74.1646 27.5635 76.394 26.9382C78.8912 26.2377 81.5207 25.7138 83.9385 24.7469C81.2906 23.6935 78.1693 23.9064 75.6398 24.624Z" fill="#938E8A"></path><path fill-rule="evenodd" clip-rule="evenodd" d="M118.393 54.5923C120.241 43.0973 114.848 31.7419 104.073 26.8667L104.173 26.6471C115.058 31.5718 120.496 43.0395 118.632 54.6304C116.568 67.4789 106.137 75.1749 93.4043 75.5455L93.3973 75.3043C106.032 74.9366 116.349 67.3096 118.393 54.5923Z" fill="#938E8A"></path><path d="M106.534 29.6052C108.545 29.6508 110.899 30.7788 112.289 32.4172C111.175 33.4459 109.382 33.0656 108.092 32.8552C106.251 32.555 104.293 31.9734 102.556 31.1501C103.27 29.6381 105.194 29.5749 106.534 29.6052Z" fill="#938E8A"></path><path d="M108.115 27.1376C109.307 28.9832 110.727 30.8175 112.272 32.4328C113.565 31.226 112.785 29.2177 112.257 27.9688C111.301 25.7058 109.009 23.7543 106.613 22.7558C105.955 24.2435 107.384 26.0048 108.115 27.1376Z" fill="#938E8A"></path><path d="M112.355 34.7807C114.239 35.4465 115.857 37.3207 116.669 39.2023C115.315 39.8285 113.775 38.9242 112.649 38.3221C111.102 37.4953 109.524 36.3545 108.283 35.0343C109.405 33.8573 111.108 34.3401 112.355 34.7807Z" fill="#938E8A"></path><path d="M114.638 32.9365C115.05 35.0415 115.741 37.2233 116.649 39.2119C118.234 38.4687 118.174 36.3401 118.106 34.9855C117.99 32.6734 116.69 30.0368 114.878 28.3612C113.769 29.5432 114.376 31.5956 114.638 32.9365Z" fill="#938E8A"></path><path d="M115.979 41.4625C117.548 42.6937 118.5 44.9754 118.72 47.0129C117.236 47.1824 116.049 45.8388 115.166 44.917C113.963 43.6619 112.825 42.0877 112.103 40.4408C113.518 39.673 114.957 40.6605 115.979 41.4625Z" fill="#938E8A"></path><path d="M118.699 40.4231C118.418 42.5486 118.418 44.8485 118.698 47.0157C120.425 46.8048 120.998 44.7432 121.336 43.4499C121.92 41.2175 121.528 38.3339 120.39 36.1637C118.968 36.9464 118.877 39.0644 118.699 40.4231Z" fill="#938E8A"></path><path d="M117.21 48.756C118.452 50.5651 118.889 53.4002 118.331 55.679C116.69 55.2926 115.876 53.445 115.222 52.14C114.354 50.4057 113.62 48.3824 113.358 46.3973C115.138 46.0289 116.393 47.5642 117.21 48.756Z" fill="#938E8A"></path><path d="M120.471 48.5731C119.503 50.8008 118.748 53.2527 118.307 55.6735C120.188 56.0756 121.543 54.1102 122.33 52.807C123.731 50.4872 124.139 47.2713 123.627 44.4961C121.904 44.8396 121.06 47.2161 120.471 48.5731Z" fill="#938E8A"></path><path d="M116.342 56.6271C117.008 58.8217 116.546 61.8052 115.195 63.8684C113.712 62.9078 113.506 60.7936 113.295 59.2777C113.019 57.2773 112.888 55.0613 113.232 52.987C115.13 53.2279 115.896 55.161 116.342 56.6271Z" fill="#938E8A"></path><path d="M119.639 57.5666C117.975 59.4664 116.439 61.6323 115.172 63.8542C116.89 64.9206 118.906 63.4637 120.129 62.4327C122.297 60.6038 123.706 57.4953 124.04 54.5647C122.235 54.3235 120.644 56.4205 119.639 57.5666Z" fill="#938E8A"></path><path d="M112.842 64.0967C112.699 66.6512 111.027 69.3317 108.8 70.8574C107.724 69.3933 108.399 67.1501 108.765 65.5841C109.259 63.4758 109.943 61.2804 110.958 59.3324C112.73 60.2632 112.936 62.4144 112.842 64.0967Z" fill="#938E8A"></path><path d="M115.838 66.2545C113.425 67.5876 111.02 69.1607 108.783 70.8346C110.123 72.5886 112.8 71.8892 114.459 71.3254C117.384 70.3319 119.992 67.7129 121.354 64.8032C119.627 63.9187 117.263 65.467 115.838 66.2545Z" fill="#938E8A"></path><path d="M105.971 70.3374C104.523 72.9652 101.224 74.6795 98.1158 75.0922C97.7813 73.1818 99.86 71.2903 100.993 70.0529C102.605 68.2912 104.286 66.463 106.17 64.9398C107.582 66.5696 106.835 68.7685 105.971 70.3374Z" fill="#938E8A"></path><path d="M108.039 73.6678C104.747 74.0081 101.401 74.498 98.1104 75.0629C98.4245 77.4733 102.272 77.8623 104.017 78.0046C107.598 78.2964 111.582 76.8652 114.354 74.4558C112.978 72.844 109.793 73.4866 108.039 73.6678Z" fill="#938E8A"></path><path d="M101.699 24.624C103.909 25.2509 106.496 26.4402 107.773 28.6356C105.454 28.3842 103.175 27.5635 100.945 26.9382C98.4479 26.2377 95.8184 25.7138 93.4006 24.7469C96.0486 23.6935 99.1698 23.9064 101.699 24.624Z" fill="#938E8A"></path><path d="M90.1066 23.4879L88.9727 21L87.8602 23.4416L85.2728 21.8464L86.9354 25.3207H91.0702L92.6728 21.8464L90.1066 23.4879Z" fill="#938E8A"></path><path d="M91.0437 25.8606H86.9023V26.4683H91.0437V25.8606Z" fill="#938E8A"></path><path d="M89.2689 72.8718L89.9363 74.914H92.0957L90.3487 76.1761L91.0159 78.2183L89.2689 76.9562L87.5219 78.2183L88.1892 76.1761L86.4422 74.914H88.6017L89.2689 72.8718Z" fill="#938E8A"></path></svg>