<svg xmlns="http://www.w3.org/2000/svg" width="178" height="100" viewBox="0 0 178 100" fill="none"><path d="M45.2856 36.1781C44.6467 34.5635 44.9241 32.707 45.5126 31.1456C46.1318 29.5026 47.2099 27.8641 48.8214 27C48.9013 28.7314 48.3694 30.442 47.7883 31.9845C47.2656 33.3719 46.6243 34.85 45.5654 35.9974C45.4027 36.8668 45.278 37.7338 45.1903 38.5968C45.5412 37.6851 46.1103 36.8541 46.8204 36.1859C47.7347 35.3255 49.0946 34.6616 50.3712 35.0542C49.9973 36.4574 49.145 37.8025 48.1356 38.7461C47.3412 39.4888 46.2924 40.4405 45.057 40.4779C45.0061 41.7479 45.0349 43.0063 45.14 44.2476C45.3143 43.3392 45.6877 42.4838 46.2272 41.8468C46.9684 40.9715 48.0673 39.9021 49.4708 40.081C49.3942 41.5012 48.8245 42.9563 48.0311 44.0497C47.4007 44.9186 46.5684 46.026 45.3871 46.3121C45.5762 47.5318 45.8397 48.7313 46.174 49.905C46.1772 49.0063 46.3768 48.1242 46.7729 47.4167C47.331 46.419 48.2003 45.1748 49.6054 45.0775C49.8113 46.4708 49.5323 47.9939 48.9693 49.2053C48.5194 50.1736 47.9195 51.4084 46.8261 51.9193C47.2852 53.1821 47.8286 54.4096 48.4516 55.5944C48.2329 54.5732 48.2416 53.4971 48.5005 52.5289C48.8572 51.1941 49.7427 49.792 51.1642 49.3851C51.6668 50.8587 51.5975 52.5033 51.3055 54.0011C51.0653 55.2343 50.5932 56.6827 49.5351 57.4838C50.2269 58.5939 50.9922 59.6593 51.8268 60.673C51.3783 59.6788 51.1555 58.5915 51.2751 57.596C51.4492 56.1458 51.859 54.5944 53.3487 53.8212C54.1939 55.2712 54.3897 56.8979 54.4615 58.5046C54.5195 59.8035 54.3313 61.4056 53.4241 62.4623C54.422 63.494 55.4988 64.4596 56.6489 65.35C55.9064 64.4029 55.3865 63.2915 55.2763 62.1924C55.1209 60.6395 55.1969 58.93 56.5828 57.7904C57.768 59.0214 58.4753 60.8343 58.822 62.4089C59.1285 63.8011 59.4485 65.4489 58.7187 66.819C60.1823 67.769 61.7448 68.606 63.3968 69.3148C62.2343 68.4911 61.2828 67.361 60.8294 66.1942C60.2354 64.6647 59.8679 62.8422 61.0251 61.3104C62.5755 62.2979 63.7151 63.9827 64.6128 65.5193C65.3831 66.8378 66.1805 68.6576 65.7849 70.2279C66.6995 70.5365 67.6378 70.8075 68.5985 71.0387L68.5414 71.2732C67.577 71.0411 66.6352 70.7692 65.7168 70.4597C65.0734 72.3504 62.9656 72.975 61.2611 73.2508C58.8323 73.6437 55.9404 72.8824 53.8669 71.3488C54.9613 69.8109 57.1941 69.6549 58.8778 69.5372L58.8997 69.5357C60.7442 69.4068 62.7391 69.579 64.5939 70.0582C62.4512 69.2471 60.4462 68.2273 58.5974 67.0284L58.5701 67.0712C57.5571 68.7047 55.523 68.7684 53.9265 68.6651C51.76 68.5249 49.2587 67.215 47.8111 65.4043C49.1727 64.2163 51.1839 64.5488 52.7423 64.8064L52.7498 64.8076C54.4891 65.0951 56.3897 65.7223 57.9851 66.688C57.8331 66.569 57.6844 66.4431 57.5399 66.3111C55.9887 65.2114 54.5579 63.9813 53.2595 62.6401C53.2444 62.6551 53.2291 62.67 53.2138 62.6848C51.9513 63.9477 50.1125 63.617 48.6776 63.206C46.7573 62.656 44.7658 60.9967 43.8114 59.0918C45.2903 58.2678 47.0585 58.9468 48.4338 59.4839C49.9433 60.0734 51.5404 61.0164 52.7684 62.2185C52.6417 62.0597 52.521 61.8938 52.4068 61.7221C51.2654 60.4411 50.2386 59.0694 49.336 57.6223L49.2907 57.6505C47.8625 58.567 46.2443 57.9033 44.9618 57.2506C43.2229 56.3657 41.8256 54.4209 41.2218 52.5083C42.7643 52.017 44.2884 52.9813 45.4732 53.745C46.7689 54.5802 48.0815 55.7714 48.9825 57.1375C48.9163 57.0029 48.8547 56.8653 48.7978 56.7251C47.9322 55.2233 47.1967 53.6467 46.6014 52.0112L46.5707 52.0216L46.5682 52.0225C45.2696 52.5134 43.8235 51.7502 42.8807 50.9132C41.5703 49.75 40.6467 47.9617 40.4302 46.2146C41.7841 46.0402 43.0597 47.0818 43.9318 47.9702C44.9356 48.9927 45.8366 50.2012 46.3905 51.5435C46.3501 51.3977 46.3154 51.2496 46.2862 51.1C45.7822 49.5631 45.4004 47.9781 45.1486 46.3577L45.129 46.3601L45.1224 46.3612C43.7495 46.5891 42.4802 45.5512 41.7218 44.5439C40.6578 43.1304 40.1093 41.1741 40.2468 39.401C41.6144 39.4961 42.6557 40.7898 43.331 41.8363C44.1126 43.0478 44.7608 44.4189 45.0447 45.8533C45.036 45.7392 45.0309 45.6244 45.0291 45.5093C44.8206 43.8601 44.7463 42.1771 44.8143 40.4733L44.8103 40.4731C43.4145 40.4231 42.3829 39.1344 41.8503 37.9913C41.0882 36.3555 40.9655 34.2878 41.4742 32.5452C42.8046 32.9165 43.5462 34.434 43.984 35.6021C44.4887 36.9489 44.841 38.4178 44.8438 39.8782C44.9164 38.653 45.0627 37.4181 45.2856 36.1781Z" fill="#938E8A"></path><path d="M72.7773 33.1554V39.0052C72.7773 41.5781 70.4339 42.816 66.8822 42.816C63.5625 42.816 61.1825 41.5903 61.1825 38.7018V33.1554H64.4901V38.7018C64.4901 39.7334 65.381 40.3766 67.0165 40.3766C68.5788 40.3766 69.5064 39.7091 69.5064 38.7139V33.1554H72.7773Z" fill="#938E8A"></path><path d="M83.7931 40.146V42.6825H74.6515V33.1554H77.9591V40.146H83.7931Z" fill="#938E8A"></path><path d="M93.6228 35.5463V33.1554H82.1866V35.5463H86.2265V42.6825H89.5707V35.5463H93.6228Z" fill="#938E8A"></path><path fill-rule="evenodd" clip-rule="evenodd" d="M105.355 34.1264C105.794 34.5754 106.003 35.1944 106.003 36.056C106.003 36.7964 105.819 37.4275 105.514 37.8522C105.172 38.3134 104.647 38.7018 104 38.7989L106.894 42.6825H103.256L100.876 39.3207H97.9103V42.6825H94.6514V33.1554H102.28C103.793 33.1554 104.782 33.5195 105.355 34.1264ZM102.719 36.8571C102.805 36.7114 102.829 36.5172 102.829 36.3595C102.829 36.1774 102.805 35.9832 102.719 35.8619C102.548 35.5463 102.206 35.4614 101.693 35.4614H97.9224V37.1969H101.755C102.28 37.1969 102.597 37.0998 102.719 36.8571Z" fill="#938E8A"></path><path fill-rule="evenodd" clip-rule="evenodd" d="M111.296 40.9228H116.471L117.313 42.6825H120.841L116.008 33.1554H112.066L106.952 42.6825H110.405L111.296 40.9228ZM115.434 38.7867H112.37L113.579 36.493L113.945 35.6191L114.287 36.4808L115.434 38.7867Z" fill="#938E8A"></path><path fill-rule="evenodd" clip-rule="evenodd" d="M105.006 44.4768C102.958 44.4768 101.881 45.4418 101.881 46.8598C101.881 48.4603 103.012 49.2722 105.006 49.2722C107.201 49.2722 108.124 48.3308 108.124 46.8598C108.124 45.3653 107.083 44.4768 105.006 44.4768ZM105.006 48.0896C103.84 48.0896 103.502 47.613 103.502 46.8775C103.502 46.1538 103.87 45.6772 105 45.6772C106.237 45.6772 106.514 46.2126 106.514 46.8775C106.514 47.5836 106.178 48.0896 105.006 48.0896Z" fill="#938E8A"></path><path d="M98.8466 49.2016V46.4656H95.7579V47.46H97.4087C97.397 47.5365 97.3377 47.6836 97.2608 47.7718C97.0892 47.9719 96.6336 48.1484 96.0419 48.1484C95.4265 48.1484 95.0301 47.9895 94.8171 47.7424C94.6751 47.56 94.5922 47.3011 94.5922 46.9128C94.5922 46.5068 94.6751 46.2303 94.8348 46.0479C95.0656 45.789 95.4561 45.6772 96.0301 45.6772C96.5449 45.6772 96.8999 45.7948 97.0656 45.9419C97.1721 46.0302 97.2549 46.1538 97.2727 46.2361H98.8052C98.7993 46.089 98.752 45.8537 98.6691 45.6831C98.3023 44.9417 97.4502 44.5004 96.0005 44.5004C94.7401 44.5004 93.894 44.8828 93.4266 45.4595C93.1188 45.8537 92.9768 46.3479 92.9768 46.901C92.9768 47.513 93.1425 48.0366 93.4147 48.3838C93.8762 48.9781 94.6987 49.2722 95.6869 49.2722C96.5567 49.2722 97.1543 49.0663 97.533 48.7545L97.5745 49.2016H98.8466Z" fill="#938E8A"></path><path d="M82.728 46.4068C83.9291 46.5362 84.4439 46.9599 84.4439 47.766C84.4439 48.7427 83.4853 49.2722 81.5977 49.2722C79.8403 49.2722 79.083 48.778 78.793 48.1308C78.7279 47.9778 78.6983 47.7895 78.6805 47.6718H80.3847C80.3966 47.7424 80.438 47.8483 80.4971 47.9189C80.6391 48.0896 81.0356 48.1896 81.7101 48.1896C82.58 48.1896 82.7871 48.066 82.7871 47.8366C82.7871 47.5894 82.5741 47.5365 81.7871 47.4541C81.4735 47.4247 80.9764 47.3776 80.7694 47.36C79.2664 47.2246 78.7102 46.7598 78.7102 45.9655C78.7102 45.1417 79.6924 44.5122 81.4853 44.5122C83.077 44.5122 83.8167 44.9829 84.1244 45.5713C84.219 45.7478 84.2782 45.9478 84.296 46.089H82.5918C82.5859 46.0243 82.5622 45.9596 82.4972 45.8772C82.3669 45.7066 82.0356 45.5948 81.4438 45.5948C80.6096 45.5948 80.3906 45.6948 80.3906 45.9066C80.3906 46.142 80.6688 46.195 81.5977 46.295C81.9586 46.3244 82.5327 46.3832 82.728 46.4068Z" fill="#938E8A"></path><path fill-rule="evenodd" clip-rule="evenodd" d="M65.74 44.977C66.0536 45.2241 66.2311 45.6419 66.2311 46.2479C66.2311 46.7422 66.1069 47.1128 65.8702 47.3717C65.5507 47.7365 65.024 47.9013 64.3377 47.9072C64.1246 47.9131 62.3021 47.9072 62.3021 47.9072V49.2016H60.7104V44.5828H64.3139C64.953 44.5828 65.4382 44.7122 65.74 44.977ZM64.5625 46.6068C64.6098 46.5245 64.6335 46.4185 64.6335 46.2714C64.6335 46.1185 64.6039 45.989 64.5507 45.9184C64.4501 45.7713 64.2607 45.7007 63.953 45.7007H62.2902V46.8304H63.9411C64.2725 46.8304 64.4678 46.7539 64.5625 46.6068Z" fill="#938E8A"></path><path fill-rule="evenodd" clip-rule="evenodd" d="M72.0538 45.0535C72.2669 45.2712 72.3675 45.5713 72.3675 45.989C72.3675 46.3479 72.2787 46.6539 72.1307 46.8598C71.9651 47.0834 71.7107 47.2717 71.397 47.3188L72.7994 49.2016H71.0361L69.8822 47.5718H68.4443V49.2016H66.8644V44.5828H70.5627C71.2964 44.5828 71.7757 44.7593 72.0538 45.0535ZM70.7757 46.3774C70.8171 46.3068 70.8289 46.2126 70.8289 46.1361C70.8289 46.0479 70.8171 45.9537 70.7757 45.8949C70.6928 45.7419 70.5272 45.7007 70.2787 45.7007H68.4502V46.5421H70.3083C70.5627 46.5421 70.7166 46.495 70.7757 46.3774Z" fill="#938E8A"></path><path d="M78.2009 49.2016V48.0543H74.8696V47.4541H78.0649V46.3303H74.8696V45.736H78.1595V44.5828H73.3074V49.2016H78.2009Z" fill="#938E8A"></path><path d="M90.202 45.7419V44.5828H84.6576V45.7419H86.6161V49.2016H88.2374V45.7419H90.202Z" fill="#938E8A"></path><path d="M92.3338 44.5828V49.2016H90.7066V44.5828H92.3338Z" fill="#938E8A"></path><path d="M101.239 44.5828V49.2016H99.6112V44.5828H101.239Z" fill="#938E8A"></path><path d="M114.403 44.5828V47.4188C114.403 48.6662 113.266 49.2664 111.545 49.2664C109.936 49.2664 108.781 48.6721 108.781 47.2717V44.5828H110.385V47.2717C110.385 47.7718 110.817 48.0837 111.61 48.0837C112.367 48.0837 112.817 47.7601 112.817 47.2776V44.5828H114.403Z" fill="#938E8A"></path><path d="M120.791 47.766C120.791 46.9599 120.276 46.5362 119.075 46.4068C118.879 46.3832 118.306 46.3244 117.945 46.295C117.015 46.195 116.737 46.142 116.737 45.9066C116.737 45.6948 116.956 45.5948 117.791 45.5948C118.382 45.5948 118.714 45.7066 118.844 45.8772C118.909 45.9596 118.932 46.0243 118.938 46.089H120.643C120.625 45.9478 120.565 45.7478 120.471 45.5713C120.163 44.9829 119.424 44.5122 117.832 44.5122C116.039 44.5122 115.056 45.1417 115.056 45.9655C115.056 46.7598 115.614 47.2246 117.116 47.36L117.213 47.3685L117.373 47.3831L118.134 47.4541C118.921 47.5365 119.133 47.5894 119.133 47.8366C119.133 48.066 118.927 48.1896 118.057 48.1896C117.382 48.1896 116.986 48.0896 116.843 47.9189C116.785 47.8483 116.743 47.7424 116.732 47.6718H115.027C115.045 47.7895 115.074 47.9778 115.14 48.1308C115.429 48.778 116.187 49.2722 117.945 49.2722C119.832 49.2722 120.791 48.7427 120.791 47.766Z" fill="#938E8A"></path><path fill-rule="evenodd" clip-rule="evenodd" d="M79.4127 50.9701C78.0822 50.9701 77.3822 51.5973 77.3822 52.5189C77.3822 53.559 78.1168 54.0867 79.4127 54.0867C80.8395 54.0867 81.4394 53.4749 81.4394 52.5189C81.4394 51.5476 80.7626 50.9701 79.4127 50.9701ZM79.4127 53.3181C78.6552 53.3181 78.4359 53.0083 78.4359 52.5303C78.4359 52.06 78.6744 51.7502 79.4089 51.7502C80.2126 51.7502 80.3934 52.0982 80.3934 52.5303C80.3934 52.9892 80.1742 53.3181 79.4127 53.3181Z" fill="#938E8A"></path><path d="M72.0131 53.1078C72.0131 52.5839 71.6785 52.3085 70.8978 52.2244C70.7709 52.2091 70.3979 52.1709 70.1633 52.1518C69.5595 52.0867 69.3788 52.0523 69.3788 51.8994C69.3788 51.7617 69.5211 51.6967 70.0633 51.6967C70.4479 51.6967 70.6632 51.7693 70.7479 51.8802C70.7901 51.9338 70.8055 51.9758 70.8094 52.0179H71.9169C71.9054 51.9261 71.8669 51.7961 71.8054 51.6814C71.6054 51.299 71.1247 50.9931 70.0902 50.9931C68.925 50.9931 68.2866 51.4022 68.2866 51.9376C68.2866 52.4539 68.6481 52.756 69.6249 52.8439C69.7595 52.8554 70.0825 52.886 70.2864 52.9051C70.7978 52.9586 70.9362 52.9931 70.9362 53.1537C70.9362 53.3028 70.8017 53.3831 70.2364 53.3831C69.7979 53.3831 69.5403 53.3181 69.448 53.2072C69.4095 53.1613 69.3826 53.0925 69.3749 53.0466H68.2673C68.2789 53.1231 68.2981 53.2454 68.3404 53.3449C68.5289 53.7655 69.0212 54.0867 70.1633 54.0867C71.3901 54.0867 72.0131 53.7426 72.0131 53.1078Z" fill="#938E8A"></path><path fill-rule="evenodd" clip-rule="evenodd" d="M64.3345 53.1919C64.3345 53.3984 64.2768 53.6011 64.1615 53.7349C63.9846 53.9491 63.6538 54.0408 63.227 54.0408H60.5466V51.0389H63.1539C63.5692 51.0389 63.8346 51.1384 63.9807 51.2875C64.1115 51.4175 64.1692 51.5896 64.1692 51.7846C64.1692 51.9797 64.123 52.1403 64.0231 52.2588C63.9422 52.3583 63.8039 52.4347 63.6577 52.4539C63.873 52.4806 64.0769 52.5877 64.1922 52.7368C64.2884 52.8477 64.3345 53.016 64.3345 53.1919ZM63.0386 52.1403C63.077 52.0982 63.1001 52.037 63.1001 51.9644C63.1001 51.8917 63.077 51.8305 63.027 51.7885C62.9732 51.7387 62.8731 51.7196 62.727 51.7196H61.5541V52.2091H62.754C62.8847 52.2091 62.9847 52.19 63.0386 52.1403ZM62.8655 53.3602C63.0462 53.3602 63.1539 53.3372 63.2154 53.2799C63.2539 53.2416 63.2692 53.1843 63.2692 53.1116C63.2692 53.0351 63.25 52.9778 63.2039 52.9319C63.1463 52.8822 63.0462 52.8592 62.877 52.8592H61.5541V53.3602H62.8655Z" fill="#938E8A"></path><path d="M67.9557 53.2952V54.0408H64.7753V51.0389H67.9287V51.7885H65.7905V52.1747H67.8672V52.9051H65.7905V53.2952H67.9557Z" fill="#938E8A"></path><path d="M75.7553 51.0389V51.7923H74.4785V54.0408H73.4249V51.7923H72.1519V51.0389H75.7553Z" fill="#938E8A"></path><path d="M84.9585 51.0389V51.7999H82.9088V52.2244H84.8624V52.9778H82.9088V54.0408H81.8743V51.0389H84.9585Z" fill="#938E8A"></path><path d="M90.1691 51.7923V51.0389H86.5657V51.7923H87.8387V54.0408H88.8924V51.7923H90.1691Z" fill="#938E8A"></path><path d="M94.1006 51.0389V54.0408H93.0699V52.951H91.5239V54.0408H90.4933V51.0389H91.5239V52.1326H93.0699V51.0389H94.1006Z" fill="#938E8A"></path><path d="M97.8912 54.0408V53.2952H95.726V52.9051H97.8026V52.1747H95.726V51.7885H97.8642V51.0389H94.7108V54.0408H97.8912Z" fill="#938E8A"></path><path d="M104.267 51.0389H105.262L104.159 54.0408H103.029C103.029 54.0408 102.424 52.2474 102.42 52.1976C102.417 52.2474 101.809 54.0408 101.809 54.0408H100.683L99.552 51.0389H100.671C100.671 51.0389 101.325 52.928 101.325 52.9739C101.325 52.928 101.929 51.0389 101.929 51.0389H103.01C103.01 51.0389 103.617 52.928 103.617 52.9739C103.617 52.928 104.267 51.0389 104.267 51.0389Z" fill="#938E8A"></path><path fill-rule="evenodd" clip-rule="evenodd" d="M107.237 50.9701C105.907 50.9701 105.207 51.5973 105.207 52.5189C105.207 53.559 105.941 54.0867 107.237 54.0867C108.664 54.0867 109.264 53.4749 109.264 52.5189C109.264 51.5476 108.587 50.9701 107.237 50.9701ZM107.237 53.3181C106.48 53.3181 106.261 53.0083 106.261 52.5303C106.261 52.06 106.499 51.7502 107.233 51.7502C108.038 51.7502 108.218 52.0982 108.218 52.5303C108.218 52.9892 107.999 53.3181 107.237 53.3181Z" fill="#938E8A"></path><path fill-rule="evenodd" clip-rule="evenodd" d="M113.072 51.3449C113.21 51.4864 113.275 51.6814 113.275 51.9529C113.275 52.1862 113.218 52.385 113.122 52.5189C113.014 52.6642 112.849 52.7866 112.645 52.8171L113.556 54.0408H112.411L111.66 52.9816H110.726V54.0408H109.699V51.0389H112.103C112.579 51.0389 112.891 51.1537 113.072 51.3449ZM112.242 52.2053C112.268 52.1594 112.276 52.0982 112.276 52.0485C112.276 51.9911 112.268 51.93 112.242 51.8917C112.187 51.7923 112.08 51.7655 111.918 51.7655H110.73V52.3124H111.937C112.103 52.3124 112.202 52.2818 112.242 52.2053Z" fill="#938E8A"></path><path d="M116.767 54.0408V53.2416H114.929V51.0389H113.887V54.0408H116.767Z" fill="#938E8A"></path><path fill-rule="evenodd" clip-rule="evenodd" d="M120.845 52.4844C120.845 52.951 120.799 53.2034 120.661 53.4405C120.453 53.819 120.041 54.0408 119.314 54.0408H117.176V51.0389H119.291C120.014 51.0389 120.442 51.2416 120.653 51.5896C120.803 51.8229 120.845 52.0714 120.845 52.4844ZM119.118 53.3028C119.445 53.3028 119.63 53.2263 119.742 53.0581C119.811 52.9548 119.83 52.7139 119.83 52.5036C119.826 52.3124 119.803 52.1097 119.742 52.0179C119.622 51.8382 119.442 51.7732 119.126 51.7732H118.207V53.3028H119.118Z" fill="#938E8A"></path><path d="M79.592 68.6405H77.9985C77.9985 68.6405 76.9587 71.663 76.9587 71.7364C76.9587 71.663 75.9865 68.6405 75.9865 68.6405H74.2575C74.2575 68.6405 73.2915 71.663 73.2915 71.7364C73.2915 71.663 72.2455 68.6405 72.2455 68.6405H70.4549L72.2639 73.4434H74.0667C74.0667 73.4434 75.0389 70.5739 75.045 70.4944C75.0512 70.5739 76.0172 73.4434 76.0172 73.4434H77.8261L79.592 68.6405Z" fill="#938E8A"></path><path d="M81.7727 73.4434V68.6405H80.0806V73.4434H81.7727Z" fill="#938E8A"></path><path d="M88.3543 68.6405V73.4434H86.7052L84.3118 70.7697V73.4434H82.7243V68.6405H84.4594L86.779 71.2531V68.6405H88.3543Z" fill="#938E8A"></path><path d="M94.9458 73.4434V68.6405H93.3707V71.2531L91.051 68.6405H89.3159V73.4434H90.9033V70.7697L93.2968 73.4434H94.9458Z" fill="#938E8A"></path><path d="M100.996 72.2503V73.4434H95.9074V68.6405H100.953V69.8397H97.5318V70.4577H100.855V71.6263H97.5318V72.2503H100.996Z" fill="#938E8A"></path><path fill-rule="evenodd" clip-rule="evenodd" d="M107.5 70.1028C107.5 69.6684 107.395 69.3564 107.174 69.13C106.884 68.8241 106.387 68.6405 105.623 68.6405H101.778V73.4434H103.421V71.7486H104.916L106.116 73.4434H107.949L106.491 71.4856C106.817 71.4366 107.082 71.2408 107.255 71.0083C107.407 70.7942 107.5 70.476 107.5 70.1028ZM105.9 70.2558C105.9 70.3353 105.888 70.4332 105.845 70.5066C105.783 70.629 105.623 70.6779 105.359 70.6779H103.427V69.803H105.328C105.586 69.803 105.759 69.8458 105.845 70.0049C105.888 70.0661 105.9 70.164 105.9 70.2558Z" fill="#938E8A"></path><path d="M74.679 60.1669L74.0118 58.1247L73.3445 60.1669H71.185L72.932 61.429L72.2648 63.4712L74.0118 62.2091L75.7587 63.4712L75.0915 61.429L76.8385 60.1669H74.679Z" fill="#938E8A"></path><path d="M81.7156 58.1234L82.3965 60.1656H84.6L82.8174 61.4278L83.4983 63.4699L81.7156 62.2078L79.933 63.4699L80.6139 61.4278L78.8312 60.1656H81.0346L81.7156 58.1234Z" fill="#938E8A"></path><path d="M90.0388 60.1656L89.358 58.1234L88.6771 60.1656H86.4735L88.2562 61.4278L87.5753 63.4699L89.358 62.2078L91.1406 63.4699L90.4597 61.4278L92.2424 60.1656H90.0388Z" fill="#938E8A"></path><path d="M97.0007 58.1234L97.6817 60.1656H99.8851L98.1025 61.4278L98.7835 63.4699L97.0007 62.2078L95.2181 63.4699L95.8991 61.4278L94.1163 60.1656H96.3199L97.0007 58.1234Z" fill="#938E8A"></path><path d="M105.372 60.1656L104.704 58.1234L104.036 60.1656H101.877L103.624 61.4278L102.957 63.4699L104.704 62.2078L106.451 63.4699L105.784 61.4278L107.531 60.1656H105.372Z" fill="#938E8A"></path><path d="M133.387 36.2224C134.026 34.6079 133.748 32.7512 133.16 31.1898C132.541 29.5469 131.463 27.9082 129.851 27.0441C129.771 28.7756 130.303 30.4861 130.884 32.0286C131.407 33.4159 132.048 34.8939 133.107 36.0412C133.27 36.9104 133.394 37.7772 133.482 38.64C133.131 37.7287 132.563 36.8981 131.853 36.2301C130.939 35.3696 129.578 34.7058 128.302 35.0984C128.676 36.5015 129.528 37.8467 130.537 38.7903C131.332 39.533 132.381 40.4846 133.616 40.5221C133.667 41.7922 133.638 43.0507 133.532 44.2921C133.358 43.3837 132.985 42.5283 132.445 41.8913C131.704 41.0159 130.605 39.9466 129.202 40.1255C129.278 41.5457 129.848 43.0008 130.642 44.0942C131.271 44.9631 132.104 46.0706 133.286 46.3567C133.097 47.5762 132.833 48.7755 132.498 49.9491C132.495 49.0505 132.296 48.1684 131.9 47.4609C131.342 46.4633 130.472 45.219 129.067 45.1217C128.861 46.515 129.141 48.0381 129.704 49.2495C130.153 50.2178 130.754 51.4526 131.847 51.9635C131.387 53.2265 130.844 54.4543 130.221 55.6392C130.44 54.6178 130.431 53.5415 130.172 52.573C129.815 51.2382 128.93 49.836 127.508 49.4292C127.006 50.903 127.075 52.5474 127.368 54.0452C127.608 55.2785 128.08 56.7269 129.137 57.528C128.446 58.6387 127.68 59.7046 126.845 60.7188C127.294 59.7242 127.516 58.6363 127.397 57.6404C127.223 56.19 126.813 54.6387 125.324 53.8657C124.478 55.3157 124.282 56.9424 124.211 58.5491C124.152 59.8481 124.341 61.4503 125.249 62.5071C124.25 63.5385 123.174 64.5038 122.025 65.394C122.767 64.4469 123.287 63.3356 123.396 62.2366C123.552 60.6837 123.477 58.9743 122.09 57.8346C120.905 59.0656 120.197 60.8785 119.851 62.4531C119.545 63.8452 119.225 65.4931 119.954 66.8632C118.491 67.8134 116.928 68.6505 115.276 69.3595C116.438 68.5357 117.389 67.4054 117.843 66.2384C118.437 64.709 118.804 62.8864 117.648 61.3546C116.097 62.3421 114.958 64.0268 114.06 65.5635C113.289 66.8821 112.492 68.702 112.888 70.2723C111.973 70.5809 111.035 70.8519 110.074 71.0831L110.132 71.3176C111.095 71.0855 112.037 70.8136 112.956 70.5041C113.599 72.3947 115.707 73.0195 117.412 73.2952C119.84 73.6881 122.733 72.9269 124.806 71.3932C123.711 69.8553 121.478 69.6993 119.795 69.5816L119.773 69.5801C117.929 69.4512 115.933 69.6234 114.079 70.1027C116.221 69.2916 118.226 68.2716 120.076 67.0726L120.101 67.1126C121.113 68.7488 123.149 68.8128 124.746 68.7094C126.913 68.5692 129.414 67.2593 130.861 65.4486C129.5 64.2608 127.489 64.5931 125.93 64.8506L125.922 64.852C124.184 65.1394 122.284 65.7663 120.689 66.7317C120.841 66.6128 120.989 66.4871 121.134 66.3552C122.684 65.2557 124.114 64.0258 125.413 62.6848C125.431 62.7027 125.449 62.7203 125.467 62.7378C126.73 63.9909 128.563 63.6603 129.995 63.2502C131.916 62.7002 133.907 61.0409 134.862 59.136C133.382 58.312 131.614 58.9909 130.24 59.5281C128.728 60.1181 127.13 61.0622 125.901 62.2659C126.028 62.1069 126.15 61.9407 126.264 61.7687C127.406 60.487 128.434 59.1145 129.337 57.6665L129.376 57.6906L129.386 57.6969C130.813 58.6101 132.43 57.947 133.711 57.2948C135.45 56.4099 136.848 54.4651 137.451 52.5525C135.909 52.0612 134.385 53.0255 133.2 53.7892C131.903 54.6249 130.59 55.8169 129.689 57.184C129.755 57.0491 129.817 56.9111 129.875 56.7706C130.74 55.2683 131.476 53.6913 132.071 52.0554L132.102 52.0658L132.107 52.0678C133.405 52.5565 134.851 51.7938 135.793 50.9574C137.102 49.7942 138.026 48.0059 138.243 46.2588C136.889 46.0844 135.613 47.126 134.741 48.0143C133.737 49.0375 132.835 50.2468 132.281 51.5902C132.322 51.4436 132.358 51.2947 132.387 51.1442C132.891 49.6074 133.273 48.0225 133.524 46.4023L133.562 46.4073C134.93 46.6275 136.195 45.5926 136.951 44.5881C138.015 43.1746 138.563 41.2183 138.426 39.4451C137.059 39.5403 136.017 40.8339 135.342 41.8805C134.56 43.0926 133.911 44.4645 133.628 45.8998C133.637 45.785 133.642 45.6696 133.644 45.5538C133.852 43.9045 133.926 42.2214 133.858 40.5176C135.255 40.4689 136.29 39.1793 136.823 38.0357C137.584 36.4 137.707 34.3322 137.199 32.5897C135.868 32.961 135.126 34.4783 134.689 35.6464C134.184 36.9932 133.832 38.4623 133.829 39.9227C133.756 38.6975 133.61 37.4625 133.387 36.2224Z" fill="#938E8A"></path></svg>