<svg xmlns="http://www.w3.org/2000/svg" width="178" height="100" viewBox="0 0 178 100" fill="none"><path d="M55.3885 42.25H58.3922V56.7H55.3885V42.25Z" fill="#938E8A"></path><path d="M60.0742 51.75C60.0743 50.7104 60.3833 49.6941 60.9622 48.8301C61.5412 47.9661 62.3639 47.2933 63.3262 46.8968C64.2884 46.5003 65.3468 46.3981 66.3673 46.6032C67.3878 46.8082 68.3243 47.3112 69.0583 48.0484C69.7922 48.7856 70.2904 49.7239 70.4899 50.7443C70.6893 51.7646 70.5809 52.8212 70.1784 53.7799C69.776 54.7387 69.0976 55.5566 68.2292 56.1298C67.3608 56.7031 66.3416 57.0059 65.3007 57C64.6103 57.0054 63.9258 56.873 63.2873 56.6107C62.6488 56.3484 62.0691 55.9614 61.5823 55.4724C61.0955 54.9835 60.7114 54.4023 60.4524 53.7631C60.1935 53.1239 60.0649 52.4395 60.0742 51.75ZM67.6035 51.75C67.5917 51.3018 67.4479 50.867 67.19 50.5C66.932 50.1331 66.5715 49.8502 66.1535 49.6868C65.7355 49.5234 65.2785 49.4867 64.8397 49.5813C64.4009 49.676 63.9998 49.8977 63.6865 50.2188C63.3732 50.54 63.1617 50.9462 63.0784 51.3868C62.995 51.8273 63.0436 52.2827 63.218 52.6958C63.3924 53.1089 63.6849 53.4615 64.0589 53.7095C64.4329 53.9575 64.8718 54.0898 65.3207 54.09C65.6264 54.0959 65.9299 54.0388 66.2125 53.9223C66.495 53.8058 66.7505 53.6323 66.9629 53.4126C67.1752 53.193 67.3399 52.932 67.4467 52.6459C67.5535 52.3599 67.6001 52.0548 67.5835 51.75H67.6035Z" fill="#938E8A"></path><path d="M82.4119 46.8V56.21C82.4119 59.53 79.8087 60.94 77.1754 60.94C76.2466 61.0161 75.3149 60.8318 74.4853 60.4078C73.6557 59.9838 72.9611 59.3369 72.4796 58.54L75.0127 57.08C75.218 57.4933 75.5445 57.8344 75.9488 58.0577C76.3531 58.281 76.8159 58.376 77.2755 58.33C77.5684 58.366 77.8655 58.337 78.1458 58.2449C78.4261 58.1529 78.6826 58.0001 78.8969 57.7976C79.1112 57.595 79.278 57.3477 79.3854 57.0732C79.4928 56.7988 79.5382 56.504 79.5183 56.21V55.3C79.1688 55.7233 78.7252 56.0593 78.223 56.2815C77.7207 56.5037 77.1735 56.6059 76.6247 56.58C75.297 56.58 74.0237 56.0532 73.0848 55.1155C72.146 54.1778 71.6185 52.9061 71.6185 51.58C71.6185 50.2539 72.146 48.9821 73.0848 48.0445C74.0237 47.1068 75.297 46.58 76.6247 46.58C77.1735 46.5541 77.7207 46.6563 78.223 46.8785C78.7252 47.1006 79.1688 47.4367 79.5183 47.86V46.86L82.4119 46.8ZM79.5183 51.55C79.5383 51.0716 79.4145 50.5981 79.1629 50.1905C78.9113 49.7829 78.5434 49.4598 78.1064 49.2627C77.6695 49.0656 77.1835 49.0036 76.7109 49.0846C76.2384 49.1656 75.8009 49.3859 75.4548 49.7172C75.1086 50.0485 74.8696 50.4757 74.7685 50.9438C74.6674 51.4118 74.7088 51.8994 74.8873 52.3438C75.0659 52.7882 75.3734 53.1691 75.7705 53.4375C76.1675 53.7059 76.6359 53.8496 77.1153 53.85C77.4282 53.8725 77.7423 53.8292 78.0373 53.723C78.3324 53.6167 78.6018 53.4498 78.8283 53.233C79.0547 53.0163 79.2332 52.7545 79.352 52.4646C79.4709 52.1747 79.5275 51.8631 79.5183 51.55Z" fill="#938E8A"></path><path d="M84.104 51.75C84.104 50.7112 84.4125 49.6958 84.9905 48.8322C85.5686 47.9686 86.3901 47.2957 87.3512 46.8987C88.3123 46.5016 89.3697 46.3982 90.3896 46.6016C91.4096 46.805 92.3462 47.306 93.0809 48.0412C93.8156 48.7765 94.3155 49.7129 94.5172 50.7319C94.7189 51.751 94.6133 52.8069 94.2139 53.766C93.8146 54.7252 93.1393 55.5444 92.2735 56.1201C91.4078 56.6957 90.3905 57.002 89.3504 57C88.6587 57.0067 87.9727 56.8754 87.3325 56.6138C86.6922 56.3522 86.1108 55.9656 85.6221 55.4766C85.1334 54.9876 84.7475 54.4061 84.4868 53.7662C84.2261 53.1263 84.0959 52.4408 84.104 51.75ZM91.6333 51.75C91.6214 51.3014 91.4773 50.8662 91.219 50.499C90.9606 50.1319 90.5995 49.849 90.1809 49.6859C89.7623 49.5228 89.3048 49.4867 88.8657 49.5822C88.4267 49.6776 88.0256 49.9004 87.7127 50.2225C87.3998 50.5446 87.1891 50.9518 87.1069 51.393C87.0247 51.8342 87.0747 52.2898 87.2507 52.7027C87.4266 53.1157 87.7206 53.4676 88.096 53.7144C88.4713 53.9611 88.9111 54.0918 89.3605 54.09C89.6661 54.0959 89.9697 54.0389 90.2522 53.9223C90.5348 53.8058 90.7902 53.6323 91.0026 53.4127C91.215 53.193 91.3797 52.932 91.4865 52.646C91.5933 52.3599 91.6398 52.0549 91.6233 51.75H91.6333Z" fill="#938E8A"></path><path d="M95.9886 44.15C95.9886 43.7979 96.0932 43.4538 96.289 43.1611C96.4848 42.8684 96.7632 42.6402 97.0888 42.5055C97.4145 42.3708 97.7728 42.3355 98.1185 42.4042C98.4642 42.4729 98.7818 42.6424 99.0311 42.8913C99.2803 43.1403 99.45 43.4574 99.5188 43.8027C99.5876 44.148 99.5523 44.5059 99.4174 44.8312C99.2825 45.1564 99.0541 45.4344 98.761 45.63C98.4679 45.8256 98.1233 45.93 97.7708 45.93C97.2998 45.9248 96.8495 45.7356 96.5164 45.4029C96.1833 45.0702 95.9939 44.6205 95.9886 44.15ZM96.279 46.8H99.2827V56.7H96.279V46.8Z" fill="#938E8A"></path><path d="M112.139 51.75C112.172 52.4084 112.075 53.0669 111.853 53.6877C111.631 54.3085 111.288 54.8793 110.844 55.3673C110.4 55.8552 109.864 56.2507 109.267 56.5309C108.669 56.8111 108.022 56.9705 107.363 57C106.803 57.0372 106.242 56.9476 105.722 56.7381C105.202 56.5286 104.736 56.2045 104.359 55.79V60.68H101.355V46.8H104.359V47.73C104.737 47.3167 105.203 46.994 105.723 46.7862C106.243 46.5784 106.804 46.4908 107.363 46.53C108.019 46.5595 108.664 46.718 109.259 46.9963C109.855 47.2746 110.39 47.6673 110.833 48.1521C111.277 48.6368 111.62 49.204 111.844 49.8213C112.068 50.4387 112.168 51.094 112.139 51.75ZM109.135 51.75C109.123 51.2855 108.974 50.8349 108.707 50.4546C108.44 50.0742 108.066 49.7811 107.633 49.612C107.2 49.4428 106.726 49.4051 106.272 49.5037C105.817 49.6022 105.402 49.8326 105.078 50.1659C104.754 50.4992 104.535 50.9206 104.45 51.3773C104.365 51.8341 104.416 52.3058 104.598 52.7333C104.78 53.1609 105.084 53.5253 105.473 53.7809C105.861 54.0364 106.317 54.1718 106.782 54.17C107.101 54.1835 107.418 54.1296 107.715 54.0118C108.011 53.894 108.279 53.7149 108.501 53.4864C108.723 53.2579 108.895 52.9851 109.004 52.6859C109.113 52.3866 109.158 52.0677 109.135 51.75Z" fill="#938E8A"></path><path d="M121.28 53.73C121.28 56.01 119.277 56.98 117.155 56.98C116.289 57.0578 115.42 56.8745 114.659 56.4538C113.899 56.0331 113.283 55.3943 112.89 54.62L115.473 53.16C115.575 53.5168 115.797 53.8277 116.101 54.0407C116.406 54.2537 116.774 54.3558 117.145 54.33C117.856 54.33 118.216 54.11 118.216 53.71C118.216 52.62 113.34 53.2 113.34 49.77C113.34 47.61 115.162 46.53 117.225 46.53C118.009 46.4949 118.788 46.6726 119.479 47.0441C120.17 47.4156 120.747 47.9671 121.15 48.64L118.567 50C118.452 49.742 118.266 49.5225 118.03 49.3682C117.793 49.2138 117.517 49.131 117.235 49.13C116.714 49.13 116.404 49.33 116.404 49.68C116.404 50.82 121.28 50.07 121.28 53.73Z" fill="#938E8A"></path><path d="M132.163 46.8V56.7H129.16V55.77C128.818 56.1816 128.385 56.5074 127.895 56.7211C127.404 56.9347 126.87 57.0303 126.336 57C124.334 57 122.622 55.57 122.622 52.9V46.8H125.625V52.45C125.602 52.6862 125.63 52.9247 125.707 53.1491C125.785 53.3734 125.911 53.5782 126.075 53.7494C126.24 53.9205 126.44 54.0539 126.661 54.1403C126.883 54.2268 127.12 54.2642 127.357 54.25C128.439 54.25 129.2 53.61 129.2 52.25V46.8H132.163Z" fill="#938E8A"></path><path d="M149.184 50.62V56.7H146.181V50.88C146.181 49.88 145.71 49.26 144.759 49.26C143.808 49.26 143.207 49.95 143.207 51.12V56.7H140.203V50.88C140.203 49.88 139.733 49.26 138.782 49.26C137.83 49.26 137.23 49.95 137.23 51.12V56.7H134.226V46.8H137.23V47.71C137.541 47.308 137.947 46.9896 138.412 46.7836C138.877 46.5776 139.386 46.4904 139.893 46.53C140.401 46.5036 140.907 46.6095 141.362 46.8374C141.816 47.0653 142.204 47.4074 142.486 47.83C142.816 47.3885 143.253 47.0376 143.755 46.8103C144.258 46.5829 144.81 46.4865 145.36 46.53C147.703 46.53 149.184 48.15 149.184 50.62Z" fill="#938E8A"></path><path d="M37.4964 39.65V35.4H24.0798V64.6H37.4964V60.35C34.748 60.35 32.1121 59.2596 30.1687 57.3186C28.2253 55.3776 27.1335 52.745 27.1335 50C27.1335 47.255 28.2253 44.6225 30.1687 42.6815C32.1121 40.7405 34.748 39.65 37.4964 39.65Z" fill="#938E8A"></path><path d="M37.4963 39.65V60.35C40.2447 60.35 42.8805 59.2596 44.8239 57.3186C46.7674 55.3776 47.8591 52.745 47.8591 50C47.8591 47.255 46.7674 44.6225 44.8239 42.6815C42.8805 40.7405 40.2447 39.65 37.4963 39.65Z" fill="#938E8A"></path><path d="M151.708 46.74C152.924 46.74 153.91 45.7551 153.91 44.54C153.91 43.325 152.924 42.34 151.708 42.34C150.491 42.34 149.505 43.325 149.505 44.54C149.505 45.7551 150.491 46.74 151.708 46.74Z" fill="#938E8A"></path></svg>