<svg width="1824" height="467" viewBox="0 0 1824 467" fill="none" xmlns="http://www.w3.org/2000/svg">
<path d="M327.669 243.832C332.317 243.832 336.621 246.501 340.58 251.839C342.301 253.905 343.162 255.713 343.162 257.263C342.818 258.813 341.699 259.674 339.805 259.846C301.246 260.363 260.276 271.556 216.897 293.425C188.149 355.76 160.349 402.34 133.495 433.163C115.937 453.138 100.186 464.245 86.2424 466.483C83.8324 466.828 82.0249 467 80.8199 467C68.7701 467 59.3885 461.576 52.675 450.727C48.5436 444.012 46.4779 436.521 46.4779 428.256C46.6501 420.507 48.3715 413.36 51.6421 406.817C64.3805 381.332 93.8165 351.628 139.95 317.705C164.05 299.968 183.932 287.053 199.597 278.96C211.475 255.025 223.61 224.201 236.005 186.49C251.153 140.169 258.727 104.093 258.727 78.2638C258.555 61.7329 255.37 50.0234 249.173 43.1355C241.083 35.0422 228.43 30.9956 211.216 30.9956C197.617 30.9956 182.727 33.3202 166.546 37.9696C131.601 48.1292 100.53 65.5212 73.3318 90.1455C41.658 118.73 23.5832 150.242 19.1076 184.682C18.419 190.02 18.0747 195.272 18.0747 200.438C18.2469 221.791 23.8414 242.713 34.8584 263.204C36.752 266.82 36.3216 268.887 33.5674 269.403C32.8788 269.575 31.9321 269.575 30.7271 269.403C25.9071 268.37 21.9479 265.443 18.8494 260.621C18.6772 260.277 18.5051 259.932 18.333 259.588C6.11098 236.513 0 213.525 0 190.623C0 153.084 14.8901 118.472 44.6704 86.7876C70.6637 59.0638 102.768 38.7445 140.983 25.8296C144.77 24.6243 148.385 23.505 151.828 22.4718C167.493 17.9947 182.383 15.7561 196.498 15.7561C223.869 15.9283 245.128 23.8494 260.276 39.5194C270.949 51.0566 276.285 69.0512 276.285 93.5033C276.285 131.387 264.838 179.43 241.943 237.633C237.984 247.792 234.111 256.919 230.324 265.012C265.613 250.892 298.061 243.832 327.669 243.832ZM182.297 312.797C151.656 332.083 125.06 353.608 102.51 377.371C86.1563 394.591 74.795 410.519 68.4258 425.156C65.6716 431.699 64.2944 437.296 64.2944 441.945C64.2944 444.873 64.7248 446.939 65.5855 448.144C66.7905 449.694 68.4258 450.469 70.4915 450.469C76.5164 450.469 84.4349 446.939 94.2469 439.879C95.624 438.846 96.6569 437.985 97.3454 437.296C117.314 418.526 140.983 385.464 168.353 338.11C173.173 329.672 177.821 321.235 182.297 312.797Z" fill="#F8F7F7"/>
<path d="M355.298 235.05C359.257 238.494 361.323 241.163 361.495 243.057C361.495 244.262 359.86 245.64 356.589 247.19C354.695 248.051 353.404 248.739 352.716 249.256C355.47 258.383 363.388 264.409 376.471 267.337C383.357 254.939 386.8 244.09 386.8 234.791C386.8 231.175 386.197 228.334 384.992 226.268C384.476 225.751 383.443 225.493 381.894 225.493C374.147 225.493 366.917 227.301 360.204 230.917C357.966 232.295 356.331 233.672 355.298 235.05ZM333.866 236.858C333.866 236.513 333.78 235.997 333.608 235.308C333.608 234.791 333.608 234.361 333.608 234.017C333.608 223.685 339.289 216.539 350.65 212.578C355.298 210.856 360.29 209.995 365.626 209.995C378.02 210.167 387.574 213.525 394.288 220.069C401.345 226.956 404.874 235.911 404.874 246.931C404.874 253.475 403.411 260.191 400.485 267.079C420.109 263.29 437.237 255.455 451.869 243.574C452.557 243.057 453.332 242.799 454.193 242.799C457.807 242.799 461.422 245.209 465.037 250.031C466.759 252.27 467.706 254.25 467.878 255.972C467.706 257.005 467.275 257.78 466.587 258.296C445.241 275.516 422.863 284.126 399.452 284.126C396.181 284.126 393.771 284.04 392.222 283.868C376.729 309.009 358.569 321.579 337.74 321.579C328.788 321.579 321.644 319.685 316.308 315.897C315.964 315.38 315.706 315.036 315.533 314.863C306.754 308.492 302.365 300.313 302.365 290.325C302.365 276.722 309.422 262.171 323.538 246.673C326.981 242.885 330.424 239.613 333.866 236.858ZM343.42 258.038C331.542 270.781 324.14 282.921 321.214 294.458C320.87 296.352 320.612 298.074 320.439 299.624C320.267 302.723 320.267 304.704 320.439 305.565C322.849 306.598 325.345 307.114 327.928 307.114C338.6 307.114 350.22 300.14 362.786 286.192C365.196 283.437 367.434 280.682 369.499 277.927C358.827 272.933 350.134 266.304 343.42 258.038Z" fill="#F8F7F7"/>
<path d="M633.391 242.799C634.251 242.282 635.026 242.024 635.715 242.024C639.674 242.024 643.547 244.521 647.334 249.514C649.055 251.753 649.916 253.647 649.916 255.197C649.744 256.402 649.314 257.263 648.625 257.78C646.904 258.985 643.977 260.966 639.846 263.721C616.263 279.563 598.102 289.378 585.364 293.166C579.511 294.888 574.174 295.749 569.354 295.749C560.403 295.577 553.001 292.65 547.148 286.967C539.402 279.218 535.012 265.787 533.98 246.673C533.98 246.157 533.807 242.54 533.463 235.825C521.241 243.401 504.716 262.257 483.887 292.392C465.812 318.393 455.914 332.6 454.193 335.01C451.783 338.11 449.631 340.693 447.737 342.759C446.016 343.793 444.294 344.309 442.573 344.309C437.409 344.309 432.933 341.382 429.146 335.527C427.253 332.6 426.306 329.758 426.306 327.003C426.306 317.532 434.655 288.689 451.352 240.474C468.222 192.259 485.092 146.368 501.962 102.802L527.008 37.453C527.696 36.4198 528.729 35.8171 530.106 35.6449C533.894 35.6449 537.939 37.8835 542.242 42.3606C544.997 45.4602 546.029 48.0431 545.341 50.1095L497.314 177.966C478.034 230.314 464.005 270.264 455.225 297.816C456.947 295.405 459.873 291.186 464.005 285.159C485.35 254.164 500.929 234.275 510.741 225.493C512.29 224.287 513.753 223.168 515.13 222.135C518.573 219.552 521.844 218.26 524.942 218.26C527.18 218.433 529.848 219.294 532.947 220.843C543.275 226.698 549.386 235.997 551.28 248.739C551.624 250.978 551.882 254.422 552.054 259.071C552.915 269.059 554.292 276.205 556.186 280.51H557.219C569.096 280.51 594.487 267.94 633.391 242.799Z" fill="#F8F7F7"/>
<path d="M649.142 209.22C649.83 208.359 650.777 207.843 651.982 207.67C655.769 207.67 659.814 209.995 664.118 214.644C666.183 217.055 667.302 219.121 667.475 220.843C667.475 221.36 667.302 221.877 666.958 222.393C666.786 222.738 657.835 240.302 640.104 275.086C673.327 242.885 695.878 224.287 707.755 219.294C709.133 218.777 710.338 218.347 711.37 218.002C713.608 217.486 715.588 217.227 717.309 217.227C725.4 217.4 732.199 220.757 737.708 227.301C742.183 232.639 744.421 241.593 744.421 254.164C744.421 258.124 743.475 268.801 741.581 286.192C741.409 288.087 741.323 289.464 741.323 290.325C741.323 291.358 741.495 292.047 741.839 292.392C742.183 292.564 742.442 292.65 742.614 292.65C748.639 292.65 769.898 278.96 806.392 251.581C811.212 247.965 814.31 245.554 815.687 244.348C816.204 244.004 816.806 243.832 817.495 243.832C820.593 243.832 823.864 246.587 827.307 252.097C829.028 255.025 829.889 257.522 829.889 259.588C829.717 260.793 829.287 261.827 828.598 262.688C811.384 276.808 799.334 286.106 792.448 290.583C776.439 300.915 763.099 306.081 752.426 306.081C746.229 305.909 740.806 304.187 736.159 300.915C728.068 294.372 724.023 284.212 724.023 270.436C724.023 266.476 724.367 260.535 725.055 252.614C725.744 245.209 726.088 239.871 726.088 236.6V233.758C715.932 236.341 695.878 252.097 665.925 281.027C642.514 303.584 629.001 316.413 625.386 319.513C619.533 324.334 615.574 326.831 613.508 327.003C603.696 326.142 598.532 321.493 598.016 313.055C598.016 309.439 615.058 274.827 649.142 209.22Z" fill="#F8F7F7"/>
<path d="M784.702 300.657C784.702 300.829 784.444 300.915 783.928 300.915L783.153 300.657C779.022 300.657 774.89 298.16 770.759 293.166C769.21 290.928 768.349 289.034 768.177 287.484C768.521 286.106 769.123 285.245 769.984 284.901C769.984 284.901 770.587 284.729 771.792 284.384C808.285 274.053 846.07 264.84 885.146 256.747C947.461 145.507 994.886 71.5481 1027.42 34.87C1018.64 38.6584 1009 42.9633 998.501 47.7848C988 52.6064 979.737 56.3947 973.712 59.1499L964.675 63.2826C963.986 63.627 963.298 63.7992 962.609 63.7992C958.65 63.7992 954.519 61.3024 950.215 56.3086C948.494 53.8979 947.547 51.9176 947.375 50.3678C947.547 49.3346 948.15 48.5597 949.182 48.0431L1006.25 22.2135C1040.33 7.4045 1060.39 0 1066.41 0C1070.89 0 1075.28 2.15247 1079.58 6.45741C1081.64 8.86818 1082.76 11.1067 1082.94 13.1731C1082.76 14.7229 1082.16 16.1866 1081.13 17.5642C1078.72 20.1471 1073.73 24.0216 1066.15 29.1875C1037.4 48.4736 987.57 120.538 916.648 245.382C997.554 135.347 1057.46 66.4683 1096.36 38.7445C1100.32 35.9893 1103.94 33.6646 1107.21 31.7705C1113.75 28.1543 1120.2 26.3462 1126.57 26.3462C1138.97 26.3462 1148.61 32.8036 1155.49 45.7185C1157.73 50.0234 1159.45 54.7588 1160.66 59.9248C1161.69 64.4019 1162.21 70.5149 1162.21 78.2638C1162.21 109.604 1149.3 161.607 1123.47 234.275C1137.76 235.652 1148.26 239.699 1154.98 246.415C1156.7 248.309 1157.64 249.859 1157.82 251.064C1157.47 252.27 1156.35 252.958 1154.46 253.131C1153.6 253.131 1152.91 253.044 1152.39 252.872C1143.1 251.322 1131.65 250.117 1118.05 249.256C1117.19 251.667 1115.13 257.091 1111.86 265.529C1087.58 329.586 1075.45 368.159 1075.45 381.246V383.57C1074.93 385.464 1073.21 386.584 1070.28 386.928C1064.95 386.928 1061.16 383.742 1058.92 377.371C1058.06 374.616 1057.63 371.516 1057.63 368.072C1057.63 363.595 1058.58 357.741 1060.47 350.508C1064.43 335.699 1076.14 301.69 1095.59 248.481H1093.78C1048.34 248.481 993.336 254.508 928.784 266.562C922.587 275 916.304 283.609 909.934 292.392C903.737 301.001 897.885 309.181 892.376 316.93C887.04 324.506 881.703 332.083 876.367 339.66C871.203 347.237 866.383 354.211 861.907 360.582C857.604 366.781 853.472 372.722 849.513 378.404C845.726 384.087 842.369 389.081 839.443 393.385C836.516 397.69 833.934 401.393 831.697 404.492C829.631 407.764 827.995 410.261 826.791 411.983L825.241 414.566C824.553 415.427 823.606 415.857 822.401 415.857C818.442 415.857 814.396 413.533 810.265 408.883C808.371 406.645 807.339 404.664 807.167 402.942C807.167 402.081 807.253 401.479 807.425 401.134C807.597 400.962 808.458 399.24 810.007 395.968C831.697 354.641 852.784 315.38 873.268 278.185C863.629 280.424 853.989 282.749 844.349 285.159C834.709 287.398 826.446 289.464 819.561 291.358C812.675 293.08 806.564 294.716 801.228 296.266C795.719 297.644 791.588 298.677 788.834 299.366L784.702 300.657ZM944.276 245.64C997.64 236.858 1043.69 232.467 1082.42 232.467C1086.89 232.467 1093.18 232.639 1101.27 232.983C1125.88 165.31 1139.91 113.564 1143.36 77.7472C1143.87 72.9257 1144.13 68.6208 1144.13 64.8324C1143.96 52.4342 1141.72 44.2548 1137.42 40.2942C1136.56 39.6055 1135.52 39.2611 1134.32 39.2611C1120.2 39.2611 1078.72 80.7607 1009.86 163.76C979.393 200.438 957.531 227.731 944.276 245.64Z" fill="#F8F7F7"/>
<path d="M1282.27 244.09C1283.13 243.574 1284 243.315 1284.86 243.315C1288.47 243.315 1292.09 245.812 1295.7 250.806C1297.59 253.217 1298.54 255.283 1298.54 257.005C1298.37 258.383 1298.11 259.244 1297.77 259.588C1289.33 265.787 1270.74 285.159 1241.99 317.705C1212.21 351.628 1192.59 372.55 1183.12 380.471C1177.27 385.464 1172.96 388.047 1170.21 388.22H1168.4C1153.6 387.875 1146.11 378.49 1145.94 360.065C1145.94 328.036 1174.86 242.11 1232.7 102.285C1234.42 97.8083 1236.57 92.5562 1239.15 86.5293C1250.51 59.3221 1256.97 43.3938 1258.52 38.7445C1259.21 37.5391 1260.15 36.9364 1261.36 36.9364C1265.32 36.9364 1269.36 39.0889 1273.49 43.3938C1275.56 45.8046 1276.68 47.957 1276.85 49.8512C1276.85 53.4674 1272.81 64.4019 1264.72 82.6549C1261.62 89.5428 1259.12 95.1392 1257.23 99.4441C1213.85 204.829 1186.05 278.788 1173.83 321.321C1167.8 342.673 1164.7 358.688 1164.53 369.364C1176.41 361.443 1195.52 342.157 1221.85 311.506C1249.05 279.821 1266.44 260.105 1274.01 252.356C1276.94 249.256 1279.69 246.501 1282.27 244.09Z" fill="#F8F7F7"/>
<path d="M1305.25 204.312C1305.94 203.452 1306.8 203.021 1307.84 203.021C1311.62 203.021 1315.67 205.346 1319.97 209.995C1322.04 212.406 1323.16 214.472 1323.33 216.194C1323.33 216.883 1323.16 217.486 1322.81 218.002C1308.01 239.527 1297.94 258.985 1292.6 276.377C1290.71 282.576 1289.76 287.828 1289.76 292.133C1289.76 294.2 1289.85 295.663 1290.02 296.524C1297.77 293.769 1308.7 285.073 1322.81 270.436C1336.76 255.972 1351.82 237.202 1368 214.128C1369.38 212.406 1370.93 211.545 1372.65 211.545C1376.78 211.545 1380.65 214.3 1384.27 219.81C1385.64 222.221 1386.33 224.115 1386.33 225.493C1386.33 226.009 1386.16 226.526 1385.82 227.043C1376.18 257.866 1371.1 281.974 1370.58 299.366C1370.58 302.465 1370.84 305.306 1371.36 307.889C1384.78 306.167 1399.16 293.855 1414.48 270.953C1427.04 252.183 1435.22 234.791 1439.01 218.777C1439.18 217.916 1439.35 217.227 1439.52 216.711C1439.52 216.539 1439.52 216.194 1439.52 215.678C1439.7 215.161 1439.78 214.558 1439.78 213.869C1439.95 213.181 1440.13 212.406 1440.3 211.545C1440.47 210.684 1440.56 209.823 1440.56 208.962C1440.73 207.929 1440.9 206.982 1441.07 206.121C1441.25 205.26 1441.33 204.399 1441.33 203.538C1441.5 202.677 1441.68 201.902 1441.85 201.213C1442.02 200.524 1442.19 200.008 1442.36 199.663V198.888C1443.05 198.027 1444.17 197.597 1445.72 197.597C1450.54 197.597 1454.5 199.749 1457.6 204.054C1459.32 206.809 1460.18 209.737 1460.18 212.836C1460.18 214.73 1459.84 218.174 1459.15 223.168C1458.29 230.917 1457.86 237.03 1457.86 241.507C1458.03 252.872 1460.18 259.674 1464.31 261.913C1467.41 263.118 1470.94 263.721 1474.9 263.721C1489.36 263.721 1509.41 257.177 1535.06 244.09C1535.58 243.918 1536.27 243.832 1537.13 243.832C1541.09 243.832 1545.22 246.243 1549.52 251.064C1551.24 253.475 1552.19 255.455 1552.36 257.005C1552.19 258.21 1551.67 259.071 1550.81 259.588C1524.99 272.847 1503.82 279.477 1487.29 279.477C1479.37 279.477 1472.66 278.185 1467.15 275.602C1458.89 271.814 1452.35 266.476 1447.53 259.588C1440.13 275.602 1430.14 290.153 1417.58 303.24C1404.32 316.844 1392.27 323.645 1381.43 323.645C1376.09 323.473 1370.93 321.493 1365.93 317.705C1357.16 310.472 1352.77 299.279 1352.77 284.126C1352.77 279.821 1353.2 274.827 1354.06 269.145C1332.54 294.286 1316.01 308.664 1304.48 312.28C1303.28 312.625 1301.81 312.797 1300.09 312.797C1298.37 312.797 1296.56 312.539 1294.67 312.022C1292.77 311.506 1291.05 310.903 1289.5 310.214C1287.95 309.353 1286.58 308.578 1285.37 307.889C1284.34 307.028 1283.48 306.34 1282.79 305.823C1282.1 305.134 1281.84 304.79 1282.02 304.79C1275.65 298.591 1272.46 290.497 1272.46 280.51C1272.46 260.879 1283.39 235.48 1305.25 204.312Z" fill="#F8F7F7"/>
<path d="M1551.85 208.445C1552.53 207.412 1553.48 206.809 1554.69 206.637C1558.47 206.637 1562.52 208.962 1566.82 213.611C1568.89 216.022 1570.01 218.088 1570.18 219.81C1570.18 220.327 1570.01 220.843 1569.66 221.36C1554.69 253.044 1546.42 277.669 1544.87 295.233C1544.7 296.783 1544.62 298.246 1544.62 299.624C1544.62 302.035 1544.96 304.532 1545.65 307.114H1546.17C1560.45 307.114 1581.63 292.736 1609.69 263.979C1616.92 256.402 1623.11 249.514 1628.28 243.315C1628.79 242.626 1629.48 242.282 1630.34 242.282C1633.27 242.282 1636.37 244.865 1639.64 250.031C1641.36 252.786 1642.22 255.197 1642.22 257.263C1642.05 258.124 1641.7 259.071 1641.19 260.105C1606.41 301.432 1578.44 322.44 1557.27 323.129C1555.37 323.129 1552.96 322.784 1550.04 322.096C1541.78 319.685 1535.41 314.777 1530.93 307.373C1528 302.551 1526.54 296.352 1526.54 288.775C1526.54 270.522 1534.98 243.746 1551.85 208.445ZM1580.51 196.822C1579.82 197.683 1578.87 198.199 1577.67 198.372C1573.88 198.372 1569.92 196.133 1565.79 191.656C1563.72 189.073 1562.6 186.921 1562.43 185.199C1562.43 184.682 1562.6 184.079 1562.95 183.39L1584.38 149.037C1585.07 148.176 1586.1 147.746 1587.48 147.746C1591.44 147.746 1595.48 150.07 1599.61 154.72C1601.51 156.958 1602.54 158.938 1602.71 160.66C1602.71 161.177 1602.54 161.78 1602.2 162.468L1580.51 196.822Z" fill="#F8F7F7"/>
<path d="M1643.25 209.22C1643.94 208.359 1644.89 207.843 1646.09 207.67C1649.88 207.67 1653.93 209.995 1658.23 214.644C1660.29 217.055 1661.41 219.121 1661.59 220.843C1661.59 221.36 1661.41 221.877 1661.07 222.393C1660.9 222.738 1651.95 240.302 1634.22 275.086C1667.44 242.885 1689.99 224.287 1701.87 219.294C1703.24 218.777 1704.45 218.347 1705.48 218.002C1707.72 217.486 1709.7 217.227 1711.42 217.227C1719.51 217.4 1726.31 220.757 1731.82 227.301C1736.29 232.639 1738.53 241.593 1738.53 254.164C1738.53 258.124 1737.59 268.801 1735.69 286.192C1735.52 288.087 1735.43 289.464 1735.43 290.325C1735.43 291.358 1735.61 292.047 1735.95 292.392C1736.29 292.564 1736.55 292.65 1736.72 292.65C1742.75 292.65 1764.01 278.96 1800.5 251.581C1805.32 247.965 1808.42 245.554 1809.8 244.348C1810.31 244.004 1810.92 243.832 1811.61 243.832C1814.7 243.832 1817.98 246.587 1821.42 252.097C1823.14 255.025 1824 257.522 1824 259.588C1823.83 260.793 1823.4 261.827 1822.71 262.688C1805.49 276.808 1793.45 286.106 1786.56 290.583C1770.55 300.915 1757.21 306.081 1746.54 306.081C1740.34 305.909 1734.92 304.187 1730.27 300.915C1722.18 294.372 1718.13 284.212 1718.13 270.436C1718.13 266.476 1718.48 260.535 1719.17 252.614C1719.86 245.209 1720.2 239.871 1720.2 236.6V233.758C1710.04 236.341 1689.99 252.097 1660.04 281.027C1636.63 303.584 1623.11 316.413 1619.5 319.513C1613.64 324.334 1609.69 326.831 1607.62 327.003C1597.81 326.142 1592.64 321.493 1592.13 313.055C1592.13 309.439 1609.17 274.827 1643.25 209.22Z" fill="#F8F7F7"/>
</svg>
