<svg xmlns="http://www.w3.org/2000/svg" width="178" height="100" viewBox="0 0 178 100" fill="none"><path fill-rule="evenodd" clip-rule="evenodd" d="M47.2655 21H131.465C147.571 21 160.628 33.9837 160.628 50C160.628 66.0163 147.571 79 131.465 79H47.2655C31.1587 79 18.1017 66.0163 18.1017 50C18.1017 33.9837 31.1587 21 47.2655 21ZM47.2655 23.8065C32.7175 23.8065 20.924 35.5337 20.924 50C20.924 64.4663 32.7175 76.1936 47.2655 76.1936H131.465C146.012 76.1936 157.806 64.4663 157.806 50C157.806 35.5337 146.012 23.8065 131.465 23.8065H47.2655Z" fill="#938E8A"></path><path fill-rule="evenodd" clip-rule="evenodd" d="M138.374 65.1597C140.492 61.4209 141.891 56.0668 141.891 50C141.891 43.9332 140.492 38.5792 138.374 34.8403C136.206 31.0143 133.653 29.4194 131.465 29.4194C129.276 29.4194 126.722 31.0143 124.555 34.8403C122.437 38.5792 121.038 43.9332 121.038 50C121.038 56.0668 122.437 61.4209 124.555 65.1597C126.722 68.9858 129.276 70.5807 131.465 70.5807C133.653 70.5807 136.206 68.9858 138.374 65.1597ZM131.465 73.3871C138.782 73.3871 144.714 62.9164 144.714 50C144.714 37.0837 138.782 26.6129 131.465 26.6129C124.147 26.6129 118.215 37.0837 118.215 50C118.215 62.9164 124.147 73.3871 131.465 73.3871Z" fill="#938E8A"></path><path fill-rule="evenodd" clip-rule="evenodd" d="M130.054 71.2043V28.328H132.875V71.2043H130.054Z" fill="#938E8A"></path><path d="M89.2312 39.4544C89.8391 39.4459 90.356 39.3329 90.3476 38.7115V38.6183C90.356 37.9997 89.8391 37.8867 89.2312 37.8783C88.6206 37.8867 88.1036 37.9997 88.1121 38.6183V38.7115C88.1036 39.3329 88.6206 39.4459 89.2312 39.4544Z" fill="#938E8A"></path><path d="M66.6804 37.8811C66.8622 37.8811 67.007 38.0251 67.007 38.2059C67.007 38.2935 66.9758 38.3697 66.9105 38.4347C66.8479 38.4968 66.7713 38.5279 66.6804 38.5279H64.8653V37.8811H66.6804Z" fill="#938E8A"></path><path d="M77.2243 37.8726L77.7471 38.994H76.6989L77.2243 37.8726Z" fill="#938E8A"></path><path d="M101.068 38.994L100.545 37.8726L100.02 38.994H101.068Z" fill="#938E8A"></path><path d="M63.4129 61.4855L62.6403 59.8279L61.8634 61.4855H63.4129Z" fill="#938E8A"></path><path d="M80.7507 62.0367C81.3217 62.0367 81.645 61.5732 81.645 61.0095C81.645 60.4417 81.3217 59.9824 80.7507 59.9824H78.3404V62.0367H80.7507Z" fill="#938E8A"></path><path d="M87.7504 59.8279L88.523 61.4855H86.9735L87.7504 59.8279Z" fill="#938E8A"></path><path d="M97.6222 60.3206C97.6222 60.0534 97.4081 59.8404 97.1394 59.8404H94.4562V60.7966H97.1394C97.2738 60.7966 97.3871 60.7507 97.4795 60.6588C97.5761 60.5628 97.6222 60.45 97.6222 60.3206Z" fill="#938E8A"></path><path d="M106.017 61.0095C106.017 61.5732 105.693 62.0367 105.122 62.0367H102.711V59.9824H105.122C105.693 59.9824 106.017 60.4417 106.017 61.0095Z" fill="#938E8A"></path><path d="M50.4106 44.118L53.2109 50.5472L56.1485 44.118H60.8021V54.8333H57.3154V49.0457L54.7621 54.8333H51.6323L49.1065 49.0457V54.8333H45.6061V44.118H50.4106Z" fill="#938E8A"></path><path d="M75.0886 54.8333V52.1715H67.3601V50.7792H74.7729V48.1721H67.3601V46.7934H74.9925V44.118H63.7362V54.8333H75.0886Z" fill="#938E8A"></path><path d="M83.3125 54.9971C81.0201 54.9971 79.1121 54.3146 78.0413 52.9359C77.4099 52.1306 77.0255 50.9157 77.0255 49.4961C77.0255 48.213 77.355 47.0664 78.0688 46.1519C79.1532 44.8141 81.1162 43.9269 84.0401 43.9269C87.4032 43.9269 89.3799 44.9506 90.231 46.6706C90.3523 46.9202 90.4407 47.2297 90.493 47.5098C90.5236 47.6737 90.5418 47.8277 90.5468 47.9537H86.9914C86.9503 47.7626 86.7581 47.4759 86.511 47.2712C86.1267 46.9299 85.303 46.6569 84.1087 46.6569C82.7771 46.6569 81.8712 46.9163 81.3358 47.5169C80.9652 47.94 80.773 48.5816 80.773 49.5234C80.773 50.4243 80.9652 51.0249 81.2946 51.4481C81.7888 52.0214 82.7086 52.3899 84.1362 52.3899C85.5089 52.3899 86.5659 51.9804 86.964 51.5163C87.0326 51.4376 87.0951 51.3388 87.1476 51.2368C87.2318 51.0735 87.2903 50.9021 87.3072 50.7929H83.4773V48.486H90.6428V54.8333H87.6916L87.5954 53.7959C87.4664 53.9021 87.3264 54.0031 87.1752 54.098C86.296 54.6494 85.0341 54.9971 83.3125 54.9971Z" fill="#938E8A"></path><path d="M81.2194 49.5234C81.2194 48.6327 81.4025 48.1176 81.6712 47.8099C82.0754 47.3576 82.8128 47.1008 84.1087 47.1008C85.261 47.1008 85.9505 47.3686 86.2137 47.6023L86.2194 47.6073L86.2252 47.6122C86.3157 47.6872 86.3985 47.7796 86.4611 47.8697C86.5229 47.9587 86.5476 48.0205 86.5538 48.0421H83.0309V51.2368H86.6169C86.4885 51.3811 86.2129 51.5612 85.7749 51.7059C85.3389 51.8499 84.7795 51.946 84.1362 51.946C82.7798 51.946 82.0169 51.5969 81.6409 51.1675C81.3951 50.8471 81.2194 50.3557 81.2194 49.5234Z" fill="#938E8A"></path><path d="M98.9461 50.0077L99.9688 48.0661L100.935 50.0077H98.9461Z" fill="#938E8A"></path><path fill-rule="evenodd" clip-rule="evenodd" d="M102.821 52.854L103.768 54.8333H107.735L102.299 44.118H97.8651L92.1134 54.8333H95.9982L97.0002 52.854H102.821ZM98.2082 50.4516L99.5673 47.8718L99.9791 46.889L100.363 47.8581L101.654 50.4516H98.2082Z" fill="#938E8A"></path><path fill-rule="evenodd" clip-rule="evenodd" d="M47.2655 73.3871C39.8563 73.3871 33.2473 69.9802 28.9364 64.656H41.3073V63.0968H27.7773C25.7588 60.1328 24.4063 56.6839 23.9333 52.9624H41.3073V51.4033H23.7879C23.7603 50.939 23.7463 50.4711 23.7463 50C23.7463 46.9134 24.3476 43.9666 25.4401 41.2688H41.3073V39.7097H26.1395C27.8016 36.3419 30.2541 33.4297 33.2566 31.2124H117.456C111.684 35.4742 107.945 42.3028 107.945 50C107.945 54.8526 109.432 59.3601 111.976 63.0968H110.532V64.6559H113.135C117.401 69.9238 123.915 73.3147 131.229 73.3859V73.3871H47.2655ZM86.6236 38.5279C86.6179 37.0902 87.7939 36.6778 89.2312 36.675C90.6685 36.675 91.8359 37.093 91.8359 38.5279V38.8047C91.8417 40.2396 90.6657 40.6548 89.2312 40.6576C87.7939 40.6548 86.6179 40.2396 86.6236 38.8047V38.5279ZM44.5783 40.5644V36.7682H46.0668V40.5644H44.5783ZM48.9044 36.7682L50.5804 38.7793V36.7682H52.0716V40.5644H50.3957L48.3449 38.2455V40.5644H46.8564V36.7682H48.9044ZM55.8466 40.5701V37.9771H57.6163V36.7739H52.5886V37.9771H54.3583V40.5701H55.8466ZM62.5844 40.5701H58.1163V36.7739H62.5844V37.7455H59.6047V38.2313H62.5844V39.1098H59.6047V39.5956H62.5844V40.5701ZM63.3769 36.771V40.5672H64.8653V39.6408H66.1947L66.9133 40.5672H68.4983L67.666 39.5024C67.916 39.3866 68.1177 39.2114 68.2682 38.9827C68.4216 38.751 68.4983 38.4912 68.4983 38.2059C68.5097 37.4207 67.8421 36.7626 67.0553 36.771H63.3769ZM71.0093 36.7682L72.6852 38.7793V36.7682H74.1765V40.5644H72.5006L70.4498 38.2455V40.5644H68.9613V36.7682H71.0093ZM74.2902 40.5701H75.9661L76.2672 39.9204H78.1788L78.4799 40.5701H80.1558L78.1078 36.7739H76.3382L74.2902 40.5701ZM82.4282 37.9771V40.5701H80.9398V37.9771H79.1702V36.7739H84.1978V37.9771H82.4282ZM84.6977 36.7682V40.5644H86.1862V36.7682H84.6977ZM96.0059 38.7793L94.3299 36.7682H92.2819V40.5644H93.7704V38.2455L95.8212 40.5644H97.4971V36.7682H96.0059V38.7793ZM99.2866 40.5701H97.6108L99.6588 36.7739H101.429L103.476 40.5701H101.801L101.499 39.9204H99.5878L99.2866 40.5701ZM103.593 36.7682V40.5644H108.061V39.3611H105.081V36.7682H103.593ZM46.9107 60.045C46.9107 59.5983 47.7506 59.498 48.435 59.498C49.1237 59.498 49.7073 59.6024 49.9593 60.045H52.2645C52.0545 58.2913 50.4127 58.07 48.435 58.0575C46.4531 58.0575 44.6055 58.4417 44.6055 60.045C44.6013 61.4451 46.805 61.5561 48.379 61.6354L48.3888 61.6359C49.2748 61.6776 49.9593 61.7152 49.9593 61.9615C49.9593 62.3958 49.1195 62.5085 48.435 62.5085C47.7463 62.5085 47.1627 62.3958 46.9107 61.9615H44.6055C44.8155 63.7027 46.4573 63.9407 48.435 63.9449C50.4169 63.9449 52.2645 63.5649 52.2645 61.9615C52.2686 60.5573 50.065 60.4463 48.4909 60.367L48.4812 60.3665C47.5952 60.3248 46.9107 60.2914 46.9107 60.045ZM57.148 63.8154V59.9824H59.764V58.2037H52.3317V59.9824H54.9477V63.8154H57.148ZM60.7801 63.8154H58.3026L61.3302 58.2037H63.9461L66.9737 63.8154H64.4962L64.0511 62.8551H61.2252L60.7801 63.8154ZM72.6507 61.1682L70.1733 58.1953H67.1458V63.8071H69.3461V60.3791L72.3778 63.8071H74.8552V58.1953H72.6507V61.1682ZM76.1401 63.8154V58.2037H81.1622C82.7116 58.1828 83.8621 59.4772 83.8495 61.0095C83.8621 62.5336 82.7116 63.8363 81.1622 63.8154H76.1401ZM83.4128 63.8154H85.8902L86.3353 62.8551H89.1612L89.6063 63.8154H92.0837L89.0563 58.2037H86.4403L83.4128 63.8154ZM92.2559 63.8113V58.1995H97.6936C98.8568 58.187 99.8435 59.1598 99.8267 60.3206C99.8267 60.7423 99.7134 61.1265 99.4866 61.4688C99.2641 61.8071 98.966 62.0659 98.5964 62.2371L99.8267 63.8113H97.4837L96.4214 62.4417H94.4563V63.8113H92.2559ZM100.511 58.2037V63.8154H105.533C107.083 63.8363 108.233 62.5336 108.221 61.0095C108.233 59.4772 107.083 58.1828 105.533 58.2037H100.511ZM56.869 55.2772H61.2485V43.6741H55.861L53.2207 49.4527L50.7038 43.6741H45.1597V55.2772H49.5529V51.1837L51.3394 55.2772H55.0538L56.869 51.1626V55.2772ZM63.2898 55.2772H75.535V51.7276H67.8065V51.2231H75.2193V47.7282H67.8065V47.2373H75.4389V43.6741H63.2898V55.2772ZM87.2844 55.2772H91.0893V48.0421H90.9971L90.9928 47.9359C90.9771 47.5449 90.8563 46.9374 90.6331 46.4776L90.6324 46.4761L90.6316 46.4746C89.6714 44.534 87.4794 43.483 84.0401 43.483C81.031 43.483 78.9174 44.3977 77.7212 45.8733L77.7186 45.8764L77.7161 45.8797C76.9287 46.8885 76.5791 48.1374 76.5791 49.4961C76.5791 50.9874 76.9817 52.3061 77.6886 53.2082C78.877 54.7375 80.9471 55.441 83.3125 55.441C84.9754 55.441 86.2666 55.127 87.2205 54.5883L87.2844 55.2772ZM96.2733 55.2772L97.2753 53.2979H102.539L103.485 55.2772H108.46L102.574 43.6741H97.5973L91.3691 55.2772H96.2733ZM108.415 69.5672H44.5216V68.008H108.415V69.5672Z" fill="#938E8A"></path><path d="M119.859 29.6532C123.22 27.754 127.097 26.6543 131.229 26.614V26.6129H47.2655C43.0455 26.6129 39.0851 27.718 35.6609 29.6532H119.859Z" fill="#938E8A"></path><path d="M131.465 70.5806C142.895 70.5806 152.161 61.3663 152.161 50C152.161 38.6336 142.895 29.4193 131.465 29.4193C123.804 29.4193 117.115 33.5581 113.536 39.7097H110.532V41.2688H112.717C111.466 43.9194 110.767 46.8785 110.767 50C110.767 54.9754 112.543 59.5384 115.498 63.0968H111.976C109.432 59.3601 107.945 54.8526 107.945 50C107.945 37.0836 118.475 26.6129 131.465 26.6129C144.454 26.6129 154.984 37.0836 154.984 50C154.984 62.9163 144.454 73.3871 131.465 73.3871C124.055 73.3871 117.446 69.9802 113.135 64.6559H116.934C120.671 68.3196 125.802 70.5806 131.465 70.5806Z" fill="#938E8A"></path><path d="M137.678 63.0967H113.198V60.2903H138.783C138.456 61.2959 138.085 62.2346 137.678 63.0967Z" fill="#938E8A"></path><path d="M139.397 63.0967H149.888V60.2903H140.427C140.123 61.2822 139.777 62.2203 139.397 63.0967Z" fill="#938E8A"></path><path d="M140.297 51.4032H109.356V48.5967H140.297C140.314 49.0592 140.323 49.5271 140.323 50C140.323 50.4729 140.314 50.9408 140.297 51.4032Z" fill="#938E8A"></path><path d="M141.866 51.4032H153.612V48.5967H141.866C141.883 49.0599 141.891 49.5278 141.891 50C141.891 50.4722 141.883 50.9401 141.866 51.4032Z" fill="#938E8A"></path><path d="M138.784 39.7097H113.198V36.9033H137.678C138.085 37.7654 138.456 38.7041 138.784 39.7097Z" fill="#938E8A"></path><path d="M140.427 39.7097H149.888V36.9033H139.397C139.777 37.7797 140.123 38.7178 140.427 39.7097Z" fill="#938E8A"></path></svg>