<svg xmlns="http://www.w3.org/2000/svg" width="48" height="44" viewBox="0 0 48 44" fill="none"><path d="M10.1523 22.444C14.1591 22.444 17.1641 23.4128 19.1675 25.3505C21.225 27.2343 22.2538 29.8446 22.2538 33.1817C22.2538 36.3034 21.198 38.8868 19.0863 40.9321C17.0288 42.9774 14.4298 44 11.2893 44C8.25719 44 5.60406 42.7621 3.32995 40.2862C1.10998 37.8104 0 34.1505 0 29.3064C0 24.0856 0.730964 19.4838 2.19289 15.5009C3.70897 11.518 5.90186 8.23486 8.77157 5.65137C11.6954 3.01406 15.242 1.1841 19.4112 0.161471C19.7902 0.0538203 20.088 0.0538203 20.3046 0.161471C20.5212 0.215289 20.6294 0.349846 20.6294 0.56514C20.6294 0.780428 20.5753 0.968807 20.467 1.13028C20.3587 1.29174 20.1421 1.4263 19.8173 1.53394C16.0271 2.55658 12.9679 4.17126 10.6396 6.37799C8.36548 8.53089 6.71404 10.8722 5.68528 13.4018C4.65651 15.9315 4.14213 18.219 4.14213 20.2642C4.14213 20.9101 4.33164 21.4483 4.71066 21.8789C5.08968 22.2557 5.71235 22.444 6.57868 22.444H10.1523ZM35.8173 22.3633C39.8782 22.3633 42.9103 23.3321 44.9137 25.2697C46.9712 27.1535 48 29.7639 48 33.1009C48 36.2226 46.9442 38.8061 44.8325 40.8514C42.775 42.8966 40.1489 43.9193 36.9543 43.9193C33.9222 43.9193 31.269 42.6813 28.9949 40.2055C26.775 37.7297 25.665 34.0428 25.665 29.145C25.665 23.978 26.423 19.4031 27.9391 15.4202C29.4552 11.4373 31.6481 8.15413 34.5178 5.57064C37.4416 2.93333 40.9882 1.10337 45.1574 0.0807329C45.4822 -0.026911 45.753 -0.026911 45.9695 0.0807329C46.1861 0.134558 46.2944 0.269114 46.2944 0.484402C46.3486 0.699696 46.2944 0.888075 46.132 1.04954C46.0237 1.21101 45.8342 1.31865 45.5634 1.37248C41.7191 2.44893 38.6599 4.06361 36.3858 6.21651C34.1117 8.36942 32.4602 10.7107 31.4315 13.2404C30.4027 15.77 29.8883 18.0844 29.8883 20.1835C29.8883 20.8294 30.0508 21.3676 30.3756 21.7982C30.7547 22.1749 31.3773 22.3633 32.2437 22.3633H35.8173Z" fill="#2CD2DB"></path></svg>