<svg width="94" height="30" viewBox="0 0 94 30" fill="none" xmlns="http://www.w3.org/2000/svg">
<path d="M1.62 15.7969V2.65687H5.112L8.406 10.5049H8.73L12.006 2.65687H15.552V15.7969H13.014V5.39287L9.792 13.1149H7.182L3.96 5.44687V15.7969H1.62ZM20.3678 16.0489C19.2878 16.0489 18.4238 15.7729 17.7758 15.2209C17.1398 14.6689 16.8218 13.8949 16.8218 12.8989C16.8218 11.8309 17.2058 11.0449 17.9738 10.5409C18.7538 10.0249 19.7978 9.76687 21.1058 9.76687H23.1038V9.67687C23.1038 8.56087 22.5398 8.00287 21.4118 8.00287C21.1118 8.00287 20.7518 8.00887 20.3318 8.02087C19.9118 8.03287 19.4858 8.05087 19.0538 8.07487C18.6338 8.08687 18.2558 8.10487 17.9198 8.12887V6.00487C18.3278 5.96887 18.8138 5.93887 19.3778 5.91487C19.9538 5.89087 20.4818 5.87888 20.9618 5.87888C22.4618 5.87888 23.5898 6.18488 24.3458 6.79688C25.1138 7.39687 25.4978 8.37487 25.4978 9.73087V15.7969H23.5178V13.9249C23.0738 15.3409 22.0238 16.0489 20.3678 16.0489ZM21.0698 14.2669C21.4058 14.2669 21.7238 14.2069 22.0238 14.0869C22.3238 13.9549 22.5698 13.7389 22.7618 13.4389C22.9658 13.1269 23.0798 12.7069 23.1038 12.1789V11.2609H21.0698C20.4938 11.2609 20.0498 11.4049 19.7378 11.6929C19.4378 11.9689 19.2878 12.3289 19.2878 12.7729C19.2878 13.2289 19.4378 13.5949 19.7378 13.8709C20.0498 14.1349 20.4938 14.2669 21.0698 14.2669ZM27.1779 15.7969V6.02287H29.1579V9.20887C29.4219 7.00087 30.5859 5.89687 32.6499 5.89687H33.0099V8.07487H32.3259C31.4739 8.07487 30.8199 8.30287 30.3639 8.75887C29.9079 9.21487 29.6799 9.86287 29.6799 10.7029V15.7969H27.1779ZM33.6837 15.7969V2.65687H36.1857V10.7389L39.9477 6.02287H42.5577L39.2277 10.1809L43.3497 15.7969H40.5237L37.2477 11.2249H36.1857V15.7969H33.6837ZM50.5119 16.1569C49.5519 16.1569 48.7119 15.9709 47.9919 15.5989C47.2839 15.2269 46.7259 14.7289 46.3179 14.1049C45.9219 13.4689 45.7239 12.7549 45.7239 11.9629V11.7289C45.7239 10.9249 45.9339 10.2049 46.3539 9.56887C46.7739 8.92087 47.3139 8.40487 47.9739 8.02087C47.8059 7.69687 47.6859 7.38487 47.6139 7.08487C47.5539 6.77287 47.5239 6.43687 47.5239 6.07687C47.5239 4.96087 47.8779 4.08487 48.5859 3.44887C49.3059 2.81287 50.4579 2.49487 52.0419 2.49487C52.4619 2.49487 52.9059 2.51887 53.3739 2.56687C53.8419 2.60287 54.2619 2.64487 54.6339 2.69287V4.78087C54.3819 4.74487 54.0759 4.71487 53.7159 4.69087C53.3679 4.65487 53.0139 4.63087 52.6539 4.61887C52.3059 4.59487 52.0179 4.58287 51.7899 4.58287C51.0339 4.58287 50.5179 4.72687 50.2419 5.01487C49.9779 5.29087 49.8459 5.68087 49.8459 6.18487C49.8459 6.64087 49.9479 7.07287 50.1519 7.48087C50.3679 7.87687 50.7159 8.33287 51.1959 8.84887L53.9319 11.7829C54.1119 11.3869 54.2499 10.9309 54.3459 10.4149C54.4539 9.88687 54.5199 9.30487 54.5439 8.66887H52.7259V6.81487H57.7119V8.66887H56.7399C56.7159 9.64087 56.5899 10.5289 56.3619 11.3329C56.1459 12.1249 55.8459 12.8209 55.4619 13.4209L57.6759 15.7969H54.8679L54.0759 14.9689C53.0679 15.7609 51.8799 16.1569 50.5119 16.1569ZM48.0459 11.7289C48.0459 12.4489 48.2739 13.0249 48.7299 13.4569C49.1859 13.8769 49.8159 14.0869 50.6199 14.0869C51.3999 14.0869 52.0839 13.8709 52.6719 13.4389L49.7199 10.2529C49.4559 9.97687 49.2279 9.73087 49.0359 9.51487C48.7479 9.76687 48.5079 10.0849 48.3159 10.4689C48.1359 10.8409 48.0459 11.2609 48.0459 11.7289ZM61.663 15.8869V2.56687H66.379C67.867 2.56687 68.995 2.87887 69.763 3.50287C70.543 4.12687 70.933 5.02087 70.933 6.18487V6.43687C70.933 7.07287 70.813 7.60087 70.573 8.02087C70.345 8.44087 70.027 8.78287 69.619 9.04687C70.195 9.28687 70.645 9.64087 70.969 10.1089C71.305 10.5769 71.473 11.1889 71.473 11.9449V12.1969C71.473 13.3729 71.083 14.2849 70.303 14.9329C69.535 15.5689 68.407 15.8869 66.919 15.8869H61.663ZM66.613 4.61887H64.165V8.18287H66.613C67.225 8.18287 67.675 8.02087 67.963 7.69687C68.251 7.37287 68.395 6.94087 68.395 6.40087C68.395 5.86087 68.251 5.42887 67.963 5.10487C67.675 4.78087 67.225 4.61887 66.613 4.61887ZM67.099 10.1629H64.165V13.8349H67.099C67.699 13.8349 68.155 13.6729 68.467 13.3489C68.779 13.0249 68.935 12.5689 68.935 11.9809C68.935 11.4049 68.779 10.9609 68.467 10.6489C68.155 10.3249 67.699 10.1629 67.099 10.1629ZM77.1612 16.1389C76.3212 16.1389 75.5832 15.9949 74.9472 15.7069C74.3232 15.4189 73.8012 15.0349 73.3812 14.5549C72.9732 14.0629 72.6612 13.5169 72.4452 12.9169C72.2412 12.3169 72.1392 11.7049 72.1392 11.0809V10.7389C72.1392 10.0909 72.2412 9.46687 72.4452 8.86687C72.6612 8.26687 72.9732 7.72687 73.3812 7.24687C73.8012 6.76687 74.3172 6.38887 74.9292 6.11287C75.5412 5.82487 76.2492 5.68087 77.0532 5.68087C78.1092 5.68087 78.9912 5.91487 79.6992 6.38287C80.4072 6.83887 80.9412 7.44487 81.3012 8.20087C81.6732 8.94487 81.8592 9.74887 81.8592 10.6129V11.5129H74.5152C74.5992 12.2809 74.8512 12.8989 75.2712 13.3669C75.7032 13.8349 76.3332 14.0689 77.1612 14.0689C77.7612 14.0689 78.2532 13.9489 78.6372 13.7089C79.0332 13.4569 79.2852 13.1509 79.3932 12.7909H81.6972C81.4812 13.7989 80.9712 14.6089 80.1672 15.2209C79.3632 15.8329 78.3612 16.1389 77.1612 16.1389ZM77.0532 7.75087C76.3452 7.75087 75.7812 7.94887 75.3612 8.34487C74.9412 8.74087 74.6712 9.28687 74.5512 9.98287H79.4652C79.3692 9.28687 79.1172 8.74087 78.7092 8.34487C78.3132 7.94887 77.7612 7.75087 77.0532 7.75087ZM82.9493 15.7969V6.02287H84.9293V8.43487C85.3493 6.62287 86.4653 5.71687 88.2773 5.71687H88.3853C89.5493 5.71687 90.4313 6.09487 91.0313 6.85087C91.6313 7.60687 91.9313 8.72287 91.9313 10.1989V15.7969H89.4293V9.98287C89.4293 9.38287 89.2553 8.89687 88.9073 8.52487C88.5593 8.15287 88.0913 7.96687 87.5033 7.96687C86.8913 7.96687 86.3933 8.15887 86.0093 8.54287C85.6373 8.92687 85.4513 9.43087 85.4513 10.0549V15.7969H82.9493Z" fill="white"/>
<line x1="2" y1="25" x2="50" y2="25" stroke="#F11158"/>
<path d="M55.53 27.7631C55.75 27.7565 55.9067 27.7131 56 27.6331C56.1 27.5465 56.1633 27.4231 56.19 27.2631C56.2167 27.1031 56.23 26.8998 56.23 26.6531V22.4931C56.23 22.1865 56.24 21.9265 56.26 21.7131C56.1467 21.7198 56.0233 21.7265 55.89 21.7331C55.7567 21.7398 55.6367 21.7465 55.53 21.7531V21.2031C56.3167 21.1965 57.13 21.1898 57.97 21.1831C58.9033 21.1831 59.6267 21.3531 60.14 21.6931C60.66 22.0265 60.9267 22.5398 60.94 23.2331C60.9467 23.4931 60.9 23.7631 60.8 24.0431C60.7 24.3165 60.53 24.5731 60.29 24.8131C60.05 25.0465 59.7233 25.2365 59.31 25.3831C58.8967 25.5298 58.3833 25.6031 57.77 25.6031C57.7033 25.6098 57.6267 25.6131 57.54 25.6131C57.46 25.6065 57.3767 25.6031 57.29 25.6031V26.8631C57.29 27.2231 57.28 27.4998 57.26 27.6931C57.4 27.6798 57.5533 27.6698 57.72 27.6631C57.8867 27.6565 58.0333 27.6498 58.16 27.6431V28.2031H55.53V27.7631ZM57.29 25.0731C57.3967 25.0865 57.4933 25.0965 57.58 25.1031C57.6667 25.1031 57.7667 25.1031 57.88 25.1031C58.44 25.1031 58.8967 24.9498 59.25 24.6431C59.6033 24.3298 59.78 23.8931 59.78 23.3331C59.78 22.8998 59.6933 22.5631 59.52 22.3231C59.3533 22.0831 59.13 21.9165 58.85 21.8231C58.5767 21.7231 58.2767 21.6731 57.95 21.6731C57.6433 21.6731 57.4567 21.7631 57.39 21.9431C57.3233 22.1165 57.29 22.3798 57.29 22.7331V25.0731ZM63.9547 28.3631C63.4814 28.3631 63.0547 28.2565 62.6747 28.0431C62.2947 27.8298 61.9914 27.5331 61.7647 27.1531C61.5447 26.7665 61.4347 26.3231 61.4347 25.8231C61.4347 25.2831 61.5447 24.8065 61.7647 24.3931C61.9914 23.9731 62.2947 23.6431 62.6747 23.4031C63.0547 23.1631 63.478 23.0431 63.9447 23.0431C64.418 23.0431 64.8447 23.1531 65.2247 23.3731C65.6047 23.5865 65.9047 23.8865 66.1247 24.2731C66.3514 24.6531 66.4647 25.0931 66.4647 25.5931C66.4647 26.1265 66.3547 26.6031 66.1347 27.0231C65.9147 27.4365 65.6147 27.7631 65.2347 28.0031C64.8614 28.2431 64.4347 28.3631 63.9547 28.3631ZM64.0247 27.8631C64.3447 27.8631 64.5947 27.7665 64.7747 27.5731C64.9614 27.3731 65.0947 27.1231 65.1747 26.8231C65.2547 26.5165 65.2947 26.1998 65.2947 25.8731C65.2947 25.5865 65.268 25.3065 65.2147 25.0331C65.168 24.7531 65.0914 24.4998 64.9847 24.2731C64.878 24.0465 64.738 23.8665 64.5647 23.7331C64.3914 23.5931 64.1814 23.5265 63.9347 23.5331C63.6147 23.5331 63.3547 23.6298 63.1547 23.8231C62.9614 24.0165 62.8214 24.2665 62.7347 24.5731C62.648 24.8731 62.6047 25.1931 62.6047 25.5331C62.6047 25.9265 62.6547 26.2998 62.7547 26.6531C62.8547 27.0065 63.008 27.2965 63.2147 27.5231C63.428 27.7498 63.698 27.8631 64.0247 27.8631ZM69.3457 28.3631C68.939 28.3631 68.5757 28.2598 68.2557 28.0531C67.9424 27.8465 67.6924 27.5565 67.5057 27.1831C67.3257 26.8031 67.2357 26.3565 67.2357 25.8431C67.2357 25.2965 67.3424 24.8131 67.5557 24.3931C67.7757 23.9731 68.0757 23.6431 68.4557 23.4031C68.8357 23.1631 69.2757 23.0431 69.7757 23.0431C69.9824 23.0431 70.179 23.0698 70.3657 23.1231C70.559 23.1698 70.719 23.2265 70.8457 23.2931V22.1531C70.8457 22.0531 70.8457 21.9431 70.8457 21.8231C70.8524 21.7031 70.8657 21.5731 70.8857 21.4331C70.7657 21.4398 70.6424 21.4465 70.5157 21.4531C70.389 21.4598 70.2757 21.4631 70.1757 21.4631V20.9331C70.6224 20.9331 70.939 20.9031 71.1257 20.8431C71.3124 20.7831 71.4424 20.7198 71.5157 20.6531H71.8857V26.9631C71.8857 27.0631 71.8824 27.1765 71.8757 27.3031C71.869 27.4298 71.859 27.5631 71.8457 27.7031C71.9657 27.6965 72.0857 27.6898 72.2057 27.6831C72.3257 27.6765 72.4357 27.6731 72.5357 27.6731V28.2031H70.9457C70.9324 28.1098 70.919 28.0231 70.9057 27.9431C70.899 27.8631 70.8924 27.7831 70.8857 27.7031C70.4724 28.1431 69.959 28.3631 69.3457 28.3631ZM69.7557 27.7331C69.9624 27.7331 70.1624 27.6765 70.3557 27.5631C70.5557 27.4498 70.719 27.3065 70.8457 27.1331C70.8457 27.0465 70.8457 26.9565 70.8457 26.8631C70.8457 26.7698 70.8457 26.6698 70.8457 26.5631V23.8431C70.579 23.6498 70.2557 23.5531 69.8757 23.5531C69.549 23.5531 69.2757 23.6498 69.0557 23.8431C68.8357 24.0298 68.669 24.2898 68.5557 24.6231C68.449 24.9498 68.399 25.3198 68.4057 25.7331C68.419 26.0998 68.4757 26.4365 68.5757 26.7431C68.6757 27.0431 68.8224 27.2831 69.0157 27.4631C69.2157 27.6431 69.4624 27.7331 69.7557 27.7331ZM75.6525 28.3631C75.2058 28.3631 74.7958 28.2631 74.4225 28.0631C74.0492 27.8565 73.7492 27.5631 73.5225 27.1831C73.3025 26.8031 73.1925 26.3431 73.1925 25.8031C73.1925 25.4431 73.2525 25.0998 73.3725 24.7731C73.4992 24.4398 73.6792 24.1431 73.9125 23.8831C74.1458 23.6231 74.4192 23.4198 74.7325 23.2731C75.0525 23.1198 75.4058 23.0431 75.7925 23.0431C76.1858 23.0431 76.5192 23.1031 76.7925 23.2231C77.0725 23.3431 77.2892 23.4998 77.4425 23.6931C77.5958 23.8865 77.6725 24.0965 77.6725 24.3231C77.6725 24.4831 77.6258 24.6231 77.5325 24.7431C77.4392 24.8631 77.3058 24.9231 77.1325 24.9231C76.9325 24.9298 76.7925 24.8731 76.7125 24.7531C76.6392 24.6265 76.6025 24.5098 76.6025 24.4031C76.6025 24.3431 76.6125 24.2765 76.6325 24.2031C76.6525 24.1298 76.6892 24.0598 76.7425 23.9931C76.6892 23.8531 76.6025 23.7498 76.4825 23.6831C76.3625 23.6165 76.2392 23.5731 76.1125 23.5531C75.9858 23.5331 75.8792 23.5231 75.7925 23.5231C75.3858 23.5298 75.0425 23.7065 74.7625 24.0531C74.4892 24.3931 74.3525 24.8865 74.3525 25.5331C74.3525 25.9465 74.4125 26.3165 74.5325 26.6431C74.6592 26.9698 74.8392 27.2298 75.0725 27.4231C75.3125 27.6165 75.6025 27.7165 75.9425 27.7231C76.2425 27.7231 76.5325 27.6465 76.8125 27.4931C77.0925 27.3331 77.3192 27.1331 77.4925 26.8931L77.8125 27.1731C77.5192 27.6131 77.1725 27.9231 76.7725 28.1031C76.3792 28.2765 76.0058 28.3631 75.6525 28.3631ZM81.4464 28.2031C81.4331 28.0965 81.4231 28.0031 81.4164 27.9231C81.4097 27.8431 81.3997 27.7598 81.3864 27.6731C80.9264 28.1331 80.4131 28.3631 79.8464 28.3631C79.3664 28.3631 79.0031 28.2465 78.7564 28.0131C78.5164 27.7731 78.3964 27.4765 78.3964 27.1231C78.3964 26.8165 78.4864 26.5498 78.6664 26.3231C78.8464 26.0965 79.0831 25.9131 79.3764 25.7731C79.6697 25.6265 79.9897 25.5198 80.3364 25.4531C80.6831 25.3798 81.0231 25.3431 81.3564 25.3431V24.7531C81.3564 24.5398 81.3364 24.3431 81.2964 24.1631C81.2564 23.9765 81.1731 23.8265 81.0464 23.7131C80.9197 23.5931 80.7297 23.5331 80.4764 23.5331C80.3031 23.5265 80.1297 23.5598 79.9564 23.6331C79.7831 23.6998 79.6497 23.8131 79.5564 23.9731C79.6097 24.0265 79.6431 24.0898 79.6564 24.1631C79.6764 24.2298 79.6864 24.2931 79.6864 24.3531C79.6864 24.4465 79.6464 24.5531 79.5664 24.6731C79.4864 24.7865 79.3497 24.8398 79.1564 24.8331C78.9964 24.8331 78.8731 24.7798 78.7864 24.6731C78.7064 24.5598 78.6664 24.4298 78.6664 24.2831C78.6664 24.0431 78.7531 23.8298 78.9264 23.6431C79.1064 23.4565 79.3464 23.3098 79.6464 23.2031C79.9531 23.0965 80.2997 23.0431 80.6864 23.0431C81.2597 23.0431 81.6864 23.1931 81.9664 23.4931C82.2531 23.7931 82.3964 24.2665 82.3964 24.9131C82.3964 25.2798 82.3931 25.6231 82.3864 25.9431C82.3864 26.2565 82.3864 26.5965 82.3864 26.9631C82.3864 27.0631 82.3831 27.1765 82.3764 27.3031C82.3697 27.4298 82.3597 27.5631 82.3464 27.7031C82.4597 27.6965 82.5764 27.6898 82.6964 27.6831C82.8164 27.6765 82.9297 27.6731 83.0364 27.6731V28.2031H81.4464ZM81.3564 25.8031C81.0697 25.8165 80.7797 25.8665 80.4864 25.9531C80.1997 26.0331 79.9597 26.1598 79.7664 26.3331C79.5797 26.4998 79.4897 26.7198 79.4964 26.9931C79.5097 27.2198 79.5864 27.3865 79.7264 27.4931C79.8664 27.5998 80.0264 27.6531 80.2064 27.6531C80.4397 27.6531 80.6464 27.6098 80.8264 27.5231C81.0064 27.4298 81.1831 27.3031 81.3564 27.1431C81.3497 27.0698 81.3464 26.9965 81.3464 26.9231C81.3464 26.8431 81.3464 26.7598 81.3464 26.6731C81.3464 26.6131 81.3464 26.5031 81.3464 26.3431C81.3531 26.1831 81.3564 26.0031 81.3564 25.8031ZM85.812 28.3631C85.492 28.3631 85.1986 28.3198 84.932 28.2331C84.672 28.1531 84.462 28.0565 84.302 27.9431L84.332 28.2731H83.802L83.752 26.5531H84.172C84.1853 26.8065 84.262 27.0331 84.402 27.2331C84.542 27.4265 84.722 27.5798 84.942 27.6931C85.1686 27.8065 85.412 27.8631 85.672 27.8631C85.8253 27.8631 85.9753 27.8398 86.122 27.7931C86.2686 27.7398 86.392 27.6631 86.492 27.5631C86.592 27.4565 86.642 27.3265 86.642 27.1731C86.6353 26.9198 86.5186 26.7298 86.292 26.6031C86.072 26.4698 85.7953 26.3365 85.462 26.2031C85.1953 26.1031 84.9286 25.9898 84.662 25.8631C84.3953 25.7365 84.172 25.5731 83.992 25.3731C83.8186 25.1665 83.732 24.8898 83.732 24.5431C83.732 24.3365 83.7853 24.1165 83.892 23.8831C83.9986 23.6498 84.182 23.4531 84.442 23.2931C84.702 23.1265 85.052 23.0431 85.492 23.0431C85.672 23.0431 85.8753 23.0731 86.102 23.1331C86.3286 23.1931 86.5353 23.2965 86.722 23.4431L86.712 23.0931H87.242V24.8531H86.812C86.792 24.6198 86.7286 24.4031 86.622 24.2031C86.522 24.0031 86.3786 23.8398 86.192 23.7131C86.0053 23.5865 85.7786 23.5231 85.512 23.5231C85.2453 23.5231 85.032 23.5898 84.872 23.7231C84.712 23.8498 84.632 24.0098 84.632 24.2031C84.632 24.3965 84.692 24.5531 84.812 24.6731C84.9386 24.7931 85.102 24.8965 85.302 24.9831C85.502 25.0698 85.7186 25.1565 85.952 25.2431C86.232 25.3565 86.4953 25.4798 86.742 25.6131C86.9886 25.7465 87.1886 25.9131 87.342 26.1131C87.4953 26.3131 87.572 26.5665 87.572 26.8731C87.572 27.2131 87.4853 27.4931 87.312 27.7131C87.1453 27.9331 86.9253 28.0965 86.652 28.2031C86.3853 28.3098 86.1053 28.3631 85.812 28.3631ZM90.2892 28.3631C90.1226 28.3631 89.9559 28.3398 89.7892 28.2931C89.6226 28.2531 89.4692 28.1698 89.3292 28.0431C89.1892 27.9098 89.0759 27.7198 88.9892 27.4731C88.9026 27.2265 88.8626 26.8998 88.8692 26.4931L88.8892 23.7631H88.1492V23.2031C88.3292 23.1965 88.5092 23.1298 88.6892 23.0031C88.8759 22.8765 89.0392 22.7065 89.1792 22.4931C89.3259 22.2798 89.4259 22.0498 89.4792 21.8031H89.9492V23.2031H91.4892V23.7231L89.9492 23.7431L89.9292 26.4131C89.9292 26.7931 89.9792 27.0998 90.0792 27.3331C90.1859 27.5598 90.3726 27.6731 90.6392 27.6731C90.7926 27.6731 90.9492 27.6265 91.1092 27.5331C91.2759 27.4398 91.4326 27.2865 91.5792 27.0731L91.9192 27.3731C91.7059 27.6865 91.4926 27.9131 91.2792 28.0531C91.0659 28.1865 90.8726 28.2698 90.6992 28.3031C90.5259 28.3431 90.3892 28.3631 90.2892 28.3631Z" fill="white"/>
</svg>
