<svg width="178" height="100" viewBox="0 0 178 100" fill="none" xmlns="http://www.w3.org/2000/svg">
<path d="M41.419 48.371C41.04 48.7523 40.7498 49.2125 40.569 49.7187C40.3882 50.225 40.3213 50.7649 40.373 51.3L40.355 51.282C40.4082 51.9119 40.3233 52.5457 40.1062 53.1394C39.8891 53.733 39.545 54.2721 39.0981 54.7191C38.6511 55.166 38.112 55.5101 37.5184 55.7272C36.9247 55.9443 36.2909 56.0292 35.661 55.976L35.679 55.994C34.9256 55.9239 34.1689 56.0878 33.5121 56.4635C32.8552 56.8392 32.3303 57.4083 32.0087 58.0933C31.6872 58.7783 31.5848 59.5458 31.7154 60.2911C31.846 61.0364 32.2033 61.7233 32.7386 62.2581C33.2739 62.7929 33.9611 63.1496 34.7065 63.2795C35.452 63.4095 36.2194 63.3064 36.904 62.9842C37.5887 62.6621 38.1574 62.1366 38.5325 61.4794C38.9076 60.8222 39.0708 60.0654 39 59.312L39.019 59.33C38.9659 58.7002 39.0508 58.0663 39.2679 57.4727C39.485 56.879 39.829 56.3399 40.276 55.8929C40.7229 55.446 41.262 55.102 41.8557 54.8849C42.4493 54.6678 43.0832 54.5828 43.713 54.636L43.694 54.618C44.3095 54.6734 44.9289 54.5725 45.495 54.3246C46.0611 54.0768 46.5554 53.6902 46.9322 53.2004C47.3091 52.7107 47.5562 52.1337 47.6507 51.5231C47.7452 50.9124 47.684 50.2878 47.4727 49.7071C47.2615 49.1263 46.9072 48.6083 46.4425 48.201C45.9778 47.7937 45.4177 47.5104 44.8143 47.3771C44.2109 47.2439 43.5837 47.2651 42.9907 47.4389C42.3977 47.6126 41.8581 47.9332 41.422 48.371H41.419Z" fill="#424242"/>
<path d="M34.042 53.636L34.023 53.618C34.5584 53.6719 35.099 53.6062 35.6058 53.4256C36.1126 53.245 36.573 52.9541 36.9536 52.5738C37.3342 52.1935 37.6255 51.7333 37.8065 51.2266C37.9875 50.7199 38.0536 50.1794 38 49.644L38.019 49.662C37.9659 49.0321 38.0508 48.3983 38.2679 47.8046C38.485 47.211 38.829 46.6719 39.276 46.2249C39.7229 45.778 40.262 45.4339 40.8557 45.2169C41.4493 44.9998 42.0832 44.9148 42.713 44.968L42.694 44.95C43.4475 45.0208 44.2045 44.8574 44.8617 44.4821C45.5189 44.1068 46.0443 43.538 46.3663 42.8531C46.6884 42.1682 46.7913 41.4007 46.661 40.6552C46.5308 39.9097 46.1738 39.2225 45.6387 38.6874C45.1035 38.1522 44.4163 37.7952 43.6708 37.665C42.9253 37.5347 42.1578 37.6377 41.4729 37.9597C40.7881 38.2817 40.2192 38.8071 39.8439 39.4643C39.4687 40.1216 39.3053 40.8785 39.376 41.632L39.358 41.613C39.4114 42.2429 39.3266 42.8768 39.1095 43.4706C38.8925 44.0643 38.5485 44.6035 38.1015 45.0505C37.6545 45.4974 37.1153 45.8415 36.5216 46.0585C35.9279 46.2755 35.2939 46.3603 34.664 46.307L34.682 46.326C34.1467 46.2721 33.6061 46.3378 33.0992 46.5184C32.5924 46.6989 32.1321 46.9899 31.7515 47.3702C31.3709 47.7505 31.0796 48.2107 30.8986 48.7174C30.7176 49.2241 30.6515 49.7646 30.705 50.3L30.687 50.282C30.74 50.9118 30.655 51.5456 30.4378 52.1392C30.2207 52.7327 29.8766 53.2718 29.4297 53.7187C28.9828 54.1656 28.4438 54.5096 27.8502 54.7268C27.2566 54.9439 26.6228 55.029 25.993 54.976L26.011 54.994C25.2575 54.9232 24.5006 55.0866 23.8434 55.4619C23.1862 55.8372 22.6607 56.406 22.3387 57.0909C22.0167 57.7758 21.9138 58.5433 22.044 59.2888C22.1742 60.0343 22.5313 60.7215 23.0664 61.2566C23.6015 61.7918 24.2887 62.1488 25.0342 62.279C25.7797 62.4092 26.5473 62.3063 27.2321 61.9843C27.917 61.6623 28.4859 61.1369 28.8611 60.4797C29.2364 59.8224 29.3998 59.0655 29.329 58.312L29.348 58.33C29.2949 57.7001 29.3798 57.0663 29.5969 56.4726C29.814 55.879 30.158 55.3399 30.605 54.8929C31.0519 54.446 31.591 54.1019 32.1847 53.8849C32.7783 53.6678 33.4122 53.5828 34.042 53.636V53.636Z" fill="#424242"/>
<path d="M27.34 51.6289C27.719 51.2477 28.0092 50.7875 28.1899 50.2812C28.3705 49.7749 28.4371 49.235 28.385 48.6999L28.404 48.7179C28.3508 48.0879 28.4358 47.4539 28.653 46.8601C28.8702 46.2663 29.2144 45.727 29.6616 45.2801C30.1088 44.8331 30.6481 44.4891 31.242 44.2721C31.8359 44.0552 32.47 43.9705 33.1 44.0239L33.081 44.0059C33.8342 44.0765 34.5909 43.913 35.2478 43.5378C35.9047 43.1625 36.4299 42.5938 36.7517 41.9092C37.0735 41.2245 37.1763 40.4573 37.0461 39.712C36.9159 38.9668 36.559 38.2799 36.024 37.7449C35.4891 37.21 34.8022 36.8531 34.0569 36.7229C33.3117 36.5926 32.5445 36.6954 31.8598 37.0173C31.1751 37.3391 30.6064 37.8643 30.2312 38.5212C29.8559 39.1781 29.6925 39.9347 29.763 40.6879L29.745 40.6699C29.7982 41.2998 29.7133 41.9337 29.4962 42.5273C29.2791 43.1209 28.935 43.6601 28.4881 44.107C28.0411 44.554 27.502 44.898 26.9084 45.1151C26.3147 45.3322 25.6809 45.4171 25.051 45.3639L25.069 45.3819C24.4536 45.3268 23.8342 45.4278 23.2682 45.6757C22.7022 45.9236 22.208 46.3104 21.8313 46.8002C21.4546 47.29 21.2076 47.8669 21.1132 48.4776C21.0188 49.0882 21.0801 49.7128 21.2914 50.2935C21.5027 50.8741 21.8571 51.3921 22.3218 51.7993C22.7866 52.2065 23.3466 52.4898 23.9499 52.623C24.5533 52.7562 25.1805 52.7349 25.7735 52.5611C26.3665 52.3874 26.906 52.0667 27.342 51.6289H27.34Z" fill="#424242"/>
<path d="M58.317 41.655H61.287V56.108H58.317V41.655Z" fill="#424242"/>
<path d="M62.969 51.159C62.9649 50.1204 63.269 49.1038 63.8431 48.2382C64.4171 47.3726 65.2351 46.6968 66.1935 46.2964C67.1519 45.8961 68.2075 45.7892 69.2267 45.9893C70.2459 46.1893 71.1828 46.6874 71.9187 47.4204C72.6546 48.1533 73.1564 49.0882 73.3606 50.1066C73.5648 51.125 73.4621 52.1811 73.0656 53.1411C72.6691 54.101 71.9966 54.9218 71.1333 55.4992C70.2699 56.0767 69.2547 56.385 68.216 56.385C67.5266 56.3929 66.8424 56.2632 66.2037 56.0036C65.5649 55.744 64.9843 55.3597 64.4958 54.8731C64.0072 54.3866 63.6206 53.8075 63.3585 53.1698C63.0963 52.5321 62.9639 51.8485 62.969 51.159V51.159ZM70.493 51.159C70.4806 50.7113 70.3365 50.2772 70.0788 49.9109C69.821 49.5447 69.461 49.2625 69.0438 49.0998C68.6265 48.937 68.1706 48.9008 67.7329 48.9958C67.2952 49.0908 66.8952 49.3126 66.5829 49.6337C66.2707 49.9547 66.0599 50.3607 65.9771 50.8009C65.8943 51.241 65.9431 51.6958 66.1174 52.1084C66.2917 52.5209 66.5837 52.873 66.9569 53.1205C67.3302 53.368 67.7681 53.5 68.216 53.5C68.5227 53.5082 68.8278 53.4527 69.112 53.3371C69.3963 53.2215 69.6535 53.0483 69.8674 52.8284C70.0813 52.6084 70.2474 52.3465 70.355 52.0592C70.4627 51.7719 70.5097 51.4654 70.493 51.159V51.159Z" fill="#424242"/>
<path d="M85.3 46.2089V55.6089C85.3 58.9349 82.706 60.3409 80.073 60.3409C79.146 60.4103 78.2177 60.2231 77.3901 59.7997C76.5624 59.3764 75.8673 58.7333 75.381 57.9409L77.915 56.4759C78.1194 56.889 78.4451 57.2297 78.8485 57.4525C79.2518 57.6754 79.7136 57.7697 80.172 57.7229C80.465 57.7635 80.7634 57.7377 81.0451 57.6475C81.3268 57.5572 81.5845 57.4047 81.7993 57.2013C82.0141 56.998 82.1805 56.7489 82.286 56.4726C82.3915 56.1962 82.4336 55.8997 82.409 55.6049V54.6999C82.0613 55.1255 81.6186 55.4636 81.1165 55.6871C80.6145 55.9106 80.067 56.0133 79.518 55.9869C78.2118 55.9458 76.9729 55.3979 76.0635 54.4594C75.1541 53.5209 74.6456 52.2653 74.6456 50.9584C74.6456 49.6516 75.1541 48.396 76.0635 47.4575C76.9729 46.519 78.2118 45.9711 79.518 45.9299C80.067 45.9036 80.6145 46.0063 81.1165 46.2298C81.6186 46.4533 82.0613 46.7914 82.409 47.2169V46.2069L85.3 46.2089ZM82.41 50.9599C82.43 50.4813 82.3063 50.0076 82.0548 49.5999C81.8032 49.1922 81.4355 48.8691 80.9988 48.6721C80.562 48.4752 80.0764 48.4134 79.6043 48.4949C79.1322 48.5763 78.6953 48.7971 78.3498 49.1289C78.0042 49.4607 77.7659 49.8884 77.6655 50.3568C77.565 50.8252 77.6071 51.3129 77.7862 51.7573C77.9653 52.2016 78.2733 52.5821 78.6705 52.8499C79.0677 53.1177 79.536 53.2605 80.015 53.2599C80.3271 53.2817 80.6403 53.2379 80.9343 53.1313C81.2284 53.0247 81.4969 52.8577 81.7226 52.641C81.9482 52.4243 82.1259 52.1628 82.2443 51.8733C82.3627 51.5838 82.4192 51.2726 82.41 50.9599V50.9599Z" fill="#424242"/>
<path d="M86.982 51.159C86.9778 50.1204 87.282 49.1038 87.856 48.2382C88.43 47.3726 89.248 46.6968 90.2064 46.2964C91.1648 45.8961 92.2205 45.7892 93.2397 45.9893C94.2589 46.1893 95.1957 46.6874 95.9317 47.4204C96.6676 48.1533 97.1694 49.0882 97.3735 50.1066C97.5777 51.125 97.475 52.1811 97.0785 53.1411C96.682 54.101 96.0095 54.9218 95.1462 55.4992C94.2829 56.0767 93.2676 56.385 92.2289 56.385C91.5395 56.3929 90.8554 56.2632 90.2166 56.0036C89.5778 55.744 88.9972 55.3597 88.5087 54.8731C88.0202 54.3866 87.6335 53.8075 87.3714 53.1698C87.1093 52.5321 86.9769 51.8485 86.982 51.159V51.159ZM94.5059 51.159C94.4936 50.7113 94.3495 50.2772 94.0917 49.9109C93.834 49.5447 93.4739 49.2625 93.0567 49.0998C92.6395 48.937 92.1835 48.9008 91.7458 48.9958C91.3081 49.0908 90.9081 49.3126 90.5959 49.6337C90.2836 49.9547 90.0729 50.3607 89.9901 50.8009C89.9073 51.241 89.9561 51.6958 90.1303 52.1084C90.3046 52.5209 90.5966 52.873 90.9699 53.1205C91.3431 53.368 91.7811 53.5 92.2289 53.5C92.5357 53.5082 92.8408 53.4527 93.125 53.3371C93.4092 53.2215 93.6664 53.0483 93.8803 52.8284C94.0943 52.6084 94.2603 52.3465 94.368 52.0592C94.4757 51.7719 94.5226 51.4654 94.5059 51.159Z" fill="#424242"/>
<path d="M98.861 43.5561C98.861 43.2036 98.9655 42.8591 99.1613 42.566C99.3571 42.273 99.6354 42.0446 99.961 41.9097C100.287 41.7748 100.645 41.7395 100.991 41.8083C101.336 41.877 101.654 42.0468 101.903 42.296C102.152 42.5452 102.322 42.8627 102.391 43.2084C102.459 43.5541 102.424 43.9124 102.289 44.238C102.154 44.5636 101.926 44.8419 101.633 45.0377C101.34 45.2335 100.995 45.3381 100.643 45.3381C100.172 45.3334 99.7213 45.1441 99.3881 44.8109C99.0549 44.4778 98.8657 44.0272 98.861 43.5561V43.5561ZM99.161 46.209H102.132V56.1091H99.157L99.161 46.209Z" fill="#424242"/>
<path d="M114.956 51.159C114.99 51.8133 114.895 52.4679 114.675 53.0852C114.456 53.7025 114.117 54.2703 113.677 54.756C113.237 55.2417 112.706 55.6356 112.113 55.9152C111.52 56.1948 110.879 56.3544 110.224 56.385C109.674 56.4151 109.124 56.3222 108.613 56.1133C108.103 55.9044 107.646 55.5845 107.275 55.177V60.068H104.305V46.209H107.275V47.139C107.646 46.7318 108.104 46.4123 108.614 46.2035C109.124 45.9947 109.674 45.902 110.224 45.932C110.879 45.9625 111.521 46.1221 112.113 46.4017C112.706 46.6813 113.238 47.0753 113.677 47.5611C114.117 48.0469 114.457 48.6149 114.676 49.2324C114.895 49.8499 114.991 50.5046 114.956 51.159V51.159ZM111.986 51.159C111.974 50.6957 111.826 50.2461 111.561 49.8665C111.295 49.4868 110.923 49.1941 110.491 49.0248C110.06 48.8555 109.588 48.8173 109.135 48.9148C108.682 49.0123 108.268 49.2414 107.944 49.5732C107.62 49.905 107.402 50.3249 107.316 50.7803C107.23 51.2357 107.28 51.7064 107.46 52.1334C107.64 52.5605 107.942 52.9249 108.328 53.1812C108.714 53.4374 109.168 53.5741 109.631 53.574C109.949 53.5882 110.267 53.5349 110.563 53.4178C110.859 53.3006 111.127 53.1221 111.35 52.8941C111.572 52.6661 111.744 52.3936 111.853 52.0946C111.963 51.7956 112.008 51.4768 111.986 51.159V51.159Z" fill="#424242"/>
<path d="M124.121 53.138C124.121 55.415 122.142 56.385 120.004 56.385C119.14 56.4632 118.273 56.2805 117.514 55.8605C116.755 55.4405 116.139 54.8025 115.747 54.029L118.32 52.564C118.424 52.9215 118.648 53.2325 118.953 53.4451C119.259 53.6577 119.629 53.7589 120 53.732C120.712 53.732 121.069 53.514 121.069 53.119C121.069 52.029 116.198 52.604 116.198 49.179C116.198 47.02 118.02 45.932 120.079 45.932C120.853 45.9075 121.619 46.0911 122.298 46.4636C122.977 46.8361 123.544 47.384 123.939 48.05L121.405 49.416C121.294 49.1567 121.109 48.9358 120.873 48.7809C120.637 48.626 120.361 48.544 120.079 48.545C119.564 48.545 119.247 48.745 119.247 49.099C119.251 50.228 124.121 49.475 124.121 53.138Z" fill="#424242"/>
<path d="M134.97 46.209V56.109H132V55.178C131.657 55.5888 131.222 55.9125 130.73 56.1225C130.238 56.3325 129.704 56.4228 129.17 56.386C127.17 56.386 125.47 54.961 125.47 52.286V46.209H128.44V51.851C128.415 52.0868 128.442 52.3251 128.519 52.5495C128.595 52.7739 128.72 52.9788 128.884 53.1502C129.048 53.3215 129.247 53.455 129.468 53.5415C129.688 53.628 129.925 53.6654 130.162 53.651C131.251 53.651 132.003 53.018 132.003 51.612V46.212L134.97 46.209Z" fill="#424242"/>
<path d="M152 50.03V56.108H149.03V50.287C149.03 49.297 148.555 48.664 147.605 48.664C146.615 48.664 146.06 49.357 146.06 50.525V56.108H143.091V50.287C143.091 49.297 142.616 48.664 141.665 48.664C140.675 48.664 140.121 49.357 140.121 50.525V56.108H137.151V46.208H140.121V47.118C140.429 46.7143 140.833 46.3941 141.296 46.1868C141.76 45.9794 142.268 45.8915 142.774 45.931C143.282 45.9061 143.788 46.0134 144.243 46.2422C144.697 46.4711 145.084 46.8138 145.367 47.237C145.696 46.7943 146.132 46.4423 146.634 46.2139C147.136 45.9855 147.688 45.8882 148.238 45.931C150.511 45.932 152 47.555 152 50.03Z" fill="#424242"/>
<path d="M154.512 46.148C155.729 46.148 156.716 45.1612 156.716 43.944C156.716 42.7268 155.729 41.74 154.512 41.74C153.295 41.74 152.308 42.7268 152.308 43.944C152.308 45.1612 153.295 46.148 154.512 46.148Z" fill="#424242"/>
</svg>
