<svg width="178" height="100" viewBox="0 0 178 100" fill="none" xmlns="http://www.w3.org/2000/svg">
<path d="M63.87 44.0699H66.87V56.1999H63.87V44.0699ZM68.06 51.6199C68.06 48.6199 69.9 46.8299 72.74 46.8299C75.58 46.8299 77.42 48.6199 77.42 51.6199C77.42 54.6199 75.62 56.4199 72.74 56.4199C69.86 56.4199 68.06 54.6699 68.06 51.6199ZM74.41 51.6199C74.41 49.9699 73.76 48.9999 72.74 48.9999C71.72 48.9999 71.08 49.9999 71.08 51.6199C71.08 53.2399 71.71 54.2199 72.74 54.2199C73.77 54.2199 74.41 53.2999 74.41 51.6299V51.6199ZM78.55 56.7899H81.43C81.5671 57.0944 81.7988 57.3465 82.0907 57.5087C82.3826 57.6709 82.7191 57.7344 83.05 57.6899C84.19 57.6899 84.79 57.0699 84.79 56.1699V54.4899H84.73C84.491 55.0048 84.1031 55.4363 83.6165 55.7286C83.1299 56.0209 82.5668 56.1607 82 56.1299C79.81 56.1299 78.36 54.4599 78.36 51.5899C78.36 48.7199 79.74 46.9099 82.04 46.9099C82.6246 46.887 83.2022 47.0433 83.6955 47.3579C84.1888 47.6724 84.5742 48.1302 84.8 48.6699V48.6699V46.9999H87.8V56.0999C87.8 58.2899 85.87 59.6499 83.02 59.6499C80.37 59.6499 78.72 58.4599 78.55 56.7999V56.7899ZM84.8 51.6099C84.8 50.1499 84.13 49.2299 83.07 49.2299C82.01 49.2299 81.36 50.1399 81.36 51.6099C81.36 53.0799 82 53.9099 83.07 53.9099C84.14 53.9099 84.8 53.0999 84.8 51.6199V51.6099ZM88.93 51.6099C88.93 48.6099 90.77 46.8199 93.61 46.8199C96.45 46.8199 98.3 48.6099 98.3 51.6099C98.3 54.6099 96.5 56.4099 93.61 56.4099C90.72 56.4099 88.93 54.6699 88.93 51.6199V51.6099ZM95.28 51.6099C95.28 49.9599 94.63 48.9899 93.61 48.9899C92.59 48.9899 92 49.9999 92 51.6299C92 53.2599 92.63 54.2299 93.65 54.2299C94.67 54.2299 95.28 53.2999 95.28 51.6299V51.6099ZM99.44 44.8199C99.4321 44.517 99.5144 44.2186 99.6763 43.9625C99.8383 43.7065 100.073 43.5042 100.35 43.3814C100.627 43.2587 100.934 43.2209 101.232 43.273C101.531 43.325 101.807 43.4646 102.026 43.6738C102.245 43.8831 102.397 44.1527 102.463 44.4485C102.529 44.7443 102.505 45.0529 102.395 45.3353C102.285 45.6177 102.094 45.861 101.846 46.0345C101.597 46.208 101.303 46.3039 101 46.3099C100.799 46.3237 100.598 46.2959 100.408 46.2281C100.219 46.1603 100.045 46.054 99.8987 45.9159C99.7522 45.7779 99.6358 45.6111 99.5569 45.4259C99.4779 45.2407 99.4381 45.0412 99.44 44.8399V44.8199ZM99.44 47.0199H102.44V56.1999H99.44V47.0199ZM113.33 51.6099C113.33 54.6099 112 56.3199 109.72 56.3199C109.135 56.3575 108.553 56.2146 108.053 55.9105C107.552 55.6065 107.156 55.156 106.92 54.6199H106.86V59.1399H103.86V46.9999H106.86V48.6399H106.92C107.145 48.0951 107.533 47.6328 108.031 47.3161C108.528 46.9994 109.111 46.8436 109.7 46.8699C112 46.9099 113.37 48.6299 113.37 51.6299L113.33 51.6099ZM110.33 51.6099C110.33 50.1499 109.66 49.2199 108.61 49.2199C107.56 49.2199 106.89 50.1599 106.88 51.6099C106.87 53.0599 107.56 53.9899 108.61 53.9899C109.66 53.9899 110.33 53.0799 110.33 51.6299V51.6099ZM118.48 46.8099C120.97 46.8099 122.48 47.9899 122.55 49.8799H119.82C119.82 49.2299 119.28 48.8199 118.45 48.8199C117.62 48.8199 117.25 49.1399 117.25 49.6099C117.25 50.0799 117.58 50.2299 118.25 50.3699L120.17 50.7599C122 51.1499 122.78 51.8899 122.78 53.2799C122.78 55.1799 121.05 56.3999 118.5 56.3999C115.95 56.3999 114.28 55.1799 114.15 53.3099H117.04C117.13 53.9899 117.67 54.3899 118.55 54.3899C119.43 54.3899 119.83 54.0999 119.83 53.6199C119.83 53.1399 119.55 53.0399 118.83 52.8899L117.1 52.5199C115.31 52.1499 114.37 51.1999 114.37 49.7999C114.39 47.9999 116 46.8299 118.48 46.8299V46.8099ZM132.79 56.1799H129.9V54.4699H129.84C129.681 55.0441 129.331 55.5466 128.847 55.894C128.363 56.2415 127.775 56.4129 127.18 56.3799C126.724 56.4058 126.268 56.3336 125.843 56.1681C125.417 56.0027 125.032 55.7478 124.714 55.4207C124.395 55.0937 124.151 54.7021 123.996 54.2724C123.842 53.8427 123.782 53.3849 123.82 52.9299V46.9999H126.82V52.2399C126.82 53.3299 127.38 53.9099 128.31 53.9099C128.528 53.9104 128.744 53.8642 128.943 53.7745C129.141 53.6848 129.319 53.5536 129.463 53.3898C129.606 53.226 129.714 53.0333 129.777 52.8246C129.84 52.6159 129.859 52.3961 129.83 52.1799V46.9999H132.83L132.79 56.1799ZM134.24 46.9999H137.14V48.7699H137.2C137.359 48.2034 137.702 47.7057 138.174 47.3546C138.646 47.0036 139.222 46.8191 139.81 46.8299C140.409 46.782 141.003 46.9611 141.476 47.3317C141.948 47.7023 142.264 48.2372 142.36 48.8299H142.42C142.601 48.2309 142.977 47.7092 143.488 47.3471C143.998 46.985 144.615 46.8031 145.24 46.8299C145.648 46.8162 146.054 46.8885 146.432 47.0421C146.811 47.1957 147.152 47.4271 147.435 47.7214C147.718 48.0156 147.936 48.3661 148.075 48.75C148.213 49.134 148.27 49.5428 148.24 49.9499V56.1999H145.24V50.7499C145.24 49.7499 144.79 49.2899 143.95 49.2899C143.763 49.2884 143.577 49.327 143.406 49.4032C143.235 49.4794 143.082 49.5914 142.958 49.7316C142.834 49.8719 142.741 50.0372 142.686 50.2163C142.631 50.3954 142.616 50.5842 142.64 50.7699V56.1999H139.79V50.7099C139.79 49.7899 139.34 49.2899 138.52 49.2899C138.331 49.29 138.143 49.3302 137.971 49.408C137.798 49.4857 137.643 49.5992 137.518 49.7409C137.392 49.8827 137.298 50.0495 137.241 50.2303C137.185 50.4111 137.167 50.6019 137.19 50.7899V56.1999H134.19L134.24 46.9999Z" fill="#424242"/>
<path d="M55.48 44.62C54.9711 43.4564 54.2975 42.3719 53.48 41.4C52.2714 39.9204 50.7632 38.7134 49.0546 37.8586C47.346 37.0038 45.4758 36.5206 43.567 36.4407C41.6582 36.3608 39.7541 36.686 37.98 37.395C36.2059 38.104 34.6021 39.1807 33.2742 40.5541C31.9462 41.9276 30.9241 43.5668 30.2753 45.3637C29.6264 47.1606 29.3655 49.0746 29.5096 50.9796C29.6538 52.8847 30.1997 54.7376 31.1116 56.4164C32.0234 58.0953 33.2805 59.562 34.8 60.72C35.775 61.4779 36.8523 62.094 38 62.55C39.609 63.2094 41.3311 63.549 43.07 63.55C46.6594 63.5421 50.0992 62.1113 52.6354 59.5713C55.1717 57.0314 56.5973 53.5894 56.6 50C56.6026 48.1485 56.2213 46.3166 55.48 44.62V44.62ZM43.06 39.19C44.6215 39.1898 46.1642 39.5311 47.58 40.19V40.19C47.2347 40.3392 46.8718 40.4434 46.5 40.5C45.2766 40.6771 44.1432 41.2451 43.2691 42.1192C42.3951 42.9933 41.8271 44.1266 41.65 45.35C41.5722 46.0361 41.2602 46.6744 40.7665 47.1572C40.2728 47.64 39.6277 47.9377 38.94 48C37.7166 48.1771 36.5832 48.7451 35.7091 49.6192C34.8351 50.4933 34.2671 51.6266 34.09 52.85C34.03 53.5024 33.7517 54.1155 33.3 54.59V54.59C32.5206 52.9433 32.1705 51.1261 32.2822 49.3077C32.394 47.4893 32.9639 45.7287 33.9389 44.1898C34.914 42.6508 36.2625 41.3835 37.859 40.5059C39.4555 39.6282 41.2481 39.1687 43.07 39.17L43.06 39.19ZM34.79 57C34.91 56.89 35.03 56.79 35.15 56.67C36.0396 55.8075 36.6107 54.6689 36.77 53.44C36.8346 52.7493 37.143 52.1041 37.64 51.62C38.1182 51.1222 38.7619 50.8163 39.45 50.76C40.6734 50.5829 41.8067 50.0149 42.6808 49.1408C43.5549 48.2667 44.1229 47.1334 44.3 45.91C44.3432 45.1875 44.6533 44.5069 45.17 44C45.66 43.5119 46.3099 43.2171 47 43.17C48.1239 43.0154 49.1721 42.5157 50 41.74C50.9426 42.5221 51.7413 43.4629 52.36 44.52C52.322 44.5714 52.2784 44.6183 52.23 44.66C51.7526 45.1622 51.1098 45.4748 50.42 45.54C49.1953 45.714 48.0603 46.281 47.1856 47.1557C46.311 48.0303 45.744 49.1654 45.57 50.39C45.4995 51.0784 45.1932 51.7213 44.7029 52.2098C44.2127 52.6982 43.5687 53.0021 42.88 53.07C41.653 53.2458 40.5154 53.8126 39.6363 54.6863C38.7571 55.5601 38.1833 56.6941 38 57.92C37.9462 58.4087 37.7783 58.878 37.51 59.29C36.484 58.6808 35.5651 57.9072 34.79 57V57ZM43.06 60.86C42.0452 60.8611 41.0354 60.7197 40.06 60.44C40.3936 59.818 40.6106 59.1402 40.7 58.44C40.7701 57.7531 41.0749 57.1114 41.5632 56.6232C42.0514 56.135 42.6931 55.8301 43.38 55.76C44.6052 55.5849 45.7408 55.0178 46.6168 54.1435C47.4929 53.2693 48.0624 52.1349 48.24 50.91C48.3101 50.2231 48.6149 49.5814 49.1032 49.0932C49.5914 48.605 50.2331 48.3001 50.92 48.23C51.842 48.1101 52.7208 47.7668 53.48 47.23C53.9015 48.8279 53.9515 50.5012 53.626 52.1214C53.3004 53.7416 52.6081 55.2657 51.6021 56.5768C50.5961 57.8879 49.3031 58.9511 47.8224 59.6849C46.3417 60.4187 44.7125 60.8036 43.06 60.81V60.86Z" fill="#424242"/>
</svg>
