<svg width="177" height="100" viewBox="0 0 177 100" fill="none" xmlns="http://www.w3.org/2000/svg">
<path fill-rule="evenodd" clip-rule="evenodd" d="M89.6757 34.4075C91.0635 33.0198 93.3135 33.0198 94.7013 34.4075C96.0891 35.7953 96.0891 38.0453 94.7013 39.4331L86.2404 47.894C83.8112 44.6384 84.0751 40.0082 87.0321 37.0512L89.6757 34.4075Z" fill="#424242"/>
<path fill-rule="evenodd" clip-rule="evenodd" d="M101.771 53.4967C103.159 54.8844 103.159 57.1345 101.771 58.5222C100.384 59.91 98.1336 59.91 96.7458 58.5222L88.2849 50.0614C91.5405 47.6322 96.1707 47.896 99.1277 50.853L101.771 53.4967Z" fill="#E2E2E2"/>
<path fill-rule="evenodd" clip-rule="evenodd" d="M82.6821 65.5924C81.2944 66.9802 79.0443 66.9802 77.6566 65.5924C76.2688 64.2046 76.2688 61.9546 77.6566 60.5668L86.1174 52.106C88.5466 55.3616 88.2828 59.9918 85.3258 62.9487L82.6821 65.5924Z" fill="#8A8A8A"/>
<path fill-rule="evenodd" clip-rule="evenodd" d="M70.5866 46.5032C69.1988 45.1154 69.1988 42.8654 70.5866 41.4776C71.9744 40.0898 74.2244 40.0898 75.6122 41.4776L84.0731 49.9385C80.8175 52.3677 76.1872 52.1038 73.2303 49.1469L70.5866 46.5032Z" fill="#F2F2F2"/>
<path fill-rule="evenodd" clip-rule="evenodd" d="M87.7848 64.5562C89.8311 62.281 90.7822 59.3697 90.6379 56.5033L94.7013 60.5667C94.7114 60.5768 94.7216 60.5869 94.7318 60.597V63.498C94.7318 65.4606 93.1408 67.0516 91.1782 67.0516C89.5841 67.0516 88.2352 66.002 87.7848 64.5562Z" fill="#F2F2F2"/>
<path fill-rule="evenodd" clip-rule="evenodd" d="M71.6227 51.6058C73.8978 53.6522 76.8091 54.6033 79.6755 54.459L75.6122 58.5224C75.602 58.5325 75.5919 58.5427 75.5819 58.5528H72.6809C70.7183 58.5529 69.1273 56.9618 69.1273 54.9992C69.1273 53.4052 70.1769 52.0562 71.6227 51.6058Z" fill="#424242"/>
<path fill-rule="evenodd" clip-rule="evenodd" d="M100.735 48.3942C98.4601 46.3478 95.5488 45.3967 92.6824 45.5409L96.7457 41.4776C96.7559 41.4675 96.7659 41.4573 96.776 41.4471H99.6771C101.64 41.4471 103.231 43.0382 103.231 45.0008C103.231 46.5949 102.181 47.9438 100.735 48.3942Z" fill="#8A8A8A"/>
<path fill-rule="evenodd" clip-rule="evenodd" d="M84.5731 35.4437C82.5267 37.7188 81.5757 40.6301 81.7199 43.4966L77.6566 39.4332C77.6464 39.4231 77.6363 39.413 77.6261 39.4029V36.5019C77.6261 34.5393 79.2171 32.9482 81.1797 32.9482C82.7738 32.9482 84.1227 33.9979 84.5731 35.4437Z" fill="#E2E2E2"/>
<path fill-rule="evenodd" clip-rule="evenodd" d="M81.1797 30.057C77.6203 30.057 74.7348 32.9425 74.7348 36.5019V37.7554C72.5934 37.1959 70.2202 37.7551 68.5421 39.4332C66.0252 41.9501 66.0252 46.0308 68.5421 48.5477L69.4284 49.434C67.5186 50.5526 66.236 52.6261 66.236 54.9992C66.236 58.5586 69.1215 61.4441 72.6809 61.4441H73.9343C73.3748 63.5855 73.934 65.9587 75.6121 67.6367C78.129 70.1536 82.2097 70.1536 84.7266 67.6367L87.3702 64.9931C89.7023 62.661 90.7915 59.5566 90.6378 56.5032L94.7013 60.5666C97.2182 63.0835 101.299 63.0835 103.816 60.5666C106.333 58.0497 106.333 53.969 103.816 51.4522L102.93 50.566C104.839 49.4474 106.122 47.3739 106.122 45.0008C106.122 41.4414 103.236 38.5559 99.677 38.5559H98.4235C98.9831 36.4144 98.4238 34.0412 96.7457 32.3631C94.2289 29.8462 90.1482 29.8462 87.6313 32.3631L84.9876 35.0068C82.6555 37.3389 81.5663 40.4432 81.72 43.4966L77.6566 39.4332C77.6464 39.4231 77.6363 39.413 77.6261 39.4029V36.5019C77.6261 34.5393 79.2171 32.9483 81.1797 32.9483C82.7738 32.9483 84.1227 33.9979 84.5731 35.4437C84.7066 35.2953 84.8447 35.1496 84.9875 35.0068L86.7449 33.2494C85.6263 31.3396 83.5528 30.057 81.1797 30.057ZM96.776 41.4472C96.7659 41.4573 96.7559 41.4675 96.7457 41.4776L92.6824 45.5409C95.5489 45.3967 98.4601 46.3477 100.735 48.3942C102.181 47.9438 103.231 46.5948 103.231 45.0008C103.231 43.0382 101.64 41.4472 99.677 41.4472H96.776ZM75.5817 58.5528C75.5918 58.5426 75.6019 58.5324 75.6121 58.5223L79.6754 54.4589C76.809 54.6032 73.8978 53.6521 71.6227 51.6058C70.1769 52.0562 69.1272 53.4051 69.1272 54.9992C69.1272 56.9618 70.7183 58.5528 72.6809 58.5528H75.5817ZM71.5119 51.5048C71.4016 51.4029 71.2929 51.2984 71.1858 51.1913V51.1914C71.2929 51.2985 71.4016 51.4029 71.5119 51.5048ZM91.1782 69.943C88.805 69.943 86.7315 68.6603 85.6129 66.7505L87.3702 64.9931C87.5131 64.8503 87.6512 64.7046 87.7847 64.5562C88.2351 66.002 89.584 67.0517 91.1782 67.0517C93.1408 67.0517 94.7318 65.4607 94.7318 63.4981V60.5971C95.5646 61.419 96.5656 61.9682 97.6231 62.2445V63.4981C97.6231 67.0575 94.7376 69.943 91.1782 69.943ZM94.7013 34.4075C93.3135 33.0198 91.0635 33.0198 89.6757 34.4075L87.032 37.0512C84.0751 40.0082 83.8112 44.6384 86.2404 47.894L94.7013 39.4331C96.0891 38.0453 96.0891 35.7953 94.7013 34.4075ZM101.771 58.5222C103.159 57.1344 103.159 54.8844 101.771 53.4966L99.1276 50.8529C96.1707 47.896 91.5404 47.6321 88.2848 50.0613L96.7457 58.5222C98.1335 59.91 100.384 59.91 101.771 58.5222ZM82.6821 65.5923C81.2943 66.9801 79.0443 66.9801 77.6565 65.5923C76.2688 64.2045 76.2688 61.9545 77.6565 60.5667L86.1174 52.1058C88.5466 55.3614 88.2827 59.9917 85.3258 62.9486L82.6821 65.5923ZM70.5865 41.4776C69.1988 42.8654 69.1988 45.1154 70.5865 46.5032L73.2302 49.1469C76.1872 52.1038 80.8174 52.3677 84.073 49.9385L75.6121 41.4776C74.2243 40.0899 71.9743 40.0899 70.5865 41.4776Z" fill="#1A1A1A"/>
<path d="M18.5326 43.0898H21.6932V52.911H27.1216V55.5716H18.5326V43.0898Z" fill="#1A1A1A"/>
<path d="M32.8602 55.8394C31.8007 55.8394 30.8721 55.6489 30.0745 55.268C29.2769 54.8751 28.6579 54.3394 28.2174 53.6609C27.7889 52.9704 27.5746 52.1788 27.5746 51.2859C27.5746 50.3931 27.7889 49.6074 28.2174 48.9289C28.6579 48.2384 29.2769 47.7027 30.0745 47.3218C30.8721 46.9289 31.8007 46.7325 32.8602 46.7325C33.9197 46.7325 34.8482 46.9289 35.6458 47.3218C36.4434 47.7027 37.0565 48.2384 37.485 48.9289C37.9255 49.6074 38.1457 50.3931 38.1457 51.2859C38.1457 52.1788 37.9255 52.9704 37.485 53.6609C37.0565 54.3394 36.4434 54.8751 35.6458 55.268C34.8482 55.6489 33.9197 55.8394 32.8602 55.8394ZM32.8602 53.393C33.4911 53.393 33.9911 53.2085 34.3601 52.8395C34.7411 52.4585 34.9315 51.9407 34.9315 51.2859C34.9315 50.6312 34.7411 50.1193 34.3601 49.7503C33.9911 49.3693 33.4911 49.1789 32.8602 49.1789C32.2292 49.1789 31.7233 49.3693 31.3424 49.7503C30.9733 50.1193 30.7888 50.6312 30.7888 51.2859C30.7888 51.9407 30.9733 52.4585 31.3424 52.8395C31.7233 53.2085 32.2292 53.393 32.8602 53.393Z" fill="#1A1A1A"/>
<path d="M44.0492 59.6786C43.4778 59.6786 42.9004 59.625 42.3171 59.5179C41.7457 59.4107 41.2516 59.2679 40.835 59.0893V56.9108C41.7754 57.3155 42.8468 57.5179 44.0492 57.5179C44.9182 57.5179 45.5432 57.3393 45.9241 56.9822C46.317 56.6251 46.5134 56.1013 46.5134 55.4108V54.893C46.1682 55.1906 45.7396 55.4227 45.2277 55.5894C44.7277 55.7561 44.192 55.8394 43.6206 55.8394C42.7159 55.8394 41.9183 55.6489 41.2278 55.268C40.5374 54.887 39.9957 54.3513 39.6029 53.6609C39.2219 52.9704 39.0315 52.1788 39.0315 51.2859C39.0315 50.3812 39.2219 49.5836 39.6029 48.8932C39.9838 48.2027 40.5195 47.6729 41.21 47.3039C41.9004 46.923 42.6921 46.7325 43.5849 46.7325C44.8111 46.7325 45.8229 47.1075 46.6205 47.8575V47.0003H49.6562V54.9823C49.6562 56.4703 49.1978 57.6251 48.2812 58.4465C47.3765 59.2679 45.9658 59.6786 44.0492 59.6786ZM44.4063 53.4109C44.8944 53.4109 45.3289 53.2859 45.7098 53.0359C46.0908 52.7859 46.3586 52.4526 46.5134 52.0359V50.536C46.3467 50.1193 46.0729 49.7919 45.692 49.5538C45.311 49.3039 44.8825 49.1789 44.4063 49.1789C43.7635 49.1789 43.2456 49.3693 42.8528 49.7503C42.4599 50.1193 42.2635 50.6252 42.2635 51.2681C42.2635 51.9228 42.4599 52.4466 42.8528 52.8395C43.2456 53.2204 43.7635 53.4109 44.4063 53.4109Z" fill="#1A1A1A"/>
<path d="M55.739 55.8394C54.6795 55.8394 53.751 55.6489 52.9534 55.268C52.1558 54.8751 51.5367 54.3394 51.0963 53.6609C50.6677 52.9704 50.4534 52.1788 50.4534 51.2859C50.4534 50.3931 50.6677 49.6074 51.0963 48.9289C51.5367 48.2384 52.1558 47.7027 52.9534 47.3218C53.751 46.9289 54.6795 46.7325 55.739 46.7325C56.7985 46.7325 57.727 46.9289 58.5246 47.3218C59.3222 47.7027 59.9353 48.2384 60.3639 48.9289C60.8043 49.6074 61.0246 50.3931 61.0246 51.2859C61.0246 52.1788 60.8043 52.9704 60.3639 53.6609C59.9353 54.3394 59.3222 54.8751 58.5246 55.268C57.727 55.6489 56.7985 55.8394 55.739 55.8394ZM55.739 53.393C56.3699 53.393 56.8699 53.2085 57.239 52.8395C57.6199 52.4585 57.8104 51.9407 57.8104 51.2859C57.8104 50.6312 57.6199 50.1193 57.239 49.7503C56.8699 49.3693 56.3699 49.1789 55.739 49.1789C55.1081 49.1789 54.6021 49.3693 54.2212 49.7503C53.8521 50.1193 53.6676 50.6312 53.6676 51.2859C53.6676 51.9407 53.8521 52.4585 54.2212 52.8395C54.6021 53.2085 55.1081 53.393 55.739 53.393Z" fill="#1A1A1A"/>
<path d="M111.432 43.0898H114.593V55.5716H111.432V43.0898Z" fill="#1A1A1A"/>
<path d="M116.193 47.0003H119.229V47.8575C120.026 47.1075 121.038 46.7325 122.264 46.7325C123.157 46.7325 123.949 46.923 124.639 47.3039C125.33 47.6729 125.865 48.2027 126.246 48.8932C126.627 49.5717 126.818 50.3634 126.818 51.2681C126.818 52.1609 126.627 52.9585 126.246 53.6609C125.865 54.3513 125.33 54.887 124.639 55.268C123.961 55.6489 123.169 55.8394 122.264 55.8394C121.693 55.8394 121.145 55.7501 120.622 55.5715C120.11 55.4049 119.681 55.1727 119.336 54.8751V59.4821H116.193V47.0003ZM121.443 53.393C122.086 53.393 122.604 53.2026 122.996 52.8216C123.389 52.4407 123.586 51.9228 123.586 51.2681C123.586 50.6133 123.389 50.1015 122.996 49.7324C122.604 49.3515 122.086 49.161 121.443 49.161C120.967 49.161 120.538 49.286 120.157 49.536C119.776 49.7741 119.503 50.1015 119.336 50.5181V52.0359C119.503 52.4526 119.776 52.7859 120.157 53.0359C120.538 53.274 120.967 53.393 121.443 53.393Z" fill="#1A1A1A"/>
<path d="M131.503 55.8394C130.813 55.8394 130.093 55.768 129.343 55.6251C128.593 55.4942 127.997 55.3037 127.557 55.0537V52.7502C128.045 53.0359 128.628 53.274 129.307 53.4645C129.997 53.643 130.628 53.7323 131.2 53.7323C131.616 53.7323 131.92 53.7025 132.11 53.643C132.301 53.5835 132.396 53.4645 132.396 53.2859C132.396 53.143 132.331 53.0299 132.2 52.9466C132.081 52.8514 131.854 52.7561 131.521 52.6609C131.2 52.5538 130.825 52.4407 130.396 52.3216C129.67 52.1073 129.099 51.8871 128.682 51.6609C128.265 51.4347 127.956 51.149 127.753 50.8038C127.551 50.4586 127.45 50.0241 127.45 49.5003C127.45 48.5717 127.813 47.8813 128.539 47.4289C129.277 46.9646 130.283 46.7325 131.557 46.7325C132.176 46.7325 132.825 46.798 133.503 46.9289C134.194 47.0599 134.711 47.2325 135.057 47.4468V49.7146C134.7 49.4765 134.223 49.28 133.628 49.1253C133.045 48.9705 132.497 48.8932 131.985 48.8932C131.581 48.8932 131.265 48.9348 131.039 49.0181C130.813 49.0896 130.7 49.2205 130.7 49.411C130.7 49.5896 130.813 49.7265 131.039 49.8217C131.265 49.9169 131.67 50.036 132.253 50.1788C132.634 50.2741 132.795 50.3157 132.735 50.3038C133.497 50.5062 134.086 50.7324 134.503 50.9824C134.92 51.2324 135.211 51.53 135.378 51.8752C135.557 52.2085 135.646 52.6371 135.646 53.1609C135.646 53.9823 135.289 54.637 134.575 55.1251C133.872 55.6013 132.848 55.8394 131.503 55.8394Z" fill="#1A1A1A"/>
<path d="M140.338 55.8395C139.16 55.8395 138.273 55.5121 137.678 54.8574C137.095 54.2026 136.803 53.3396 136.803 52.2682V47.0004H139.946V51.911C139.946 52.8991 140.392 53.3931 141.285 53.3931C141.69 53.3931 142.059 53.2979 142.392 53.1074C142.725 52.9169 142.999 52.6372 143.213 52.2682V47.0004H146.356V55.5716H143.321V54.6431C142.952 55.0359 142.505 55.3335 141.981 55.5359C141.458 55.7383 140.91 55.8395 140.338 55.8395Z" fill="#1A1A1A"/>
<path d="M147.965 47.0003H150.876V47.9289C151.233 47.548 151.644 47.2563 152.108 47.0539C152.572 46.8396 153.066 46.7325 153.59 46.7325C154.233 46.7325 154.745 46.8277 155.126 47.0182C155.519 47.2087 155.834 47.4944 156.072 47.8753C156.429 47.5182 156.864 47.2384 157.376 47.0361C157.888 46.8337 158.406 46.7325 158.929 46.7325C160.06 46.7325 160.864 47.0242 161.34 47.6075C161.816 48.1789 162.054 49.0062 162.054 50.0895V55.5715H159.054V50.536C159.054 50.0598 158.965 49.7146 158.786 49.5003C158.608 49.286 158.31 49.1789 157.894 49.1789C157.358 49.1789 156.923 49.3693 156.59 49.7503C156.602 49.9526 156.608 50.2622 156.608 50.6788V55.5715H153.608V50.411C153.608 49.9705 153.531 49.655 153.376 49.4646C153.221 49.2741 152.947 49.1789 152.555 49.1789C151.947 49.1789 151.424 49.5181 150.983 50.1967V55.5715H147.965V47.0003Z" fill="#1A1A1A"/>
</svg>
