<svg width="178" height="100" viewBox="0 0 178 100" fill="none" xmlns="http://www.w3.org/2000/svg">
<path d="M40.99 58.759L23.05 46.384C21.232 45.13 21.85 42.519 24.117 41.905L43.184 36.73C43.5879 36.5842 44.0207 36.5369 44.4466 36.592C44.8724 36.647 45.279 36.8029 45.6326 37.0465C45.9861 37.2902 46.2765 37.6146 46.4795 37.993C46.6825 38.3713 46.7924 38.7927 46.8 39.222L45.67 56.771C45.536 58.854 42.808 60.013 40.99 58.759Z" fill="#8A8A8A"/>
<path d="M35.3 61.814L24.731 41.145C24.4894 40.6722 24.3831 40.1418 24.4238 39.6124C24.4645 39.083 24.6506 38.575 24.9616 38.1447C25.2726 37.7143 25.6964 37.3782 26.1863 37.1734C26.6762 36.9686 27.2132 36.9031 27.738 36.984L47.325 40.007C47.7759 40.0766 48.2039 40.2523 48.5738 40.5196C48.9436 40.7868 49.2447 41.138 49.4524 41.5443C49.66 41.9506 49.7683 42.4004 49.7682 42.8567C49.7681 43.313 49.6597 43.7628 49.452 44.169L40.429 61.815C40.1867 62.2865 39.8191 62.6821 39.3666 62.9582C38.9141 63.2344 38.3943 63.3804 37.8642 63.3803C37.3341 63.3802 36.8143 63.234 36.3619 62.9577C35.9095 62.6813 35.5421 62.2856 35.3 61.814Z" fill="#424242"/>
<path d="M46.752 39.918L36.988 38.411L25 41.666L29.785 51.027L40.99 58.759C41.2372 58.9277 41.5091 59.0569 41.796 59.142L46.052 50.819L46.752 39.918Z" fill="#1A1A1A"/>
<path d="M96.209 42.334C96.209 41.9711 96.3166 41.6163 96.5182 41.3146C96.7199 41.0128 97.0065 40.7776 97.3418 40.6387C97.6771 40.4998 98.046 40.4635 98.402 40.5343C98.7579 40.6051 99.0849 40.7799 99.3415 41.0365C99.5982 41.2931 99.7729 41.6201 99.8437 41.976C99.9145 42.332 99.8782 42.7009 99.7393 43.0362C99.6004 43.3716 99.3652 43.6581 99.0635 43.8598C98.7617 44.0614 98.4069 44.169 98.044 44.169C97.5588 44.1641 97.095 43.9692 96.7519 43.6261C96.4089 43.283 96.2139 42.8192 96.209 42.334ZM96.515 45.066H99.574V55.26H96.515V45.066Z" fill="#1A1A1A"/>
<path d="M112.784 50.163C112.82 50.8368 112.721 51.511 112.496 52.1468C112.27 52.7825 111.92 53.3674 111.467 53.8677C111.015 54.3679 110.467 54.7737 109.857 55.0618C109.247 55.3498 108.586 55.5144 107.912 55.546C107.345 55.5768 106.778 55.4812 106.253 55.2661C105.727 55.0509 105.256 54.7216 104.874 54.302V59.338H101.816V45.066H104.874V46.024C105.257 45.6045 105.728 45.2754 106.253 45.0604C106.778 44.8454 107.345 44.75 107.912 44.781C108.586 44.8125 109.247 44.9769 109.857 45.2648C110.467 45.5528 111.015 45.9585 111.467 46.4587C111.92 46.9589 112.27 47.5436 112.496 48.1794C112.721 48.8151 112.82 49.4892 112.784 50.163ZM109.726 50.163C109.714 49.6857 109.561 49.2226 109.288 48.8315C109.014 48.4405 108.63 48.1389 108.186 47.9646C107.742 47.7902 107.256 47.7509 106.789 47.8514C106.322 47.9519 105.895 48.1878 105.562 48.5296C105.229 48.8714 105.004 49.304 104.915 49.7731C104.826 50.2422 104.878 50.7271 105.063 51.167C105.249 51.6069 105.56 51.9823 105.958 52.2463C106.356 52.5103 106.823 52.651 107.3 52.651C107.628 52.6658 107.955 52.611 108.26 52.4904C108.565 52.3697 108.842 52.1858 109.071 51.9509C109.3 51.7159 109.477 51.4352 109.59 51.127C109.703 50.8189 109.749 50.4903 109.726 50.163Z" fill="#1A1A1A"/>
<path d="M122.223 52.2C122.223 54.545 120.184 55.544 117.982 55.544C117.092 55.6245 116.199 55.4362 115.418 55.0035C114.636 54.5709 114.003 53.9137 113.599 53.117L116.249 51.609C116.357 51.9773 116.588 52.2974 116.903 52.5158C117.219 52.7342 117.599 52.8377 117.982 52.809C118.716 52.809 119.082 52.584 119.082 52.177C119.082 51.055 114.067 51.647 114.067 48.119C114.067 45.897 115.942 44.776 118.067 44.776C118.864 44.751 119.653 44.9401 120.352 45.3237C121.051 45.7073 121.635 46.2713 122.042 46.957L119.433 48.364C119.319 48.0964 119.128 47.8683 118.886 47.7083C118.643 47.5482 118.358 47.4633 118.067 47.464C117.537 47.464 117.211 47.664 117.211 48.035C117.208 49.205 122.223 48.43 122.223 52.2Z" fill="#1A1A1A"/>
<path d="M133.4 45.066V55.26H130.342V54.3C129.989 54.7229 129.54 55.0561 129.033 55.2724C128.527 55.4886 127.976 55.5817 127.426 55.544C125.367 55.544 123.614 54.076 123.614 51.323V45.066H126.672V50.877C126.646 51.12 126.674 51.3657 126.753 51.5969C126.832 51.8281 126.96 52.0394 127.129 52.216C127.298 52.3926 127.503 52.5302 127.73 52.6193C127.958 52.7085 128.202 52.7469 128.446 52.732C129.567 52.732 130.346 52.08 130.346 50.632V45.066H133.4Z" fill="#1A1A1A"/>
<path d="M150.928 49V55.26H147.87V49.266C147.87 48.247 147.38 47.594 146.402 47.594C145.382 47.594 144.812 48.308 144.812 49.511V55.26H141.753V49.266C141.753 48.247 141.264 47.594 140.285 47.594C139.266 47.594 138.695 48.308 138.695 49.511V55.26H135.637V45.066H138.7V46C139.017 45.5841 139.433 45.2543 139.91 45.0406C140.387 44.827 140.911 44.7364 141.432 44.777C141.955 44.7514 142.477 44.8619 142.945 45.0976C143.413 45.3333 143.812 45.6862 144.103 46.122C144.442 45.6661 144.891 45.3035 145.408 45.0683C145.925 44.8331 146.494 44.7328 147.06 44.777C149.4 44.781 150.928 46.452 150.928 49Z" fill="#1A1A1A"/>
<path d="M153.519 45.003C154.773 45.003 155.789 43.9867 155.789 42.733C155.789 41.4793 154.773 40.463 153.519 40.463C152.265 40.463 151.249 41.4793 151.249 42.733C151.249 43.9867 152.265 45.003 153.519 45.003Z" fill="#1A1A1A"/>
<path d="M54.457 40.377H57.516V55.26H54.457V40.377ZM59.248 50.163C59.2447 49.0942 59.5585 48.0485 60.1498 47.1583C60.7411 46.268 61.5833 45.5732 62.5697 45.1619C63.5562 44.7506 64.6424 44.6412 65.6911 44.8476C66.7397 45.0541 67.7035 45.567 68.4604 46.3216C69.2173 47.0761 69.7333 48.0382 69.943 49.0862C70.1527 50.1342 70.0468 51.2208 69.6386 52.2085C69.2304 53.1962 68.5383 54.0406 67.6499 54.6347C66.7615 55.2288 65.7168 55.5459 64.648 55.546C63.9382 55.5535 63.234 55.4196 62.5765 55.152C61.9191 54.8844 61.3215 54.4884 60.8188 53.9873C60.316 53.4861 59.9182 52.8898 59.6485 52.2332C59.3788 51.5766 59.2427 50.8728 59.248 50.163ZM66.996 50.163C66.984 49.7019 66.8364 49.2547 66.5715 48.8772C66.3067 48.4997 65.9364 48.2086 65.507 48.0404C65.0775 47.8723 64.6081 47.8344 64.1573 47.9317C63.7065 48.0289 63.2944 48.257 62.9725 48.5872C62.6506 48.9175 62.4333 49.3353 62.3476 49.7884C62.262 50.2416 62.3118 50.7099 62.491 51.1349C62.6701 51.5598 62.9706 51.9225 63.3548 52.1776C63.739 52.4327 64.1899 52.5688 64.651 52.569C64.9668 52.578 65.2811 52.5214 65.5739 52.4029C65.8668 52.2845 66.1319 52.1066 66.3526 51.8805C66.5733 51.6545 66.7448 51.3852 66.8562 51.0896C66.9676 50.7939 67.0166 50.4784 67 50.163H66.996ZM82.245 45.063V54.748C82.245 58.173 79.574 59.62 76.863 59.62C75.9088 59.692 74.9531 59.4999 74.1007 59.0647C73.2484 58.6296 72.5323 57.9681 72.031 57.153L74.64 55.644C74.8506 56.0694 75.1861 56.4204 75.6016 56.6501C76.0171 56.8797 76.4927 56.977 76.965 56.929C77.2665 56.9701 77.5733 56.9431 77.8629 56.8498C78.1525 56.7565 78.4174 56.5995 78.6382 56.3901C78.8589 56.1808 79.0298 55.9246 79.1383 55.6403C79.2468 55.3561 79.2901 55.0511 79.265 54.748V53.81C78.9068 54.248 78.4509 54.596 77.934 54.8261C77.417 55.0562 76.8533 55.162 76.288 55.135C74.9425 55.0931 73.666 54.5292 72.729 53.5626C71.792 52.596 71.268 51.3027 71.268 49.9565C71.268 48.6102 71.792 47.3169 72.729 46.3503C73.666 45.3837 74.9425 44.8198 76.288 44.778C76.8533 44.7509 77.417 44.8567 77.934 45.0868C78.4509 45.3169 78.9068 45.6649 79.265 46.103V45.063H82.245ZM79.269 49.956C79.2892 49.4636 79.1616 48.9765 78.9027 48.5572C78.6438 48.1379 78.2654 47.8056 77.8161 47.6031C77.3669 47.4006 76.8673 47.3372 76.3817 47.4208C75.8961 47.5045 75.4466 47.7315 75.091 48.0727C74.7354 48.4139 74.49 48.8536 74.3864 49.3353C74.2827 49.8171 74.3255 50.3188 74.5093 50.7761C74.693 51.2333 75.0094 51.6251 75.4176 51.9011C75.8258 52.1771 76.3073 52.3247 76.8 52.325C77.1213 52.3475 77.4438 52.3026 77.7467 52.1931C78.0496 52.0836 78.3262 51.9119 78.5588 51.689C78.7913 51.4662 78.9747 51.1971 79.097 50.8992C79.2193 50.6012 79.2779 50.2809 79.269 49.959V49.956ZM83.977 50.156C83.9737 49.0872 84.2875 48.0415 84.8788 47.1513C85.4701 46.261 86.3123 45.5662 87.2987 45.1549C88.2852 44.7436 89.3714 44.6342 90.4201 44.8406C91.4687 45.0471 92.4324 45.56 93.1894 46.3146C93.9463 47.0691 94.4623 48.0312 94.672 49.0792C94.8817 50.1272 94.7758 51.2138 94.3676 52.2015C93.9594 53.1892 93.2673 54.0336 92.3789 54.6277C91.4905 55.2218 90.4458 55.5389 89.377 55.539C88.6678 55.5465 87.9642 55.4128 87.3072 55.1456C86.6502 54.8785 86.0529 54.4831 85.5503 53.9827C85.0476 53.4823 84.6497 52.8869 84.3796 52.231C84.1094 51.5752 83.9726 50.8722 83.977 50.163V50.156ZM91.725 50.156C91.7132 49.6947 91.5656 49.2471 91.3008 48.8692C91.0359 48.4914 90.6654 48.2001 90.2358 48.0317C89.8061 47.8633 89.3364 47.8254 88.8853 47.9227C88.4342 48.0199 88.0218 48.2481 87.6998 48.5785C87.3777 48.909 87.1602 49.3271 87.0746 49.7805C86.9889 50.2339 87.0389 50.7026 87.2182 51.1277C87.3976 51.5529 87.6983 51.9157 88.0828 52.1709C88.4674 52.426 88.9186 52.562 89.38 52.562C89.6949 52.5703 90.008 52.5136 90.2999 52.3953C90.5918 52.277 90.8561 52.0996 91.0763 51.8744C91.2964 51.6492 91.4677 51.3809 91.5793 51.0864C91.691 50.7919 91.7406 50.4775 91.725 50.163V50.156Z" fill="#1A1A1A"/>
</svg>
