<svg width="178" height="100" viewBox="0 0 178 100" fill="none" xmlns="http://www.w3.org/2000/svg">
<path d="M61.51 44.26H64.72V57.26H61.51V44.26ZM66 52.37C66 49.15 68 47.22 71 47.22C74 47.22 76 49.15 76 52.37C76 55.59 74.07 57.54 71 57.54C67.93 57.54 66 55.66 66 52.37ZM72.82 52.37C72.82 50.6 72.13 49.56 71.03 49.56C69.93 49.56 69.25 50.56 69.25 52.37C69.25 54.18 69.93 55.17 71.03 55.17C72.13 55.17 72.84 54.18 72.84 52.38L72.82 52.37ZM77.28 57.93H80.38C80.5211 58.2637 80.7676 58.5422 81.0818 58.7227C81.396 58.9033 81.7606 58.9761 82.12 58.93C83.35 58.93 83.99 58.27 83.99 57.29V55.49H84C83.7351 56.0505 83.3067 56.5176 82.7713 56.83C82.2358 57.1424 81.6183 57.2853 81 57.24C78.65 57.24 77.09 55.45 77.09 52.37C77.09 49.29 78.58 47.37 81.09 47.37C81.7241 47.3361 82.3532 47.4996 82.8904 47.8381C83.4277 48.1766 83.8468 48.6734 84.09 49.26H84V47.45H87.18V57.19C87.18 59.54 85.1 61.01 82.04 61.01C79.26 61 77.48 59.73 77.3 57.94L77.28 57.93ZM84 52.37C84 50.8 83.28 49.81 82.14 49.81C81 49.81 80.3 50.81 80.3 52.37C80.3 53.93 80.99 54.85 82.14 54.85C83.29 54.85 84 54 84 52.37ZM88.45 52.37C88.45 49.15 90.45 47.22 93.45 47.22C96.45 47.22 98.45 49.15 98.45 52.37C98.45 55.59 96.51 57.54 93.45 57.54C90.39 57.54 88.47 55.66 88.47 52.37H88.45ZM95.27 52.37C95.27 50.6 94.57 49.56 93.48 49.56C92.39 49.56 91.7 50.56 91.7 52.37C91.7 54.18 92.38 55.17 93.48 55.17C94.58 55.17 95.29 54.18 95.29 52.38L95.27 52.37ZM99.75 45.08C99.736 44.753 99.8202 44.4293 99.9917 44.1506C100.163 43.8718 100.414 43.6508 100.712 43.5159C101.011 43.3809 101.342 43.3383 101.665 43.3935C101.987 43.4486 102.286 43.599 102.523 43.8253C102.759 44.0517 102.922 44.3435 102.991 44.6634C103.061 44.9833 103.033 45.3166 102.911 45.6203C102.789 45.9241 102.579 46.1845 102.308 46.368C102.037 46.5515 101.717 46.6497 101.39 46.65C101.181 46.6553 100.973 46.619 100.778 46.5433C100.583 46.4675 100.405 46.3537 100.254 46.2086C100.103 46.0635 99.9828 45.8899 99.8998 45.6978C99.8167 45.5058 99.7726 45.2992 99.77 45.09L99.75 45.08ZM99.75 47.44H103V57.3H99.8L99.75 47.44ZM114.69 52.37C114.69 55.58 113.25 57.44 110.8 57.44C110.173 57.4787 109.549 57.3239 109.012 56.9967C108.476 56.6694 108.053 56.1854 107.8 55.61H107.74V60.47H104.53V47.47H107.72V49.23H107.78C108.024 48.6433 108.443 48.146 108.98 47.806C109.517 47.466 110.145 47.2998 110.78 47.33C113.3 47.31 114.75 49.16 114.75 52.38L114.69 52.37ZM111.42 52.37C111.42 50.81 110.69 49.8 109.56 49.8C108.43 49.8 107.72 50.8 107.71 52.37C107.7 53.94 108.43 54.93 109.56 54.93C110.69 54.93 111.48 54 111.48 52.38L111.42 52.37ZM120.17 47.21C122.86 47.21 124.53 48.48 124.55 50.52H121.62C121.62 49.81 121.03 49.37 120.15 49.37C119.27 49.37 118.85 49.71 118.85 50.22C118.85 50.73 119.22 50.89 119.96 51.04L122.02 51.46C124.02 51.88 124.82 52.68 124.82 54.17C124.82 56.17 122.97 57.53 120.22 57.53C117.47 57.53 115.68 56.21 115.55 54.2H118.66C118.75 54.93 119.33 55.36 120.27 55.36C121.21 55.36 121.65 55.06 121.65 54.53C121.65 54 121.35 53.91 120.58 53.75L118.72 53.36C116.79 52.95 115.78 51.94 115.78 50.43C115.84 48.47 117.52 47.22 120.23 47.22L120.17 47.21ZM135.57 57.29H132.46V55.44H132.4C132.226 56.0571 131.847 56.5964 131.325 56.969C130.803 57.3417 130.17 57.5254 129.53 57.49C129.047 57.5057 128.565 57.4191 128.118 57.2357C127.671 57.0524 127.267 56.7765 126.934 56.4262C126.6 56.0758 126.345 55.6589 126.184 55.2029C126.023 54.7469 125.96 54.2619 126 53.78V47.45H129.21V53.09C129.21 54.25 129.82 54.88 130.82 54.88C131.055 54.8782 131.286 54.8261 131.499 54.7273C131.712 54.6284 131.901 54.485 132.053 54.3068C132.206 54.1286 132.319 53.9197 132.384 53.6943C132.448 53.4688 132.464 53.2321 132.43 53V47.45H135.63L135.57 57.29ZM137.12 47.44H140.24V49.34H140.31C140.482 48.7313 140.852 48.197 141.36 47.8206C141.869 47.4443 142.488 47.2471 143.12 47.26C143.755 47.2048 144.388 47.3884 144.894 47.7749C145.401 48.1614 145.745 48.7231 145.86 49.35H146C146.2 48.7197 146.602 48.1731 147.145 47.7952C147.687 47.4172 148.34 47.2291 149 47.26C149.439 47.2433 149.877 47.3195 150.284 47.4836C150.692 47.6476 151.06 47.8959 151.365 48.2122C151.67 48.5284 151.904 48.9055 152.053 49.3187C152.203 49.7319 152.263 50.1719 152.23 50.61V57.3H149V51.43C149 50.43 148.53 49.87 147.62 49.87C147.418 49.8667 147.218 49.9071 147.033 49.9883C146.848 50.0696 146.684 50.1899 146.55 50.3409C146.416 50.492 146.316 50.6701 146.257 50.8633C146.199 51.0565 146.183 51.26 146.21 51.46V57.3H143.15V51.4C143.15 50.4 142.66 49.87 141.78 49.87C141.576 49.8684 141.374 49.9104 141.188 49.9932C141.001 50.0761 140.835 50.1978 140.699 50.3503C140.564 50.5028 140.463 50.6825 140.403 50.8773C140.342 51.0722 140.324 51.2777 140.35 51.48V57.3H137.14L137.12 47.44Z" fill="#424242"/>
<path d="M55.16 45.11C55.1601 43.1197 54.5591 41.1757 53.4357 39.5328C52.3123 37.8898 50.7188 36.6245 48.8641 35.9025C47.0094 35.1805 44.9798 35.0355 43.0413 35.4865C41.1027 35.9375 39.3456 36.9634 38 38.43H25.52V64.77H51.87V52.46C52.9042 51.5349 53.7318 50.4022 54.2987 49.1358C54.8656 47.8693 55.1591 46.4975 55.16 45.11V45.11ZM50.09 45.11C50.092 46.0637 49.811 46.9966 49.2826 47.7905C48.7541 48.5845 48.0021 49.2038 47.1215 49.5702C46.2409 49.9365 45.2715 50.0334 44.3358 49.8486C43.4002 49.6637 42.5404 49.2055 41.8653 48.5318C41.1902 47.8581 40.7302 46.9993 40.5434 46.064C40.3566 45.1287 40.4515 44.1591 40.816 43.2778C41.1805 42.3964 41.7983 41.6431 42.5911 41.113C43.384 40.5829 44.3163 40.3 45.27 40.3C46.5466 40.3 47.7711 40.8064 48.6747 41.7082C49.5784 42.6099 50.0874 43.8334 50.09 45.11V45.11ZM46.8 59.7H30.59V43.5H35.53C35.4346 44.0314 35.3844 44.57 35.38 45.11C35.3827 47.7322 36.4255 50.2462 38.2797 52.1003C40.1338 53.9545 42.6478 54.9973 45.27 55C45.7827 54.9973 46.2943 54.9538 46.8 54.87V59.7Z" fill="#424242"/>
</svg>
