<svg width="178" height="100" viewBox="0 0 178 100" fill="none" xmlns="http://www.w3.org/2000/svg">
<path d="M67.88 57.3901C67.2852 57.4223 66.6969 57.2532 66.21 56.9101C66.0065 56.7592 65.8428 56.5612 65.7331 56.3329C65.6233 56.1047 65.5708 55.8532 65.58 55.6001V46.3301C65.5751 46.2908 65.5793 46.251 65.5921 46.2136C65.605 46.1762 65.6262 46.1422 65.6542 46.1142C65.6821 46.0863 65.7161 46.0651 65.7535 46.0522C65.7909 46.0393 65.8307 46.0352 65.87 46.0401H67.55C67.74 46.0401 67.83 46.1401 67.83 46.3301V54.8801C67.83 55.2601 68 55.4501 68.35 55.4501C68.4983 55.4562 68.6468 55.4393 68.79 55.4001C68.99 55.4001 69.1 55.4601 69.11 55.6401L69.26 56.8901C69.2672 56.9265 69.2665 56.9641 69.258 57.0002C69.2494 57.0364 69.2332 57.0703 69.2105 57.0997C69.1878 57.129 69.159 57.1532 69.1261 57.1705C69.0933 57.1878 69.0571 57.1979 69.02 57.2001C68.652 57.3216 68.2675 57.3857 67.88 57.3901V57.3901Z" fill="#424242"/>
<path d="M77.33 56.32C76.4858 57.0175 75.425 57.3991 74.33 57.3991C73.2349 57.3991 72.1741 57.0175 71.33 56.32C70.588 55.571 70.1718 54.5593 70.1718 53.505C70.1718 52.4507 70.588 51.4391 71.33 50.69C72.1758 49.9962 73.236 49.6169 74.33 49.6169C75.424 49.6169 76.4842 49.9962 77.33 50.69C78.0548 51.446 78.4595 52.4528 78.4595 53.5C78.4595 54.5473 78.0548 55.5541 77.33 56.31V56.32ZM72.91 55C73.3017 55.3549 73.8114 55.5514 74.34 55.5514C74.8685 55.5514 75.3782 55.3549 75.77 55C76.1245 54.5924 76.3198 54.0703 76.3198 53.53C76.3198 52.9898 76.1245 52.4677 75.77 52.06C75.3782 51.7052 74.8685 51.5087 74.34 51.5087C73.8114 51.5087 73.3017 51.7052 72.91 52.06C72.5554 52.4677 72.3601 52.9898 72.3601 53.53C72.3601 54.0703 72.5554 54.5924 72.91 55Z" fill="#424242"/>
<path d="M87.71 49.8699C87.9 49.8699 87.99 49.9699 87.99 50.1599V57.3299C88.0075 57.8139 87.9169 58.2956 87.7249 58.7402C87.5329 59.1847 87.2443 59.5809 86.88 59.8999C86.0714 60.5894 85.0316 60.9467 83.97 60.8999C83.0111 60.9336 82.0651 60.6718 81.26 60.1499C80.9162 59.9242 80.6225 59.6301 80.3971 59.2861C80.1718 58.942 80.0196 58.5553 79.95 58.1499C79.95 57.9499 79.95 57.8599 80.22 57.8599H81.9C81.9713 57.8624 82.0404 57.8854 82.099 57.9262C82.1575 57.967 82.203 58.0239 82.23 58.0899C82.3389 58.3937 82.5561 58.6465 82.84 58.7999C83.1859 58.9784 83.5708 59.0678 83.96 59.0599C84.1948 59.0728 84.4298 59.0387 84.6513 58.9598C84.8728 58.8808 85.0763 58.7585 85.25 58.5999C85.4086 58.4341 85.5321 58.2378 85.6129 58.023C85.6936 57.8082 85.7301 57.5792 85.72 57.3499V56.7199C85.1185 57.1624 84.3864 57.3911 83.64 57.3699C83.1176 57.3889 82.5967 57.3022 82.1087 57.1149C81.6207 56.9276 81.1755 56.6436 80.8 56.2799C80.079 55.5341 79.676 54.5373 79.676 53.4999C79.676 52.4626 80.079 51.4658 80.8 50.7199C81.1773 50.3595 81.623 50.0783 82.1108 49.8928C82.5985 49.7073 83.1185 49.6213 83.64 49.6399C84.408 49.6197 85.1597 49.8632 85.77 50.3299V50.1699C85.7654 50.1316 85.7694 50.0927 85.7817 50.0562C85.794 50.0196 85.8143 49.9862 85.8411 49.9584C85.8679 49.9307 85.9006 49.9092 85.9367 49.8956C85.9728 49.8821 86.0115 49.8767 86.05 49.8799L87.71 49.8699ZM83.83 55.5899C84.0876 55.5979 84.3438 55.5492 84.5806 55.4473C84.8173 55.3453 85.0288 55.1926 85.2 54.9999C85.5324 54.5706 85.7128 54.043 85.7128 53.4999C85.7128 52.9569 85.5324 52.4293 85.2 51.9999C85.0294 51.8099 84.8192 51.6595 84.5842 51.5593C84.3493 51.4591 84.0953 51.4115 83.84 51.4199C83.5794 51.4117 83.3201 51.4603 83.0801 51.5621C82.8401 51.664 82.6251 51.8168 82.45 52.0099C82.0817 52.4206 81.888 52.9587 81.91 53.5099C81.8919 54.0557 82.0813 54.5881 82.44 54.9999C82.6155 55.1926 82.8306 55.345 83.0705 55.4468C83.3104 55.5486 83.5695 55.5975 83.83 55.5899V55.5899Z" fill="#424242"/>
<path d="M96.62 56.32C95.7742 57.0139 94.714 57.3932 93.62 57.3932C92.526 57.3932 91.4658 57.0139 90.62 56.32C89.8945 55.5625 89.4895 54.554 89.4895 53.5051C89.4895 52.4561 89.8945 51.4476 90.62 50.69C91.4666 49.998 92.5265 49.6199 93.62 49.6199C94.7135 49.6199 95.7734 49.998 96.62 50.69C97.3449 51.446 97.7496 52.4528 97.7496 53.5C97.7496 54.5473 97.3449 55.5541 96.62 56.3101V56.32ZM92.19 55C92.3817 55.1824 92.6077 55.3249 92.8549 55.4194C93.1021 55.5138 93.3655 55.5582 93.63 55.55C93.8928 55.5569 94.1544 55.5118 94.3998 55.4174C94.6451 55.323 94.8695 55.1812 95.06 55C95.4088 54.5897 95.6003 54.0686 95.6003 53.53C95.6003 52.9915 95.4088 52.4704 95.06 52.0601C94.8695 51.8789 94.6451 51.7371 94.3998 51.6427C94.1544 51.5483 93.8928 51.5032 93.63 51.51C93.3655 51.5019 93.1021 51.5463 92.8549 51.6407C92.6077 51.7352 92.3817 51.8777 92.19 52.0601C91.8412 52.4704 91.6497 52.9915 91.6497 53.53C91.6497 54.0686 91.8412 54.5897 92.19 55V55Z" fill="#424242"/>
<path d="M101.36 48.17C101.096 48.4014 100.756 48.5289 100.405 48.5289C100.054 48.5289 99.7143 48.4014 99.45 48.17C99.3301 48.0569 99.2346 47.9205 99.1694 47.7692C99.1041 47.6179 99.0704 47.4548 99.0704 47.29C99.0704 47.1252 99.1041 46.9622 99.1694 46.8108C99.2346 46.6595 99.3301 46.5231 99.45 46.41C99.717 46.1844 100.055 46.0607 100.405 46.0607C100.755 46.0607 101.093 46.1844 101.36 46.41C101.48 46.5231 101.575 46.6595 101.641 46.8108C101.706 46.9622 101.739 47.1252 101.739 47.29C101.739 47.4548 101.706 47.6179 101.641 47.7692C101.575 47.9205 101.48 48.0569 101.36 48.17V48.17ZM101.57 57.39C100.976 57.4192 100.388 57.2504 99.9 56.91C99.6996 56.757 99.5388 56.5582 99.4309 56.3303C99.323 56.1024 99.2713 55.852 99.28 55.6V50.16C99.2751 50.1208 99.2792 50.0809 99.2921 50.0435C99.305 50.0061 99.3262 49.9722 99.3541 49.9442C99.3821 49.9162 99.4161 49.895 99.4535 49.8822C99.4909 49.8693 99.5307 49.8652 99.57 49.87H101.25C101.44 49.87 101.53 49.97 101.53 50.16V54.88C101.53 55.26 101.7 55.45 102.04 55.45C102.192 55.4555 102.343 55.4386 102.49 55.4C102.69 55.4 102.8 55.46 102.81 55.64L102.96 56.89C102.967 56.9265 102.966 56.964 102.958 57.0002C102.949 57.0363 102.933 57.0702 102.91 57.0996C102.888 57.129 102.859 57.1532 102.826 57.1705C102.793 57.1878 102.757 57.1979 102.72 57.2C102.349 57.3223 101.961 57.3864 101.57 57.39V57.39Z" fill="#424242"/>
<path d="M109.14 49.63C109.665 49.6093 110.188 49.6942 110.68 49.8797C111.171 50.0652 111.62 50.3476 112 50.71C112.707 51.4689 113.1 52.4677 113.1 53.505C113.1 54.5423 112.707 55.5411 112 56.3C111.622 56.6656 111.173 56.9508 110.682 57.1381C110.19 57.3255 109.666 57.4112 109.14 57.39C108.391 57.4067 107.657 57.1784 107.05 56.74V60.35C107.05 60.54 106.95 60.63 106.76 60.63H105.08C105.042 60.6372 105.002 60.6349 104.965 60.6233C104.928 60.6118 104.894 60.5914 104.866 60.5638C104.839 60.5362 104.818 60.5023 104.807 60.4651C104.795 60.4278 104.793 60.3883 104.8 60.35V52.15C104.812 52.0698 104.805 51.988 104.779 51.911C104.754 51.8341 104.711 51.7641 104.653 51.7068C104.596 51.6495 104.526 51.6064 104.449 51.5809C104.372 51.5554 104.29 51.5482 104.21 51.56H103.88C103.66 51.56 103.55 51.48 103.55 51.32V50.14C103.545 50.067 103.565 49.9944 103.607 49.9344C103.649 49.8743 103.71 49.8304 103.78 49.81C104.126 49.6843 104.492 49.6233 104.86 49.63C105.227 49.5975 105.595 49.6753 105.918 49.8535C106.24 50.0317 106.502 50.302 106.67 50.63C106.992 50.3042 107.377 50.0474 107.802 49.8755C108.227 49.7036 108.682 49.62 109.14 49.63ZM107.58 55C107.758 55.1864 107.973 55.3347 108.21 55.436C108.447 55.5373 108.702 55.5895 108.96 55.5895C109.218 55.5895 109.473 55.5373 109.71 55.436C109.947 55.3347 110.162 55.1864 110.34 55C110.716 54.5811 110.913 54.0322 110.89 53.47C110.916 52.9073 110.718 52.3572 110.34 51.94C110.162 51.7537 109.947 51.6054 109.71 51.504C109.473 51.4027 109.218 51.3505 108.96 51.3505C108.702 51.3505 108.447 51.4027 108.21 51.504C107.973 51.6054 107.758 51.7537 107.58 51.94C107.216 52.3646 107.027 52.9113 107.05 53.47C107.03 54.0283 107.219 54.5739 107.58 55Z" fill="#424242"/>
<path d="M117.82 57.39C116.922 57.4269 116.032 57.2122 115.25 56.77C114.936 56.581 114.669 56.3237 114.468 56.0173C114.267 55.7109 114.138 55.3632 114.09 55C114.09 54.8 114.16 54.7 114.38 54.7H115.85C115.92 54.7027 115.988 54.7247 116.046 54.7635C116.104 54.8024 116.151 54.8565 116.18 54.92C116.39 55.46 116.94 55.73 117.82 55.73C118.127 55.744 118.433 55.6822 118.71 55.55C118.806 55.5068 118.888 55.4384 118.948 55.3521C119.008 55.2658 119.043 55.1648 119.05 55.06C119.05 54.8 118.89 54.62 118.57 54.5C118.19 54.3737 117.798 54.2898 117.4 54.25C116.928 54.1966 116.461 54.1131 116 54C115.552 53.8986 115.144 53.6652 114.83 53.33C114.645 53.1022 114.509 52.8387 114.43 52.556C114.351 52.2733 114.331 51.9773 114.371 51.6866C114.412 51.3958 114.511 51.1164 114.664 50.8659C114.817 50.6153 115.02 50.3989 115.26 50.23C115.981 49.7709 116.826 49.5472 117.68 49.59C118.506 49.5621 119.324 49.7665 120.04 50.18C120.329 50.3435 120.577 50.5692 120.767 50.8408C120.958 51.1124 121.085 51.423 121.14 51.75C121.14 51.95 121.05 52.05 120.87 52.05H119.39C119.328 52.0537 119.266 52.0385 119.212 52.0064C119.159 51.9743 119.116 51.9267 119.09 51.87C118.991 51.6332 118.805 51.4434 118.57 51.34C118.305 51.2014 118.009 51.1325 117.71 51.14C117.417 51.1241 117.124 51.1826 116.86 51.31C116.767 51.346 116.687 51.409 116.629 51.491C116.572 51.573 116.541 51.6701 116.54 51.77C116.546 51.9068 116.596 52.0379 116.683 52.1441C116.769 52.2502 116.887 52.3259 117.02 52.36C117.404 52.5047 117.803 52.6054 118.21 52.66C118.678 52.7216 119.142 52.8083 119.6 52.92C120.048 53.0215 120.456 53.2548 120.77 53.59C120.938 53.7747 121.068 53.9908 121.152 54.226C121.236 54.4611 121.273 54.7106 121.26 54.96C121.269 55.3057 121.187 55.6477 121.024 55.9527C120.861 56.2576 120.622 56.5151 120.33 56.7C119.583 57.1797 118.707 57.4203 117.82 57.39V57.39Z" fill="#424242"/>
<path d="M131.83 56.89C131.836 56.9255 131.834 56.9618 131.826 56.9967C131.817 57.0316 131.802 57.0645 131.78 57.0934C131.759 57.1222 131.732 57.1466 131.701 57.1649C131.67 57.1832 131.636 57.1951 131.6 57.2C131.235 57.3192 130.854 57.3832 130.47 57.39C130.09 57.4294 129.706 57.3699 129.356 57.2175C129.005 57.0651 128.7 56.8249 128.47 56.52C127.764 57.1273 126.85 57.4389 125.92 57.39C125.488 57.4099 125.057 57.3392 124.654 57.1825C124.251 57.0258 123.885 56.7865 123.58 56.48C123.277 56.1589 123.042 55.7799 122.889 55.3658C122.736 54.9516 122.669 54.5109 122.69 54.07V50.16C122.69 49.97 122.78 49.87 122.97 49.87H124.65C124.84 49.87 124.93 49.97 124.93 50.16V53.77C124.912 54.2198 125.066 54.6596 125.36 55C125.507 55.1559 125.686 55.2786 125.884 55.3596C126.082 55.4407 126.296 55.4784 126.51 55.47C126.729 55.4796 126.948 55.4456 127.154 55.3701C127.36 55.2946 127.549 55.179 127.71 55.03C127.862 54.873 127.981 54.6863 128.058 54.4816C128.136 54.277 128.17 54.0586 128.16 53.84V50.16C128.16 49.97 128.25 49.87 128.44 49.87H130.14C130.33 49.87 130.42 49.97 130.42 50.16V54.87C130.42 55.26 130.59 55.45 130.92 55.45C131.075 55.456 131.23 55.4391 131.38 55.4C131.418 55.3894 131.458 55.3875 131.496 55.3944C131.535 55.4014 131.571 55.417 131.603 55.4401C131.635 55.4632 131.661 55.4931 131.68 55.5278C131.698 55.5624 131.708 55.6008 131.71 55.64L131.83 56.89Z" fill="#424242"/>
<path d="M147.72 56.89C147.729 56.9258 147.73 56.9631 147.723 56.9993C147.715 57.0355 147.7 57.0697 147.678 57.0993C147.656 57.1289 147.628 57.1533 147.595 57.1707C147.563 57.1881 147.527 57.1981 147.49 57.2C147.118 57.3209 146.731 57.3849 146.34 57.39C145.745 57.4207 145.158 57.2517 144.67 56.91C144.459 56.7636 144.288 56.5675 144.171 56.339C144.054 56.1104 143.995 55.8566 144 55.6V53.25C144.021 52.8016 143.871 52.3619 143.58 52.02C143.44 51.8637 143.266 51.7405 143.073 51.6592C142.879 51.5779 142.67 51.5406 142.46 51.55C142.271 51.5429 142.083 51.5787 141.909 51.655C141.736 51.7312 141.583 51.8457 141.46 51.99C141.196 52.3251 141.061 52.7438 141.08 53.17V56.86C141.08 57.05 140.99 57.15 140.8 57.15H139.11C139.071 57.1549 139.031 57.1507 138.994 57.1379C138.956 57.125 138.922 57.1038 138.894 57.0758C138.866 57.0479 138.845 57.0139 138.832 56.9765C138.819 56.9391 138.815 56.8992 138.82 56.86V53.25C138.842 52.8065 138.703 52.3699 138.43 52.02C138.308 51.873 138.155 51.7547 137.982 51.6735C137.81 51.5922 137.621 51.5501 137.43 51.55C137.226 51.5418 137.023 51.5767 136.833 51.6525C136.643 51.7284 136.472 51.8434 136.33 51.99C136.044 52.3144 135.897 52.7381 135.92 53.17V56.86C135.925 56.8992 135.921 56.9391 135.908 56.9765C135.895 57.0139 135.874 57.0479 135.846 57.0758C135.818 57.1038 135.784 57.125 135.747 57.1379C135.709 57.1507 135.669 57.1549 135.63 57.15H134C133.81 57.15 133.72 57.05 133.72 56.86V52.15C133.732 52.0698 133.725 51.988 133.699 51.911C133.674 51.834 133.631 51.7641 133.573 51.7068C133.516 51.6495 133.446 51.6064 133.369 51.5809C133.292 51.5554 133.21 51.5482 133.13 51.56H132.8C132.58 51.56 132.47 51.48 132.47 51.32V50.14C132.465 50.067 132.485 49.9944 132.527 49.9343C132.569 49.8743 132.63 49.8304 132.7 49.81C133.046 49.6843 133.412 49.6232 133.78 49.63C134.133 49.5999 134.488 49.6703 134.803 49.8331C135.118 49.9959 135.38 50.2444 135.56 50.55C135.897 50.2302 136.297 49.9835 136.734 49.8252C137.171 49.6669 137.636 49.6005 138.1 49.63C138.551 49.608 139 49.6925 139.412 49.8767C139.824 50.0609 140.186 50.3395 140.47 50.69C140.801 50.3303 141.208 50.0486 141.661 49.8653C142.114 49.682 142.602 49.6016 143.09 49.63C143.527 49.6096 143.963 49.6799 144.37 49.8365C144.778 49.9932 145.149 50.2327 145.46 50.54C145.764 50.8605 145.999 51.2394 146.152 51.6536C146.305 52.0679 146.373 52.509 146.35 52.95V54.88C146.35 55.26 146.52 55.45 146.84 55.45C146.995 55.4572 147.15 55.4404 147.3 55.4C147.507 55.4 147.617 55.48 147.63 55.64L147.72 56.89Z" fill="#424242"/>
<path d="M30.46 48.57C31.1978 45.6047 32.9065 42.9714 35.314 41.0895C37.7214 39.2076 40.6893 38.1853 43.745 38.1853C46.8008 38.1853 49.7687 39.2076 52.1761 41.0895C54.5836 42.9714 56.2923 45.6047 57.03 48.57H55.8301C53.8057 48.5402 51.8229 49.1452 50.16 50.3C50.0641 50.3695 49.9639 50.433 49.8601 50.49H49.7201C49.6162 50.433 49.516 50.3695 49.42 50.3C47.7424 49.1719 45.7667 48.5694 43.745 48.5694C41.7234 48.5694 39.7477 49.1719 38.07 50.3C37.9741 50.3695 37.8739 50.433 37.7701 50.49H37.6301C37.5262 50.433 37.426 50.3695 37.3301 50.3C35.6672 49.1452 33.6844 48.5402 31.66 48.57H30.46ZM53.67 54.84C54.2861 54.3603 55.0495 54.1093 55.8301 54.13H57.44V50.92H55.8301C54.4553 50.9034 53.1119 51.3313 52 52.14C51.3744 52.6013 50.6174 52.8502 49.84 52.8502C49.0627 52.8502 48.3057 52.6013 47.68 52.14C46.54 51.3464 45.1842 50.921 43.795 50.921C42.4059 50.921 41.0501 51.3464 39.91 52.14C39.2844 52.6013 38.5274 52.8502 37.75 52.8502C36.9727 52.8502 36.2157 52.6013 35.59 52.14C34.4644 51.321 33.1018 50.8925 31.71 50.92H30.05V54.13H31.66C32.4406 54.1093 33.204 54.3603 33.82 54.84C34.9581 55.6342 36.3123 56.06 37.7001 56.06C39.0878 56.06 40.442 55.6342 41.5801 54.84C42.1968 54.3618 42.9598 54.111 43.7401 54.13C44.5208 54.1076 45.2848 54.3588 45.9001 54.84C47.0401 55.6337 48.3959 56.0591 49.785 56.0591C51.1742 56.0591 52.53 55.6337 53.67 54.84V54.84ZM53.67 60.58C54.2861 60.1003 55.0495 59.8493 55.8301 59.87H57.44V56.66H55.8301C54.4553 56.6434 53.1119 57.0713 52 57.88C51.3744 58.3413 50.6174 58.5902 49.84 58.5902C49.0627 58.5902 48.3057 58.3413 47.68 57.88C46.54 57.0864 45.1842 56.661 43.795 56.661C42.4059 56.661 41.0501 57.0864 39.91 57.88C39.2844 58.3413 38.5274 58.5902 37.75 58.5902C36.9727 58.5902 36.2157 58.3413 35.59 57.88C34.4644 57.061 33.1018 56.6325 31.71 56.66H30.05V59.87H31.66C32.4406 59.8493 33.204 60.1003 33.82 60.58C34.9581 61.3742 36.3123 61.8 37.7001 61.8C39.0878 61.8 40.442 61.3742 41.5801 60.58C42.1968 60.1018 42.9598 59.851 43.7401 59.87C44.5208 59.8476 45.2848 60.0988 45.9001 60.58C47.0401 61.3737 48.3959 61.7991 49.785 61.7991C51.1742 61.7991 52.53 61.3737 53.67 60.58V60.58Z" fill="#424242"/>
</svg>
