<svg width="64" height="40" viewBox="0 0 64 40" fill="none" xmlns="http://www.w3.org/2000/svg">
<path d="M4.15 11.45L10.21 5.38C10.3633 5.23333 10.46 5.11 10.5 5.01C10.54 4.90333 10.5333 4.81667 10.48 4.75C10.4333 4.67667 10.34 4.61667 10.2 4.57L9.68 4.43C9.50667 4.35 9.37333 4.25333 9.28 4.14C9.19333 4.02 9.15 3.87 9.15 3.69C9.15 3.47667 9.21667 3.31 9.35 3.19C9.48333 3.06333 9.68333 3 9.95 3H13.56C13.8333 3 14.0333 3.06333 14.16 3.19C14.2933 3.31 14.36 3.47667 14.36 3.69C14.36 3.87667 14.29 4.03 14.15 4.15C14.0167 4.27 13.8067 4.38667 13.52 4.5C13.3933 4.54 13.28 4.59 13.18 4.65C13.08 4.70333 12.9767 4.77333 12.87 4.86C12.7633 4.94 12.64 5.04 12.5 5.16C12.3667 5.28 12.2033 5.43333 12.01 5.62L4.67 12.79L4.15 11.45ZM6.7 9.58L8.89 7.75L13.48 14.81C13.6133 15.01 13.7533 15.1567 13.9 15.25C14.0533 15.3367 14.21 15.41 14.37 15.47C14.63 15.5767 14.8067 15.6933 14.9 15.82C15 15.9467 15.05 16.11 15.05 16.31C15.05 16.5233 14.9833 16.6933 14.85 16.82C14.7233 16.94 14.5233 17 14.25 17H9.84C9.57333 17 9.37333 16.94 9.24 16.82C9.11333 16.6933 9.05 16.5233 9.05 16.31C9.05 16.13 9.09333 15.9833 9.18 15.87C9.26667 15.7567 9.38 15.6667 9.52 15.6L9.95 15.49C10.0967 15.43 10.17 15.34 10.17 15.22C10.17 15.0933 10.1 14.92 9.96 14.7L6.7 9.58ZM5.29 14.59C5.29 14.8367 5.33 15.0233 5.41 15.15C5.49667 15.2767 5.63333 15.3767 5.82 15.45L6.2 15.56C6.38 15.64 6.51333 15.74 6.6 15.86C6.68667 15.98 6.73 16.13 6.73 16.31C6.73 16.5233 6.66333 16.6933 6.53 16.82C6.40333 16.94 6.20667 17 5.94 17H1.57C1.31 17 1.11333 16.94 0.98 16.82C0.846667 16.7 0.78 16.53 0.78 16.31C0.78 15.9633 0.956667 15.7133 1.31 15.56L1.75 15.42C1.93667 15.3467 2.07667 15.25 2.17 15.13C2.27 15.01 2.32 14.83 2.32 14.59V5.39C2.32 5.15667 2.27 4.98 2.17 4.86C2.07667 4.74 1.93667 4.64667 1.75 4.58L1.31 4.44C0.956667 4.28667 0.78 4.03667 0.78 3.69C0.78 3.47 0.846667 3.3 0.98 3.18C1.11333 3.06 1.31 3 1.57 3H6.03C6.29667 3 6.49333 3.06333 6.62 3.19C6.75333 3.31 6.82 3.47667 6.82 3.69C6.82 4.03667 6.64333 4.28667 6.29 4.44L5.85 4.58C5.67 4.64667 5.53 4.74 5.43 4.86C5.33667 4.98 5.29 5.15667 5.29 5.39V14.59ZM19.0863 11.91C19.0863 10.95 19.2129 10.1533 19.4663 9.52C19.7263 8.88667 20.0696 8.41333 20.4963 8.1C20.9296 7.78667 21.4096 7.63 21.9363 7.63C22.5163 7.63 22.9663 7.81 23.2863 8.17C23.6129 8.52333 23.7763 9.03667 23.7763 9.71C23.7763 10.29 23.6596 10.72 23.4263 11C23.1996 11.2733 22.8996 11.41 22.5263 11.41C22.1396 11.41 21.8463 11.3167 21.6463 11.13C21.4529 10.9367 21.3563 10.67 21.3563 10.33V9.98C21.3563 9.78 21.3063 9.63333 21.2063 9.54C21.1129 9.44667 20.9796 9.4 20.8062 9.4C20.5796 9.4 20.3629 9.49 20.1562 9.67C19.9563 9.85 19.7929 10.12 19.6663 10.48C19.5463 10.8333 19.4863 11.2733 19.4863 11.8L19.0863 11.91ZM19.3363 8.42L19.4863 10.49V14.89C19.4863 15.1367 19.5263 15.3267 19.6063 15.46C19.6929 15.5933 19.8296 15.6733 20.0163 15.7L20.7363 15.79C20.9229 15.8167 21.0596 15.8867 21.1463 16C21.2329 16.1133 21.2763 16.25 21.2763 16.41C21.2763 16.59 21.2196 16.7333 21.1063 16.84C20.9929 16.9467 20.8296 17 20.6163 17H16.4363C16.2363 17 16.0763 16.95 15.9563 16.85C15.8363 16.7433 15.7763 16.5967 15.7763 16.41C15.7763 16.2633 15.8129 16.1433 15.8863 16.05C15.9596 15.9567 16.0629 15.87 16.1963 15.79L16.4762 15.7C16.6029 15.6467 16.6963 15.5667 16.7563 15.46C16.8163 15.3467 16.8463 15.1567 16.8463 14.89V10.47C16.8463 10.2367 16.8129 10.0733 16.7463 9.98C16.6863 9.88667 16.5929 9.82 16.4663 9.78L16.0363 9.73C15.9096 9.67667 15.8096 9.60667 15.7363 9.52C15.6696 9.43333 15.6363 9.32667 15.6363 9.2C15.6363 9.05333 15.6829 8.92667 15.7763 8.82C15.8696 8.71333 16.0196 8.62333 16.2263 8.55L17.8463 7.95C18.0663 7.86333 18.2529 7.79667 18.4063 7.75C18.5596 7.70333 18.6863 7.68 18.7863 7.68C18.9463 7.68 19.0696 7.73333 19.1563 7.84C19.2496 7.94667 19.3096 8.14 19.3363 8.42ZM28.3248 8.35V14.89C28.3248 15.1567 28.3548 15.3467 28.4148 15.46C28.4815 15.5667 28.5748 15.6467 28.6948 15.7L28.9748 15.79C29.1082 15.8633 29.2082 15.95 29.2748 16.05C29.3482 16.1433 29.3848 16.2633 29.3848 16.41C29.3848 16.5967 29.3282 16.7433 29.2148 16.85C29.1015 16.95 28.9415 17 28.7348 17H25.2448C25.0382 17 24.8748 16.95 24.7548 16.85C24.6415 16.7433 24.5848 16.5967 24.5848 16.41C24.5848 16.2633 24.6215 16.1433 24.6948 16.05C24.7682 15.95 24.8715 15.8633 25.0048 15.79L25.2848 15.7C25.4115 15.6467 25.5048 15.5667 25.5648 15.46C25.6248 15.3467 25.6548 15.1567 25.6548 14.89V10.47C25.6548 10.2367 25.6215 10.0733 25.5548 9.98C25.4948 9.88667 25.4015 9.82 25.2748 9.78L24.8448 9.73C24.7182 9.67 24.6182 9.6 24.5448 9.52C24.4782 9.43333 24.4448 9.32667 24.4448 9.2C24.4448 9.05333 24.4882 8.92667 24.5748 8.82C24.6682 8.71333 24.8215 8.62333 25.0348 8.55L26.6248 7.96C26.8782 7.86 27.0848 7.79 27.2448 7.75C27.4115 7.70333 27.5682 7.68 27.7148 7.68C27.9082 7.68 28.0582 7.74333 28.1648 7.87C28.2715 7.99 28.3248 8.15 28.3248 8.35ZM26.8048 6.25C26.2915 6.25 25.8782 6.11333 25.5648 5.84C25.2582 5.56 25.1048 5.19333 25.1048 4.74C25.1048 4.28667 25.2582 3.92333 25.5648 3.65C25.8782 3.37667 26.2915 3.24 26.8048 3.24C27.3248 3.24 27.7382 3.37667 28.0448 3.65C28.3582 3.92333 28.5148 4.28667 28.5148 4.74C28.5148 5.19333 28.3582 5.56 28.0448 5.84C27.7382 6.11333 27.3248 6.25 26.8048 6.25ZM34.1756 8.78C33.769 8.78 33.4556 8.87667 33.2356 9.07C33.0156 9.26333 32.9056 9.50667 32.9056 9.8C32.9056 10.0067 32.959 10.1867 33.0656 10.34C33.179 10.4933 33.3456 10.63 33.5656 10.75C33.7923 10.87 34.079 10.9767 34.4256 11.07C35.3123 11.29 36.0323 11.5467 36.5856 11.84C37.139 12.1267 37.5423 12.4733 37.7956 12.88C38.0556 13.28 38.1856 13.7533 38.1856 14.3C38.1856 15.1533 37.8856 15.8533 37.2856 16.4C36.6923 16.9467 35.7856 17.22 34.5656 17.22C34.199 17.22 33.8823 17.1833 33.6156 17.11C33.349 17.0433 33.1223 16.9767 32.9356 16.91C32.749 16.8367 32.5923 16.8 32.4656 16.8C32.3523 16.8 32.259 16.8367 32.1856 16.91C32.1123 16.9833 32.0356 17.0533 31.9556 17.12C31.8756 17.1933 31.7723 17.23 31.6456 17.23C31.499 17.23 31.3656 17.18 31.2456 17.08C31.1323 16.9867 31.0356 16.82 30.9556 16.58L30.4556 15.27C30.3423 14.9433 30.3156 14.6733 30.3756 14.46C30.4356 14.24 30.5623 14.0933 30.7556 14.02C30.949 13.9467 31.149 13.95 31.3556 14.03C31.5623 14.11 31.7423 14.2533 31.8956 14.46C32.129 14.82 32.3756 15.12 32.6356 15.36C32.8956 15.6 33.1756 15.78 33.4756 15.9C33.7756 16.02 34.0923 16.08 34.4256 16.08C34.919 16.08 35.279 15.9733 35.5056 15.76C35.7323 15.54 35.8456 15.27 35.8456 14.95C35.8456 14.7167 35.779 14.5167 35.6456 14.35C35.519 14.1767 35.319 14.0267 35.0456 13.9C34.779 13.7667 34.4323 13.65 34.0056 13.55C33.2523 13.3967 32.619 13.1867 32.1056 12.92C31.599 12.6533 31.2156 12.3167 30.9556 11.91C30.6956 11.4967 30.5656 11.01 30.5656 10.45C30.5656 9.89667 30.7123 9.41 31.0056 8.99C31.299 8.56333 31.7056 8.23 32.2256 7.99C32.7523 7.75 33.3623 7.63 34.0556 7.63C34.4956 7.63 34.849 7.66667 35.1156 7.74C35.389 7.81333 35.6023 7.88667 35.7556 7.96C35.909 8.03333 36.0256 8.07 36.1056 8.07C36.219 8.07 36.3123 8.03333 36.3856 7.96C36.4656 7.88667 36.5456 7.81333 36.6256 7.74C36.7056 7.66667 36.8056 7.63 36.9256 7.63C37.0523 7.63 37.1656 7.67333 37.2656 7.76C37.3656 7.84667 37.439 7.99667 37.4856 8.21L37.8656 9.64C37.939 9.95333 37.959 10.22 37.9256 10.44C37.8923 10.6533 37.7723 10.7867 37.5656 10.84C37.4056 10.88 37.2356 10.8533 37.0556 10.76C36.8823 10.66 36.7156 10.4933 36.5556 10.26C36.2556 9.76 35.909 9.39 35.5156 9.15C35.1223 8.90333 34.6756 8.78 34.1756 8.78ZM39.7105 9.15L39.3305 9.07C39.1838 9.00333 39.0771 8.92 39.0105 8.82C38.9505 8.71333 38.9205 8.58667 38.9205 8.44C38.9205 8.26667 38.9805 8.12333 39.1005 8.01C39.2205 7.89667 39.3805 7.84 39.5805 7.84H40.0205C40.1538 7.84 40.2738 7.8 40.3805 7.72C40.4871 7.64 40.6005 7.49333 40.7205 7.28L41.3005 6.13C41.4271 5.93 41.5705 5.77333 41.7305 5.66C41.8971 5.54667 42.0605 5.49 42.2205 5.49C42.4071 5.49 42.5571 5.55 42.6705 5.67C42.7905 5.78333 42.8505 5.95667 42.8505 6.19V14.04C42.8505 14.44 42.9338 14.7433 43.1005 14.95C43.2738 15.1567 43.5171 15.26 43.8305 15.26C44.0171 15.26 44.1771 15.2267 44.3105 15.16C44.4438 15.0933 44.5605 15.0133 44.6605 14.92C44.7671 14.8267 44.8638 14.7467 44.9505 14.68C45.0371 14.6133 45.1238 14.5833 45.2105 14.59C45.3105 14.59 45.3905 14.6333 45.4505 14.72C45.5171 14.8067 45.5438 14.9367 45.5305 15.11C45.5238 15.47 45.4005 15.81 45.1605 16.13C44.9205 16.45 44.5971 16.71 44.1905 16.91C43.7905 17.1033 43.3405 17.2 42.8405 17.2C41.9938 17.2 41.3405 16.9833 40.8805 16.55C40.4205 16.1167 40.1905 15.45 40.1905 14.55V9.91C40.1905 9.68333 40.1538 9.51667 40.0805 9.41C40.0071 9.29667 39.8838 9.21 39.7105 9.15ZM41.7805 9.22V7.84H44.9205C45.1271 7.84 45.2871 7.88667 45.4005 7.98C45.5138 8.06667 45.5705 8.19667 45.5705 8.37C45.5705 8.61 45.4638 8.81333 45.2505 8.98C45.0371 9.14 44.6938 9.22 44.2205 9.22H41.7805ZM50.2584 8.35V14.89C50.2584 15.1567 50.2884 15.3467 50.3484 15.46C50.4151 15.5667 50.5084 15.6467 50.6284 15.7L50.9084 15.79C51.0418 15.8633 51.1418 15.95 51.2084 16.05C51.2818 16.1433 51.3184 16.2633 51.3184 16.41C51.3184 16.5967 51.2618 16.7433 51.1484 16.85C51.0351 16.95 50.8751 17 50.6684 17H47.1784C46.9718 17 46.8084 16.95 46.6884 16.85C46.5751 16.7433 46.5184 16.5967 46.5184 16.41C46.5184 16.2633 46.5551 16.1433 46.6284 16.05C46.7018 15.95 46.8051 15.8633 46.9384 15.79L47.2184 15.7C47.3451 15.6467 47.4384 15.5667 47.4984 15.46C47.5584 15.3467 47.5884 15.1567 47.5884 14.89V10.47C47.5884 10.2367 47.5551 10.0733 47.4884 9.98C47.4284 9.88667 47.3351 9.82 47.2084 9.78L46.7784 9.73C46.6518 9.67 46.5518 9.6 46.4784 9.52C46.4118 9.43333 46.3784 9.32667 46.3784 9.2C46.3784 9.05333 46.4218 8.92667 46.5084 8.82C46.6018 8.71333 46.7551 8.62333 46.9684 8.55L48.5584 7.96C48.8118 7.86 49.0184 7.79 49.1784 7.75C49.3451 7.70333 49.5018 7.68 49.6484 7.68C49.8418 7.68 49.9918 7.74333 50.0984 7.87C50.2051 7.99 50.2584 8.15 50.2584 8.35ZM48.7384 6.25C48.2251 6.25 47.8118 6.11333 47.4984 5.84C47.1918 5.56 47.0384 5.19333 47.0384 4.74C47.0384 4.28667 47.1918 3.92333 47.4984 3.65C47.8118 3.37667 48.2251 3.24 48.7384 3.24C49.2584 3.24 49.6718 3.37667 49.9784 3.65C50.2918 3.92333 50.4484 4.28667 50.4484 4.74C50.4484 5.19333 50.2918 5.56 49.9784 5.84C49.6718 6.11333 49.2584 6.25 48.7384 6.25ZM56.0592 8.35V14.89C56.0592 15.1767 56.0859 15.38 56.1392 15.5C56.1926 15.62 56.2859 15.7067 56.4192 15.76L56.7092 15.87C56.9359 15.9967 57.0492 16.1767 57.0492 16.41C57.0492 16.8033 56.8492 17 56.4492 17H52.9792C52.7726 17 52.6092 16.95 52.4892 16.85C52.3759 16.7433 52.3192 16.5967 52.3192 16.41C52.3192 16.2633 52.3526 16.1433 52.4192 16.05C52.4926 15.9567 52.5959 15.87 52.7292 15.79L53.0192 15.7C53.1459 15.6467 53.2392 15.5667 53.2992 15.46C53.3592 15.3467 53.3892 15.1567 53.3892 14.89V10.47C53.3892 10.2367 53.3559 10.0733 53.2892 9.98C53.2292 9.88667 53.1359 9.82 53.0092 9.78L52.5792 9.73C52.4459 9.67 52.3459 9.6 52.2792 9.52C52.2126 9.43333 52.1792 9.32667 52.1792 9.2C52.1792 9.05333 52.2226 8.92667 52.3092 8.82C52.4026 8.71333 52.5559 8.62333 52.7692 8.55L54.3592 7.96C54.6126 7.86 54.8192 7.79 54.9792 7.75C55.1392 7.70333 55.2959 7.68 55.4492 7.68C55.6426 7.68 55.7926 7.74333 55.8992 7.87C56.0059 7.99 56.0592 8.15 56.0592 8.35ZM55.7492 10.77L55.1992 10.13L55.6492 9.68C56.3959 8.95333 57.0792 8.43 57.6992 8.11C58.3192 7.79 58.9092 7.63 59.4692 7.63C60.2826 7.63 60.9326 7.89 61.4192 8.41C61.9059 8.92333 62.1492 9.61667 62.1492 10.49V14.89C62.1492 15.1567 62.1792 15.3467 62.2392 15.46C62.2992 15.5667 62.3926 15.6467 62.5192 15.7L62.7992 15.79C62.9326 15.87 63.0326 15.9567 63.0992 16.05C63.1726 16.1433 63.2092 16.2633 63.2092 16.41C63.2092 16.5967 63.1526 16.7433 63.0392 16.85C62.9259 16.95 62.7626 17 62.5492 17H59.0792C58.6792 17 58.4792 16.8033 58.4792 16.41C58.4792 16.1767 58.5959 15.9967 58.8292 15.87L59.1192 15.76C59.2526 15.7067 59.3459 15.62 59.3992 15.5C59.4526 15.38 59.4792 15.1767 59.4792 14.89V11.16C59.4792 10.64 59.3526 10.2433 59.0992 9.97C58.8459 9.69 58.4992 9.55 58.0592 9.55C57.7526 9.55 57.4359 9.62 57.1092 9.76C56.7826 9.89333 56.4526 10.1167 56.1192 10.43L55.7492 10.77ZM8.17 23C8.41667 23 8.62667 22.9667 8.8 22.9C8.97333 22.8267 9.13667 22.7567 9.29 22.69C9.44333 22.6233 9.60333 22.59 9.77 22.59C10.0567 22.59 10.27 22.67 10.41 22.83C10.5567 22.99 10.6767 23.2367 10.77 23.57L11.45 26.13C11.51 26.3433 11.4833 26.5233 11.37 26.67C11.2633 26.81 11.1067 26.9 10.9 26.94C10.74 26.9667 10.58 26.9433 10.42 26.87C10.2667 26.7967 10.1367 26.6367 10.03 26.39C9.81 25.81 9.59333 25.3833 9.38 25.11C9.16667 24.83 8.93333 24.6467 8.68 24.56C8.43333 24.4667 8.13 24.42 7.77 24.42H5.29V34.6C5.29 34.8467 5.33667 35.0333 5.43 35.16C5.53 35.28 5.67667 35.3667 5.87 35.42L6.62 35.6C6.8 35.66 6.93333 35.7467 7.02 35.86C7.10667 35.9667 7.15 36.1167 7.15 36.31C7.15 36.53 7.08333 36.7 6.95 36.82C6.82333 36.94 6.62667 37 6.36 37H1.57C1.31 37 1.11333 36.94 0.98 36.82C0.846667 36.7 0.78 36.53 0.78 36.31C0.78 35.9633 0.956667 35.7133 1.31 35.56L1.75 35.42C1.93667 35.3467 2.07667 35.2533 2.17 35.14C2.27 35.02 2.32 34.8433 2.32 34.61V25.39C2.32 25.1567 2.27 24.98 2.17 24.86C2.07667 24.74 1.93667 24.6467 1.75 24.58L1.31 24.44C0.956667 24.2867 0.78 24.0367 0.78 23.69C0.78 23.47 0.846667 23.3 0.98 23.18C1.11333 23.06 1.31 23 1.57 23H8.17ZM3.94 29.79H7.45C7.79667 29.79 8.03 29.72 8.15 29.58C8.27667 29.4333 8.36667 29.1867 8.42 28.84C8.46667 28.6533 8.54 28.51 8.64 28.41C8.74667 28.31 8.87667 28.2567 9.03 28.25C9.37667 28.2367 9.59333 28.4267 9.68 28.82L10.32 31.47C10.38 31.71 10.3767 31.9067 10.31 32.06C10.2433 32.2067 10.1167 32.31 9.93 32.37C9.77667 32.4233 9.62667 32.4167 9.48 32.35C9.33333 32.2833 9.21 32.1667 9.11 32C8.99 31.78 8.87333 31.61 8.76 31.49C8.65333 31.3633 8.51667 31.2767 8.35 31.23C8.19 31.1767 7.97333 31.15 7.7 31.15H3.94V29.79ZM16.8586 27.63C17.8319 27.63 18.6853 27.8367 19.4186 28.25C20.1519 28.6567 20.7219 29.2233 21.1286 29.95C21.5419 30.67 21.7486 31.5033 21.7486 32.45C21.7486 33.35 21.5386 34.16 21.1186 34.88C20.6986 35.6 20.1119 36.17 19.3586 36.59C18.6119 37.01 17.7486 37.22 16.7686 37.22C15.7953 37.22 14.9419 37.0167 14.2086 36.61C13.4753 36.1967 12.9019 35.6267 12.4886 34.9C12.0819 34.1733 11.8786 33.3333 11.8786 32.38C11.8786 31.4867 12.0886 30.6833 12.5086 29.97C12.9286 29.25 13.5119 28.68 14.2586 28.26C15.0053 27.84 15.8719 27.63 16.8586 27.63ZM17.5986 35.78C17.9919 35.6933 18.3086 35.4833 18.5486 35.15C18.7886 34.8167 18.9419 34.3833 19.0086 33.85C19.0753 33.31 19.0319 32.6967 18.8786 32.01C18.7253 31.2767 18.5019 30.6767 18.2086 30.21C17.9219 29.7433 17.5919 29.4133 17.2186 29.22C16.8519 29.0267 16.4653 28.9733 16.0586 29.06C15.6719 29.14 15.3519 29.3467 15.0986 29.68C14.8519 30.0067 14.6953 30.4367 14.6286 30.97C14.5619 31.5033 14.6053 32.1233 14.7586 32.83C14.9186 33.5633 15.1419 34.1633 15.4286 34.63C15.7219 35.09 16.0553 35.4167 16.4286 35.61C16.8019 35.8033 17.1919 35.86 17.5986 35.78ZM26.4142 31.92L27.1642 32.59L25.5642 34.67C25.3442 34.95 25.2309 35.1667 25.2242 35.32C25.2242 35.4667 25.3142 35.5867 25.4942 35.68L25.8842 35.82C26.0176 35.9 26.1176 35.9867 26.1842 36.08C26.2509 36.1667 26.2842 36.2767 26.2842 36.41C26.2842 36.5967 26.2242 36.7433 26.1042 36.85C25.9909 36.95 25.8276 37 25.6142 37H23.1742C22.9742 37 22.8142 36.95 22.6942 36.85C22.5742 36.7433 22.5142 36.5967 22.5142 36.41C22.5142 36.2633 22.5542 36.1367 22.6342 36.03C22.7209 35.9167 22.8776 35.8 23.1042 35.68C23.2909 35.5933 23.4542 35.49 23.5942 35.37C23.7409 35.2433 23.8909 35.09 24.0442 34.91C24.2042 34.7233 24.3842 34.5067 24.5842 34.26L26.4142 31.92ZM27.2042 29.73L28.8742 31.85L29.0742 32.06L31.4642 35.05C31.6509 35.2767 31.7942 35.44 31.8942 35.54C31.9942 35.6333 32.1209 35.7233 32.2742 35.81C32.4276 35.8967 32.5442 35.9867 32.6242 36.08C32.7042 36.1667 32.7442 36.2767 32.7442 36.41C32.7442 36.5967 32.6842 36.7433 32.5642 36.85C32.4509 36.95 32.2909 37 32.0842 37H28.3042C28.1042 37 27.9409 36.95 27.8142 36.85C27.6942 36.7433 27.6342 36.5967 27.6342 36.41C27.6342 36.2767 27.6609 36.17 27.7142 36.09C27.7676 36.0033 27.8409 35.93 27.9342 35.87L28.2242 35.77C28.3442 35.7167 28.4042 35.6567 28.4042 35.59C28.4042 35.5167 28.3576 35.4167 28.2642 35.29L26.4142 32.89L26.2042 32.66L24.0342 29.87C23.8609 29.65 23.7009 29.4767 23.5542 29.35C23.4142 29.2233 23.2576 29.1233 23.0842 29.05C22.9376 28.9767 22.8276 28.89 22.7542 28.79C22.6809 28.69 22.6442 28.57 22.6442 28.43C22.6442 28.2433 22.7042 28.1 22.8242 28C22.9442 27.8933 23.1042 27.84 23.3042 27.84H27.0942C27.3076 27.84 27.4709 27.8933 27.5842 28C27.7042 28.1 27.7642 28.2433 27.7642 28.43C27.7642 28.5633 27.7376 28.6767 27.6842 28.77C27.6309 28.8567 27.5542 28.9333 27.4542 29L27.2042 29.09C27.0709 29.1633 27.0042 29.25 27.0042 29.35C27.0109 29.4433 27.0776 29.57 27.2042 29.73ZM28.5842 32.97L27.8242 32.35L29.7042 30.01C29.8709 29.7967 29.9442 29.62 29.9242 29.48C29.9109 29.3333 29.8009 29.21 29.5942 29.11L29.3042 29.02C29.1576 28.94 29.0476 28.8567 28.9742 28.77C28.9076 28.6767 28.8742 28.5633 28.8742 28.43C28.8742 28.2433 28.9342 28.1 29.0542 28C29.1742 27.8933 29.3376 27.84 29.5442 27.84H31.9442C32.1509 27.84 32.3109 27.8933 32.4242 28C32.5442 28.1 32.6042 28.2433 32.6042 28.43C32.6042 28.5767 32.5642 28.7 32.4842 28.8C32.4042 28.8933 32.2676 28.9933 32.0742 29.1C31.8476 29.2267 31.6309 29.39 31.4242 29.59C31.2242 29.7833 30.9676 30.0633 30.6542 30.43L28.5842 32.97ZM37.0002 31.92L37.7502 32.59L36.1502 34.67C35.9302 34.95 35.8168 35.1667 35.8102 35.32C35.8102 35.4667 35.9002 35.5867 36.0802 35.68L36.4702 35.82C36.6035 35.9 36.7035 35.9867 36.7702 36.08C36.8368 36.1667 36.8702 36.2767 36.8702 36.41C36.8702 36.5967 36.8102 36.7433 36.6902 36.85C36.5768 36.95 36.4135 37 36.2002 37H33.7602C33.5602 37 33.4002 36.95 33.2802 36.85C33.1602 36.7433 33.1002 36.5967 33.1002 36.41C33.1002 36.2633 33.1402 36.1367 33.2202 36.03C33.3068 35.9167 33.4635 35.8 33.6902 35.68C33.8768 35.5933 34.0402 35.49 34.1802 35.37C34.3268 35.2433 34.4768 35.09 34.6302 34.91C34.7902 34.7233 34.9702 34.5067 35.1702 34.26L37.0002 31.92ZM37.7902 29.73L39.4602 31.85L39.6602 32.06L42.0502 35.05C42.2368 35.2767 42.3802 35.44 42.4802 35.54C42.5802 35.6333 42.7068 35.7233 42.8602 35.81C43.0135 35.8967 43.1302 35.9867 43.2102 36.08C43.2902 36.1667 43.3302 36.2767 43.3302 36.41C43.3302 36.5967 43.2702 36.7433 43.1502 36.85C43.0368 36.95 42.8768 37 42.6702 37H38.8902C38.6902 37 38.5268 36.95 38.4002 36.85C38.2802 36.7433 38.2202 36.5967 38.2202 36.41C38.2202 36.2767 38.2468 36.17 38.3002 36.09C38.3535 36.0033 38.4268 35.93 38.5202 35.87L38.8102 35.77C38.9302 35.7167 38.9902 35.6567 38.9902 35.59C38.9902 35.5167 38.9435 35.4167 38.8502 35.29L37.0002 32.89L36.7902 32.66L34.6202 29.87C34.4468 29.65 34.2868 29.4767 34.1402 29.35C34.0002 29.2233 33.8435 29.1233 33.6702 29.05C33.5235 28.9767 33.4135 28.89 33.3402 28.79C33.2668 28.69 33.2302 28.57 33.2302 28.43C33.2302 28.2433 33.2902 28.1 33.4102 28C33.5302 27.8933 33.6902 27.84 33.8902 27.84H37.6802C37.8935 27.84 38.0568 27.8933 38.1702 28C38.2902 28.1 38.3502 28.2433 38.3502 28.43C38.3502 28.5633 38.3235 28.6767 38.2702 28.77C38.2168 28.8567 38.1402 28.9333 38.0402 29L37.7902 29.09C37.6568 29.1633 37.5902 29.25 37.5902 29.35C37.5968 29.4433 37.6635 29.57 37.7902 29.73ZM39.1702 32.97L38.4102 32.35L40.2902 30.01C40.4568 29.7967 40.5302 29.62 40.5102 29.48C40.4968 29.3333 40.3868 29.21 40.1802 29.11L39.8902 29.02C39.7435 28.94 39.6335 28.8567 39.5602 28.77C39.4935 28.6767 39.4602 28.5633 39.4602 28.43C39.4602 28.2433 39.5202 28.1 39.6402 28C39.7602 27.8933 39.9235 27.84 40.1302 27.84H42.5302C42.7368 27.84 42.8968 27.8933 43.0102 28C43.1302 28.1 43.1902 28.2433 43.1902 28.43C43.1902 28.5767 43.1502 28.7 43.0702 28.8C42.9902 28.8933 42.8535 28.9933 42.6602 29.1C42.4335 29.2267 42.2168 29.39 42.0102 29.59C41.8102 29.7833 41.5535 30.0633 41.2402 30.43L39.1702 32.97Z" fill="#1A1A1A"/>
<rect x="49" y="35" width="14" height="2" fill="#A89377"/>
</svg>
