<svg width="156" height="30" viewBox="0 0 156 30" fill="none" xmlns="http://www.w3.org/2000/svg">
<path opacity="0.64" fill-rule="evenodd" clip-rule="evenodd" d="M15 4.8C9.3667 4.8 4.80001 9.3667 4.80001 15C4.8 20.6333 9.3667 25.2 15 25.2C20.6333 25.2 25.2 20.6333 25.2 15C25.2 9.3667 20.6333 4.8 15 4.8ZM15 3.45703e-06C6.71574 2.7328e-06 6.80395e-06 6.71573 6.07971e-06 15C5.35548e-06 23.2843 6.71573 30 15 30C23.2843 30 30 23.2843 30 15C30 6.71573 23.2843 4.18126e-06 15 3.45703e-06Z" fill="#3535DE"/>
<path fill-rule="evenodd" clip-rule="evenodd" d="M12.0301 5.24192L15.8485 9.06031C19.1289 12.3407 19.1289 17.6593 15.8485 20.9397L12.0301 24.7581C12.3515 24.8559 12.6785 24.9381 13.01 25.004C14.9887 25.3976 17.0395 25.1956 18.9033 24.4236C20.7671 23.6516 22.3602 22.3442 23.481 20.6668C24.6018 18.9894 25.2 17.0174 25.2 15C25.2 12.9826 24.6017 11.0106 23.481 9.33319C22.3602 7.65581 20.7671 6.34845 18.9033 5.57643C17.0395 4.80442 14.9887 4.60243 13.0101 4.996C12.6785 5.06194 12.3515 5.14411 12.0301 5.24192ZM7.21864 2.17617C5.51885 3.20756 5.53307 5.5331 6.93896 6.93899L12.4544 12.4544C13.8603 13.8603 13.8603 16.1397 12.4544 17.5456L6.93896 23.061C5.53307 24.4669 5.51885 26.7924 7.21863 27.8238C8.70671 28.7268 10.3485 29.3686 12.0736 29.7118C14.9833 30.2906 17.9993 29.9935 20.7402 28.8582C23.4811 27.7229 25.8238 25.8003 27.472 23.3336C29.1202 20.8668 30 17.9667 30 15C30 12.0333 29.1202 9.13319 27.472 6.66645C25.8238 4.19972 23.4811 2.27713 20.7402 1.14181C17.9993 0.00649872 14.9833 -0.290551 12.0736 0.288227C10.3485 0.631371 8.70671 1.27323 7.21864 2.17617Z" fill="#3535DE"/>
<path d="M57.81 14.796C57.81 16.616 57.4287 18.2193 56.666 19.606C55.9033 20.9927 54.794 22.076 53.338 22.856C51.8993 23.6187 50.1833 24 48.19 24H41.664V5.644H48.19C50.1833 5.644 51.8993 6.02533 53.338 6.788C54.794 7.53333 55.9033 8.59933 56.666 9.986C57.4287 11.3553 57.81 12.9587 57.81 14.796ZM47.878 20.724C49.854 20.724 51.3793 20.204 52.454 19.164C53.546 18.124 54.092 16.668 54.092 14.796C54.092 12.9067 53.546 11.442 52.454 10.402C51.3793 9.362 49.854 8.842 47.878 8.842H45.33V20.724H47.878ZM74.1006 16.252C74.1006 16.616 74.0573 17.032 73.9706 17.5H63.4146C63.4666 18.7827 63.8133 19.7273 64.4546 20.334C65.096 20.9407 65.8933 21.244 66.8466 21.244C67.696 21.244 68.398 21.036 68.9526 20.62C69.5246 20.204 69.8886 19.6407 70.0446 18.93H73.9186C73.728 19.9353 73.3206 20.8367 72.6966 21.634C72.0726 22.4313 71.2666 23.0553 70.2786 23.506C69.308 23.9567 68.2246 24.182 67.0286 24.182C65.6246 24.182 64.3766 23.8873 63.2846 23.298C62.1926 22.6913 61.3433 21.8333 60.7366 20.724C60.13 19.6147 59.8266 18.306 59.8266 16.798C59.8266 15.29 60.13 13.9813 60.7366 12.872C61.3433 11.7453 62.1926 10.8873 63.2846 10.298C64.3766 9.70867 65.6246 9.414 67.0286 9.414C68.45 9.414 69.6893 9.70867 70.7466 10.298C71.8213 10.8873 72.6446 11.702 73.2166 12.742C73.806 13.7647 74.1006 14.9347 74.1006 16.252ZM70.4086 15.888C70.4606 14.7093 70.1486 13.8167 69.4726 13.21C68.814 12.6033 67.9993 12.3 67.0286 12.3C66.0406 12.3 65.2086 12.6033 64.5326 13.21C63.8566 13.8167 63.484 14.7093 63.4146 15.888H70.4086ZM80.3691 4.76V24H76.7031V4.76H80.3691ZM97.2315 16.252C97.2315 16.616 97.1882 17.032 97.1015 17.5H86.5455C86.5975 18.7827 86.9442 19.7273 87.5855 20.334C88.2268 20.9407 89.0242 21.244 89.9775 21.244C90.8268 21.244 91.5288 21.036 92.0835 20.62C92.6555 20.204 93.0195 19.6407 93.1755 18.93H97.0495C96.8588 19.9353 96.4515 20.8367 95.8275 21.634C95.2035 22.4313 94.3975 23.0553 93.4095 23.506C92.4388 23.9567 91.3555 24.182 90.1595 24.182C88.7555 24.182 87.5075 23.8873 86.4155 23.298C85.3235 22.6913 84.4742 21.8333 83.8675 20.724C83.2608 19.6147 82.9575 18.306 82.9575 16.798C82.9575 15.29 83.2608 13.9813 83.8675 12.872C84.4742 11.7453 85.3235 10.8873 86.4155 10.298C87.5075 9.70867 88.7555 9.414 90.1595 9.414C91.5808 9.414 92.8202 9.70867 93.8775 10.298C94.9522 10.8873 95.7755 11.702 96.3475 12.742C96.9368 13.7647 97.2315 14.9347 97.2315 16.252ZM93.5395 15.888C93.5915 14.7093 93.2795 13.8167 92.6035 13.21C91.9448 12.6033 91.1302 12.3 90.1595 12.3C89.1715 12.3 88.3395 12.6033 87.6635 13.21C86.9875 13.8167 86.6148 14.7093 86.5455 15.888H93.5395ZM106.308 9.414C108.163 9.414 109.705 9.91667 110.936 10.922C112.184 11.9273 112.964 13.2967 113.276 15.03H109.402C109.246 14.2673 108.891 13.6693 108.336 13.236C107.781 12.7853 107.079 12.56 106.23 12.56C105.259 12.56 104.445 12.924 103.786 13.652C103.145 14.3627 102.824 15.4113 102.824 16.798C102.824 18.1847 103.145 19.242 103.786 19.97C104.445 20.6807 105.259 21.036 106.23 21.036C107.079 21.036 107.781 20.8193 108.336 20.386C108.891 19.9353 109.246 19.3287 109.402 18.566H113.276C112.964 20.2993 112.184 21.6687 110.936 22.674C109.705 23.6793 108.163 24.182 106.308 24.182C104.904 24.182 103.656 23.8873 102.564 23.298C101.472 22.6913 100.623 21.8333 100.016 20.724C99.4093 19.6147 99.1059 18.306 99.1059 16.798C99.1059 15.29 99.4093 13.9813 100.016 12.872C100.623 11.7453 101.472 10.8873 102.564 10.298C103.656 9.70867 104.904 9.414 106.308 9.414ZM123.577 20.854V24H121.653C120.041 24 118.801 23.61 117.935 22.83C117.085 22.05 116.661 20.75 116.661 18.93V12.69H114.659V9.596H116.661V6.034H120.327V9.596H123.551V12.69H120.327V18.982C120.327 19.6753 120.465 20.1607 120.743 20.438C121.02 20.7153 121.488 20.854 122.147 20.854H123.577ZM139.995 9.596V24H136.329V21.088C135.947 22.0587 135.315 22.8213 134.431 23.376C133.564 23.9133 132.559 24.182 131.415 24.182C129.751 24.182 128.425 23.636 127.437 22.544C126.449 21.452 125.955 19.9267 125.955 17.968V9.596H129.595V17.552C129.595 18.696 129.889 19.5887 130.479 20.23C131.068 20.854 131.865 21.166 132.871 21.166C133.928 21.166 134.769 20.828 135.393 20.152C136.017 19.476 136.329 18.5053 136.329 17.24V9.596H139.995ZM148.294 9.414C150.045 9.414 151.449 9.856 152.506 10.74C153.563 11.624 154.222 12.8027 154.482 14.276H151.05C150.911 13.5827 150.599 13.028 150.114 12.612C149.629 12.196 148.996 11.988 148.216 11.988C147.592 11.988 147.107 12.1353 146.76 12.43C146.413 12.7247 146.24 13.1233 146.24 13.626C146.24 14.0247 146.379 14.3453 146.656 14.588C146.933 14.8307 147.28 15.0213 147.696 15.16C148.112 15.2987 148.71 15.4633 149.49 15.654C150.582 15.8967 151.466 16.1567 152.142 16.434C152.835 16.694 153.425 17.1187 153.91 17.708C154.413 18.28 154.664 19.06 154.664 20.048C154.664 21.2787 154.179 22.2753 153.208 23.038C152.255 23.8007 150.963 24.182 149.334 24.182C147.462 24.182 145.963 23.766 144.836 22.934C143.709 22.0847 143.025 20.88 142.782 19.32H146.292C146.379 20.0307 146.691 20.594 147.228 21.01C147.765 21.4087 148.467 21.608 149.334 21.608C149.958 21.608 150.435 21.4607 150.764 21.166C151.093 20.854 151.258 20.4553 151.258 19.97C151.258 19.554 151.111 19.216 150.816 18.956C150.539 18.696 150.183 18.4967 149.75 18.358C149.334 18.2193 148.736 18.0547 147.956 17.864C146.881 17.6213 146.006 17.3787 145.33 17.136C144.671 16.876 144.099 16.4687 143.614 15.914C143.146 15.3593 142.912 14.5967 142.912 13.626C142.912 12.378 143.389 11.364 144.342 10.584C145.295 9.804 146.613 9.414 148.294 9.414Z" fill="#26262C"/>
</svg>
