<?xml version="1.0" encoding="utf-8"?>
<!-- Generator: Adobe Illustrator 16.0.0, SVG Export Plug-In . SVG Version: 6.00 Build 0)  -->
<!DOCTYPE svg PUBLIC "-//W3C//DTD SVG 1.1//EN" "http://www.w3.org/Graphics/SVG/1.1/DTD/svg11.dtd">
<svg version="1.1" id="Layer_1" xmlns="http://www.w3.org/2000/svg" xmlns:xlink="http://www.w3.org/1999/xlink" x="0px" y="0px"
	 width="103.167px" height="64px" viewBox="0 0 103.167 64" enable-background="new 0 0 103.167 64" xml:space="preserve">
<g>
	<g>
		<path fill="#57AA6E" d="M11.438,15.023L0.001,21.568v13.011l11.438-6.554L11.438,15.023L11.438,15.023z M11.438,0.355L4.494,4.333
			C1.718,5.921,0.003,8.872,0,12.068v8.517l11.438-6.545V0.354V0.355z M11.438,29.03L0.001,35.595v13.353l11.438-6.551L11.438,29.03
			L11.438,29.03z M4.494,59.668l6.944,3.979V43.393L0.001,49.934v1.991C0.001,55.125,1.716,58.079,4.494,59.668L4.494,59.668z
			 M23.591,14.497L12.153,7.925v13.188l11.438,6.56V14.497z M23.591,12.07c-0.003-3.196-1.718-6.149-4.495-7.735l-6.943-3.979v6.554
			l11.438,6.596V12.07z M23.591,51.932V35.72l-11.438-6.521v20.27l10.672,6.071C23.332,54.402,23.592,53.173,23.591,51.932z
			 M19.096,59.667c1.396-0.801,2.55-1.965,3.34-3.367l-10.283-5.841v13.188L19.096,59.667z M23.591,28.669l-11.438-6.562v6.101
			l11.438,6.487V28.669z"/>
	</g>
	<g>
		<path fill="#57AA6E" d="M38.866,19.455c0.457,0,0.842-0.095,1.154-0.28s0.565-0.43,0.757-0.729
			c0.19-0.298,0.326-0.641,0.405-1.027c0.079-0.387,0.119-0.786,0.119-1.197v-5.068h1.918v5.068c0,0.682-0.082,1.321-0.245,1.918
			c-0.163,0.598-0.42,1.12-0.77,1.568c-0.351,0.446-0.801,0.803-1.352,1.063c-0.551,0.263-1.208,0.394-1.974,0.394
			c-0.793,0-1.468-0.139-2.023-0.413c-0.555-0.275-1.006-0.641-1.351-1.092c-0.346-0.453-0.595-0.979-0.749-1.575
			c-0.154-0.598-0.23-1.218-0.23-1.862v-5.068h1.932v5.068c0,0.42,0.039,0.824,0.119,1.211c0.079,0.388,0.214,0.73,0.405,1.029
			S37.422,19,37.73,19.182C38.04,19.364,38.417,19.455,38.866,19.455z"/>
		<path fill="#57AA6E" d="M45.166,21.093v-9.94h4.396c0.458,0,0.88,0.098,1.268,0.287c0.387,0.191,0.721,0.443,1.002,0.756
			c0.279,0.313,0.498,0.669,0.658,1.064c0.158,0.396,0.236,0.796,0.236,1.197c0,0.644-0.16,1.229-0.482,1.757
			c-0.322,0.527-0.758,0.908-1.309,1.141l2.268,3.738h-2.168l-2.031-3.332H47.1v3.332H45.166z M47.097,16.065h2.422
			c0.178,0,0.344-0.042,0.497-0.126s0.287-0.197,0.399-0.343c0.111-0.145,0.199-0.313,0.266-0.511s0.099-0.406,0.099-0.63
			c0-0.233-0.038-0.448-0.112-0.646c-0.074-0.194-0.174-0.366-0.301-0.511c-0.125-0.145-0.271-0.257-0.435-0.336
			s-0.329-0.119-0.497-0.119h-2.338V16.065z"/>
		<path fill="#57AA6E" d="M62.482,18.531c0,0.42-0.084,0.787-0.252,1.104s-0.398,0.583-0.693,0.798
			c-0.293,0.215-0.635,0.378-1.021,0.49s-0.802,0.168-1.238,0.168h-4.803v-9.94h5.319c0.347,0,0.658,0.075,0.938,0.226
			c0.281,0.148,0.519,0.343,0.715,0.581c0.195,0.236,0.349,0.509,0.455,0.812c0.106,0.305,0.16,0.609,0.16,0.917
			c0,0.485-0.121,0.94-0.362,1.365c-0.242,0.425-0.599,0.74-1.064,0.945c0.57,0.168,1.02,0.469,1.352,0.901
			C62.316,17.334,62.482,17.878,62.482,18.531z M56.406,12.805v2.506h2.576c0.326,0,0.605-0.11,0.834-0.336
			c0.229-0.224,0.342-0.532,0.342-0.924c0-0.383-0.104-0.686-0.314-0.91c-0.209-0.224-0.469-0.336-0.776-0.336H56.406z
			 M60.537,18.167c0-0.178-0.031-0.349-0.092-0.511c-0.061-0.164-0.143-0.307-0.244-0.429c-0.104-0.121-0.225-0.217-0.363-0.287
			c-0.141-0.068-0.295-0.104-0.463-0.104h-2.969v2.618h2.871c0.178,0,0.342-0.033,0.496-0.1c0.154-0.063,0.287-0.155,0.4-0.271
			c0.111-0.117,0.199-0.255,0.266-0.413C60.503,18.512,60.537,18.344,60.537,18.167z"/>
		<path fill="#57AA6E" d="M66.613,11.151h1.709l3.779,9.94h-1.988l-0.924-2.478h-3.473l-0.91,2.478H62.82L66.613,11.151z
			 M68.839,17.257l-1.373-3.906l-1.428,3.906H68.839z"/>
		<path fill="#57AA6E" d="M75.125,14.723v6.37h-1.932v-9.94h1.498l5.18,6.524v-6.51h1.933v9.926h-1.569L75.125,14.723z"/>
		<path fill="#57AA6E" d="M34.666,37.893v-9.939h1.932v8.246h5.068v1.693H34.666z"/>
		<path fill="#57AA6E" d="M42.841,37.893v-9.939h1.932v9.939H42.841z"/>
		<path fill="#57AA6E" d="M47.867,27.952l2.688,7.519l2.659-7.519h2.029l-3.877,9.94h-1.623l-3.906-9.94H47.867z"/>
		<path fill="#57AA6E" d="M56.309,37.893v-9.939h1.933v9.939H56.309z"/>
		<path fill="#57AA6E" d="M62.244,31.521v6.371h-1.932v-9.94h1.498l5.18,6.524v-6.511h1.934v9.927h-1.567L62.244,31.521z"/>
		<path fill="#57AA6E" d="M77.898,36.771c-0.795,0.795-1.719,1.19-2.773,1.19c-0.651,0-1.266-0.131-1.84-0.394
			c-0.574-0.26-1.074-0.619-1.498-1.077c-0.426-0.457-0.762-0.996-1.008-1.616c-0.248-0.621-0.371-1.291-0.371-2.01
			c0-0.682,0.123-1.322,0.371-1.926c0.246-0.602,0.588-1.129,1.021-1.582c0.434-0.451,0.945-0.812,1.533-1.077
			c0.588-0.267,1.227-0.398,1.918-0.398c0.934,0,1.731,0.195,2.399,0.588c0.668,0.392,1.17,0.919,1.507,1.582l-1.443,1.063
			c-0.252-0.494-0.604-0.872-1.057-1.135c-0.453-0.261-0.945-0.392-1.478-0.392c-0.421,0-0.806,0.089-1.154,0.266
			c-0.353,0.179-0.649,0.42-0.896,0.729c-0.248,0.308-0.439,0.662-0.574,1.063c-0.135,0.401-0.203,0.826-0.203,1.274
			c0,0.468,0.074,0.902,0.225,1.31c0.148,0.405,0.354,0.759,0.615,1.058c0.262,0.298,0.572,0.534,0.932,0.706
			c0.359,0.173,0.748,0.26,1.168,0.26c0.961,0,1.83-0.453,2.605-1.357v-0.701h-2.004v-1.413h3.6v5.11h-1.596V36.771z"/>
		<path fill="#57AA6E" d="M87.066,30.557c-0.064-0.064-0.184-0.154-0.357-0.266c-0.172-0.112-0.383-0.223-0.629-0.329
			c-0.248-0.107-0.516-0.198-0.805-0.273c-0.289-0.073-0.584-0.111-0.883-0.111c-0.531,0-0.928,0.099-1.189,0.294
			s-0.393,0.472-0.393,0.826c0,0.205,0.049,0.376,0.146,0.512c0.1,0.135,0.239,0.254,0.428,0.355
			c0.188,0.103,0.422,0.196,0.707,0.28s0.613,0.173,0.986,0.266c0.485,0.132,0.928,0.271,1.323,0.421
			c0.396,0.148,0.731,0.336,1.009,0.561c0.274,0.225,0.487,0.492,0.637,0.805c0.148,0.313,0.225,0.698,0.225,1.155
			c0,0.532-0.102,0.986-0.301,1.365c-0.201,0.378-0.473,0.685-0.813,0.917c-0.343,0.232-0.732,0.402-1.177,0.511
			s-0.908,0.161-1.394,0.161c-0.748,0-1.483-0.111-2.213-0.336c-0.729-0.225-1.381-0.542-1.961-0.952l0.855-1.666
			c0.084,0.084,0.234,0.193,0.455,0.329c0.219,0.135,0.477,0.271,0.775,0.405c0.299,0.136,0.631,0.25,0.994,0.344
			c0.364,0.093,0.737,0.14,1.12,0.14c1.064,0,1.597-0.34,1.597-1.021c0-0.214-0.062-0.396-0.183-0.546
			c-0.12-0.147-0.295-0.279-0.519-0.392c-0.225-0.112-0.495-0.216-0.813-0.309c-0.318-0.094-0.672-0.195-1.064-0.309
			c-0.477-0.131-0.889-0.272-1.237-0.428c-0.349-0.154-0.644-0.336-0.875-0.545c-0.233-0.211-0.408-0.454-0.524-0.729
			c-0.117-0.274-0.177-0.604-0.177-0.986c0-0.504,0.095-0.952,0.281-1.345s0.444-0.719,0.776-0.979
			c0.33-0.262,0.715-0.46,1.154-0.595c0.438-0.136,0.91-0.203,1.414-0.203c0.699,0,1.344,0.109,1.932,0.329
			c0.588,0.219,1.103,0.479,1.539,0.776L87.066,30.557z"/>
		<path fill="#57AA6E" d="M34.666,54.691v-9.939h4.214c0.457,0,0.88,0.098,1.267,0.287c0.388,0.191,0.722,0.443,1.001,0.756
			c0.28,0.313,0.5,0.668,0.658,1.064c0.159,0.396,0.238,0.796,0.238,1.197c0,0.42-0.075,0.827-0.224,1.225
			c-0.149,0.396-0.359,0.749-0.631,1.058c-0.271,0.308-0.597,0.556-0.979,0.741c-0.383,0.188-0.803,0.279-1.26,0.279h-2.353v3.332
			H34.666z M36.597,49.666h2.24c0.354,0,0.651-0.145,0.889-0.434c0.238-0.289,0.357-0.683,0.357-1.176
			c0-0.252-0.037-0.479-0.112-0.681c-0.074-0.2-0.173-0.37-0.294-0.511c-0.121-0.141-0.264-0.245-0.427-0.314
			c-0.163-0.07-0.329-0.105-0.497-0.105h-2.156V49.666z"/>
		<path fill="#57AA6E" d="M43.387,54.691v-9.939h4.396c0.459,0,0.881,0.098,1.268,0.287c0.388,0.191,0.722,0.443,1.002,0.756
			c0.279,0.313,0.498,0.668,0.658,1.064c0.158,0.396,0.236,0.796,0.236,1.197c0,0.644-0.16,1.229-0.482,1.756
			c-0.321,0.527-0.758,0.908-1.31,1.142l2.269,3.737h-2.17l-2.029-3.332H45.32v3.332H43.387z M45.319,49.666h2.423
			c0.178,0,0.344-0.042,0.496-0.126c0.154-0.084,0.287-0.198,0.399-0.343c0.112-0.146,0.2-0.314,0.266-0.512
			c0.065-0.196,0.099-0.405,0.099-0.629c0-0.233-0.037-0.449-0.111-0.646c-0.075-0.195-0.176-0.366-0.301-0.511
			c-0.127-0.146-0.271-0.258-0.436-0.336c-0.164-0.08-0.328-0.119-0.497-0.119h-2.338V49.666z"/>
		<path fill="#57AA6E" d="M56.939,54.764c-0.729,0-1.389-0.144-1.982-0.429c-0.592-0.284-1.102-0.662-1.524-1.134
			c-0.427-0.471-0.754-1.01-0.986-1.617c-0.233-0.605-0.353-1.227-0.353-1.861c0-0.662,0.125-1.298,0.371-1.904
			c0.248-0.605,0.589-1.144,1.023-1.609c0.434-0.466,0.949-0.837,1.547-1.111c0.596-0.275,1.246-0.414,1.945-0.414
			c0.719,0,1.375,0.146,1.967,0.44c0.594,0.294,1.1,0.681,1.52,1.155c0.421,0.475,0.746,1.018,0.98,1.623
			c0.232,0.606,0.35,1.224,0.35,1.849c0,0.663-0.121,1.295-0.362,1.897c-0.244,0.602-0.58,1.134-1.011,1.596
			c-0.428,0.462-0.94,0.831-1.539,1.105C58.287,54.625,57.639,54.764,56.939,54.764z M54.055,49.723c0,0.43,0.063,0.846,0.194,1.246
			c0.131,0.401,0.32,0.756,0.568,1.063c0.246,0.309,0.551,0.556,0.91,0.741c0.357,0.188,0.768,0.281,1.225,0.281
			c0.467,0,0.879-0.097,1.238-0.287c0.359-0.191,0.662-0.445,0.91-0.765c0.248-0.315,0.434-0.674,0.561-1.069
			c0.125-0.396,0.189-0.802,0.189-1.211c0-0.431-0.068-0.846-0.203-1.246c-0.137-0.401-0.328-0.757-0.574-1.064
			c-0.248-0.309-0.551-0.553-0.91-0.734c-0.358-0.183-0.764-0.272-1.211-0.272c-0.467,0-0.883,0.096-1.246,0.286
			c-0.365,0.191-0.668,0.443-0.91,0.757c-0.241,0.313-0.428,0.668-0.553,1.063C54.117,48.908,54.055,49.313,54.055,49.723z"/>
		<path fill="#57AA6E" d="M62.287,52.662c0.131,0.094,0.351,0.195,0.658,0.309c0.309,0.111,0.662,0.168,1.064,0.168
			c0.393,0,0.705-0.068,0.938-0.203c0.232-0.136,0.41-0.343,0.531-0.623c0.121-0.279,0.201-0.627,0.238-1.043
			c0.037-0.414,0.057-0.902,0.057-1.463v-5.055h1.932v5.055c0,0.756-0.039,1.444-0.119,2.064c-0.078,0.621-0.246,1.15-0.504,1.589
			c-0.256,0.438-0.627,0.78-1.113,1.022c-0.483,0.242-1.139,0.363-1.959,0.363c-0.84,0-1.559-0.205-2.155-0.615L62.287,52.662z"/>
		<path fill="#57AA6E" d="M76.568,52.998v1.693h-6.902v-9.939h6.775v1.693h-4.844v2.396h4.186v1.567h-4.186v2.59H76.568z"/>
		<path fill="#57AA6E" d="M77.268,49.652c0-0.606,0.108-1.207,0.328-1.799c0.221-0.594,0.538-1.123,0.959-1.59
			c0.42-0.467,0.934-0.845,1.541-1.134c0.604-0.29,1.297-0.435,2.071-0.435c0.914,0,1.705,0.201,2.373,0.603
			c0.666,0.401,1.164,0.925,1.49,1.567l-1.484,1.021c-0.131-0.279-0.289-0.516-0.475-0.707c-0.188-0.19-0.389-0.343-0.604-0.455
			c-0.215-0.111-0.438-0.192-0.672-0.244c-0.232-0.051-0.461-0.078-0.687-0.078c-0.483,0-0.907,0.099-1.269,0.295
			c-0.359,0.195-0.657,0.449-0.895,0.763c-0.238,0.313-0.418,0.668-0.539,1.063c-0.121,0.396-0.184,0.791-0.184,1.184
			c0,0.439,0.07,0.861,0.211,1.268c0.141,0.407,0.338,0.764,0.596,1.07c0.256,0.309,0.564,0.557,0.924,0.742
			c0.359,0.188,0.754,0.279,1.183,0.279c0.225,0,0.459-0.027,0.7-0.084c0.242-0.056,0.474-0.145,0.693-0.266
			c0.219-0.121,0.422-0.277,0.607-0.47c0.188-0.19,0.336-0.422,0.449-0.692l1.582,0.91c-0.16,0.373-0.385,0.702-0.681,0.986
			c-0.293,0.285-0.625,0.525-0.993,0.722c-0.369,0.195-0.763,0.345-1.183,0.447c-0.422,0.103-0.832,0.153-1.231,0.153
			c-0.709,0-1.359-0.148-1.947-0.447s-1.094-0.688-1.518-1.169c-0.427-0.48-0.757-1.026-0.994-1.638
			C77.384,50.907,77.268,50.287,77.268,49.652z"/>
		<path fill="#57AA6E" d="M94.809,46.445H91.63v8.246h-1.918v-8.246h-3.178v-1.693h8.273L94.809,46.445L94.809,46.445z"/>
		<path fill="#57AA6E" d="M101.962,47.355c-0.063-0.064-0.184-0.153-0.356-0.266c-0.172-0.111-0.383-0.222-0.629-0.329
			c-0.248-0.106-0.517-0.198-0.806-0.272s-0.584-0.112-0.883-0.112c-0.531,0-0.928,0.099-1.188,0.294
			c-0.263,0.196-0.394,0.473-0.394,0.826c0,0.206,0.049,0.376,0.146,0.512c0.1,0.135,0.24,0.254,0.428,0.356
			c0.188,0.102,0.422,0.196,0.707,0.28s0.613,0.172,0.986,0.266c0.486,0.131,0.928,0.271,1.324,0.42
			c0.396,0.148,0.731,0.336,1.008,0.561c0.275,0.225,0.488,0.492,0.637,0.805c0.148,0.313,0.225,0.699,0.225,1.156
			c0,0.531-0.102,0.985-0.301,1.364c-0.201,0.378-0.473,0.685-0.813,0.917c-0.342,0.233-0.732,0.403-1.176,0.512
			c-0.444,0.107-0.908,0.16-1.394,0.16c-0.748,0-1.483-0.111-2.213-0.336s-1.381-0.542-1.961-0.951l0.854-1.666
			c0.084,0.084,0.234,0.192,0.455,0.328c0.219,0.135,0.478,0.271,0.775,0.405c0.299,0.136,0.631,0.25,0.994,0.345
			c0.365,0.092,0.738,0.139,1.121,0.139c1.064,0,1.596-0.34,1.596-1.021c0-0.214-0.061-0.396-0.182-0.546
			c-0.121-0.147-0.295-0.278-0.518-0.392c-0.226-0.112-0.496-0.215-0.814-0.309c-0.317-0.094-0.672-0.195-1.063-0.309
			c-0.477-0.131-0.889-0.271-1.237-0.428c-0.35-0.154-0.644-0.336-0.875-0.545c-0.234-0.211-0.408-0.453-0.525-0.729
			c-0.117-0.274-0.176-0.604-0.176-0.985c0-0.505,0.094-0.953,0.281-1.346c0.186-0.393,0.444-0.718,0.776-0.979
			c0.33-0.263,0.715-0.461,1.154-0.596c0.438-0.136,0.909-0.203,1.413-0.203c0.699,0,1.345,0.109,1.933,0.329
			s1.103,0.479,1.539,0.776L101.962,47.355z"/>
	</g>
</g>
</svg>
