<svg width="113" height="28" viewBox="0 0 113 28" fill="none" xmlns="http://www.w3.org/2000/svg">
<path d="M-2.40413e-07 14L8.25 9.23686L8.25 18.7631L-2.40413e-07 14Z" fill="#ED0233"/>
<path d="M23.7323 27.384C21.2149 27.384 19.4123 26.616 18.3243 25.08C17.2576 23.5227 16.7243 21.304 16.7243 18.424V9.752C16.7243 6.808 17.2896 4.57867 18.4203 3.064C19.5723 1.528 21.5349 0.759998 24.3083 0.759998C26.9749 0.759998 28.8736 1.41066 30.0043 2.712C31.1349 4.01333 31.7003 5.89067 31.7003 8.344V9.848H26.5803V8.024C26.5803 6.82933 26.4416 5.95467 26.1643 5.4C25.9083 4.824 25.3109 4.536 24.3723 4.536C23.4123 4.536 22.7936 4.856 22.5163 5.496C22.2389 6.136 22.1003 7.064 22.1003 8.28V19.8C22.1003 21.016 22.2709 21.9547 22.6123 22.616C22.9536 23.256 23.5936 23.576 24.5323 23.576C25.4496 23.576 26.0896 23.2347 26.4523 22.552C26.8363 21.848 27.0283 20.8773 27.0283 19.64V16.888H24.5003V13.688H31.7963V27H28.3403L27.9883 24.696C27.1989 26.488 25.7803 27.384 23.7323 27.384ZM35.4208 1.08H46.7168V4.728H40.6688V11.608H45.3408V15.288H40.6688V23.416H46.7808V27H35.4208V1.08ZM49.4833 1.08H54.7313V23.416H60.8433V27H49.4833V1.08ZM70.248 27.352C68.328 27.352 66.824 27.032 65.736 26.392C64.648 25.7307 63.88 24.7813 63.432 23.544C62.984 22.3067 62.76 20.728 62.76 18.808V1.08H67.944V19.544C67.944 20.7813 68.0933 21.752 68.392 22.456C68.6907 23.16 69.3093 23.512 70.248 23.512C71.1867 23.512 71.8053 23.16 72.104 22.456C72.4027 21.752 72.552 20.7813 72.552 19.544V1.08H77.768V18.808C77.768 20.728 77.544 22.3067 77.096 23.544C76.648 24.7813 75.8693 25.7307 74.76 26.392C73.672 27.032 72.168 27.352 70.248 27.352ZM81.452 1.08H87.788C89.964 1.08 91.66 1.368 92.876 1.944C94.1133 2.49867 94.988 3.36267 95.5 4.536C96.0333 5.70933 96.3 7.26667 96.3 9.208V18.648C96.3 20.632 96.044 22.232 95.532 23.448C95.02 24.6427 94.156 25.5387 92.94 26.136C91.724 26.712 90.0493 27 87.916 27H81.452V1.08ZM87.852 23.32C88.7693 23.32 89.4413 23.1813 89.868 22.904C90.316 22.6053 90.5933 22.1787 90.7 21.624C90.828 21.0693 90.892 20.2693 90.892 19.224V8.504C90.892 7.52267 90.8173 6.78667 90.668 6.296C90.54 5.784 90.2627 5.41067 89.836 5.176C89.4093 4.92 88.7373 4.792 87.82 4.792H86.7V23.32H87.852Z" fill="white"/>
<path d="M113 14L104.75 18.7631L104.75 9.23686L113 14Z" fill="#ED0233"/>
</svg>
