<svg xmlns="http://www.w3.org/2000/svg" xmlns:xlink="http://www.w3.org/1999/xlink" xmlns:serif="http://www.serif.com/" width="299px" height="370px" xml:space="preserve" style="fill-rule:evenodd;clip-rule:evenodd;stroke-linejoin:round;stroke-miterlimit:2;"><path d="M466.851,162.326c14.213,-10.483 17.242,-30.534 6.759,-44.747l-148.587,-201.457c-10.483,-14.214 -30.534,-17.242 -44.747,-6.759l-256.155,188.929c-14.213,10.483 -17.242,30.534 -6.758,44.747l148.586,201.458c10.484,14.213 30.534,17.242 44.748,6.758l256.154,-188.929Z" style="fill:#fecc00;"></path><path d="M434.674,98.653c7.772,-15.86 1.206,-35.045 -14.654,-42.817l-224.785,-110.158c-15.859,-7.772 -35.045,-1.206 -42.817,14.654l-138.031,281.663c-7.772,15.86 -1.206,35.045 14.654,42.817l224.785,110.157c15.859,7.772 35.045,1.206 42.817,-14.653l138.031,-281.663Z" style="fill:#e4032f;"></path></svg>