<svg width="94" height="20" viewBox="0 0 94 20" fill="none" xmlns="http://www.w3.org/2000/svg">
<path d="M14.85 2.436V15H12.33V6.234L9.108 15H6.912L3.69 6.27V15H1.152V2.436H4.23L8.046 11.886L11.79 2.436H14.85ZM16.8601 2.166C16.8601 1.758 17.0041 1.428 17.2921 1.176C17.5801 0.912 17.9581 0.78 18.4261 0.78C18.8941 0.78 19.2721 0.912 19.5601 1.176C19.8481 1.428 19.9921 1.758 19.9921 2.166C19.9921 2.562 19.8481 2.892 19.5601 3.156C19.2721 3.408 18.8941 3.534 18.4261 3.534C17.9581 3.534 17.5801 3.408 17.2921 3.156C17.0041 2.892 16.8601 2.562 16.8601 2.166ZM19.6861 5.028V15H17.1481V5.028H19.6861ZM24.5201 1.68V15H21.9821V1.68H24.5201ZM29.3541 1.68V15H26.8161V1.68H29.3541ZM31.362 2.166C31.362 1.758 31.506 1.428 31.794 1.176C32.082 0.912 32.46 0.78 32.928 0.78C33.396 0.78 33.774 0.912 34.062 1.176C34.35 1.428 34.494 1.758 34.494 2.166C34.494 2.562 34.35 2.892 34.062 3.156C33.774 3.408 33.396 3.534 32.928 3.534C32.46 3.534 32.082 3.408 31.794 3.156C31.506 2.892 31.362 2.562 31.362 2.166ZM34.188 5.028V15H31.65V5.028H34.188ZM45.862 9.636C45.862 9.888 45.832 10.176 45.772 10.5H38.464C38.5 11.388 38.74 12.042 39.184 12.462C39.628 12.882 40.18 13.092 40.84 13.092C41.428 13.092 41.914 12.948 42.298 12.66C42.694 12.372 42.946 11.982 43.054 11.49H45.736C45.604 12.186 45.322 12.81 44.89 13.362C44.458 13.914 43.9 14.346 43.216 14.658C42.544 14.97 41.794 15.126 40.966 15.126C39.994 15.126 39.13 14.922 38.374 14.514C37.618 14.094 37.03 13.5 36.61 12.732C36.19 11.964 35.98 11.058 35.98 10.014C35.98 8.97 36.19 8.064 36.61 7.296C37.03 6.516 37.618 5.922 38.374 5.514C39.13 5.106 39.994 4.902 40.966 4.902C41.95 4.902 42.808 5.106 43.54 5.514C44.284 5.922 44.854 6.486 45.25 7.206C45.658 7.914 45.862 8.724 45.862 9.636ZM43.306 9.384C43.342 8.568 43.126 7.95 42.658 7.53C42.202 7.11 41.638 6.9 40.966 6.9C40.282 6.9 39.706 7.11 39.238 7.53C38.77 7.95 38.512 8.568 38.464 9.384H43.306ZM57.9057 2.292L53.6037 10.554V15H51.0477V10.554L46.7277 2.292H49.6437L52.3437 7.854L55.0437 2.292H57.9057ZM63.8733 4.902C64.8453 4.902 65.7153 5.106 66.4833 5.514C67.2633 5.922 67.8753 6.516 68.3193 7.296C68.7633 8.064 68.9853 8.97 68.9853 10.014C68.9853 11.058 68.7633 11.964 68.3193 12.732C67.8753 13.5 67.2633 14.094 66.4833 14.514C65.7153 14.922 64.8453 15.126 63.8733 15.126C62.9013 15.126 62.0253 14.922 61.2453 14.514C60.4773 14.094 59.8713 13.5 59.4273 12.732C58.9833 11.964 58.7613 11.058 58.7613 10.014C58.7613 8.97 58.9833 8.064 59.4273 7.296C59.8713 6.516 60.4773 5.922 61.2453 5.514C62.0253 5.106 62.9013 4.902 63.8733 4.902ZM63.8733 7.098C63.1653 7.098 62.5653 7.35 62.0733 7.854C61.5813 8.346 61.3353 9.066 61.3353 10.014C61.3353 10.962 61.5813 11.688 62.0733 12.192C62.5653 12.684 63.1653 12.93 63.8733 12.93C64.5813 12.93 65.1813 12.684 65.6733 12.192C66.1653 11.688 66.4113 10.962 66.4113 10.014C66.4113 9.066 66.1653 8.346 65.6733 7.854C65.1813 7.35 64.5813 7.098 63.8733 7.098ZM74.685 4.902C75.525 4.902 76.245 5.1 76.845 5.496C77.445 5.892 77.871 6.426 78.123 7.098V5.028H80.643V15.036C80.643 15.96 80.457 16.788 80.085 17.52C79.725 18.264 79.179 18.846 78.447 19.266C77.727 19.686 76.851 19.896 75.819 19.896C74.379 19.896 73.215 19.554 72.327 18.87C71.439 18.186 70.899 17.256 70.707 16.08H73.209C73.353 16.584 73.629 16.974 74.037 17.25C74.457 17.538 74.991 17.682 75.639 17.682C76.383 17.682 76.983 17.46 77.439 17.016C77.895 16.584 78.123 15.924 78.123 15.036V12.912C77.871 13.584 77.445 14.124 76.845 14.532C76.245 14.928 75.525 15.126 74.685 15.126C73.845 15.126 73.089 14.922 72.417 14.514C71.745 14.106 71.217 13.518 70.833 12.75C70.461 11.97 70.275 11.058 70.275 10.014C70.275 8.97 70.461 8.064 70.833 7.296C71.217 6.516 71.745 5.922 72.417 5.514C73.089 5.106 73.845 4.902 74.685 4.902ZM75.477 7.116C74.685 7.116 74.049 7.374 73.569 7.89C73.089 8.406 72.849 9.114 72.849 10.014C72.849 10.914 73.089 11.622 73.569 12.138C74.049 12.642 74.685 12.894 75.477 12.894C76.245 12.894 76.875 12.636 77.367 12.12C77.871 11.592 78.123 10.89 78.123 10.014C78.123 9.126 77.871 8.424 77.367 7.908C76.875 7.38 76.245 7.116 75.477 7.116ZM86.849 4.902C87.689 4.902 88.409 5.1 89.009 5.496C89.609 5.892 90.035 6.426 90.287 7.098V5.028H92.807V15H90.287V12.912C90.035 13.584 89.609 14.124 89.009 14.532C88.409 14.928 87.689 15.126 86.849 15.126C86.009 15.126 85.253 14.922 84.581 14.514C83.909 14.106 83.381 13.518 82.997 12.75C82.625 11.97 82.439 11.058 82.439 10.014C82.439 8.97 82.625 8.064 82.997 7.296C83.381 6.516 83.909 5.922 84.581 5.514C85.253 5.106 86.009 4.902 86.849 4.902ZM87.641 7.116C86.849 7.116 86.213 7.374 85.733 7.89C85.253 8.406 85.013 9.114 85.013 10.014C85.013 10.914 85.253 11.622 85.733 12.138C86.213 12.642 86.849 12.894 87.641 12.894C88.409 12.894 89.039 12.636 89.531 12.12C90.035 11.592 90.287 10.89 90.287 10.014C90.287 9.126 90.035 8.424 89.531 7.908C89.039 7.38 88.409 7.116 87.641 7.116Z" fill="#121212"/>
</svg>
