<svg width="127" height="40" viewBox="0 0 127 40" fill="none" xmlns="http://www.w3.org/2000/svg">
<path d="M35.1312 27.9937C33.7875 27.8437 32.5 27.3374 31.5125 26.5624C30.6313 25.8687 29.375 25.8562 28.5 26.5624C26.1313 28.4624 21.8 28.4624 19.3937 26.4687C18.55 25.7687 17.3313 25.8999 16.475 26.5812C14.1 28.4624 9.79375 28.4562 7.4 26.4749C6.55625 25.7749 5.31875 25.9187 4.45625 26.5999C3.4875 27.3624 2.20625 27.8562 0.85 27.9999C0.35625 28.0499 0 28.4874 0 28.9812V30.9937C0 31.5624 0.475 32.0437 1.04375 31.9937C2.84375 31.8374 4.55 31.2812 6.00625 30.3749C9.5375 32.5374 14.5688 32.5062 18.0063 30.3749C21.5375 32.5374 26.5688 32.5062 30.0063 30.3749C31.4625 31.2624 33.1875 31.8312 34.95 31.9874C35.5187 32.0374 35.9938 31.5562 35.9938 30.9874V29.0124C36 28.5124 35.6375 28.0499 35.1312 27.9937ZM35.1312 18.9937C33.7875 18.8437 32.5 18.3374 31.5125 17.5624C30.6313 16.8687 29.375 16.8562 28.5 17.5624C26.1313 19.4624 21.8 19.4624 19.3937 17.4687C18.55 16.7687 17.3313 16.8999 16.475 17.5812C14.1 19.4624 9.79375 19.4562 7.4 17.4749C6.55625 16.7749 5.31875 16.9187 4.45625 17.5999C3.4875 18.3624 2.20625 18.8562 0.85 18.9999C0.35625 19.0499 0 19.4874 0 19.9812V21.9937C0 22.5624 0.475 23.0437 1.04375 22.9937C2.84375 22.8374 4.55 22.2812 6.00625 21.3749C9.5375 23.5374 14.5688 23.5062 18.0063 21.3749C21.5375 23.5374 26.5688 23.5062 30.0063 21.3749C31.4625 22.2624 33.1875 22.8312 34.95 22.9874C35.5187 23.0374 35.9938 22.5562 35.9938 21.9874V20.0124C36 19.5124 35.6375 19.0499 35.1312 18.9937ZM35.1312 9.99366C33.7875 9.83741 32.5 9.33741 31.5125 8.56241C30.6313 7.86866 29.375 7.85616 28.5 8.56241C26.1313 10.4624 21.8 10.4624 19.3937 8.46866C18.55 7.76866 17.3313 7.89991 16.475 8.58116C14.1 10.4624 9.79375 10.4562 7.4 8.47491C6.55625 7.77491 5.31875 7.91866 4.45625 8.59991C3.4875 9.36241 2.20625 9.85616 0.85 9.99991C0.35625 10.0499 0 10.4874 0 10.9812V12.9937C0 13.5624 0.475 14.0437 1.04375 13.9937C2.84375 13.8374 4.55 13.2812 6.00625 12.3749C9.5375 14.5374 14.5688 14.5062 18.0063 12.3749C21.5375 14.5374 26.5688 14.5062 30.0063 12.3749C31.4625 13.2624 33.1875 13.8312 34.95 13.9874C35.5187 14.0374 35.9938 13.5562 35.9938 12.9874V11.0124C36 10.5124 35.6375 10.0499 35.1312 9.99366Z" fill="white"/>
<path d="M65.524 19.308C66.7187 19.588 67.6613 20.1667 68.352 21.044C69.0613 21.9213 69.416 22.9387 69.416 24.096C69.416 25.7947 68.8467 27.12 67.708 28.072C66.588 29.024 64.9733 29.5 62.864 29.5H53.652V9.704H62.64C64.656 9.704 66.2147 10.1427 67.316 11.02C68.4173 11.8973 68.968 13.148 68.968 14.772C68.968 15.9667 68.6507 16.9653 68.016 17.768C67.3813 18.552 66.5507 19.0653 65.524 19.308ZM58.44 17.796H61.576C63.2373 17.796 64.068 17.0867 64.068 15.668C64.068 14.2493 63.2187 13.54 61.52 13.54H58.44V17.796ZM61.856 25.608C63.6293 25.608 64.516 24.88 64.516 23.424C64.516 22.7147 64.2827 22.164 63.816 21.772C63.3493 21.3613 62.6867 21.156 61.828 21.156H58.44V25.608H61.856ZM89.053 9.704L82.193 22.92V29.5H77.377V22.92L70.517 9.704H76.005L79.813 17.768L83.621 9.704H89.053ZM95.5422 9.704V21.128C95.5422 22.4347 95.8315 23.4333 96.4102 24.124C97.0075 24.8147 97.8662 25.16 98.9862 25.16C100.106 25.16 100.956 24.8147 101.534 24.124C102.132 23.4333 102.43 22.4347 102.43 21.128V9.704H107.218V21.128C107.218 22.9947 106.854 24.572 106.126 25.86C105.398 27.1293 104.4 28.0907 103.13 28.744C101.88 29.3787 100.461 29.696 98.8742 29.696C97.2875 29.696 95.8875 29.3787 94.6742 28.744C93.4609 28.1093 92.5089 27.148 91.8182 25.86C91.1275 24.572 90.7822 22.9947 90.7822 21.128V9.704H95.5422ZM120.582 29.5L116.298 22.024H115.206V29.5H110.418V9.704H118.594C120.162 9.704 121.487 9.97467 122.57 10.516C123.652 11.0573 124.464 11.804 125.006 12.756C125.547 13.6893 125.818 14.7627 125.818 15.976C125.818 17.4133 125.416 18.636 124.614 19.644C123.83 20.652 122.682 21.3427 121.17 21.716L125.874 29.5H120.582ZM115.206 18.748H118.174C119.126 18.748 119.826 18.5427 120.274 18.132C120.722 17.7027 120.946 17.0773 120.946 16.256C120.946 15.472 120.712 14.856 120.246 14.408C119.798 13.96 119.107 13.736 118.174 13.736H115.206V18.748Z" fill="white"/>
</svg>
