<svg width="127" height="39" viewBox="0 0 127 39" fill="none" xmlns="http://www.w3.org/2000/svg">
<path d="M35.1312 27.4937C33.7875 27.3437 32.5 26.8374 31.5125 26.0624C30.6313 25.3687 29.375 25.3562 28.5 26.0624C26.1313 27.9624 21.8 27.9624 19.3937 25.9687C18.55 25.2687 17.3313 25.3999 16.475 26.0812C14.1 27.9624 9.79375 27.9562 7.4 25.9749C6.55625 25.2749 5.31875 25.4187 4.45625 26.0999C3.4875 26.8624 2.20625 27.3562 0.85 27.4999C0.35625 27.5499 0 27.9874 0 28.4812V30.4937C0 31.0624 0.475 31.5437 1.04375 31.4937C2.84375 31.3374 4.55 30.7812 6.00625 29.8749C9.5375 32.0374 14.5688 32.0062 18.0063 29.8749C21.5375 32.0374 26.5688 32.0062 30.0063 29.8749C31.4625 30.7624 33.1875 31.3312 34.95 31.4874C35.5187 31.5374 35.9938 31.0562 35.9938 30.4874V28.5124C36 28.0124 35.6375 27.5499 35.1312 27.4937ZM35.1312 18.4937C33.7875 18.3437 32.5 17.8374 31.5125 17.0624C30.6313 16.3687 29.375 16.3562 28.5 17.0624C26.1313 18.9624 21.8 18.9624 19.3937 16.9687C18.55 16.2687 17.3313 16.3999 16.475 17.0812C14.1 18.9624 9.79375 18.9562 7.4 16.9749C6.55625 16.2749 5.31875 16.4187 4.45625 17.0999C3.4875 17.8624 2.20625 18.3562 0.85 18.4999C0.35625 18.5499 0 18.9874 0 19.4812V21.4937C0 22.0624 0.475 22.5437 1.04375 22.4937C2.84375 22.3374 4.55 21.7812 6.00625 20.8749C9.5375 23.0374 14.5688 23.0062 18.0063 20.8749C21.5375 23.0374 26.5688 23.0062 30.0063 20.8749C31.4625 21.7624 33.1875 22.3312 34.95 22.4874C35.5187 22.5374 35.9938 22.0562 35.9938 21.4874V19.5124C36 19.0124 35.6375 18.5499 35.1312 18.4937ZM35.1312 9.49366C33.7875 9.33741 32.5 8.83741 31.5125 8.06241C30.6313 7.36866 29.375 7.35616 28.5 8.06241C26.1313 9.96241 21.8 9.96241 19.3937 7.96866C18.55 7.26866 17.3313 7.39991 16.475 8.08116C14.1 9.96241 9.79375 9.95616 7.4 7.97491C6.55625 7.27491 5.31875 7.41866 4.45625 8.09991C3.4875 8.86241 2.20625 9.35616 0.85 9.49991C0.35625 9.54991 0 9.98741 0 10.4812V12.4937C0 13.0624 0.475 13.5437 1.04375 13.4937C2.84375 13.3374 4.55 12.7812 6.00625 11.8749C9.5375 14.0374 14.5688 14.0062 18.0063 11.8749C21.5375 14.0374 26.5688 14.0062 30.0063 11.8749C31.4625 12.7624 33.1875 13.3312 34.95 13.4874C35.5187 13.5374 35.9938 13.0562 35.9938 12.4874V10.5124C36 10.0124 35.6375 9.54991 35.1312 9.49366Z" fill="#17272B"/>
<path d="M65.524 18.808C66.7187 19.088 67.6613 19.6667 68.352 20.544C69.0613 21.4213 69.416 22.4387 69.416 23.596C69.416 25.2947 68.8467 26.62 67.708 27.572C66.588 28.524 64.9733 29 62.864 29H53.652V9.204H62.64C64.656 9.204 66.2147 9.64267 67.316 10.52C68.4173 11.3973 68.968 12.648 68.968 14.272C68.968 15.4667 68.6507 16.4653 68.016 17.268C67.3813 18.052 66.5507 18.5653 65.524 18.808ZM58.44 17.296H61.576C63.2373 17.296 64.068 16.5867 64.068 15.168C64.068 13.7493 63.2187 13.04 61.52 13.04H58.44V17.296ZM61.856 25.108C63.6293 25.108 64.516 24.38 64.516 22.924C64.516 22.2147 64.2827 21.664 63.816 21.272C63.3493 20.8613 62.6867 20.656 61.828 20.656H58.44V25.108H61.856ZM89.053 9.204L82.193 22.42V29H77.377V22.42L70.517 9.204H76.005L79.813 17.268L83.621 9.204H89.053ZM95.5422 9.204V20.628C95.5422 21.9347 95.8315 22.9333 96.4102 23.624C97.0075 24.3147 97.8662 24.66 98.9862 24.66C100.106 24.66 100.956 24.3147 101.534 23.624C102.132 22.9333 102.43 21.9347 102.43 20.628V9.204H107.218V20.628C107.218 22.4947 106.854 24.072 106.126 25.36C105.398 26.6293 104.4 27.5907 103.13 28.244C101.88 28.8787 100.461 29.196 98.8742 29.196C97.2875 29.196 95.8875 28.8787 94.6742 28.244C93.4609 27.6093 92.5089 26.648 91.8182 25.36C91.1275 24.072 90.7822 22.4947 90.7822 20.628V9.204H95.5422ZM120.582 29L116.298 21.524H115.206V29H110.418V9.204H118.594C120.162 9.204 121.487 9.47467 122.57 10.016C123.652 10.5573 124.464 11.304 125.006 12.256C125.547 13.1893 125.818 14.2627 125.818 15.476C125.818 16.9133 125.416 18.136 124.614 19.144C123.83 20.152 122.682 20.8427 121.17 21.216L125.874 29H120.582ZM115.206 18.248H118.174C119.126 18.248 119.826 18.0427 120.274 17.632C120.722 17.2027 120.946 16.5773 120.946 15.756C120.946 14.972 120.712 14.356 120.246 13.908C119.798 13.46 119.107 13.236 118.174 13.236H115.206V18.248Z" fill="#17272B"/>
</svg>
