<svg xmlns="http://www.w3.org/2000/svg" xmlns:xlink="http://www.w3.org/1999/xlink" xmlns:serif="http://www.serif.com/" width="100%" height="100%" viewBox="0 0 1920 1080" xml:space="preserve" style="fill-rule:evenodd;clip-rule:evenodd;stroke-linejoin:round;stroke-miterlimit:2;"><path d="M2058.76,260.08c42.12,55.89 31.59,151.065 -3.645,211.41c-34.83,59.94 -94.365,85.05 -136.485,146.205c-42.525,60.75 -67.635,157.545 -123.93,188.73c-56.295,31.185 -143.775,-3.24 -208.17,-64.395c-64.8,-60.75 -106.11,-148.23 -98.82,-228.42c7.29,-80.19 63.585,-153.09 127.98,-208.575c64.395,-55.89 137.295,-94.365 221.535,-105.3c83.835,-11.34 179.01,4.86 221.535,60.345Z" style="fill:#fe4c6f;fill-rule:nonzero;"></path><path d="M1726.69,219.59c35.282,16.198 62.131,59.912 48.373,89.867c-13.757,29.956 -68.121,46.154 -103.402,68.788c-35.282,22.855 -51.48,52.145 -80.77,65.237c-29.512,13.091 -71.894,10.207 -97.412,-12.427c-25.296,-22.855 -33.728,-65.236 -38.609,-112.722c-4.882,-47.485 -6.435,-99.63 19.083,-116.051c25.518,-16.198 77.663,3.773 125.814,7.989c47.929,4.216 91.642,-6.879 126.923,9.319Z" style="fill:#0f77ff;fill-rule:nonzero;"></path><path d="M408.456,626.874c31.392,24.198 57.77,60.822 63.22,102.678c5.232,41.856 -10.682,89.162 -42.292,110.744c-31.392,21.582 -78.698,17.876 -113.142,5.232c-34.662,-12.644 -56.68,-33.79 -81.532,-55.372c-24.634,-21.8 -52.102,-43.818 -54.718,-68.452c-2.398,-24.634 19.838,-51.666 44.472,-75.864c24.852,-24.416 51.884,-45.562 83.93,-50.358c31.828,-4.796 68.452,7.194 100.062,31.392Z" style="fill:#fe4c6f;fill-rule:nonzero;"></path><path d="M313.198,775.12c14,15.6 25.2,32.4 26.3,50.2c1,17.9 -8.1,36.7 -22.1,46.6c-14.1,9.9 -32.9,10.8 -51,10c-18.1,-0.7 -35.5,-3.2 -50.6,-13c-15.2,-9.9 -28.1,-27.3 -27.8,-44.3c0.3,-17 13.9,-33.7 29.1,-49.3c15.1,-15.7 31.8,-30.2 48.6,-30.3c16.7,0 33.5,14.4 47.5,30.1Z" style="fill:#0f77ff;fill-rule:nonzero;"></path><path d="M1106.1,211.8c-10.4,-13.8 -7.8,-37.3 0.9,-52.2c8.6,-14.8 23.3,-21 33.7,-36.1c10.5,-15 16.7,-38.9 30.6,-46.6c13.9,-7.7 35.5,0.8 51.4,15.9c16,15 26.2,36.6 24.4,56.4c-1.8,19.8 -15.7,37.8 -31.6,51.5c-15.9,13.8 -33.9,23.3 -54.7,26c-20.7,2.8 -44.2,-1.2 -54.7,-14.9Z" style="fill:#fe4c6f;fill-rule:nonzero;"></path></svg>