<svg xmlns="http://www.w3.org/2000/svg" xmlns:xlink="http://www.w3.org/1999/xlink" xmlns:serif="http://www.serif.com/" width="53px" height="53px" xml:space="preserve" style="fill-rule:evenodd;clip-rule:evenodd;stroke-linejoin:round;stroke-miterlimit:2;"><clipPath id="_clip1"><rect id="iconfinder_11._brazil_Alcohol_carnival_cocktail_drinktropical_5599150" x="0.385" y="0.385" width="52.03" height="52.03"></rect></clipPath><g clip-path="url(#_clip1)"><path d="M21.522,29.652c0,-0.446 -0.367,-0.813 -0.813,-0.813l-1.626,0c-0.446,0 -0.813,0.367 -0.813,0.813c0,0.446 0.367,0.813 0.813,0.813l1.626,0c0.446,0 0.813,-0.367 0.813,-0.813Z" style="fill:#eb3f57;fill-rule:nonzero;"></path><path d="M25.587,17.457l1.626,0c0.446,0 0.813,-0.367 0.813,-0.813c0,-0.446 -0.367,-0.813 -0.813,-0.813l-1.626,0c-0.446,0 -0.813,0.367 -0.813,0.813c0,0.446 0.367,0.813 0.813,0.813Z" style="fill:#eb3f57;fill-rule:nonzero;"></path><path d="M20.709,35.343l1.626,0c0.446,0 0.813,-0.367 0.813,-0.813c0,-0.446 -0.367,-0.813 -0.813,-0.813l-1.626,0c-0.446,0 -0.813,0.367 -0.813,0.813c0,0.446 0.367,0.813 0.813,0.813Z" style="fill:#eb3f57;fill-rule:nonzero;"></path><path d="M38.595,2.011c-0.446,0 -0.813,0.367 -0.813,0.813c0,0.446 0.367,0.813 0.813,0.813c1.663,-0.001 3.277,0.569 4.572,1.613l-5.298,4.553l-3.88,-4.524c0.51,-0.419 1.075,-0.766 1.679,-1.033c0.298,-0.128 0.492,-0.423 0.492,-0.747c0,-0.446 -0.367,-0.813 -0.813,-0.813c-0.114,0 -0.226,0.024 -0.329,0.069c-2.985,1.305 -5.03,4.141 -5.325,7.386l-3.293,0c-0.446,0 -0.813,0.367 -0.813,0.812c0,0.446 0.367,0.813 0.813,0.813l3.293,0c0.288,3.108 2.183,5.848 4.988,7.216l-1.267,4.512c-0.365,1.243 -0.279,2.577 0.243,3.763c0.577,1.262 0.875,2.633 0.873,4.021c0,0.004 0,0.008 0,0.012c0,5.352 -4.404,9.756 -9.756,9.756c-5.352,0 -9.756,-4.404 -9.756,-9.756c0,-1.383 0.294,-2.75 0.863,-4.01c0.526,-1.193 0.616,-2.533 0.254,-3.786l-3.295,-11.728l6.385,0l7.215,22.202c0.119,0.316 0.423,0.527 0.761,0.527c0.446,0 0.813,-0.367 0.813,-0.813c0,-0.073 -0.01,-0.146 -0.03,-0.216l-7.05,-21.7l2.214,0c0.446,0 0.813,-0.367 0.813,-0.813c0,-0.445 -0.367,-0.812 -0.813,-0.812l-2.742,0l-2.989,-9.194c-0.108,-0.334 -0.421,-0.562 -0.773,-0.562l-7.316,0c-0.446,0 -0.813,0.367 -0.813,0.813c0,0.446 0.367,0.813 0.813,0.813l6.725,0l2.642,8.13l-6.929,0c0,0 0,0 0,0c-0.446,0 -0.813,0.367 -0.813,0.812c0,0.075 0.01,0.149 0.031,0.221l3.585,12.764c0.259,0.883 0.2,1.83 -0.169,2.674c-0.663,1.47 -1.006,3.064 -1.006,4.677c0,5.774 4.398,10.679 10.139,11.305c0.144,0.015 0.285,0.013 0.428,0.022l0,8.173l-6.504,0c-0.446,0 -0.813,0.367 -0.813,0.813c0,0.446 0.367,0.813 0.813,0.813l14.634,0c0.446,0 0.813,-0.367 0.813,-0.813c0,-0.446 -0.367,-0.813 -0.813,-0.813l-6.504,0l0,-8.164c2.525,-0.169 4.92,-1.185 6.796,-2.883c2.398,-2.159 3.77,-5.238 3.773,-8.464c0.002,-1.621 -0.346,-3.222 -1.02,-4.696c-0.362,-0.837 -0.418,-1.775 -0.157,-2.649l1.228,-4.369c0.786,0.22 1.599,0.332 2.416,0.332c4.905,0 8.942,-4.037 8.942,-8.943c0,-4.905 -4.037,-8.942 -8.942,-8.942c-0.01,0 -0.019,0 -0.028,0Zm-5.745,4.439l3.164,3.691l-4.676,0c0.151,-1.347 0.675,-2.626 1.512,-3.691Zm-1.524,5.316l5.383,0l-1.582,5.628c-2.11,-1.139 -3.532,-3.245 -3.801,-5.628Zm5.317,6.233l1.517,-5.398l4.146,4.645c-1.703,1.02 -3.753,1.292 -5.663,0.753Zm6.966,-1.735l-4.673,-5.234l5.377,-4.623c2.36,2.95 2.051,7.272 -0.704,9.858l0,-0.001Z" style="fill:#eb3f57;fill-rule:nonzero;"></path><path d="M27.213,21.522c0,0.446 0.367,0.813 0.813,0.813l0.813,0c0.446,0 0.813,-0.367 0.813,-0.813c0,-0.446 -0.367,-0.813 -0.813,-0.813l-0.813,0c-0.446,0 -0.813,0.367 -0.813,0.813Z" style="fill:#eb3f57;fill-rule:nonzero;"></path><path d="M32.091,22.335c0.446,0 0.813,-0.367 0.813,-0.813c0,-0.446 -0.367,-0.813 -0.813,-0.813l-0.813,0c-0.446,0 -0.813,0.367 -0.813,0.813c0,0.446 0.367,0.813 0.813,0.813l0.813,0Z" style="fill:#eb3f57;fill-rule:nonzero;"></path></g></svg>