<svg xmlns="http://www.w3.org/2000/svg" xmlns:xlink="http://www.w3.org/1999/xlink" xmlns:serif="http://www.serif.com/" width="53px" height="53px" xml:space="preserve" style="fill-rule:evenodd;clip-rule:evenodd;stroke-linejoin:round;"><g id="Layer_21"><path d="M36.237,23.148c-0.055,-0.267 -0.083,-0.54 -0.081,-0.813c0,-2.23 1.835,-4.065 4.065,-4.065c2.229,0 4.064,1.835 4.064,4.065c0.004,0.273 -0.024,0.546 -0.081,0.813" style="fill:none;fill-rule:nonzero;stroke:#eb3f57;stroke-width:1.63px;"></path><path d="M2.011,29.652l48.778,0c0,11.595 -9.542,21.137 -21.137,21.137l-6.504,0c-11.595,0 -21.137,-9.542 -21.137,-21.137Z" style="fill:none;fill-rule:nonzero;stroke:#eb3f57;stroke-width:1.63px;"></path><path d="M32.904,29.652c-0.531,-0.702 -0.817,-1.559 -0.813,-2.439c0,-2.23 1.835,-4.065 4.065,-4.065c2.23,0 4.065,1.835 4.065,4.065c0.003,0.88 -0.283,1.737 -0.813,2.439" style="fill:none;fill-rule:nonzero;stroke:#eb3f57;stroke-width:1.63px;"></path><path d="M41.034,29.652c-0.531,-0.702 -0.817,-1.559 -0.813,-2.439c0,-2.23 1.835,-4.065 4.064,-4.065c2.23,0 4.065,1.835 4.065,4.065c0,0.879 -0.285,1.735 -0.813,2.439" style="fill:none;fill-rule:nonzero;stroke:#eb3f57;stroke-width:1.63px;"></path><path d="M44.285,21.238c0.227,-0.377 0.5,-0.724 0.813,-1.033c1.042,-1.04 2.455,-1.625 3.927,-1.626l0.951,0l0,0.951c0,1.472 -0.586,2.885 -1.626,3.927c-0.352,0.348 -0.748,0.649 -1.179,0.894" style="fill:none;fill-rule:nonzero;stroke:#eb3f57;stroke-width:1.63px;"></path><path d="M17.457,25.587l-13.82,-13.821l0,7.732c0.001,3.671 1.213,7.241 3.447,10.154" style="fill:none;fill-rule:nonzero;stroke:#eb3f57;stroke-width:1.63px;"></path><path d="M6.889,15.018l0,4.008c0,3.679 1.463,7.211 4.064,9.813c0.285,0.284 0.578,0.553 0.887,0.813" style="fill:none;fill-rule:nonzero;stroke:#eb3f57;stroke-width:1.63px;"></path><path d="M29.652,29.652c1.034,0.003 2.031,-0.393 2.78,-1.106" style="fill:none;fill-rule:nonzero;stroke:#eb3f57;stroke-width:1.63px;"></path><path d="M33.375,23.961c-0.44,-1.002 -1.267,-1.786 -2.292,-2.171c0.123,-0.347 0.189,-0.712 0.195,-1.081c-0.001,-1.529 -1.081,-2.861 -2.577,-3.179c0.087,-0.287 0.134,-0.585 0.138,-0.886c0,-1.784 -1.468,-3.252 -3.252,-3.252c-1.784,0 -3.252,1.468 -3.252,3.252c0.004,0.301 0.051,0.599 0.138,0.886c-1.496,0.318 -2.576,1.65 -2.577,3.179c0.006,0.369 0.072,0.734 0.195,1.081c-1.57,0.601 -2.612,2.116 -2.612,3.797c0,2.222 1.821,4.053 4.043,4.065l8.13,0" style="fill:none;fill-rule:nonzero;stroke:#eb3f57;stroke-width:1.63px;"></path><path d="M46.383,19.083c-0.44,-1.002 -1.268,-1.785 -2.293,-2.17c0.124,-0.348 0.189,-0.713 0.195,-1.082c-0.001,-1.529 -1.081,-2.861 -2.577,-3.178c0.088,-0.288 0.134,-0.586 0.139,-0.887c0,-1.783 -1.468,-3.251 -3.252,-3.251c-1.784,0 -3.252,1.468 -3.252,3.251c0.004,0.301 0.051,0.599 0.138,0.887c-1.496,0.317 -2.576,1.649 -2.577,3.178c0.006,0.369 0.072,0.734 0.195,1.082c-1.025,0.385 -1.852,1.168 -2.293,2.17" style="fill:none;fill-rule:nonzero;stroke:#eb3f57;stroke-width:1.63px;"></path><path d="M25.587,29.652l0,-10.569" style="fill:none;fill-rule:nonzero;stroke:#eb3f57;stroke-width:1.63px;"></path><path d="M25.587,23.148l2.439,-2.439" style="fill:none;fill-rule:nonzero;stroke:#eb3f57;stroke-width:1.63px;"></path><path d="M25.587,26.4l-2.439,-2.439" style="fill:none;fill-rule:nonzero;stroke:#eb3f57;stroke-width:1.63px;"></path><path d="M2.011,32.904l48.778,0" style="fill:none;fill-rule:nonzero;stroke:#eb3f57;stroke-width:1.63px;"></path><path d="M10.953,12.579c-1.04,-1.041 -1.625,-2.454 -1.625,-3.926l0,-0.951l0.951,0c1.472,0 2.885,0.585 3.926,1.626c1.041,1.041 1.626,2.454 1.626,3.926l0,0.951l-0.951,0c-1.472,0 -2.885,-0.585 -3.927,-1.626Z" style="fill:none;fill-rule:nonzero;stroke:#eb3f57;stroke-width:1.63px;"></path><path d="M26.4,6.889c1.04,-1.042 1.625,-2.455 1.626,-3.927l0,-0.951l-0.951,0c-1.472,0 -2.885,0.586 -3.927,1.626c-1.04,1.041 -1.625,2.454 -1.626,3.926l0,0.952l0.951,0c1.472,-0.001 2.885,-0.586 3.927,-1.626Z" style="fill:none;fill-rule:nonzero;stroke:#eb3f57;stroke-width:1.63px;"></path><path d="M26.4,32.904l0,6.504c0,0.892 0.734,1.626 1.626,1.626c0.892,0 1.626,-0.734 1.626,-1.626l0,-1.626c0,-0.892 0.734,-1.626 1.626,-1.626c0.892,0 1.626,0.734 1.626,1.626l0,4.877c0,0.892 0.734,1.626 1.626,1.626c0.892,0 1.626,-0.734 1.626,-1.626l0,-3.251c0,-0.892 0.734,-1.626 1.626,-1.626c0.892,0 1.626,0.734 1.626,1.626l0,0.813c0,0.892 0.734,1.626 1.626,1.626c0.892,0 1.625,-0.734 1.625,-1.626l0,-7.317" style="fill:none;fill-rule:nonzero;stroke:#eb3f57;stroke-width:1.63px;"></path></g></svg>