<svg xmlns="http://www.w3.org/2000/svg" xmlns:xlink="http://www.w3.org/1999/xlink" xmlns:serif="http://www.serif.com/" width="53px" height="53px" xml:space="preserve" style="fill-rule:evenodd;clip-rule:evenodd;stroke-linejoin:round;stroke-miterlimit:2;"><clipPath id="_clip1"><rect id="iconfinder_28._Brazil_carnival_cocktail_coconut_5599169" x="0.385" y="0.385" width="52.03" height="52.03"></rect></clipPath><g clip-path="url(#_clip1)"><path d="M26.4,31.278c0.446,0 0.813,-0.367 0.813,-0.813l0,-1.626c0,-0.446 -0.367,-0.813 -0.813,-0.813c-0.446,0 -0.813,0.367 -0.813,0.813l0,1.626c0,0.446 0.367,0.813 0.813,0.813Z" style="fill:#eb3f57;fill-rule:nonzero;"></path><path d="M22.335,30.465l0,-1.626c0,-0.446 -0.367,-0.813 -0.813,-0.813c-0.446,0 -0.813,0.367 -0.813,0.813l0,1.626c0,0.446 0.367,0.813 0.813,0.813c0.446,0 0.813,-0.367 0.813,-0.813Z" style="fill:#eb3f57;fill-rule:nonzero;"></path><path d="M16.644,31.278c0.446,0 0.813,-0.367 0.813,-0.813l0,-1.626c0,-0.446 -0.367,-0.813 -0.813,-0.813c-0.446,0 -0.813,0.367 -0.813,0.813l0,1.626c0,0.446 0.367,0.813 0.813,0.813Z" style="fill:#eb3f57;fill-rule:nonzero;"></path><path d="M42.659,22.335l-3.593,0l-3.018,-5.284c-0.145,-0.252 -0.415,-0.407 -0.705,-0.407l-3.016,0l1.889,-7.308l4.03,0.805c0.053,0.01 0.108,0.016 0.162,0.016c0.444,-0.004 0.807,-0.37 0.807,-0.813c0,-0.097 -0.017,-0.194 -0.051,-0.285l-3.06,-8.147c-0.119,-0.317 -0.423,-0.527 -0.761,-0.527c-0.21,0 -0.412,0.081 -0.563,0.226l-6.504,6.234c-0.158,0.153 -0.248,0.364 -0.248,0.584c0,0.387 0.276,0.722 0.655,0.798l3.94,0.788l-1.974,7.629l-6.146,0l-3.856,-9.255c-0.126,-0.303 -0.423,-0.5 -0.751,-0.5l-6.504,0c-0.446,0 -0.813,0.367 -0.813,0.813c0,0.446 0.367,0.813 0.813,0.813l5.962,0l3.388,8.129l-0.407,0c-0.446,0 -0.813,0.367 -0.813,0.813c0,0.446 0.367,0.813 0.813,0.813l12.536,0l2.323,4.065l-20.775,0l2.323,-4.065l0.341,0c0.446,0 0.813,-0.367 0.813,-0.813c0,-0.446 -0.367,-0.813 -0.813,-0.813l-0.813,0c-0.29,0 -0.56,0.155 -0.705,0.407l-3.018,5.284l-4.406,0c-0.446,0 -0.813,0.367 -0.813,0.813l0,4.878c0,0.446 0.367,0.813 0.813,0.813c0.446,0 0.812,-0.367 0.812,-0.813l0,-4.065l23.577,0l0,4.878c0,0.446 0.367,0.813 0.813,0.813c0.446,0 0.813,-0.367 0.813,-0.813l0,-4.878l5.691,0l0,17.073c-0.012,3.961 -2.369,7.561 -5.997,9.154c0.711,-0.881 1.105,-1.976 1.119,-3.108l0,-5.233c0,-0.446 -0.367,-0.813 -0.813,-0.813c-0.446,0 -0.813,0.367 -0.813,0.813l0,5.233c-0.148,1.975 -1.734,3.562 -3.709,3.709l-4.421,0l0,-6.504c0,-0.446 -0.367,-0.813 -0.813,-0.813c-0.446,0 -0.813,0.367 -0.813,0.813l0,6.504l-4.421,0c-2.034,-0.002 -3.707,-1.675 -3.709,-3.709l0,-5.233c0,-0.446 -0.367,-0.813 -0.813,-0.813c-0.446,0 -0.813,0.367 -0.813,0.813l0,5.233c0,1.087 0.334,2.148 0.956,3.039c-3.539,-1.634 -5.82,-5.187 -5.834,-9.085l0,-9.756c0,-0.446 -0.366,-0.813 -0.812,-0.813c-0.446,0 -0.813,0.367 -0.813,0.813l0,9.756c0,6.063 4.938,11.381 10.568,11.381l13.008,0c5.63,0 10.568,-5.318 10.568,-11.381l0,-17.886c0,-0.446 -0.367,-0.813 -0.813,-0.813Zm-7.641,-19.697l2.113,5.622l-6.604,-1.32l4.491,-4.302Z" style="fill:#eb3f57;fill-rule:nonzero;"></path></g></svg>