<?xml version="1.0" encoding="utf-8"?>
<!-- Generator: Adobe Illustrator 22.0.0, SVG Export Plug-In . SVG Version: 6.00 Build 0)  -->
<svg version="1.1" id="Layer_1" xmlns="http://www.w3.org/2000/svg" xmlns:xlink="http://www.w3.org/1999/xlink" x="0px" y="0px"
	 viewBox="0 0 1526.7 517.3" style="enable-background:new 0 0 1526.7 517.3;" xml:space="preserve">
<style type="text/css">
	.st0{fill:#FFFFFF;}
</style>
<g>
	<path class="st0" d="M337,87.5c0-17.1-2.7-36.7-8.8-59.3c-23.7-7.2-47.4-10.6-70.6-10.6C129.1,17.5,17,121.9,17,258.7
		c0,91.6,51.2,171.2,126.4,211.9c0.3-0.8,0.7-1.5,1.1-2.2c-3.2-20.5-4.5-39.6-4.5-57.1c0-85.4,31.8-135.1,35.4-146.6
		C239.3,205.6,337,189.9,337,87.5z M82.9,298.9c2.7-24,5.4-35.8,10.2-51.4c47.3-94,117-98,164.7-146.3c30.6-22.9,34.7-39.4,36-45.1
		C278.9,153.3,137.7,132.1,82.9,298.9z M197.4,229.1c40.2-56,125.5-101.3,132.9-166.6C326.5,174.4,251.3,190,197.4,229.1z"/>
	<path class="st0" d="M191.5,490.2C345.8,534.7,499,418.5,499,258.7c0-104.2-66.2-193-158.8-226.6c1.4,5.9,2.6,11.8,3.7,17.8
		c11.4,20.8,18.3,55.8,18.3,76.4c0,42.1-18.7,49.1-18.7,62.8c0,18,26.9,57.2,26.9,65.8c0,2.7-0.7,5.5-2.6,8.4
		c-13.2,21.2-34.5,19-34.5,28.8c0,3.3,1.7,5.2,1.7,9.2c0,2.1-0.5,12.3-14.2,17.1c1.3,2,2.1,4.4,2.1,7c0,13.2-14.4,16.3-14.4,32.8
		c0,1.9,0.1,3.7,0.1,5.6c0,24.9-26,34.8-41.9,34.8c-26.3,0-51.9-17.6-67.2-28c-1,1-1.2,1.1-2.9,3c-5,12.7-16.8,24.2-16.8,56
		c0,25.5,7.4,43.8,9.8,57.7L191.5,490.2z"/>
</g>
<g>
	<path class="st0" d="M640.5,216.2v-5.1h13.1l-14.6-37.9h-40l-14.5,37.9h10.2c0.8,0,1.6,0.1,2.3,0.2c1.7,0.4,2.5,2,2.5,4.9h-35.2
		v-5.1h12.3L620,99h10.4l45.3,112.1h6.3c0.6,0,1.3,0.1,2,0.2c2,0.3,2.9,1.9,2.9,4.9H640.5z M618.8,121.3L601,167.6h35.5L618.8,121.3
		z"/>
	<path class="st0" d="M840.3,104.1h-15.6v107h10.5c0.7,0,1.3,0.1,2,0.2c2.1,0.4,3.1,2,3.1,4.9h-51.4v-5.1h15.6v-93.8l-43.8,100.2
		h-3.9l-42.2-86.5v80.1h10.4c2.5,0.3,4.2,2,5.3,5.1h-39.3v-5.1h15.6v-107h-15.6V99h30.9l43.6,91l39.1-91h35.7V104.1z"/>
	<path class="st0" d="M920.8,216.2v-5.1h13.1l-14.6-37.9h-40l-14.5,37.9h10.2c0.8,0,1.6,0.1,2.3,0.2c1.7,0.4,2.5,2,2.5,4.9h-35.2
		v-5.1h12.3L900.3,99h10.4l45.3,112.1h6.3c0.7,0,1.3,0.1,2,0.2c2,0.3,2.9,1.9,2.9,4.9H920.8z M899.1,121.3l-17.8,46.3h35.5
		L899.1,121.3z"/>
	<path class="st0" d="M1055.9,99h39.8v5.1h-15.6v111.1l-10,2l-76-92.8v86.7h11.3c2.5,0.3,4.2,2,5.3,5.1h-40.2v-5.1h15.6v-107h-15.6
		V99h29.5l72.1,87.9v-82.8h-16.2V99z"/>
	<path class="st0" d="M1159.2,99c13.8,0,25.9,3.3,36.3,10c16.4,10.4,24.6,26.7,24.6,48.8c0,17.2-5.7,31.2-17,42
		c-11.6,10.9-26.2,16.4-43.9,16.4h-55.7v-5.1h15.6v-107h-15.6V99H1159.2z M1140.1,104.1v107h19.3c23.8-0.6,36.2-18.8,37.1-54.3
		c0-10.3-1-19-2.9-26.2c-4.8-17.7-16.3-26.6-34.4-26.6H1140.1z"/>
	<path class="st0" d="M1305.3,216.2v-5.1h13.1l-14.6-37.9h-40l-14.5,37.9h10.2c0.8,0,1.6,0.1,2.3,0.2c1.7,0.4,2.5,2,2.5,4.9h-35.2
		v-5.1h12.3L1284.8,99h10.4l45.3,112.1h6.3c0.7,0,1.3,0.1,2,0.2c2,0.3,2.9,1.9,2.9,4.9H1305.3z M1283.7,121.3l-17.8,46.3h35.5
		L1283.7,121.3z"/>
	<path class="st0" d="M1382.5,105.5c-0.9,9.4-5.3,18.2-13.3,26.4l-4.1-3.1c5.3-5.6,8.1-10.3,8.2-14.1c-0.1-1.8-1.7-3.1-4.7-3.9
		c-0.7-0.1-1.4-0.4-2.3-0.8c-4.6-2-6.8-5.3-6.8-10c0-1.8,0.4-3.5,1.2-5.1c2-4.3,5.2-6.4,9.8-6.4c1.3,0,2.5,0.1,3.7,0.4
		c5.7,1.7,8.6,6.3,8.6,13.9C1382.7,103.5,1382.6,104.4,1382.5,105.5z"/>
	<path class="st0" d="M1481.5,205.9c-8.5,8.2-20.5,12.3-36.1,12.3c-13.4,0-25.1-3.3-35-10c0,2.5-0.1,4.3-0.4,5.5
		c-0.7,2-2.6,2.9-5.9,2.9v-40.8h6.6c0.3,4.2,0.9,8.1,2,11.7c4.3,16.8,14.7,25.2,31.3,25.2c4.6,0,8.8-0.8,12.7-2.5
		c8.3-3.6,12.5-10,12.5-19.1c0-3.3-0.7-6.3-2.1-9c-3-5.5-10.2-10.9-21.7-16.4c-12.6-5.9-19.9-9.4-21.9-10.5c-12.2-7-18.4-16-18.4-27
		c0-7.4,2.7-13.8,8-19.1c7.8-7.9,19-11.9,33.6-11.9c11.7,0,22.5,2.5,32.4,7.6c0-1.2,0.1-2.2,0.2-3.1c0.5-2.3,2.5-3.5,6.1-3.5v34.6
		h-6.6c0-7.2-1.8-13.3-5.3-18.4c-5.6-7.7-13.8-11.5-24.6-11.5c-3.8,0-7.3,0.6-10.5,1.8c-7.9,3.1-11.9,8.8-11.9,17
		c0,3.3,0.7,6.2,2.1,8.8c2.9,5.5,10,10.8,21.3,16c12.6,5.9,20,9.4,22.1,10.7c12.2,7.2,18.4,16.4,18.4,27.7
		C1490.3,193,1487.4,200,1481.5,205.9z"/>
</g>
<g>
	<path class="st0" d="M617.7,339.6c-2.3,5.8-7,10-14.1,12.5c3.7,0.5,7,1.5,9.9,3c7.2,3.8,10.9,9.5,10.9,17.3c0,4.6-1.4,8.7-4.2,12.5
		c-5.4,7.3-13.9,11-25.7,11h-41.3v-3.5h10.7v-73.5h-10.7v-3.5h40c5.5,0,10.4,0.8,14.5,2.4c7.5,3.1,11.3,8.4,11.3,15.8
		C618.9,335.5,618.5,337.5,617.7,339.6z M578.2,318.8v31.5h10.2c2.9,0,5.6-0.6,7.9-1.7c4.9-2.7,7.4-7.3,7.4-13.9c0-0.5,0-1.1,0-1.7
		c-0.6-9.4-5.8-14.1-15.6-14.1H578.2z M578.2,353.9v38.3H591c3.8,0,7-0.9,9.8-2.8c5-3.6,7.5-9.3,7.5-17.3c0-2.8-0.4-5.4-1.3-7.9
		c-2.6-6.9-7.8-10.3-15.6-10.3H578.2z"/>
	<path class="st0" d="M695,340.1l-2.4-7.5c-0.1-0.3-0.2-0.6-0.3-0.9c-2.7-8.6-7.6-12.9-14.6-12.9h-19v33.5h26.9v3.9h-26.9v36.1h19
		c1.1,0,2.1-0.1,3.1-0.3c5.5-1.1,9.4-5.6,11.8-13.5l2.4-7.5h3.1l-0.5,24.8h-64v-3.5h10.7v-73.5h-10.7v-3.5h64l0.5,24.8H695z"/>
	<path class="st0" d="M756.8,395.8v-3.5h9l-10.1-26h-27.5l-9.9,26h7c0.5,0,1.1,0,1.6,0.1c1.2,0.3,1.7,1.4,1.7,3.4h-24.1v-3.5h8.4
		l29.8-77h7.1l31.1,77h4.3c0.4,0,0.9,0,1.3,0.1c1.3,0.2,2,1.3,2,3.4H756.8z M741.9,330.6l-12.2,31.8h24.4L741.9,330.6z"/>
	<path class="st0" d="M789.9,315.3h35.8v3.5h-10.6v46.1c0,5.4,0.5,10,1.5,13.8c2.6,9.7,9,14.5,19.2,14.5c14.7-0.1,22-9.4,22.1-28
		v-46.4h-10.7v-3.5h26.3v3.5h-10.7v45.6c0,5.6-0.6,10.5-1.7,14.6c-3.6,12.1-12.9,18.1-28,18.1c-21.4-0.1-32.1-10.5-32.3-31.2v-47.1
		h-10.7V315.3z"/>
	<path class="st0" d="M892,395.8v-3.5h12.7v-73.5h-5.2c-7.2,0.1-12.2,4.6-14.9,13.7l-2.9,10.2h-3.9l0.5-27.4h67.6l0.7,27.4h-3.9
		l-3-10.2c-2.6-9-7.6-13.6-15-13.7h-5.6v73.5h9.3c1.7,0.2,2.9,1.3,3.6,3.5H892z"/>
	<path class="st0" d="M970.4,395.8v-3.5h11v-29.4l-24.8-44.1h-7v-3.5h33.3v3.5h-10.2l20.6,38.3l19.4-38.3h-10.7v-3.5h23.7
		c0,0.4,0,0.9-0.1,1.3c-0.3,1.4-1.4,2.1-3.4,2.1c-3,0.1-5.3,1.3-7.1,3.8l-19.3,39.2v30.6h7.4c1.7,0.2,2.9,1.3,3.6,3.5H970.4z"/>
	<path class="st0" d="M1112.8,388.7c-5.8,5.6-14.1,8.4-24.8,8.4c-9.2,0-17.2-2.3-24-6.8c0,1.7-0.1,2.9-0.3,3.8c-0.4,1.3-1.8,2-4,2
		v-28h4.6c0.2,2.9,0.6,5.5,1.3,8c3,11.5,10.1,17.3,21.5,17.3c3.1,0,6-0.6,8.7-1.7c5.7-2.5,8.6-6.9,8.6-13.1c0-2.2-0.5-4.3-1.5-6.2
		c-2.1-3.8-7-7.5-14.9-11.3c-8.7-4-13.7-6.4-15-7.2c-8.4-4.8-12.6-11-12.6-18.5c0-5.1,1.8-9.5,5.5-13.1c5.4-5.5,13-8.2,23.1-8.2
		c8,0,15.5,1.7,22.3,5.2c0-0.8,0-1.5,0.1-2.1c0.4-1.6,1.7-2.4,4.2-2.4v23.7h-4.6c0-4.9-1.2-9.1-3.6-12.6c-3.8-5.3-9.5-7.9-16.9-7.9
		c-2.6,0-5,0.4-7.2,1.2c-5.5,2.1-8.2,6-8.2,11.7c0,2.2,0.5,4.2,1.5,6c2,3.8,6.8,7.4,14.6,11c8.7,4,13.7,6.5,15.2,7.4
		c8.4,4.9,12.6,11.3,12.6,19C1118.8,379.8,1116.8,384.6,1112.8,388.7z"/>
	<path class="st0" d="M1142.8,395.8v-3.5h12.7v-73.5h-5.2c-7.2,0.1-12.2,4.6-14.9,13.7l-2.9,10.2h-3.9l0.5-27.4h67.6l0.7,27.4h-3.9
		l-3-10.2c-2.6-9-7.6-13.6-15-13.7h-5.6v73.5h9.3c1.7,0.2,2.9,1.3,3.6,3.5H1142.8z"/>
	<path class="st0" d="M1202.4,315.3h35.8v3.5h-10.6v46.1c0,5.4,0.5,10,1.5,13.8c2.6,9.7,9,14.5,19.2,14.5c14.7-0.1,22-9.4,22.1-28
		v-46.4h-10.7v-3.5h26.3v3.5h-10.7v45.6c0,5.6-0.6,10.5-1.7,14.6c-3.6,12.1-12.9,18.1-28,18.1c-21.4-0.1-32.1-10.5-32.3-31.2v-47.1
		h-10.7V315.3z"/>
	<path class="st0" d="M1329.1,315.3c9.5,0,17.8,2.3,24.9,6.8c11.3,7.2,16.9,18.3,16.9,33.5c0,11.8-3.9,21.4-11.7,28.8
		c-8,7.5-18,11.3-30.2,11.3h-38.2v-3.5h10.7v-73.5h-10.7v-3.5H1329.1z M1315.9,318.8v73.5h13.3c16.4-0.4,24.8-12.9,25.5-37.3
		c0-7.1-0.7-13-2-18c-3.3-12.2-11.2-18.2-23.6-18.2H1315.9z"/>
	<path class="st0" d="M1381.4,395.8v-3.5h10.7v-73.5h-10.7v-3.5h35.8v3.5h-10.7v73.5h7.2c0.4,0,0.9,0,1.3,0.1
		c1.4,0.3,2.1,1.4,2.1,3.4H1381.4z"/>
	<path class="st0" d="M1494.1,322c10.4,7.7,15.6,18.9,15.6,33.7c0,12.4-4.2,22.6-12.5,30.4c-7.9,7.3-17.4,11-28.6,11
		c-9.7,0-18.3-2.9-25.7-8.6c-10.1-8-15.2-19.1-15.2-33.4c0-12.3,4.2-22.4,12.6-30.2c7.9-7.3,17.4-11,28.7-11
		C1478.5,314,1486.9,316.7,1494.1,322z M1493.1,355c-0.1-24.7-8.2-37.1-24.4-37.3c-16.2,0.1-24.3,12.7-24.4,37.9
		c0.1,24.9,8.4,37.5,24.8,37.7C1485,393.3,1493,380.5,1493.1,355z"/>
</g>
</svg>
