<svg viewBox="0 0 175 32" xmlns="http://www.w3.org/2000/svg" fill-rule="evenodd" clip-rule="evenodd" stroke-linejoin="round" stroke-miterlimit="2"><path d="M30 0H0v32L30 0z" fill="#333"/><path d="M30 32H0V0l30 32z" fill="#1a1a1a"/><path d="M30 11l-5 5 5 5V11z" fill="#333"/><path d="M46.544 16.428l8.372 10.052h-4.788l-7.308-9.044v9.044h-3.948V6.712h3.948v8.876l7.336-8.876h4.76l-8.372 9.716z" fill="#1a1a1a" fill-rule="nonzero"/><path d="M72.192 6.712L65.5 19.564v6.916h-3.976v-6.916l-6.72-12.852h4.536l4.2 8.652 4.2-8.652h4.452zM77.428 23.456h6.636v3.024H73.48V6.712h3.948v16.744zM89.524 9.848v5.124h7v3.024h-7v5.32h7.84v3.164H85.576V6.712h11.788v3.136h-7.84zM127.408 6.936V26.48h-3.92V12.844l-5.012 13.636h-3.416l-5.012-13.58v13.58H106.1V6.936h4.788l5.936 14.7 5.824-14.7h4.76zM130.152 6.712h3.948V26.48h-3.948zM140.792 23.456h6.636v3.024h-10.584V6.712h3.948v16.744zM152.888 23.456h6.636v3.024H148.94V6.712h3.948v16.744zM174.616 21.076a5.458 5.458 0 01-.756 2.8c-.504.84-1.26 1.512-2.24 2.044-.98.504-2.184.756-3.612.756-1.4 0-2.66-.224-3.752-.7-1.092-.476-1.988-1.176-2.632-2.072-.672-.896-1.064-1.932-1.148-3.136h4.2c.084.812.42 1.484.98 2.016.532.532 1.26.784 2.184.784.812 0 1.456-.224 1.904-.644.42-.448.644-1.008.644-1.708 0-.616-.168-1.12-.532-1.512-.364-.42-.812-.728-1.344-.98s-1.288-.532-2.24-.84c-1.232-.42-2.24-.812-3.024-1.204a6.048 6.048 0 01-2.016-1.764c-.532-.756-.812-1.764-.812-2.996 0-1.708.616-3.024 1.82-4.004 1.232-.98 2.856-1.484 4.872-1.484 2.1 0 3.752.504 5.012 1.512 1.232 1.008 1.932 2.352 2.1 4.032h-4.256a3.143 3.143 0 00-.896-1.764c-.476-.448-1.148-.672-1.988-.672-.728 0-1.316.196-1.764.56-.448.392-.672.952-.672 1.68 0 .588.168 1.064.532 1.428.336.392.784.7 1.316.952s1.232.504 2.156.812c1.26.448 2.296.868 3.108 1.26.784.392 1.456.98 2.016 1.764s.84 1.82.84 3.08z" fill="#1a1a1a" fill-rule="nonzero"/></svg>