<svg xmlns="http://www.w3.org/2000/svg" width="114" height="64" viewBox="0 0 114 64" fill="none"><path d="M81.0707 23.2652C81.319 22.2258 80.8141 21.2559 80.288 20.4696C79.7088 19.604 78.7411 18.8365 77.6602 18.5601C77.856 19.5411 78.4275 20.3874 78.9779 21.1833C79.5245 21.9739 80.2138 22.7747 81.0707 23.2652Z" fill="#9A9A9A"></path><path d="M34.6128 20.4685C34.0858 21.2543 33.5798 22.2238 33.8275 23.2634C34.6847 22.7736 35.375 21.9733 35.9222 21.1831C36.4732 20.3877 37.0456 19.5417 37.242 18.5609C36.161 18.8366 35.193 19.6034 34.6128 20.4685Z" fill="#9A9A9A"></path><path d="M33.0733 25.2576C33.2667 24.4343 33.2624 23.533 33.0783 22.7608C32.9165 22.0821 32.6809 21.1228 31.9058 20.7991C31.3423 21.7029 31.1158 22.9337 31.4442 23.8559C31.6816 24.523 32.1086 25.405 32.9942 25.5415C33.8068 25.7288 34.6285 25.2953 35.2775 24.9374C35.9991 24.5396 36.7059 23.9065 37.1353 23.154C36.3476 22.7563 35.4504 23.079 34.7755 23.3883C34.0479 23.7216 33.3796 24.4369 33.0733 25.2576Z" fill="#9A9A9A"></path><path d="M48.8436 21.9152V26.0487H47.4324V24.548H45.3156V26.0487H43.9044V21.9152H45.3156V23.4211H47.4324V21.9152H48.8436Z" fill="#9A9A9A"></path><path d="M53.523 21.9152H55.0816L52.8701 24.6849V26.0487H51.4537V24.6901L49.2684 21.9152H50.8744L52.1803 23.5685L53.523 21.9152Z" fill="#9A9A9A"></path><path fill-rule="evenodd" clip-rule="evenodd" d="M60.4336 23.4053C60.4336 22.863 60.2756 22.4891 59.9965 22.2679C59.728 22.031 59.2962 21.9152 58.7275 21.9152H55.5208V26.0487H56.9372V24.8903C56.9372 24.8903 58.559 24.8955 58.7486 24.8903C59.3594 24.885 59.828 24.7376 60.1124 24.4111C60.323 24.1794 60.4336 23.8476 60.4336 23.4053ZM59.0119 23.4264C59.0119 23.558 58.9908 23.6528 58.9487 23.7266C58.8644 23.8582 58.6907 23.9266 58.3958 23.9266H56.9267V22.9156H58.4063C58.6801 22.9156 58.8486 22.9788 58.9382 23.1105C58.9855 23.1737 59.0119 23.2895 59.0119 23.4264Z" fill="#9A9A9A"></path><path d="M65.3517 25.0218V26.0487H60.9972V21.9152H65.3153V22.9472H62.3873V23.4791H65.2308V24.4848H62.3873V25.0218H65.3517Z" fill="#9A9A9A"></path><path fill-rule="evenodd" clip-rule="evenodd" d="M70.9179 23.1737C70.9179 22.7998 70.8289 22.5312 70.6388 22.3364C70.3918 22.0731 69.9649 21.9152 69.3121 21.9152H66.0212V26.0487H67.4273V24.5901H68.7067L69.7332 26.0487H71.3025L70.0545 24.3637C70.3336 24.3216 70.5601 24.153 70.7073 23.953C70.8392 23.7687 70.9179 23.4949 70.9179 23.1737ZM69.5489 23.3053C69.5489 23.3737 69.5387 23.458 69.5016 23.5212C69.4491 23.6265 69.3121 23.6686 69.0856 23.6686H67.4324V22.9156H69.0593C69.2808 22.9156 69.428 22.9525 69.5016 23.0894C69.5387 23.142 69.5489 23.2263 69.5489 23.3053Z" fill="#9A9A9A"></path><path d="M64.5978 31.2331C64.5978 30.2883 63.9975 29.7917 62.5974 29.64C62.3699 29.6124 61.7009 29.5434 61.2801 29.5089C60.1973 29.3917 59.8732 29.3297 59.8732 29.0538C59.8732 28.8055 60.1284 28.6882 61.1008 28.6882C61.7905 28.6882 62.1768 28.8193 62.3285 29.0193C62.4044 29.1158 62.4319 29.1917 62.4389 29.2676H64.4252C64.4044 29.102 64.3355 28.8675 64.2251 28.6607C63.8665 27.9709 63.0044 27.4192 61.1491 27.4192C59.0593 27.4192 57.9145 28.1572 57.9145 29.1227C57.9145 30.0538 58.5628 30.5986 60.3146 30.7573C60.5167 30.7746 60.9558 30.8161 61.3078 30.8494L61.3118 30.8498L61.3133 30.8499L61.5009 30.8676C62.4181 30.9642 62.6664 31.0262 62.6664 31.316C62.6664 31.5849 62.425 31.7297 61.4112 31.7297C60.625 31.7297 60.1629 31.6125 59.9973 31.4125C59.9284 31.3297 59.8801 31.2056 59.8663 31.1228H57.88C57.9007 31.2607 57.9352 31.4815 58.011 31.6608C58.349 32.4194 59.2318 32.9988 61.2801 32.9988C63.4803 32.9988 64.5978 32.378 64.5978 31.2331Z" fill="#9A9A9A"></path><path fill-rule="evenodd" clip-rule="evenodd" d="M50.8269 31.3849C50.8269 31.7573 50.7234 32.1229 50.5165 32.3643C50.1993 32.7505 49.6061 32.916 48.8406 32.916H44.0334V27.502H48.7095C49.4544 27.502 49.9303 27.6813 50.1924 27.9503C50.4269 28.1848 50.5303 28.4951 50.5303 28.8469C50.5303 29.1986 50.4475 29.4883 50.2682 29.7021C50.1234 29.8814 49.8751 30.0193 49.613 30.0538C49.9992 30.1021 50.3648 30.2952 50.5717 30.5642C50.7441 30.7642 50.8269 31.0676 50.8269 31.3849ZM48.5026 29.4883C48.5716 29.4124 48.613 29.3021 48.613 29.171C48.613 29.0399 48.5716 28.9296 48.4819 28.8538C48.3854 28.7641 48.2061 28.7296 47.944 28.7296H45.8404V29.6124H47.9922C48.2267 29.6124 48.4061 29.5779 48.5026 29.4883ZM48.1922 31.6884C48.5164 31.6884 48.7095 31.647 48.8199 31.5436C48.8888 31.4746 48.9164 31.3711 48.9164 31.2401C48.9164 31.1021 48.882 30.9987 48.7991 30.9159C48.6957 30.8262 48.5164 30.7849 48.213 30.7849H45.8404V31.6884H48.1922Z" fill="#9A9A9A"></path><path d="M57.321 31.5711V32.916H51.6173V27.502H57.2727V28.8538H53.438V29.5503H57.1624V30.8676H53.438V31.5711H57.321Z" fill="#9A9A9A"></path><path d="M71.3089 27.502V28.8607H69.019V32.916H67.1297V28.8607H64.8468V27.502H71.3089Z" fill="#9A9A9A"></path><path d="M71.1451 37.6866V37.7068H70.8411L70.8193 37.414C70.7265 37.5623 70.53 37.7401 70.1153 37.7401C69.4145 37.7401 69.0887 37.3177 69.0887 36.2393C69.0887 35.4055 69.2961 34.7347 70.1518 34.7347C70.8936 34.7347 71.1195 35.2202 71.1304 35.7427H70.7598C70.7489 35.4018 70.5966 35.0867 70.1595 35.0867C69.6334 35.0867 69.4811 35.4018 69.4811 36.2504C69.4811 37.1361 69.6705 37.414 70.1672 37.414C70.5153 37.414 70.7188 37.2213 70.786 36.9916V36.4394H70.0372V36.1022H71.1412V36.9545C71.1412 37.2608 71.1444 37.5917 71.1451 37.6826V37.6851V37.6866Z" fill="#9A9A9A"></path><path fill-rule="evenodd" clip-rule="evenodd" d="M45.1412 36.9692H44.1036L43.8812 37.7067H43.4921L44.4112 34.7717H44.8892L45.749 37.7067H45.3561L45.1412 36.9692ZM44.2036 36.6394H45.0485C45.0485 36.6394 44.7039 35.4462 44.7002 35.4277L44.682 35.3406L44.6409 35.146C44.6409 35.146 44.5816 35.4091 44.5779 35.4277C44.5705 35.4536 44.2036 36.6394 44.2036 36.6394Z" fill="#9A9A9A"></path><path d="M48.5617 34.7717H48.9175L48.2245 37.7067H47.7835C47.7835 37.7067 47.2906 35.424 47.2906 35.3276C47.2869 35.424 46.7829 37.7067 46.7829 37.7067H46.3419L45.6489 34.7717H46.0491C46.0491 34.7717 46.5865 37.0953 46.5865 37.1879C46.5865 37.0953 47.0794 34.7717 47.0794 34.7717H47.5203C47.5203 34.7717 48.0132 37.099 48.0132 37.1879C48.0132 37.099 48.5617 34.7717 48.5617 34.7717Z" fill="#9A9A9A"></path><path fill-rule="evenodd" clip-rule="evenodd" d="M49.4016 36.9692H50.4393L50.6542 37.7067H51.0471L50.1873 34.7717H49.7092L48.7902 37.7067H49.1793L49.4016 36.9692ZM50.3466 36.6394H49.5017C49.5017 36.6394 49.8686 35.4536 49.876 35.4277C49.8797 35.4091 49.939 35.146 49.939 35.146L49.9703 35.2941L49.9983 35.4277C50.002 35.4462 50.3466 36.6394 50.3466 36.6394Z" fill="#9A9A9A"></path><path fill-rule="evenodd" clip-rule="evenodd" d="M52.4749 34.7717C52.927 34.7717 53.1716 34.9829 53.1716 35.5981C53.1716 36.1207 52.9752 36.2948 52.7713 36.3541L53.3347 37.7067H52.927L52.4045 36.4282H51.693V37.7067H51.3224V34.7717H52.4749ZM52.4193 36.0947C52.7121 36.0947 52.7825 35.9427 52.7825 35.6092C52.7825 35.2312 52.6713 35.1164 52.4008 35.1164H51.6967V36.0947H52.4193Z" fill="#9A9A9A"></path><path fill-rule="evenodd" clip-rule="evenodd" d="M55.4388 37.3769C55.587 37.1657 55.6389 36.884 55.6389 36.1911C55.6389 35.5648 55.5945 35.2979 55.4462 35.083C55.3128 34.8829 55.0238 34.7717 54.6532 34.7717H53.6711V37.7067H54.6791C55.0571 37.7067 55.2906 37.5808 55.4388 37.3769ZM55.1127 37.1694C55.0164 37.2991 54.8274 37.3584 54.6013 37.3584H54.0454V35.1237H54.5939C54.8199 35.1237 55.0126 35.1831 55.1127 35.3201C55.2201 35.4795 55.2461 35.7278 55.2461 36.1911C55.2461 36.7432 55.2165 37.0286 55.1127 37.1694Z" fill="#9A9A9A"></path><path d="M59.5489 34.7717H59.9046L59.2117 37.7067H58.7706C58.7706 37.7067 58.2778 35.424 58.2778 35.3276C58.2741 35.424 57.7701 37.7067 57.7701 37.7067H57.3291L56.6361 34.7717H57.0363C57.0363 34.7717 57.5736 37.0953 57.5736 37.1879C57.5736 37.0953 58.0665 34.7717 58.0665 34.7717H58.5075C58.5075 34.7717 59.0004 37.099 59.0004 37.1879C59.0004 37.099 59.5489 34.7717 59.5489 34.7717Z" fill="#9A9A9A"></path><path d="M60.5598 37.7067V34.7717H60.1744V37.7067H60.5598Z" fill="#9A9A9A"></path><path d="M62.9725 34.7717V37.7067H62.5464L61.4531 35.4313V37.7067H61.0936V34.7717H61.5421L62.6093 37.0137V34.7717H62.9725Z" fill="#9A9A9A"></path><path d="M65.3754 37.7067V34.7717H65.0125V37.0137L63.945 34.7717H63.4966V37.7067H63.8561V35.4313L64.9491 37.7067H65.3754Z" fill="#9A9A9A"></path><path d="M66.2848 34.7717V37.7067H65.8995V34.7717H66.2848Z" fill="#9A9A9A"></path><path d="M68.6976 37.7067V34.7717H68.3348V37.0137L67.2672 34.7717H66.8186V37.7067H67.1783V35.4313L68.2714 37.7067H68.6976Z" fill="#9A9A9A"></path><path d="M48.2754 43.4915L47.8508 42.1844L47.4261 43.4915H46.0519L47.1636 44.2993L46.739 45.6063L47.8508 44.7985L48.9626 45.6063L48.5379 44.2993L49.6497 43.4915H48.2754Z" fill="#9A9A9A"></path><path d="M52.7531 42.1846L53.1865 43.4916H54.5888L53.4543 44.2993L53.8877 45.6063L52.7531 44.7986L51.6187 45.6063L52.052 44.2993L50.9175 43.4916H52.3198L52.7531 42.1846Z" fill="#9A9A9A"></path><path d="M58.0506 43.4916L57.6173 42.1846L57.1839 43.4916H55.7816L56.9161 44.2993L56.4827 45.6063L57.6173 44.7986L58.7517 45.6063L58.3184 44.2993L59.4529 43.4916H58.0506Z" fill="#9A9A9A"></path><path d="M62.4812 42.1846L62.9145 43.4916H64.3168L63.1823 44.2993L63.6156 45.6063L62.4812 44.7986L61.3466 45.6063L61.78 44.2993L60.6455 43.4916H62.0478L62.4812 42.1846Z" fill="#9A9A9A"></path><path d="M67.8081 43.4916L67.3838 42.1846L66.9588 43.4916H65.5847L66.6964 44.2993L66.2721 45.6063L67.3838 44.7986L68.4954 45.6063L68.0705 44.2993L69.1828 43.4916H67.8081Z" fill="#9A9A9A"></path><path d="M32.4907 28.8309C31.5891 28.8526 30.9707 28.089 30.5711 27.4793C30.044 26.6755 29.9395 25.4617 30.2671 24.4696C31.0984 24.6419 31.5644 25.5037 31.8988 26.1413C32.2646 26.8387 32.4915 27.7044 32.4992 28.5426C32.6025 27.706 33.0833 26.8911 33.7086 26.4459C34.3073 26.0196 35.1102 25.5676 35.9487 25.8116C35.7198 26.6068 35.1775 27.3423 34.5768 27.8453C34.019 28.3123 33.3106 28.8718 32.4907 28.8309Z" fill="#9A9A9A"></path><path d="M32.7574 32.1146C31.9206 32.2548 31.1044 31.7421 30.5743 31.139C29.8918 30.3625 29.4857 29.321 29.5685 28.2782C30.4282 28.3 31.0792 29.0431 31.5605 29.605C32.0787 30.2102 32.5034 31.0065 32.7071 31.8278C32.6175 31.0093 32.8923 30.1254 33.4024 29.5792C33.8948 29.052 34.5846 28.4774 35.4429 28.5696C35.4244 29.3996 35.0083 30.1904 34.5792 30.7826C34.1792 31.3346 33.563 32.0173 32.7574 32.1146Z" fill="#9A9A9A"></path><path d="M33.8994 35.495C32.9171 35.8709 31.9824 35.3743 31.2117 34.8725C30.2534 34.2486 29.54 33.0359 29.3601 31.867C30.3056 31.7495 31.2444 32.3739 31.8961 32.9666C32.613 33.6186 33.2898 34.3243 33.7526 35.1964C33.4394 34.3487 33.5176 33.3862 33.9254 32.5777C34.3154 31.8042 35.0497 31.1706 35.9353 31.092C36.0896 31.9555 35.8667 32.8652 35.5328 33.6542C35.2177 34.3987 34.7053 35.2099 33.8994 35.495Z" fill="#9A9A9A"></path><path d="M35.8845 38.6552C36.6429 38.2018 36.9481 37.2478 37.0728 36.4304C37.2073 35.5488 37.2015 34.5765 36.8354 33.7401C35.9555 33.9859 35.3515 34.7778 35.1521 35.6452C34.9414 36.5616 35.1192 37.5383 35.6317 38.3186C34.9505 37.537 34.0445 36.8916 33.1764 36.4391C32.3378 36.0019 31.309 35.4747 30.3019 35.7931C30.7875 36.9783 31.8264 38.0818 32.9777 38.5383C33.8694 38.8917 34.9541 39.2412 35.8845 38.6552Z" fill="#9A9A9A"></path><path d="M38.9273 41.5473C39.588 40.8923 39.5911 39.813 39.4798 38.9621C39.3549 38.0064 39.0751 36.9998 38.4778 36.2157C37.6221 36.6524 37.2244 37.6325 37.249 38.5486C37.2763 39.5728 37.8346 40.589 38.6008 41.2814C37.6407 40.5993 36.4927 40.1001 35.4154 39.7901L35.3603 39.7743C34.3951 39.4963 33.2029 39.153 32.228 39.6897C33.0262 40.8912 34.5155 41.7936 35.8385 42.0434C36.824 42.2293 38.1017 42.3923 38.9273 41.5473Z" fill="#9A9A9A"></path><path d="M43.3141 43.9567C43.8007 43.0306 43.3186 41.9436 42.9345 41.1402C42.4804 40.1904 41.8599 39.2225 40.9719 38.5273C40.1192 39.2622 40.2003 40.3136 40.4538 41.2274C40.7552 42.314 41.8003 43.2402 42.8825 43.768C41.6292 43.3006 40.2604 43.0201 38.9581 42.9373L38.8262 42.9288C37.78 42.8606 36.418 42.7719 35.5844 43.5375C36.8448 44.6091 38.6352 45.2273 40.2132 45.1952C41.2707 45.1737 42.7216 45.0486 43.3141 43.9567Z" fill="#9A9A9A"></path><path d="M80.123 23.3891C80.85 23.7231 81.5182 24.4393 81.8235 25.2606C81.6308 24.4369 81.6359 23.5353 81.8209 22.7628C81.9828 22.0842 82.2196 21.1251 82.9953 20.8019C83.5579 21.7063 83.7831 22.9373 83.4535 23.8591C83.2155 24.5262 82.7873 25.408 81.9015 25.5436C81.0887 25.7302 80.2676 25.2962 79.6193 24.9379C78.898 24.5394 78.1921 23.9059 77.7633 23.153C78.5511 22.7561 79.4478 23.0793 80.123 23.3891Z" fill="#9A9A9A"></path><path d="M81.1866 26.4476C81.8113 26.893 82.2906 27.7074 82.3937 28.5435C82.4026 27.7058 82.6305 26.8409 82.9965 26.1442C83.3313 25.5068 83.7985 24.6453 84.6298 24.4736C84.9562 25.466 84.8506 26.6798 84.3226 27.4832C83.9233 28.0917 83.305 28.8538 82.4052 28.8334C81.5841 28.8753 80.8749 28.3144 80.3169 27.8464C79.7165 27.3429 79.1751 26.607 78.9473 25.8117C79.7857 25.5682 80.5882 26.0208 81.1866 26.4476Z" fill="#9A9A9A"></path><path d="M81.4894 29.5809C82.0001 30.1281 82.274 31.0139 82.1825 31.8332C82.3866 31.0108 82.8122 30.2137 83.3319 29.6081C83.8138 29.0466 84.4654 28.3041 85.3255 28.2828C85.4068 29.3257 84.9997 30.367 84.3169 31.1429C83.7857 31.7459 82.9684 32.2583 82.1313 32.1166C81.3262 32.0182 80.7111 31.3355 80.3118 30.7835C79.883 30.1909 79.4676 29.3998 79.4503 28.5697C80.3086 28.4782 80.9978 29.0533 81.4894 29.5809Z" fill="#9A9A9A"></path><path d="M80.9639 32.5792C81.3709 33.3882 81.4484 34.3509 81.1341 35.1983C81.5975 34.3263 82.2753 33.6211 82.9927 32.9695C83.6449 32.3773 84.5844 31.7537 85.5297 31.8718C85.3492 33.0407 84.6343 34.2529 83.6756 34.876C82.905 35.3765 81.9713 35.8721 80.9901 35.4978C80.1831 35.2132 79.6705 34.4003 79.3556 33.6545C79.0221 32.8653 78.8 31.9555 78.9556 31.092C79.8407 31.1713 80.5748 31.8055 80.9639 32.5792Z" fill="#9A9A9A"></path><path d="M79.7345 35.646C79.9438 36.562 79.7652 37.5377 79.2532 38.3172C79.9348 37.5369 80.841 36.8928 81.7089 36.4412C82.5479 36.0047 83.577 35.4782 84.5838 35.7973C84.0974 36.9822 83.0574 38.085 81.9054 38.5406C81.0126 38.8939 79.9252 39.2432 78.994 38.6526C78.2401 38.1975 77.9367 37.2455 77.8126 36.4296C77.6794 35.5478 77.6858 34.5756 78.0526 33.7396C78.9326 33.986 79.5361 34.7784 79.7345 35.646Z" fill="#9A9A9A"></path><path d="M75.4029 38.9596C75.2909 39.8103 75.2929 40.8896 75.9534 41.5451C76.7777 42.3908 78.0558 42.2287 79.0414 42.0434C80.3649 41.7946 81.8548 40.8932 82.6542 39.6925C81.6801 39.1551 80.4871 39.4974 79.522 39.7746L79.4663 39.7904C78.3892 40.0994 77.241 40.5976 76.2804 41.2787C77.0471 40.5869 77.6058 39.5716 77.634 38.5477C77.6596 37.6317 77.2628 36.6512 76.4078 36.2139C75.8093 36.9975 75.529 38.004 75.4029 38.9596Z" fill="#9A9A9A"></path><path d="M71.5643 43.9511C72.1556 45.0435 73.6065 45.1696 74.6638 45.192C76.242 45.2253 78.0327 44.6082 79.2942 43.5378C78.4615 42.7717 77.0996 42.8592 76.0532 42.9266L75.9207 42.935C74.6183 43.0169 73.2494 43.2964 71.9956 43.7629C73.0785 43.2359 74.1243 42.3104 74.427 41.224C74.6811 40.3105 74.7636 39.2591 73.9111 38.5237C73.0228 39.2181 72.4014 40.1856 71.9463 41.135C71.5636 41.9337 71.0836 43.0128 71.5559 43.9362L71.5643 43.9511Z" fill="#9A9A9A"></path></svg>