<svg xmlns="http://www.w3.org/2000/svg" width="114" height="64" viewBox="0 0 114 64" fill="none"><path d="M28.82 23.154C28.4134 22.1207 28.5899 20.9325 28.9644 19.9332C29.3585 18.8817 30.0446 17.8331 31.0701 17.28C31.121 18.3881 30.7825 19.4829 30.4127 20.4701C30.0801 21.358 29.6719 22.304 28.998 23.0384C28.8945 23.5948 28.8151 24.1497 28.7593 24.702C28.9826 24.1185 29.3448 23.5867 29.7967 23.159C30.3786 22.6084 31.244 22.1835 32.0564 22.4347C31.8185 23.3328 31.2761 24.1936 30.6337 24.7975C30.1281 25.2729 29.4607 25.882 28.6745 25.9059C28.6421 26.7187 28.6604 27.5241 28.7273 28.3185C28.8382 27.7371 29.0758 27.1897 29.4192 26.782C29.8909 26.2218 30.5903 25.5374 31.4834 25.6519C31.4347 26.5608 31.0721 27.4921 30.5672 28.1918C30.166 28.7479 29.6363 29.4567 28.8845 29.6398C29.0049 30.4204 29.1726 31.1881 29.3853 31.9392C29.3874 31.3641 29.5144 30.7995 29.7665 30.3467C30.1217 29.7082 30.6749 28.9119 31.5691 28.8496C31.7001 29.7413 31.5225 30.7161 31.1643 31.4914C30.8779 32.1111 30.4962 32.9014 29.8003 33.2284C30.0925 34.0366 30.4383 34.8222 30.8348 35.5804C30.6956 34.9269 30.7012 34.2382 30.8659 33.6185C31.0929 32.7643 31.6564 31.8669 32.5611 31.6065C32.881 32.5496 32.8369 33.6021 32.6511 34.5607C32.4982 35.35 32.1978 36.277 31.5243 36.7897C31.9646 37.5001 32.4516 38.182 32.9828 38.8308C32.6974 38.1945 32.5556 37.4986 32.6317 36.8615C32.7425 35.9333 33.0033 34.9404 33.9514 34.4456C34.4892 35.3736 34.6138 36.4147 34.6595 37.443C34.6964 38.2743 34.5767 39.2996 33.9994 39.9759C34.6344 40.6362 35.3197 41.2542 36.0516 41.824C35.5791 41.2179 35.2482 40.5066 35.1781 39.8032C35.0792 38.8093 35.1275 37.7152 36.0095 36.9859C36.7638 37.7737 37.2139 38.934 37.4346 39.9417C37.6296 40.8327 37.8333 41.8873 37.3688 42.7642C38.3003 43.3722 39.2946 43.9079 40.346 44.3615C39.6062 43.8343 39.0006 43.1111 38.7121 42.3643C38.3341 41.3854 38.1002 40.219 38.8367 39.2387C39.8234 39.8707 40.5485 40.949 41.1199 41.9324C41.6101 42.7762 42.1176 43.9409 41.8658 44.9459C42.4479 45.1434 43.045 45.3168 43.6564 45.4648L43.62 45.6149C43.0063 45.4663 42.4069 45.2923 41.8225 45.0942C41.413 46.3043 40.0716 46.704 38.9868 46.8805C37.4411 47.132 35.6007 46.6448 34.2811 45.6633C34.9776 44.679 36.3986 44.5792 37.4701 44.5038L37.484 44.5029C38.6578 44.4204 39.9274 44.5306 41.1078 44.8373C39.7442 44.3182 38.4682 43.6655 37.2916 42.8982L37.2743 42.9256C36.6296 43.971 35.3351 44.0118 34.319 43.9457C32.9403 43.856 31.3485 43.0176 30.4272 41.8588C31.2937 41.0985 32.5737 41.3113 33.5654 41.4761L33.5702 41.4769C34.6771 41.6609 35.8866 42.0623 36.9019 42.6804C36.8052 42.6042 36.7106 42.5236 36.6186 42.4391C35.6315 41.7353 34.7209 40.9481 33.8946 40.0897C33.885 40.0993 33.8753 40.1088 33.8655 40.1183C33.062 40.9266 31.8918 40.7149 30.9786 40.4519C29.7565 40.0999 28.4891 39.0379 27.8818 37.8188C28.823 37.2914 29.9482 37.726 30.8235 38.0697C31.7841 38.447 32.8005 39.0505 33.582 39.8199C33.5014 39.7182 33.4246 39.6121 33.3519 39.5022C32.6255 38.6823 31.9721 37.8044 31.3976 36.8783L31.3688 36.8964C30.4599 37.4829 29.4301 37.0581 28.6139 36.6404C27.5073 36.0741 26.618 34.8294 26.2337 33.6053C27.2154 33.2909 28.1853 33.9081 28.9393 34.3968C29.764 34.9314 30.5993 35.6937 31.1727 36.568C31.1305 36.4819 31.0913 36.3938 31.0552 36.3041C30.5042 35.3429 30.0362 34.3339 29.6573 33.2872L29.6378 33.2939L29.6362 33.2944C28.8098 33.6086 27.8895 33.1202 27.2895 32.5845C26.4555 31.84 25.8678 30.6955 25.73 29.5774C26.5916 29.4658 27.4034 30.1324 27.9584 30.701C28.5972 31.3554 29.1706 32.1288 29.5231 32.9879C29.4974 32.8946 29.4753 32.7998 29.4568 32.704C29.136 31.7204 28.893 30.706 28.7328 29.669L28.7203 29.6705L28.7161 29.6712C27.8424 29.8171 27.0345 29.1528 26.5519 28.5081C25.8748 27.6035 25.5257 26.3515 25.6132 25.2167C26.4836 25.2775 27.1463 26.1055 27.5761 26.7753C28.0735 27.5506 28.4859 28.4281 28.6666 29.3461C28.6611 29.2731 28.6578 29.1996 28.6567 29.126C28.524 28.0705 28.4767 26.9934 28.52 25.9029L28.5175 25.9028C27.6292 25.8708 26.9727 25.046 26.6337 24.3145C26.1487 23.2675 26.0706 21.9442 26.3944 20.829C27.241 21.0666 27.713 22.0378 27.9916 22.7854C28.3128 23.6473 28.537 24.5874 28.5388 25.5221C28.585 24.738 28.6781 23.9476 28.82 23.154Z" fill="#9A9A9A"></path><path d="M46.3158 21.2195V24.9634C46.3158 26.61 44.8245 27.4023 42.5642 27.4023C40.4515 27.4023 38.9369 26.6178 38.9369 24.7692V21.2195H41.0419V24.7692C41.0419 25.4294 41.6088 25.8411 42.6497 25.8411C43.6439 25.8411 44.2342 25.4139 44.2342 24.7769V21.2195H46.3158Z" fill="#9A9A9A"></path><path d="M53.3263 25.6935V27.3168H47.5085V21.2195H49.6135V25.6935H53.3263Z" fill="#9A9A9A"></path><path d="M59.582 22.7497V21.2195H52.304V22.7497H54.875V27.3168H57.0032V22.7497H59.582Z" fill="#9A9A9A"></path><path fill-rule="evenodd" clip-rule="evenodd" d="M67.0483 21.8409C67.328 22.1283 67.4604 22.5244 67.4604 23.0759C67.4604 23.5497 67.344 23.9536 67.1494 24.2254C66.9318 24.5206 66.5977 24.7692 66.1862 24.8313L68.0275 27.3168H65.7126L64.1977 25.1653H62.3105V27.3168H60.2366V21.2195H65.0912C66.0544 21.2195 66.6835 21.4525 67.0483 21.8409ZM65.3708 23.5886C65.4252 23.4953 65.4406 23.371 65.4406 23.2701C65.4406 23.1536 65.4252 23.0293 65.3708 22.9516C65.262 22.7497 65.0444 22.6953 64.718 22.6953H62.3182V23.806H64.7571C65.0912 23.806 65.2934 23.7439 65.3708 23.5886Z" fill="#9A9A9A"></path><path fill-rule="evenodd" clip-rule="evenodd" d="M70.8295 26.1906H74.1229L74.6586 27.3168H76.9037L73.8279 21.2195H71.3191L68.0647 27.3168H70.2625L70.8295 26.1906ZM73.4625 24.8235H71.513L72.2823 23.3555L72.5153 22.7963L72.7329 23.3477L73.4625 24.8235Z" fill="#9A9A9A"></path><path fill-rule="evenodd" clip-rule="evenodd" d="M66.8263 28.4652C65.5232 28.4652 64.8378 29.0828 64.8378 29.9903C64.8378 31.0146 65.5571 31.5343 66.8263 31.5343C68.2234 31.5343 68.8109 30.9318 68.8109 29.9903C68.8109 29.0338 68.1479 28.4652 66.8263 28.4652ZM66.8263 30.7774C66.0845 30.7774 65.8694 30.4724 65.8694 30.0017C65.8694 29.5385 66.1031 29.2335 66.8224 29.2335C67.6096 29.2335 67.7863 29.5761 67.7863 30.0017C67.7863 30.4536 67.5719 30.7774 66.8263 30.7774Z" fill="#9A9A9A"></path><path d="M62.9064 31.489V29.738H60.9408V30.3744H61.9914C61.9839 30.4233 61.9462 30.5175 61.8972 30.5739C61.7881 30.702 61.4981 30.8149 61.1215 30.8149C60.7299 30.8149 60.4776 30.7132 60.342 30.5551C60.2517 30.4384 60.1989 30.2727 60.1989 30.0242C60.1989 29.7643 60.2517 29.5874 60.3533 29.4706C60.5002 29.3049 60.7487 29.2334 61.114 29.2334C61.4416 29.2334 61.6675 29.3086 61.773 29.4028C61.8408 29.4593 61.8935 29.5384 61.9048 29.5911H62.8801C62.8764 29.4969 62.8462 29.3463 62.7935 29.2372C62.56 28.7627 62.0177 28.4802 61.0952 28.4802C60.2931 28.4802 59.7546 28.725 59.4571 29.094C59.2613 29.3463 59.1709 29.6626 59.1709 30.0166C59.1709 30.4083 59.2763 30.7434 59.4496 30.9656C59.7433 31.346 60.2667 31.5342 60.8956 31.5342C61.4492 31.5342 61.8295 31.4024 62.0705 31.2028L62.0968 31.489H62.9064Z" fill="#9A9A9A"></path><path d="M52.6484 29.7003C53.4129 29.7832 53.7405 30.0543 53.7405 30.5702C53.7405 31.1953 53.1304 31.5342 51.9291 31.5342C50.8107 31.5342 50.3288 31.2179 50.1442 30.8037C50.1028 30.7058 50.084 30.5853 50.0726 30.5099H51.1572C51.1647 30.5551 51.1911 30.6229 51.2287 30.6681C51.3191 30.7773 51.5714 30.8413 52.0007 30.8413C52.5543 30.8413 52.6861 30.7622 52.6861 30.6154C52.6861 30.4572 52.5505 30.4233 52.0497 30.3706C51.8501 30.3518 51.5337 30.3217 51.402 30.3104C50.4455 30.2237 50.0915 29.9263 50.0915 29.4179C50.0915 28.8907 50.7166 28.4878 51.8576 28.4878C52.8706 28.4878 53.3413 28.789 53.5371 29.1656C53.5974 29.2786 53.635 29.4066 53.6463 29.4969H52.5618C52.558 29.4555 52.543 29.4141 52.5016 29.3614C52.4187 29.2522 52.2078 29.1807 51.8312 29.1807C51.3003 29.1807 51.161 29.2447 51.161 29.3802C51.161 29.5309 51.338 29.5648 51.9291 29.6288C52.1588 29.6476 52.5242 29.6852 52.6484 29.7003Z" fill="#9A9A9A"></path><path fill-rule="evenodd" clip-rule="evenodd" d="M41.8372 28.7852C42.0368 28.9434 42.1498 29.2108 42.1498 29.5986C42.1498 29.915 42.0707 30.1522 41.9201 30.3179C41.7167 30.5513 41.3816 30.6568 40.9448 30.6606C40.8091 30.6643 39.6493 30.6606 39.6493 30.6606V31.489H38.6364V28.533H40.9297C41.3364 28.533 41.6452 28.6158 41.8372 28.7852ZM41.0879 29.8283C41.1179 29.7756 41.1331 29.7078 41.1331 29.6137C41.1331 29.5158 41.1142 29.4329 41.0803 29.3877C41.0163 29.2936 40.8958 29.2484 40.7 29.2484H39.6418V29.9714H40.6924C40.9033 29.9714 41.0276 29.9225 41.0879 29.8283Z" fill="#9A9A9A"></path><path fill-rule="evenodd" clip-rule="evenodd" d="M45.8554 28.8342C45.991 28.9735 46.055 29.1656 46.055 29.4329C46.055 29.6626 45.9985 29.8585 45.9043 29.9902C45.7989 30.1333 45.637 30.2539 45.4374 30.284L46.3299 31.489H45.2077L44.4734 30.4459H43.5583V31.489H42.5529V28.533H44.9065C45.3734 28.533 45.6784 28.6459 45.8554 28.8342ZM45.042 29.6815C45.0684 29.6363 45.0759 29.576 45.0759 29.5271C45.0759 29.4706 45.0684 29.4103 45.042 29.3727C44.9893 29.2748 44.8839 29.2484 44.7257 29.2484H43.5621V29.7869H44.7445C44.9065 29.7869 45.0044 29.7568 45.042 29.6815Z" fill="#9A9A9A"></path><path d="M49.7674 31.489V30.7547H47.6474V30.3706H49.6808V29.6514H47.6474V29.271H49.7411V28.533H46.6532V31.489H49.7674Z" fill="#9A9A9A"></path><path d="M57.4049 29.2748V28.533H53.8765V29.2748H55.1229V31.489H56.1547V29.2748H57.4049Z" fill="#9A9A9A"></path><path d="M58.7617 28.533V31.489H57.7261V28.533H58.7617Z" fill="#9A9A9A"></path><path d="M64.4288 28.533V31.489H63.3931V28.533H64.4288Z" fill="#9A9A9A"></path><path d="M72.8064 28.533V30.348C72.8064 31.1463 72.0832 31.5305 70.9875 31.5305C69.9635 31.5305 69.2288 31.1501 69.2288 30.2539V28.533H70.2496V30.2539C70.2496 30.5739 70.5241 30.7735 71.0291 30.7735C71.511 30.7735 71.7971 30.5664 71.7971 30.2576V28.533H72.8064Z" fill="#9A9A9A"></path><path d="M76.8717 30.5702C76.8717 30.0543 76.544 29.7832 75.7799 29.7003C75.6551 29.6852 75.2903 29.6476 75.0605 29.6288C74.4691 29.5648 74.2919 29.5309 74.2919 29.3802C74.2919 29.2447 74.4314 29.1807 74.9626 29.1807C75.3389 29.1807 75.5501 29.2522 75.6327 29.3614C75.6743 29.4141 75.689 29.4555 75.6928 29.4969H76.7776C76.7661 29.4066 76.7283 29.2786 76.6682 29.1656C76.4723 28.789 76.0019 28.4878 74.9888 28.4878C73.8477 28.4878 73.2224 28.8907 73.2224 29.4179C73.2224 29.9263 73.577 30.2237 74.5331 30.3104L74.5946 30.3158L74.697 30.3252L75.1808 30.3706C75.6819 30.4233 75.817 30.4572 75.817 30.6154C75.817 30.7622 75.6858 30.8413 75.1322 30.8413C74.7027 30.8413 74.4506 30.7773 74.3597 30.6681C74.3226 30.6229 74.2957 30.5551 74.2887 30.5099H73.2039C73.2154 30.5853 73.2339 30.7058 73.2755 30.8037C73.4599 31.2179 73.9418 31.5342 75.0605 31.5342C76.2618 31.5342 76.8717 31.1953 76.8717 30.5702Z" fill="#9A9A9A"></path><path fill-rule="evenodd" clip-rule="evenodd" d="M50.5387 32.6208C49.6919 32.6208 49.2465 33.0223 49.2465 33.6121C49.2465 34.2777 49.7139 34.6155 50.5387 34.6155C51.4467 34.6155 51.8285 34.2239 51.8285 33.6121C51.8285 32.9904 51.3978 32.6208 50.5387 32.6208ZM50.5387 34.1236C50.0566 34.1236 49.9171 33.9253 49.9171 33.6194C49.9171 33.3184 50.0688 33.1201 50.5363 33.1201C51.0477 33.1201 51.1628 33.3428 51.1628 33.6194C51.1628 33.9131 51.0233 34.1236 50.5387 34.1236Z" fill="#9A9A9A"></path><path d="M45.8295 33.989C45.8295 33.6537 45.6166 33.4775 45.1197 33.4237C45.039 33.4139 44.8016 33.3894 44.6523 33.3772C44.268 33.3355 44.153 33.3135 44.153 33.2157C44.153 33.1275 44.2436 33.0859 44.5887 33.0859C44.8334 33.0859 44.9704 33.1324 45.0243 33.2034C45.0512 33.2377 45.061 33.2645 45.0635 33.2915H45.7683C45.7609 33.2327 45.7365 33.1495 45.6973 33.0761C45.57 32.8314 45.2641 32.6356 44.6057 32.6356C43.8642 32.6356 43.458 32.8974 43.458 33.2401C43.458 33.5705 43.688 33.7639 44.3096 33.8201C44.3953 33.8275 44.6009 33.8471 44.7306 33.8593C45.0561 33.8935 45.1442 33.9156 45.1442 34.0184C45.1442 34.1138 45.0585 34.1652 44.6988 34.1652C44.4198 34.1652 44.2558 34.1236 44.197 34.0526C44.1726 34.0233 44.1554 33.9792 44.1506 33.9499H43.4457C43.453 33.9988 43.4653 34.0771 43.4922 34.1408C43.6121 34.41 43.9254 34.6155 44.6523 34.6155C45.433 34.6155 45.8295 34.3953 45.8295 33.989Z" fill="#9A9A9A"></path><path fill-rule="evenodd" clip-rule="evenodd" d="M40.9428 34.0428C40.9428 34.175 40.9061 34.3047 40.8326 34.3904C40.7201 34.5274 40.5096 34.5861 40.238 34.5861H38.5321V32.6649H40.1914C40.4558 32.6649 40.6246 32.7286 40.7176 32.824C40.8008 32.9072 40.8376 33.0174 40.8376 33.1422C40.8376 33.267 40.8082 33.3698 40.7446 33.4457C40.6931 33.5093 40.6051 33.5582 40.5121 33.5705C40.6491 33.5876 40.7788 33.6562 40.8522 33.7516C40.9134 33.8226 40.9428 33.9303 40.9428 34.0428ZM40.118 33.3698C40.1425 33.3429 40.1572 33.3037 40.1572 33.2572C40.1572 33.2107 40.1425 33.1715 40.1107 33.1447C40.0764 33.1128 40.0127 33.1006 39.9198 33.1006H39.1733V33.4138H39.9369C40.0201 33.4138 40.0838 33.4016 40.118 33.3698ZM40.0079 34.1506C40.1229 34.1506 40.1914 34.1358 40.2306 34.0992C40.255 34.0746 40.2648 34.038 40.2648 33.9914C40.2648 33.9425 40.2526 33.9058 40.2232 33.8764C40.1866 33.8446 40.1229 33.8299 40.0152 33.8299H39.1733V34.1506H40.0079Z" fill="#9A9A9A"></path><path d="M43.2473 34.109V34.5861H41.2233V32.6649H43.2301V33.1447H41.8693V33.3918H43.1909V33.8593H41.8693V34.109H43.2473Z" fill="#9A9A9A"></path><path d="M48.211 32.6649V33.1471H47.3985V34.5861H46.728V33.1471H45.9178V32.6649H48.211Z" fill="#9A9A9A"></path><path d="M54.0679 32.6649V33.152H52.7635V33.4236H54.0067V33.9058H52.7635V34.5861H52.1051V32.6649H54.0679Z" fill="#9A9A9A"></path><path d="M57.384 33.1471V32.6649H55.0908V33.1471H55.9009V34.5861H56.5715V33.1471H57.384Z" fill="#9A9A9A"></path><path d="M59.886 32.6649V34.5861H59.2301V33.8887H58.2462V34.5861H57.5903V32.6649H58.2462V33.3649H59.2301V32.6649H59.886Z" fill="#9A9A9A"></path><path d="M62.2984 34.5861V34.109H60.9205V33.8593H62.2421V33.3918H60.9205V33.1447H62.2813V32.6649H60.2744V34.5861H62.2984Z" fill="#9A9A9A"></path><path d="M66.3559 32.6649H66.9895L66.2874 34.5861H65.568C65.568 34.5861 65.1834 33.4384 65.1808 33.4065C65.1789 33.4384 64.7917 34.5861 64.7917 34.5861H64.0749L63.3553 32.6649H64.0672C64.0672 32.6649 64.4839 33.8739 64.4839 33.9033C64.4839 33.8739 64.8679 32.6649 64.8679 32.6649H65.5559C65.5559 32.6649 65.9424 33.8739 65.9424 33.9033C65.9424 33.8739 66.3559 32.6649 66.3559 32.6649Z" fill="#9A9A9A"></path><path fill-rule="evenodd" clip-rule="evenodd" d="M68.2464 32.6208C67.3997 32.6208 66.9542 33.0223 66.9542 33.6121C66.9542 34.2777 67.4214 34.6155 68.2464 34.6155C69.1545 34.6155 69.536 34.2239 69.536 33.6121C69.536 32.9904 69.1053 32.6208 68.2464 32.6208ZM68.2464 34.1236C67.7645 34.1236 67.6249 33.9253 67.6249 33.6194C67.6249 33.3184 67.7766 33.1201 68.2438 33.1201C68.7558 33.1201 68.8704 33.3428 68.8704 33.6194C68.8704 33.9131 68.7309 34.1236 68.2464 34.1236Z" fill="#9A9A9A"></path><path fill-rule="evenodd" clip-rule="evenodd" d="M71.9597 32.8608C72.0473 32.9513 72.0889 33.0761 72.0889 33.2499C72.0889 33.3992 72.0525 33.5264 71.991 33.6121C71.9225 33.7051 71.8176 33.7834 71.6877 33.803L72.2675 34.5861H71.5385L71.0611 33.9082H70.4665V34.5861H69.8131V32.6649H71.3427C71.6461 32.6649 71.8445 32.7384 71.9597 32.8608ZM71.431 33.4114C71.4477 33.382 71.4528 33.3429 71.4528 33.3111C71.4528 33.2743 71.4477 33.2352 71.431 33.2107C71.3965 33.1471 71.328 33.1299 71.225 33.1299H70.4691V33.48H71.2371C71.3427 33.48 71.4061 33.4604 71.431 33.4114Z" fill="#9A9A9A"></path><path d="M74.311 34.5861V34.0746H73.1411V32.6649H72.478V34.5861H74.311Z" fill="#9A9A9A"></path><path fill-rule="evenodd" clip-rule="evenodd" d="M76.9063 33.59C76.9063 33.8887 76.8768 34.0502 76.7891 34.2019C76.6567 34.4442 76.3949 34.5861 75.9322 34.5861H74.5715V32.6649H75.9175C76.3776 32.6649 76.6496 32.7946 76.784 33.0174C76.8794 33.1667 76.9063 33.3257 76.9063 33.59ZM75.8074 34.1138C76.0154 34.1138 76.1331 34.0649 76.2042 33.9572C76.2483 33.8911 76.2605 33.7369 76.2605 33.6023C76.2579 33.48 76.2432 33.3502 76.2042 33.2915C76.128 33.1765 76.0135 33.1349 75.8125 33.1349H75.2275V34.1138H75.8074Z" fill="#9A9A9A"></path><path d="M50.6528 43.9299H49.6387C49.6387 43.9299 48.9769 45.8643 48.9769 45.9113C48.9769 45.8643 48.3582 43.9299 48.3582 43.9299H47.2579C47.2579 43.9299 46.6431 45.8643 46.6431 45.9113C46.6431 45.8643 45.9774 43.9299 45.9774 43.9299H44.8379L45.9891 47.0038H47.1365C47.1365 47.0038 47.7551 45.1673 47.759 45.1164C47.763 45.1673 48.3777 47.0038 48.3777 47.0038H49.529L50.6528 43.9299Z" fill="#9A9A9A"></path><path d="M52.0405 47.0038V43.9299H50.9636V47.0038H52.0405Z" fill="#9A9A9A"></path><path d="M56.229 43.9299V47.0038H55.1796L53.6564 45.2926V47.0038H52.6461V43.9299H53.7503L55.2265 45.602V43.9299H56.229Z" fill="#9A9A9A"></path><path d="M60.424 47.0038V43.9299H59.4215V45.602L57.9453 43.9299H56.8411V47.0038H57.8513V45.2926L59.3746 47.0038H60.424Z" fill="#9A9A9A"></path><path d="M64.2746 46.2402V47.0038H61.0359V43.9299H64.247V44.6974H62.0697V45.0929H64.1843V45.8408H62.0697V46.2402H64.2746Z" fill="#9A9A9A"></path><path fill-rule="evenodd" clip-rule="evenodd" d="M68.4135 44.8658C68.4135 44.5878 68.3469 44.3881 68.2061 44.2432C68.0218 44.0474 67.705 43.9299 67.2192 43.9299H64.7719V47.0038H65.8176V45.9191H66.7693L67.5328 47.0038H68.6995L67.7715 45.7508C67.9789 45.7194 68.1472 45.5941 68.2573 45.4453C68.3546 45.3083 68.4135 45.1046 68.4135 44.8658ZM67.3952 44.9637C67.3952 45.0146 67.3875 45.0773 67.36 45.1242C67.321 45.2026 67.2192 45.2339 67.0509 45.2339H65.8215V44.6739H67.031C67.1955 44.6739 67.3056 44.7013 67.36 44.8031C67.3875 44.8423 67.3952 44.905 67.3952 44.9637Z" fill="#9A9A9A"></path><path d="M47.5261 38.5068L47.1015 37.1998L46.6768 38.5068H45.3025L46.4143 39.3146L45.9897 40.6216L47.1015 39.8138L48.2132 40.6216L47.7886 39.3146L48.9004 38.5068H47.5261Z" fill="#9A9A9A"></path><path d="M52.0041 37.199L52.4375 38.506H53.8398L52.7053 39.3138L53.1386 40.6207L52.0041 39.813L50.8696 40.6207L51.303 39.3138L50.1685 38.506H51.5708L52.0041 37.199Z" fill="#9A9A9A"></path><path d="M57.3011 38.506L56.8678 37.199L56.4345 38.506H55.0321L56.1666 39.3138L55.7333 40.6207L56.8678 39.813L58.0023 40.6207L57.5689 39.3138L58.7035 38.506H57.3011Z" fill="#9A9A9A"></path><path d="M61.7316 37.199L62.165 38.506H63.5673L62.4328 39.3138L62.8662 40.6207L61.7316 39.813L60.5972 40.6207L61.0305 39.3138L59.896 38.506H61.2984L61.7316 37.199Z" fill="#9A9A9A"></path><path d="M67.0592 38.506L66.6342 37.199L66.2093 38.506H64.8352L65.9469 39.3138L65.5226 40.6207L66.6342 39.813L67.7459 40.6207L67.3216 39.3138L68.4333 38.506H67.0592Z" fill="#9A9A9A"></path><path d="M84.8884 23.1823C85.2948 22.1491 85.1181 20.9608 84.7437 19.9615C84.3495 18.91 83.6634 17.8613 82.6381 17.3082C82.5869 18.4164 82.9255 19.5111 83.2954 20.4983C83.6282 21.3862 84.0359 22.3321 84.7098 23.0664C84.8135 23.6227 84.8928 24.1774 84.9485 24.7296C84.7252 24.1464 84.3636 23.6148 83.9117 23.1873C83.33 22.6365 82.464 22.2117 81.6519 22.463C81.89 23.361 82.432 24.2219 83.0746 24.8258C83.5802 25.3011 84.2477 25.9101 85.0336 25.9341C85.0663 26.747 85.0477 27.5525 84.9805 28.3469C84.8698 27.7656 84.6324 27.2181 84.2887 26.8104C83.817 26.2502 83.1175 25.5658 82.2247 25.6803C82.2733 26.5893 82.6362 27.5205 83.1412 28.2203C83.5418 28.7764 84.0717 29.4852 84.8237 29.6683C84.7034 30.4488 84.5357 31.2163 84.3226 31.9674C84.3207 31.3923 84.194 30.8278 83.9418 30.375C83.5866 29.7365 83.033 28.9402 82.1389 28.8779C82.0077 29.7696 82.1856 30.7444 82.544 31.5197C82.8301 32.1394 83.2122 32.9297 83.9079 33.2566C83.6154 34.065 83.2698 34.8508 82.873 35.6091C83.0125 34.9554 83.0068 34.2666 82.8423 33.6467C82.6151 32.7925 82.0519 31.895 81.1469 31.6347C80.8269 32.5779 80.8711 33.6303 81.0573 34.5889C81.2103 35.3782 81.5104 36.3052 82.1837 36.8179C81.7434 37.5288 81.2564 38.2109 80.7245 38.86C81.0106 38.2235 81.152 37.5272 81.0759 36.8899C80.9652 35.9616 80.7047 34.9688 79.7568 34.474C79.2186 35.4021 79.0938 36.4431 79.0484 37.4714C79.0112 38.3028 79.1309 39.3282 79.7088 40.0045C79.0733 40.6646 78.3885 41.2824 77.657 41.8522C78.1293 41.246 78.4602 40.5348 78.53 39.8314C78.6292 38.8376 78.5812 37.7436 77.6986 37.0141C76.9447 37.802 76.4941 38.9622 76.274 39.97C76.0788 40.8609 75.8752 41.9156 76.3392 42.7924C75.408 43.4006 74.4135 43.9363 73.362 44.3901C74.1018 43.8628 74.7072 43.1395 74.9959 42.3926C75.3741 41.4138 75.6077 40.2473 74.8717 39.2669C73.8848 39.8989 73.1597 40.9772 72.5882 41.9606C72.098 42.8045 71.5904 43.9693 71.8426 44.9743C71.2602 45.1718 70.6631 45.3452 70.0519 45.4932L70.0884 45.6433C70.7015 45.4947 71.3012 45.3207 71.8855 45.1226C72.2951 46.3326 73.6365 46.7325 74.7213 46.9089C76.2669 47.1604 78.1076 46.6732 79.4272 45.6917C78.7303 44.7074 77.3095 44.6076 76.2381 44.5322L76.224 44.5313C75.0503 44.4488 73.7805 44.559 72.6004 44.8657C73.9636 44.3466 75.2397 43.6938 76.4167 42.9265L76.4327 42.9521C77.0772 43.9992 78.3725 44.0402 79.3888 43.974C80.768 43.8843 82.3597 43.046 83.2807 41.8871C82.4141 41.1269 81.1348 41.3396 80.1428 41.5044L80.1376 41.5053C79.0311 41.6892 77.8221 42.0904 76.8071 42.7083C76.9037 42.6322 76.9978 42.5517 77.09 42.4673C78.0768 41.7637 78.9869 40.9765 79.8132 40.1183C79.8247 40.1297 79.8362 40.141 79.8477 40.1522C80.6516 40.9542 81.8183 40.7426 82.7296 40.4801C83.952 40.1281 85.2192 39.0662 85.8266 37.847C84.8852 37.3197 83.76 37.7542 82.8852 38.098C81.9232 38.4756 80.9063 39.0798 80.1242 39.8502C80.2048 39.7484 80.2823 39.642 80.3552 39.532C81.0816 38.7117 81.7357 37.8333 82.3104 36.9066L82.3354 36.922L82.3418 36.926C83.25 37.5105 84.2791 37.0861 85.0944 36.6687C86.201 36.1023 87.0906 34.8577 87.4746 33.6336C86.4928 33.3192 85.5232 33.9363 84.7693 34.4251C83.9437 34.9599 83.1079 35.7228 82.5344 36.5978C82.5767 36.5114 82.6164 36.4231 82.6528 36.3332C83.2039 35.3717 83.6717 34.3624 84.0506 33.3155L84.0704 33.3221L84.0736 33.3234C84.8999 33.6362 85.8196 33.148 86.4192 32.6127C87.2525 31.8683 87.8407 30.7238 87.9783 29.6056C87.1168 29.494 86.3047 30.1606 85.7498 30.7292C85.1111 31.384 84.537 32.158 84.1844 33.0177C84.2106 32.9239 84.233 32.8286 84.2516 32.7323C84.5722 31.7487 84.8154 30.7344 84.9754 29.6975L84.9997 29.7007C85.8701 29.8416 86.6752 29.1793 87.1565 28.5364C87.8336 27.6317 88.1824 26.3797 88.0947 25.2449C87.225 25.3058 86.562 26.1337 86.1325 26.8035C85.6346 27.5793 85.2218 28.4573 85.0413 29.3759C85.0471 29.3024 85.0503 29.2285 85.0516 29.1544C85.184 28.0989 85.2314 27.0217 85.1879 25.9313C86.0768 25.9001 86.7354 25.0748 87.0746 24.3429C87.5591 23.296 87.6371 21.9726 87.3139 20.8574C86.4672 21.095 85.9949 22.0661 85.7165 22.8137C85.3952 23.6757 85.1712 24.6159 85.1693 25.5505C85.1232 24.7664 85.0298 23.976 84.8884 23.1823Z" fill="#9A9A9A"></path></svg>