<svg xmlns="http://www.w3.org/2000/svg" width="114" height="64" viewBox="0 0 114 64" fill="none"><path d="M48.6294 25.9974C48.6294 25.8999 48.6294 24.4808 48.6294 24.4808H47.7862C47.7862 24.4808 47.7862 25.8779 47.7862 25.922C47.7862 26.18 47.5471 26.353 47.1443 26.353C46.7227 26.353 46.493 26.1862 46.493 25.9188C46.493 25.8748 46.493 24.4808 46.493 24.4808H45.6403C45.6403 24.4808 45.6403 25.8055 45.6403 25.9188C45.6403 26.6677 46.2538 26.9855 47.1097 26.9855C48.0253 26.9855 48.6294 26.6645 48.6294 25.9974Z" fill="#9A9A9A"></path><path d="M51.4693 26.9508V26.2932H49.9653V24.4808H49.1125V26.9508H51.4693Z" fill="#9A9A9A"></path><path d="M54.0036 25.1007V24.4808H51.0553V25.1007H52.0968V26.9508H52.9589V25.1007H54.0036Z" fill="#9A9A9A"></path><path d="M55.1371 26.9508V24.4808H54.2719V26.9508H55.1371Z" fill="#9A9A9A"></path><path d="M59.107 26.9508V24.4808H58.0403L57.3669 25.9629L56.7251 24.4808H55.6238V26.9508H56.4261V25.6168L57.0051 26.9508H57.7225L58.3078 25.6168V26.9508H59.107Z" fill="#9A9A9A"></path><path d="M60.4435 26.4946H61.7776L61.9948 26.9508H62.9041L61.6581 24.4808H60.6418L59.3234 26.9508H60.2138L60.4435 26.4946ZM61.5102 25.9408H60.7204L61.0319 25.3461L61.1263 25.1196L61.2144 25.343L61.5102 25.9408Z" fill="#9A9A9A"></path><path d="M65.5787 25.1007V24.4808H62.6305V25.1007H63.672V26.9508H64.5342V25.1007H65.5787Z" fill="#9A9A9A"></path><path d="M68.4458 26.9508V26.3373H66.675V26.0163H68.3735V25.4154H66.675V25.0975H68.4241V24.4808H65.8442V26.9508H68.4458Z" fill="#9A9A9A"></path><path d="M52.0708 28.2639H51.2559C51.2559 28.2639 50.7241 29.8183 50.7241 29.856C50.7241 29.8183 50.2269 28.2639 50.2269 28.2639H49.3428C49.3428 28.2639 48.8488 29.8183 48.8488 29.856C48.8488 29.8183 48.3138 28.2639 48.3138 28.2639H47.3982L48.3233 30.7339H49.2452C49.2452 30.7339 49.7424 29.2582 49.7455 29.2173C49.7487 29.2582 50.2427 30.7339 50.2427 30.7339H51.1677L52.0708 28.2639Z" fill="#9A9A9A"></path><path d="M53.186 30.7339V28.2639H52.3207V30.7339H53.186Z" fill="#9A9A9A"></path><path d="M56.5517 30.7339V28.2639H55.7462V29.6075L54.56 28.2639H53.6726V30.7339H54.4844V29.3589L55.7085 30.7339H56.5517Z" fill="#9A9A9A"></path><path d="M59.9225 30.7339V28.2639H59.117V29.6075L57.9308 28.2639H57.0435V30.7339H57.8552V29.3589L59.0792 30.7339H59.9225Z" fill="#9A9A9A"></path><path d="M63.0165 30.7339V30.1204H61.245V29.7994H62.9441V29.1984H61.245V28.8806H62.9945V28.2639H60.4143V30.7339H63.0165Z" fill="#9A9A9A"></path><path d="M66.3427 29.0159C66.3427 28.7926 66.2889 28.632 66.1757 28.5156C66.0278 28.3583 65.7731 28.2639 65.3827 28.2639H63.4164V30.7339H64.2565V29.8624H65.0211L65.6349 30.7339H66.5725L65.8269 29.727C65.9933 29.7019 66.1289 29.6012 66.2166 29.4816C66.2953 29.3715 66.3427 29.2079 66.3427 29.0159ZM65.5248 29.0946C65.5248 29.1355 65.5184 29.1858 65.496 29.2236C65.4646 29.2865 65.3827 29.3117 65.2477 29.3117H64.2596V28.8617H65.2317C65.3641 28.8617 65.4525 28.8838 65.496 28.9656C65.5184 28.997 65.5248 29.0474 65.5248 29.0946Z" fill="#9A9A9A"></path><path d="M48.9842 33.164C48.9842 33.1236 48.9842 31.957 48.9842 31.957H48.6896C48.6896 31.957 48.6896 33.1188 48.6896 33.145C48.6896 33.4253 48.4259 33.5846 48.0457 33.5846C47.5967 33.5846 47.3757 33.4135 47.3757 33.1426C47.3757 33.1165 47.3757 31.957 47.3757 31.957H47.0787C47.0787 31.957 47.0787 33.088 47.0787 33.1331C47.0787 33.6273 47.4636 33.8459 48.0339 33.8459C48.6231 33.8459 48.9842 33.613 48.9842 33.164Z" fill="#9A9A9A"></path><path d="M51.0981 33.8221V33.5489H49.8127V31.957H49.5157V33.8221H51.0981Z" fill="#9A9A9A"></path><path d="M52.7855 32.2279V31.957H50.804V32.2279H51.645V33.8221H51.9444V32.2279H52.7855Z" fill="#9A9A9A"></path><path d="M54.8973 32.4845C54.8973 32.3514 54.8687 32.254 54.8189 32.1756C54.731 32.0449 54.5622 31.957 54.2819 31.957H53.075V33.8221H53.3672V33.0357H54.2177L54.7381 33.8221H55.0802L54.5171 32.9858C54.6597 32.9692 54.7713 32.8884 54.8307 32.7838C54.8735 32.7126 54.8973 32.608 54.8973 32.4845ZM54.6026 32.5082C54.6026 32.5605 54.5908 32.6247 54.5694 32.6674C54.5314 32.7363 54.4435 32.7719 54.3009 32.7743H53.3695C53.3695 32.7696 53.3695 32.2231 53.3695 32.2231H54.2463C54.4245 32.2231 54.5195 32.2659 54.5694 32.3467C54.5908 32.3847 54.6026 32.4488 54.6026 32.5082Z" fill="#9A9A9A"></path><path d="M55.7428 33.3612H56.9047L57.1422 33.8221H57.4606L56.515 31.957H56.1657L55.1892 33.8221H55.5004L55.7428 33.3612ZM56.7811 33.0974H55.8711L56.2489 32.3823L56.3321 32.2089L56.4152 32.3823L56.7811 33.0974Z" fill="#9A9A9A"></path><path d="M60.474 33.6439C60.5476 33.5584 60.5809 33.4372 60.5809 33.3065C60.5809 33.183 60.5453 33.0594 60.4716 32.9834C60.3979 32.9122 60.2792 32.8528 60.1485 32.8409C60.2245 32.829 60.2839 32.7815 60.3243 32.7316C60.3885 32.6579 60.4264 32.5391 60.4264 32.4203C60.4264 32.2944 60.3885 32.1803 60.3076 32.1019C60.2198 32.0141 60.0701 31.957 59.861 31.957H58.6064V33.8221H59.9536C60.2055 33.8221 60.3813 33.758 60.474 33.6439ZM60.1199 32.4797C60.1199 32.5629 60.0938 32.6365 60.0487 32.6793C60.0035 32.7292 59.9275 32.7506 59.8467 32.7506H58.8963V32.2136H59.792C59.9014 32.2136 59.9845 32.235 60.0415 32.2873C60.0914 32.3348 60.1199 32.4037 60.1199 32.4797ZM60.215 33.4633C60.1556 33.5299 60.0534 33.5632 59.9037 33.5632H58.8963V33.0096H59.9109C60.0487 33.0096 60.1437 33.0381 60.2007 33.0927C60.253 33.1426 60.2744 33.2068 60.2744 33.2804C60.2744 33.3565 60.2578 33.4206 60.215 33.4633Z" fill="#9A9A9A"></path><path d="M62.7379 33.8221V33.5489H61.2886V33.0167H62.6808V32.7458H61.2886V32.2279H62.7212V31.957H60.9987V33.8221H62.7379Z" fill="#9A9A9A"></path><path d="M65.0589 33.2708C65.0589 32.9667 64.8573 32.8099 64.3607 32.7529C64.2773 32.741 64.0967 32.722 63.9993 32.7101C63.5384 32.6555 63.3982 32.5937 63.3982 32.4345C63.3982 32.2801 63.5526 32.1922 64.0183 32.1922C64.3792 32.1922 64.5648 32.2635 64.6576 32.3917C64.6839 32.4274 64.698 32.4702 64.705 32.5034H65.0231C65.0141 32.4488 64.9924 32.3727 64.9591 32.311C64.8311 32.09 64.5674 31.9308 64.0183 31.9308C63.3626 31.9284 63.0917 32.1661 63.0917 32.4607C63.0917 32.7553 63.3032 32.9049 63.852 32.9691C63.9471 32.981 64.1157 33 64.1989 33.0095C64.6244 33.0617 64.7575 33.1259 64.7575 33.3041C64.7575 33.4681 64.6052 33.5869 64.1181 33.5869C63.719 33.5869 63.5051 33.5156 63.4196 33.3778C63.3935 33.3398 63.3768 33.2804 63.3745 33.24H63.0608C63.068 33.3255 63.0917 33.4182 63.1345 33.4918C63.258 33.7176 63.5479 33.8482 64.1086 33.8482C64.7786 33.8482 65.0589 33.632 65.0589 33.2708Z" fill="#9A9A9A"></path><path d="M67.1895 32.2279V31.957H65.208V32.2279H66.049V33.8221H66.3485V32.2279H67.1895Z" fill="#9A9A9A"></path><path d="M46.2376 35.4432C46.2376 35.2532 46.1996 35.1248 46.1354 35.0274C46.0452 34.8872 45.8693 34.8136 45.5628 34.8136H44.3844V36.6787H44.679V36.0704C44.679 36.0704 45.5106 36.0704 45.551 36.0704C45.8385 36.0681 46.0357 36.0016 46.1402 35.8495C46.2067 35.7568 46.2376 35.6238 46.2376 35.4432ZM45.9383 35.4432C45.9383 35.5382 45.9287 35.6095 45.8979 35.6571C45.8432 35.7449 45.7315 35.7996 45.5011 35.7996C45.4797 35.7996 44.679 35.7996 44.679 35.7996V35.0797H45.5106C45.7268 35.0797 45.8385 35.1296 45.8979 35.227C45.9263 35.2697 45.9383 35.3482 45.9383 35.4432Z" fill="#9A9A9A"></path><path d="M48.3882 36.6787V36.4055H46.9389V35.8732H48.3312V35.6024H46.9389V35.0844H48.3716V34.8136H46.649V36.6787H48.3882Z" fill="#9A9A9A"></path><path d="M50.6546 35.341C50.6546 35.208 50.6261 35.1106 50.5762 35.0322C50.4883 34.9015 50.3196 34.8136 50.0393 34.8136H48.8323V36.6787H49.1245V35.8923H49.9751L50.4954 36.6787H50.8376L50.2745 35.8423C50.417 35.8258 50.5287 35.7449 50.5881 35.6404C50.6309 35.5691 50.6546 35.4646 50.6546 35.341ZM50.36 35.3648C50.36 35.4171 50.3481 35.4812 50.3267 35.524C50.2887 35.5929 50.2008 35.6285 50.0583 35.6309H49.1269C49.1269 35.6261 49.1269 35.0797 49.1269 35.0797H50.0036C50.1818 35.0797 50.2768 35.1225 50.3267 35.2032C50.3481 35.2412 50.36 35.3054 50.36 35.3648Z" fill="#9A9A9A"></path><path d="M52.8574 35.0844V34.8136H51.199V36.6787H51.4936V35.8852H52.7956V35.6071H51.4936V35.0844H52.8574Z" fill="#9A9A9A"></path><path d="M54.2097 34.7803C53.8129 34.7803 53.5397 34.8777 53.3448 35.082C53.1809 35.2412 53.1096 35.4622 53.1096 35.7401C53.1096 36.0443 53.2023 36.2724 53.3734 36.4268C53.5563 36.6098 53.8367 36.7048 54.2097 36.7048C54.5946 36.7048 54.8939 36.6098 55.0722 36.4173C55.2266 36.2605 55.3074 36.0372 55.3074 35.7378C55.3074 35.4479 55.2385 35.2269 55.0746 35.0701C54.8868 34.8753 54.6065 34.7803 54.2097 34.7803ZM54.2097 36.4387C53.9483 36.4387 53.763 36.3817 53.6228 36.2676C53.4803 36.1512 53.4114 35.973 53.4114 35.7449C53.4114 35.5311 53.4708 35.3529 53.5848 35.2459C53.7155 35.1224 53.9151 35.0488 54.2073 35.0488C54.509 35.0488 54.6968 35.12 54.8369 35.2436C54.9558 35.3481 55.008 35.5334 55.008 35.7425C55.008 35.954 54.9534 36.1346 54.8322 36.2438C54.692 36.3745 54.4948 36.4387 54.2097 36.4387Z" fill="#9A9A9A"></path><path d="M57.5366 35.341C57.5366 35.208 57.508 35.1106 57.4582 35.0322C57.3702 34.9015 57.2015 34.8136 56.9212 34.8136H55.7142V36.6787H56.0065V35.8923H56.857L57.3774 36.6787H57.7195L57.1564 35.8423C57.2989 35.8258 57.4106 35.7449 57.47 35.6404C57.5128 35.5691 57.5366 35.4646 57.5366 35.341ZM57.2419 35.3648C57.2419 35.4171 57.2301 35.4812 57.2087 35.524C57.1707 35.5929 57.0827 35.6285 56.9402 35.6309H56.0088C56.0088 35.6261 56.0088 35.0797 56.0088 35.0797H56.8856C57.0637 35.0797 57.1588 35.1225 57.2087 35.2032C57.2301 35.2412 57.2419 35.3054 57.2419 35.3648Z" fill="#9A9A9A"></path><path d="M60.3785 36.6787V34.8136H59.9936L59.2261 36.3484L58.4729 34.8136H58.0809V36.6787H58.3637V35.2436L59.0669 36.6787H59.3758L60.0957 35.2436V36.6787H60.3785Z" fill="#9A9A9A"></path><path d="M61.2128 36.2178H62.3746L62.6122 36.6787H62.9306L61.9849 34.8136H61.6357L60.6592 36.6787H60.9704L61.2128 36.2178ZM62.2511 35.954H61.3411L61.7188 35.2389L61.802 35.0654L61.8852 35.2389L62.2511 35.954Z" fill="#9A9A9A"></path><path d="M65.0711 36.6787V34.8136H64.7883V36.2629L63.5531 34.8136H63.218V36.6787H63.5055V35.2199L64.7505 36.6787H65.0711Z" fill="#9A9A9A"></path><path d="M67.6342 35.9825H67.3251C67.3155 36.068 67.2822 36.1536 67.2227 36.2177C67.0947 36.3674 66.8906 36.4315 66.577 36.4315C66.3133 36.4315 66.0304 36.3579 65.8947 36.1654C65.8237 36.0752 65.7782 35.9421 65.7782 35.7425C65.7782 35.5643 65.8096 35.4313 65.8781 35.341C65.992 35.1581 66.232 35.063 66.5699 35.063C66.8976 35.063 67.1043 35.1533 67.2138 35.2792C67.2752 35.3457 67.311 35.4242 67.3226 35.5168H67.6317C67.6221 35.4123 67.5888 35.2887 67.5178 35.1842C67.3654 34.9584 67.0851 34.7803 66.5718 34.7803C66.0829 34.7803 65.7904 34.9371 65.6285 35.1723C65.5242 35.3077 65.4717 35.4978 65.4717 35.7401C65.4717 36.011 65.5363 36.2106 65.6477 36.3508C65.8096 36.5718 66.1206 36.7048 66.591 36.7048C67.0736 36.7048 67.361 36.5599 67.5037 36.3294C67.5843 36.2177 67.6246 36.0847 67.6342 35.9825Z" fill="#9A9A9A"></path><path d="M69.7604 36.6787V36.4055H68.3108V35.8732H69.7034V35.6024H68.3108V35.0844H69.7438V34.8136H68.0209V36.6787H69.7604Z" fill="#9A9A9A"></path><path d="M48.0316 38.5315L48.3869 39.6251H49.5368L48.6066 40.301L48.9619 41.3946L48.0316 40.7188L47.1013 41.3946L47.4567 40.301L46.5264 39.6251H47.6763L48.0316 38.5315Z" fill="#9A9A9A"></path><path d="M52.1337 38.5315L52.4963 39.6251H53.6697L52.7204 40.301L53.083 41.3946L52.1337 40.7187L51.1845 41.3946L51.547 40.301L50.5978 39.6251H51.7712L52.1337 38.5315Z" fill="#9A9A9A"></path><path d="M56.2034 38.5315L56.566 39.6251H57.7393L56.7901 40.301L57.1527 41.3946L56.2034 40.7187L55.2542 41.3946L55.6167 40.301L54.6675 39.6251H55.8409L56.2034 38.5315Z" fill="#9A9A9A"></path><path d="M60.2732 38.5315L60.6358 39.6251H61.8092L60.8599 40.301L61.2225 41.3946L60.2732 40.7187L59.324 41.3946L59.6866 40.301L58.7373 39.6251H59.9107L60.2732 38.5315Z" fill="#9A9A9A"></path><path d="M64.3754 38.5315L64.7306 39.6251H65.8807L64.9501 40.301L65.3053 41.3946L64.3754 40.7187L63.445 41.3946L63.8004 40.301L62.8701 39.6251H64.02L64.3754 38.5315Z" fill="#9A9A9A"></path><path d="M50.0246 20.0808L50.2933 20.9077H51.1628L50.4594 21.4187L50.7281 22.2455L50.0246 21.7346L49.3213 22.2455L49.59 21.4187L48.8866 20.9077H49.756L50.0246 20.0808Z" fill="#9A9A9A"></path><path d="M53.1263 20.0796L53.4005 20.9065H54.2876L53.5699 21.4175L53.844 22.2443L53.1263 21.7333L52.4085 22.2443L52.6827 21.4175L51.965 20.9065H52.8521L53.1263 20.0796Z" fill="#9A9A9A"></path><path d="M56.2033 20.0796L56.4775 20.9065H57.3646L56.6469 21.4175L56.921 22.2443L56.2033 21.7333L55.4856 22.2443L55.7598 21.4175L55.042 20.9065H55.9292L56.2033 20.0796Z" fill="#9A9A9A"></path><path d="M59.2807 20.0796L59.5548 20.9065H60.442L59.7243 21.4175L59.9984 22.2443L59.2807 21.7333L58.563 22.2443L58.8371 21.4175L58.1194 20.9065H59.0066L59.2807 20.0796Z" fill="#9A9A9A"></path><path d="M62.3818 20.0796L62.6505 20.9065H63.5199L62.8166 21.4175L63.0852 22.2443L62.3818 21.7333L61.6785 22.2443L61.9471 21.4175L61.2438 20.9065H62.1132L62.3818 20.0796Z" fill="#9A9A9A"></path><path fill-rule="evenodd" clip-rule="evenodd" d="M37.6409 34.9635C36.4553 27.5453 39.9156 20.2059 46.8431 17.0542L46.907 17.1947C40.0493 20.3147 36.6175 27.5823 37.7934 34.9391C39.0943 43.0782 45.6603 47.9595 53.701 48.1948L53.6964 48.3492C45.5931 48.112 38.9553 43.1866 37.6409 34.9635Z" fill="#9A9A9A"></path><path d="M45.3411 18.9474C44.0609 18.9766 42.5626 19.6985 41.6785 20.7471C42.3875 21.4054 43.5282 21.162 44.3491 21.0274C45.5208 20.8353 46.7667 20.463 47.8723 19.9361C47.4177 18.9684 46.1932 18.928 45.3411 18.9474Z" fill="#9A9A9A"></path><path d="M44.3343 17.3681C43.576 18.5493 42.6723 19.7232 41.6889 20.757C40.8661 19.9846 41.3627 18.6993 41.6985 17.9C42.3069 16.4517 43.7654 15.2028 45.2902 14.5637C45.7087 15.5158 44.7997 16.6431 44.3343 17.3681Z" fill="#9A9A9A"></path><path d="M41.6365 22.2597C40.4378 22.6858 39.4077 23.8853 38.8905 25.0895C39.7525 25.4903 40.7324 24.9115 41.4492 24.5262C42.4335 23.997 43.4378 23.2669 44.2279 22.422C43.514 21.6687 42.43 21.9777 41.6365 22.2597Z" fill="#9A9A9A"></path><path d="M40.1834 21.0793C39.921 22.4265 39.4811 23.8229 38.9033 25.0956C37.8948 24.6199 37.9332 23.2576 37.9764 22.3907C38.0501 20.9109 38.8779 19.2235 40.0305 18.1511C40.7361 18.9076 40.3506 20.2211 40.1834 21.0793Z" fill="#9A9A9A"></path><path d="M39.33 26.536C38.3311 27.3239 37.7257 28.7842 37.5854 30.0882C38.5303 30.1967 39.2856 29.3368 39.8476 28.7468C40.6127 27.9436 41.337 26.9361 41.797 25.8821C40.8962 25.3907 39.9806 26.0227 39.33 26.536Z" fill="#9A9A9A"></path><path d="M37.5994 25.8708C37.7775 27.2312 37.7779 28.703 37.5997 30.0901C36.5008 29.9551 36.1363 28.6357 35.921 27.8079C35.5493 26.3792 35.7985 24.5337 36.5226 23.1448C37.4275 23.6457 37.4856 25.0012 37.5994 25.8708Z" fill="#9A9A9A"></path><path d="M38.5461 31.2039C37.7557 32.3617 37.4777 34.1762 37.8332 35.6346C38.8777 35.3873 39.3954 34.2048 39.8112 33.3697C40.3637 32.2597 40.8307 30.9648 40.9979 29.6943C39.865 29.4586 39.0667 30.4412 38.5461 31.2039Z" fill="#9A9A9A"></path><path d="M36.4711 31.0868C37.0869 32.5125 37.5675 34.0818 37.8487 35.6311C36.6508 35.8884 35.7887 34.6306 35.2878 33.7965C34.3961 32.3118 34.1364 30.2537 34.463 28.4775C35.5594 28.6974 36.0959 30.2183 36.4711 31.0868Z" fill="#9A9A9A"></path><path d="M39.0989 36.2413C38.6746 37.6458 38.9695 39.5553 39.8288 40.8757C40.7731 40.2609 40.9037 38.9078 41.0376 37.9377C41.214 36.6574 41.2971 35.2392 41.0779 33.9116C39.8701 34.0658 39.3824 35.303 39.0989 36.2413Z" fill="#9A9A9A"></path><path d="M37.0002 36.8426C38.0598 38.0585 39.0372 39.4447 39.8433 40.8667C38.75 41.5492 37.4671 40.6168 36.6891 39.9569C35.3088 38.7865 34.4126 36.797 34.2001 34.9214C35.3487 34.7671 36.361 36.1091 37.0002 36.8426Z" fill="#9A9A9A"></path><path d="M41.3259 41.0219C41.417 42.6568 42.4814 44.3723 43.8986 45.3488C44.583 44.4118 44.154 42.976 43.9205 41.9739C43.6062 40.6246 43.1712 39.2195 42.5248 37.9728C41.3975 38.5685 41.2659 39.9453 41.3259 41.0219Z" fill="#9A9A9A"></path><path d="M39.4198 42.4028C40.9552 43.256 42.4862 44.2628 43.9097 45.3341C43.0572 46.4567 41.3533 46.0091 40.297 45.6482C38.4356 45.0124 36.7762 43.3362 35.9094 41.474C37.0084 40.9079 38.5128 41.8988 39.4198 42.4028Z" fill="#9A9A9A"></path><path d="M45.6988 45.016C46.6204 46.6978 48.7204 47.7949 50.698 48.0591C50.9109 46.8364 49.5879 45.6258 48.867 44.8339C47.8406 43.7064 46.7711 42.5364 45.572 41.5615C44.6737 42.6046 45.1486 44.0119 45.6988 45.016Z" fill="#9A9A9A"></path><path d="M44.3827 47.1474C46.4775 47.3652 48.6078 47.6787 50.7014 48.0402C50.5015 49.5829 48.0535 49.8319 46.9421 49.9229C44.6634 50.1097 42.1285 49.1937 40.3634 47.6517C41.2401 46.6202 43.2669 47.0314 44.3827 47.1474Z" fill="#9A9A9A"></path><path d="M48.4176 15.7594C47.0112 16.1606 45.365 16.9218 44.5518 18.3268C46.0279 18.1659 47.4787 17.6407 48.8975 17.2405C50.4868 16.7922 52.1602 16.4569 53.6989 15.8381C52.0138 15.1639 50.0273 15.3001 48.4176 15.7594Z" fill="#9A9A9A"></path><path fill-rule="evenodd" clip-rule="evenodd" d="M75.626 34.9391C76.8016 27.5823 73.37 20.3149 66.5124 17.1947L66.5764 17.0542C73.5037 20.206 76.9642 27.5453 75.7783 34.9635C74.4644 43.1866 67.8263 48.112 59.723 48.3492L59.7185 48.1948C67.7591 47.9595 74.3248 43.0782 75.626 34.9391Z" fill="#9A9A9A"></path><path d="M68.0784 18.9474C69.3584 18.9766 70.8567 19.6985 71.7412 20.7471C71.032 21.4054 69.8909 21.162 69.0704 21.0274C67.8986 20.8353 66.6525 20.463 65.5472 19.9361C66.0016 18.9684 67.226 18.928 68.0784 18.9474Z" fill="#9A9A9A"></path><path d="M69.0852 17.3681C69.8436 18.5493 70.7472 19.7232 71.7303 20.757C72.5533 19.9846 72.0567 18.6993 71.7207 17.9C71.1127 16.4517 69.6541 15.2028 68.129 14.5637C67.7104 15.5158 68.6199 16.6431 69.0852 17.3681Z" fill="#9A9A9A"></path><path d="M71.7834 22.2597C72.9821 22.6858 74.0119 23.8853 74.529 25.0895C73.6669 25.4903 72.6871 24.9115 71.9703 24.5262C70.9859 23.997 69.9818 23.2669 69.192 22.422C69.9056 21.6687 70.9898 21.9777 71.7834 22.2597Z" fill="#9A9A9A"></path><path d="M73.2362 21.0793C73.4986 22.4265 73.9383 23.8229 74.5162 25.0956C75.5249 24.6199 75.4865 23.2576 75.4429 22.3907C75.3693 20.9109 74.5418 19.2235 73.3892 18.1511C72.6833 18.9076 73.0692 20.2211 73.2362 21.0793Z" fill="#9A9A9A"></path><path d="M74.0894 26.536C75.0884 27.3239 75.6938 28.7842 75.834 30.0882C74.8894 30.1967 74.1342 29.3368 73.5722 28.7468C72.8068 27.9436 72.0823 26.9361 71.6228 25.8821C72.5233 25.3907 73.4391 26.0227 74.0894 26.536Z" fill="#9A9A9A"></path><path d="M75.8205 25.8708C75.642 27.2311 75.642 28.703 75.8199 30.0901C76.9188 29.9551 77.2836 28.6357 77.4986 27.8079C77.8705 26.3792 77.6209 24.5337 76.897 23.1448C75.992 23.6457 75.9338 25.0012 75.8205 25.8708Z" fill="#9A9A9A"></path><path d="M74.8734 31.2039C75.6638 32.3617 75.9415 34.1762 75.5863 35.6346C74.5418 35.3873 74.0241 34.2049 73.6081 33.3697C73.0557 32.2597 72.5885 30.9648 72.4215 29.6943C73.5543 29.4586 74.353 30.4412 74.8734 31.2039Z" fill="#9A9A9A"></path><path d="M76.9482 31.0868C76.3325 32.5125 75.8519 34.0818 75.5709 35.6311C76.7684 35.8884 77.6304 34.6306 78.1316 33.7965C79.0231 32.3118 79.2829 30.2537 78.9565 28.4775C77.8602 28.6974 77.3232 30.2183 76.9482 31.0868Z" fill="#9A9A9A"></path><path d="M74.3203 36.2413C74.7446 37.6458 74.4502 39.5553 73.5907 40.8757C72.6467 40.2609 72.5155 38.9078 72.3817 37.9377C72.2057 36.6574 72.1225 35.2392 72.3414 33.9116C73.5491 34.0658 74.0368 35.303 74.3203 36.2413Z" fill="#9A9A9A"></path><path d="M76.4189 36.8426C75.3597 38.0585 74.3825 39.4447 73.576 40.8667C74.6692 41.5492 75.9524 40.6168 76.7306 39.9569C78.1105 38.7865 79.0071 36.797 79.2196 34.9214C78.0708 34.7671 77.0583 36.1091 76.4189 36.8426Z" fill="#9A9A9A"></path><path d="M72.0931 41.0219C72.0023 42.6568 70.9379 44.3723 69.521 45.3488C68.8362 44.4118 69.2656 42.9761 69.4986 41.9739C69.8128 40.6246 70.248 39.2195 70.8944 37.9728C72.0221 38.5685 72.1533 39.9453 72.0931 41.0219Z" fill="#9A9A9A"></path><path d="M73.9997 42.4028C72.4644 43.256 70.9335 44.2628 69.5101 45.3341C70.3626 46.4567 72.0663 46.0091 73.1223 45.6482C74.9841 45.0124 76.6436 43.3362 77.5101 41.474C76.4113 40.9079 74.9066 41.8988 73.9997 42.4028Z" fill="#9A9A9A"></path><path d="M67.7207 45.016C66.7991 46.6978 64.6992 47.7949 62.7214 48.0591C62.5085 46.8364 63.8314 45.6258 64.5527 44.8339C65.5786 43.7064 66.648 42.5364 67.8474 41.5615C68.746 42.6046 68.2704 44.0119 67.7207 45.016Z" fill="#9A9A9A"></path><path d="M69.0365 47.1474C66.9418 47.3652 64.8118 47.6787 62.7179 48.0402C62.9178 49.5829 65.3661 49.8319 66.4771 49.9229C68.7562 50.1097 71.2912 49.1937 73.0557 47.6517C72.1795 46.6202 70.1526 47.0314 69.0365 47.1474Z" fill="#9A9A9A"></path><path d="M65.0019 15.7594C66.408 16.1606 68.0547 16.9218 68.8675 18.3268C67.3917 18.1659 65.9408 17.6407 64.5219 17.2405C62.9327 16.7922 61.2593 16.4569 59.7206 15.8381C61.4058 15.1639 63.3921 15.3001 65.0019 15.7594Z" fill="#9A9A9A"></path><path d="M57.6243 15.0322L56.9027 13.4399L56.1946 15.0026L54.548 13.9816L55.6061 16.2052H58.2375L59.2574 13.9816L57.6243 15.0322Z" fill="#9A9A9A"></path><path d="M58.2207 16.5508H55.5851V16.9397H58.2207V16.5508Z" fill="#9A9A9A"></path><path d="M57.0911 46.6379L57.5159 47.9449H58.8901L57.7783 48.7527L58.203 50.0597L57.0911 49.2519L55.9793 50.0597L56.404 48.7527L55.2922 47.9449H56.6665L57.0911 46.6379Z" fill="#9A9A9A"></path></svg>